<?xml version="1.0" standalone="no"?>
<!DOCTYPE svg PUBLIC "-//W3C//DTD SVG 1.1//EN" "http://www.w3.org/Graphics/SVG/1.1/DTD/svg11.dtd" >
<svg xmlns="http://www.w3.org/2000/svg" xmlns:xlink="http://www.w3.org/1999/xlink" version="1.1" viewBox="-10 0 1034 1024">
  <g transform="matrix(1 0 0 -1 0 960)">
   <path fill="currentColor"
d="M178 182q-22 29 -39.5 60.5t-29.5 65.5t-18 69t-6 71t6 71t18 69t29.5 65.5t39.5 60.5q31 -24 55.5 -53.5t41.5 -64.5q18 -35 26.5 -72t8.5 -76t-8.5 -76t-26.5 -72q-17 -35 -41.5 -64.5t-55.5 -53.5v0v0zM512 21q-38 0 -75 6.5t-72 19.5t-66.5 31.5t-60.5 43.5
q37 30 65.5 66.5t49.5 78.5q21 43 31.5 88t10.5 93t-10.5 93t-31.5 88q-21 42 -49.5 78.5t-65.5 66.5q29 25 60.5 43.5t66.5 31.5t72 19.5t75 6.5t75 -6.5t72 -19.5t66.5 -31.5t60.5 -43.5q-37 -30 -65.5 -66.5t-49.5 -78.5q-21 -43 -31.5 -88t-10.5 -93t10.5 -93t31.5 -88
q21 -42 49.5 -78.5t65.5 -66.5q-29 -25 -60.5 -43.5t-66.5 -31.5t-72 -19.5t-75 -6.5v0zM846 182q-31 24 -55.5 53.5t-41.5 64.5q-18 35 -26.5 72t-8.5 76t8.5 76t26.5 72q17 35 41.5 64.5t55.5 53.5q22 -29 39.5 -60.5t29.5 -65.5t18 -69t6 -71t-6 -71t-18 -69t-29.5 -65.5
t-39.5 -60.5v0z" />
  </g>

</svg>
