<?xml version="1.0" standalone="no"?>
<!DOCTYPE svg PUBLIC "-//W3C//DTD SVG 1.1//EN" "http://www.w3.org/Graphics/SVG/1.1/DTD/svg11.dtd" >
<svg xmlns="http://www.w3.org/2000/svg" xmlns:xlink="http://www.w3.org/1999/xlink" version="1.1" viewBox="-10 0 1034 1024">
  <g transform="matrix(1 0 0 -1 0 960)">
   <path fill="currentColor"
d="M43 448q0 97 37 183q36 85 100 149t149 100q86 37 183 37t183 -37q85 -36 149 -100t100 -149q37 -86 37 -183t-37 -183q-36 -85 -100 -149t-149 -100q-86 -37 -183 -37t-183 37q-85 36 -149 100t-100 149q-37 86 -37 183v0zM512 832q-80 0 -149 -30q-70 -30 -122.5 -82.5
t-82.5 -122.5q-30 -69 -30 -149t30 -149q30 -70 82.5 -122.5t122.5 -82.5q69 -30 149 -30t149 30q70 30 122.5 82.5t82.5 122.5q30 69 30 149t-30 149q-30 70 -82.5 122.5t-122.5 82.5q-69 30 -149 30zM670 606q13 -12 13 -30t-13 -30l-256 -256q-12 -13 -30 -13t-30 13
q-13 12 -13 30t13 30l256 256q12 13 30 13t30 -13v0zM354 606q12 13 30 13t30 -13l256 -256q13 -12 13 -30t-13 -30q-12 -13 -30 -13t-30 13l-256 256q-13 12 -13 30t13 30v0z" />
  </g>

</svg>
