<?xml version="1.0" standalone="no"?>
<!DOCTYPE svg PUBLIC "-//W3C//DTD SVG 1.1//EN" "http://www.w3.org/Graphics/SVG/1.1/DTD/svg11.dtd" >
<svg xmlns="http://www.w3.org/2000/svg" xmlns:xlink="http://www.w3.org/1999/xlink" version="1.1" viewBox="-10 0 1034 1024">
  <g transform="matrix(1 0 0 -1 0 960)">
   <path fill="currentColor"
d="M934 747h-166v128q0 17 -12.5 29.5t-30.5 12.5q-17 0 -29.5 -12.5t-12.5 -29.5v-128h-167q-19 0 -31.5 -14t-10.5 -33l5 -52q59 -13 111 -41q53 -28 92.5 -69t62.5 -96q23 -54 23 -122l1 -341h72q27 0 47 18t23 44l66 659q2 19 -11 33t-32 14v0zM640 64h-555
q-17 0 -29.5 -12.5t-12.5 -30.5q0 -17 12.5 -29.5t29.5 -12.5h555q18 0 30.5 12.5t12.5 29.5q0 18 -12.5 30.5t-30.5 12.5zM90 320h546q20 0 33 15t9 34q-10 52 -41 91q-30 39 -73 65t-95 38q-52 13 -106 13t-106 -13q-52 -12 -95 -38t-74 -65q-30 -39 -41 -91
q-3 -19 10 -34t33 -15v0zM640 235h-555q-17 0 -29.5 -12.5t-12.5 -30.5t12.5 -30.5t29.5 -12.5h555q18 0 30.5 12.5t12.5 30.5t-12.5 30.5t-30.5 12.5z" />
  </g>

</svg>
