<?xml version="1.0" standalone="no"?>
<!DOCTYPE svg PUBLIC "-//W3C//DTD SVG 1.1//EN" "http://www.w3.org/Graphics/SVG/1.1/DTD/svg11.dtd" >
<svg xmlns="http://www.w3.org/2000/svg" xmlns:xlink="http://www.w3.org/1999/xlink" version="1.1" viewBox="-10 0 1034 1024">
  <g transform="matrix(1 0 0 -1 0 960)">
   <path fill="currentColor"
d="M85 405q0 53 37.5 90.5t90.5 37.5h598q53 0 90.5 -37.5t37.5 -90.5v-298q0 -53 -37.5 -90.5t-90.5 -37.5h-598q-53 0 -90.5 37.5t-37.5 90.5v298v0zM213 448q-17 0 -29.5 -12.5t-12.5 -30.5v-298q0 -18 12.5 -30.5t29.5 -12.5h598q17 0 29.5 12.5t12.5 30.5v298
q0 18 -12.5 30.5t-29.5 12.5h-598v0zM512 832q-71 0 -121 -50t-50 -121v-170q0 -18 -12.5 -30.5t-29.5 -12.5q-18 0 -30.5 12.5t-12.5 30.5v170q0 53 20 100t55 81.5t81 54.5q47 20 100 20t100 -20q46 -20 81 -54.5t55 -81.5t20 -100v-170q0 -18 -12.5 -30.5t-30.5 -12.5
q-17 0 -29.5 12.5t-12.5 30.5v170q0 71 -50 121t-121 50v0z" />
  </g>

</svg>
