<?xml version="1.0" standalone="no"?>
<!DOCTYPE svg PUBLIC "-//W3C//DTD SVG 1.1//EN" "http://www.w3.org/Graphics/SVG/1.1/DTD/svg11.dtd" >
<svg xmlns="http://www.w3.org/2000/svg" xmlns:xlink="http://www.w3.org/1999/xlink" version="1.1" viewBox="-10 0 1034 1024">
  <g transform="matrix(1 0 0 -1 0 960)">
   <path fill="currentColor"
d="M43 576q0 53 37.5 90.5t90.5 37.5h682q53 0 90.5 -37.5t37.5 -90.5v-427q0 -53 -37.5 -90.5t-90.5 -37.5h-682q-53 0 -90.5 37.5t-37.5 90.5v427v0zM171 619q-18 0 -30.5 -12.5t-12.5 -30.5v-427q0 -17 12.5 -29.5t30.5 -12.5h682q18 0 30.5 12.5t12.5 29.5v427
q0 18 -12.5 30.5t-30.5 12.5h-682v0zM299 747q0 53 37.5 90.5t90.5 37.5h170q53 0 90.5 -37.5t37.5 -90.5v-683q0 -18 -12.5 -30.5t-29.5 -12.5q-18 0 -30.5 12.5t-12.5 30.5v683q0 17 -12.5 29.5t-30.5 12.5h-170q-18 0 -30.5 -12.5t-12.5 -29.5v-683q0 -18 -12.5 -30.5
t-30.5 -12.5q-17 0 -29.5 12.5t-12.5 30.5v683v0z" />
  </g>

</svg>
