<?xml version="1.0" standalone="no"?>
<!DOCTYPE svg PUBLIC "-//W3C//DTD SVG 1.1//EN" "http://www.w3.org/Graphics/SVG/1.1/DTD/svg11.dtd" >
<svg xmlns="http://www.w3.org/2000/svg" xmlns:xlink="http://www.w3.org/1999/xlink" version="1.1" viewBox="-10 0 1044 1024">
  <g transform="matrix(1 0 0 -1 0 960)">
   <path fill="currentColor"
d="M512 747q-20 0 -40 -2.5t-40 -6.5q-17 -4 -32 5t-19 26q-4 18 5 33t27 19q24 5 49 8t50 3v0v0v-43v43v0v0q62 0 118 -16q55 -16 102 -42.5t87 -59.5q39 -33 71 -66q31 -34 55.5 -66t40.5 -58q8 -12 14 -22.5t11 -17.5l3.5 -7l2.5 -5q1 -1 1 -2t1 -2v0v-1v0l-4.5 -2.5
t-33.5 -16.5l-37 20l-6 -10t-5 -10q-4 6 -8.5 13.5t-10.5 16.5q-15 23 -36.5 52t-49.5 59q-29 31 -63 59q-35 29 -74.5 50.5t-84.5 35.5q-44 13 -94 13v0v0zM933 448q-17 -29 -36 -56t-40 -53q-12 -13 -10.5 -30.5t15.5 -29.5q13 -11 30.5 -9.5t29.5 14.5q28 34 52 70t45 74
q5 9 5 19.5t-5 19.5l-38 -19l-33 -16.5l-5 -2.5v0v0q0 1 -0.5 1.5t-0.5 1.5q-1 2 -2.5 4t-3.5 6q-1 1 -1.5 2.5t-1.5 3.5v0zM292 727q11 -14 9 -31.5t-17 -27.5q-58 -45 -107 -100.5t-86 -119.5q4 -6 8.5 -13.5t10.5 -16.5q15 -23 36.5 -52t49.5 -59q29 -31 63 -59
q35 -29 74.5 -50.5t83.5 -35.5q45 -13 95 -13q62 1 120 21.5t108 57.5q14 11 31.5 8.5t27.5 -16.5q11 -14 8.5 -31.5t-16.5 -27.5q-60 -46 -131.5 -71t-146.5 -26h-1q-62 0 -117 16q-56 16 -103 42.5t-87 59.5q-39 33 -71 66q-31 34 -55.5 66t-40.5 58q-8 12 -14 22.5
t-11 17.5l-3.5 7l-2.5 5q-1 1 -1 2t-1 2v0v1v0l4.5 2.5t33.5 16.5l-38 -19q-5 9 -5 19.5t5 19.5q21 39 46 76q25 36 53.5 70t60.5 64t68 57q14 11 31.5 8.5t27.5 -16.5v0zM453 568q12 -13 11.5 -31t-13.5 -30q-17 -16 -24 -38.5t-1 -44.5q6 -23 22.5 -39.5t39.5 -22.5
q22 -6 44.5 1t38.5 24q12 13 30 13.5t31 -11.5q12 -12 13 -30t-11 -31q-32 -34 -77 -47t-90 -2q-46 12 -79 45t-45 79q-11 45 2 90t47 77q13 12 31 11t30 -13v0zM12 948q13 12 30.5 12t30.5 -12l939 -939q12 -13 12 -30.5t-12 -30.5q-13 -12 -30.5 -12t-30.5 12l-939 939
q-12 13 -12 30.5t12 30.5v0z" />
  </g>

</svg>
