<?xml version="1.0" standalone="no"?>
<!DOCTYPE svg PUBLIC "-//W3C//DTD SVG 1.1//EN" "http://www.w3.org/Graphics/SVG/1.1/DTD/svg11.dtd" >
<svg xmlns="http://www.w3.org/2000/svg" xmlns:xlink="http://www.w3.org/1999/xlink" version="1.1" viewBox="-10 0 1034 1024">
  <g transform="matrix(1 0 0 -1 0 960)">
   <path fill="currentColor"
d="M128 149q0 45 17 83q17 39 45.5 68t67.5 46t83 17h342q44 0 83 -17t67.5 -46t45.5 -68q17 -38 17 -83v-85q0 -18 -12.5 -30.5t-30.5 -12.5q-17 0 -29.5 12.5t-12.5 30.5v85q0 53 -37.5 90.5t-90.5 37.5h-342q-53 0 -90.5 -37.5t-37.5 -90.5v-85q0 -18 -12.5 -30.5
t-29.5 -12.5q-18 0 -30.5 12.5t-12.5 30.5v85v0zM299 661q0 45 16 83q17 39 46 68t68 46t83 17t83 -17t68 -46t46 -68q16 -38 16 -83q0 -44 -16 -83q-17 -39 -46 -67.5t-68 -45.5t-83 -17t-83 17t-68 45.5t-46 67.5q-16 39 -16 83v0zM512 789q-53 0 -90.5 -37.5t-37.5 -90.5
t37.5 -90.5t90.5 -37.5t90.5 37.5t37.5 90.5t-37.5 90.5t-90.5 37.5z" />
  </g>

</svg>
