<?xml version="1.0" standalone="no"?>
<!DOCTYPE svg PUBLIC "-//W3C//DTD SVG 1.1//EN" "http://www.w3.org/Graphics/SVG/1.1/DTD/svg11.dtd" >
<svg xmlns="http://www.w3.org/2000/svg" xmlns:xlink="http://www.w3.org/1999/xlink" version="1.1" viewBox="-10 0 1034 1024">
  <g transform="matrix(1 0 0 -1 0 960)">
   <path fill="currentColor"
d="M43 448q0 97 37 183q36 85 100 149t149 100q86 37 183 37t183 -37q85 -36 149 -100t100 -149q37 -86 37 -183t-37 -183q-36 -85 -100 -149t-149 -100q-86 -37 -183 -37t-183 37q-85 36 -149 100t-100 149q-37 86 -37 183v0zM512 832q-80 0 -149 -30q-70 -30 -122.5 -82.5
t-82.5 -122.5q-30 -69 -30 -149t30 -149q30 -70 82.5 -122.5t122.5 -82.5q69 -30 149 -30t149 30q70 30 122.5 82.5t82.5 122.5q30 69 30 149t-30 149q-30 70 -82.5 122.5t-122.5 82.5q-69 30 -149 30zM512 661q18 0 30.5 -12.5t12.5 -29.5v-342q0 -17 -12.5 -29.5
t-30.5 -12.5t-30.5 12.5t-12.5 29.5v342q0 17 12.5 29.5t30.5 12.5zM299 448q0 18 12.5 30.5t29.5 12.5h342q17 0 29.5 -12.5t12.5 -30.5t-12.5 -30.5t-29.5 -12.5h-342q-17 0 -29.5 12.5t-12.5 30.5v0z" />
  </g>

</svg>
