<?xml version="1.0" standalone="no"?>
<!DOCTYPE svg PUBLIC "-//W3C//DTD SVG 1.1//EN" "http://www.w3.org/Graphics/SVG/1.1/DTD/svg11.dtd" >
<svg xmlns="http://www.w3.org/2000/svg" xmlns:xlink="http://www.w3.org/1999/xlink" version="1.1" viewBox="-10 0 1034 1024">
  <g transform="matrix(1 0 0 -1 0 960)">
   <path fill="currentColor"
d="M512 789q18 0 30.5 -12.5t12.5 -29.5v-598q0 -17 -12.5 -29.5t-30.5 -12.5t-30.5 12.5t-12.5 29.5v598q0 17 12.5 29.5t30.5 12.5v0zM171 448q0 18 12.5 30.5t29.5 12.5h598q17 0 29.5 -12.5t12.5 -30.5t-12.5 -30.5t-29.5 -12.5h-598q-17 0 -29.5 12.5t-12.5 30.5v0z
" />
  </g>

</svg>
