<svg xmlns="http://www.w3.org/2000/svg" viewBox="0 0 50 50" id="ribbon">
    <path fill="currentColor" d="m14.482 39.691 4.982 9.371L25 39.474l5.536 9.589 4.982-9.371 10.606.371-8.307-14.389 1.244-.553-.467-4.477L41.235 17l-2.641-3.644.468-4.477L34.95 7.05l-1.829-4.112-4.477.467L25 .765l-3.644 2.641-4.477-.468L15.05 7.05l-4.112 1.829.467 4.477L8.765 17l2.641 3.644-.468 4.477 1.245.554-8.308 14.387 10.607-.371zM35.98 26.492l6.608 11.446-8.25-.289-3.875 7.289-4.309-7.464 3.887-6.733.955.1 2.124.222 1.829-4.113 1.031-.458zm-22.902-2.609.396-3.793L11.235 17l2.239-3.09-.396-3.793 3.487-1.552 1.552-3.487 3.793.396L25 3.235l3.09 2.239 3.793-.396 1.552 3.487 3.487 1.552-.396 3.793L38.765 17l-2.239 3.09.396 3.793-.11.049-3.377 1.503-1.552 3.487-3.793-.396L25 30.765l-3.09-2.239-3.793.396-1.552-3.487-3.377-1.503-.11-.049zm3.801 7.179 4.477-.467L25 33.235l2.223-1.611-3.377 5.85-4.309 7.464-3.875-7.289-8.249.289 6.608-11.446 1.03.458 1.828 4.112z"></path>
</svg>