<?xml version="1.0" standalone="no"?>
<!DOCTYPE svg PUBLIC "-//W3C//DTD SVG 1.1//EN" "http://www.w3.org/Graphics/SVG/1.1/DTD/svg11.dtd" >
<svg xmlns="http://www.w3.org/2000/svg" xmlns:xlink="http://www.w3.org/1999/xlink" version="1.1" viewBox="-10 0 1034 1024">
  <g transform="matrix(1 0 0 -1 0 960)">
   <path fill="currentColor"
d="M128 448q0 18 12.5 30.5t30.5 12.5h682q18 0 30.5 -12.5t12.5 -30.5t-12.5 -30.5t-30.5 -12.5h-682q-18 0 -30.5 12.5t-12.5 30.5v0zM567 734q13 13 30.5 13t30.5 -13l256 -256q12 -12 12 -30t-12 -30l-256 -256q-13 -13 -30.5 -13t-30.5 13q-12 12 -12 30t12 30l226 226
l-226 226q-12 12 -12 30t12 30z" />
  </g>

</svg>
