<?xml version="1.0" standalone="no"?>
<!DOCTYPE svg PUBLIC "-//W3C//DTD SVG 1.1//EN" "http://www.w3.org/Graphics/SVG/1.1/DTD/svg11.dtd" >
<svg xmlns="http://www.w3.org/2000/svg" xmlns:xlink="http://www.w3.org/1999/xlink" version="1.1" viewBox="-10 0 1034 1024">
  <g transform="matrix(1 0 0 -1 0 960)">
   <path fill="currentColor"
d="M448 875q75 0 141 -29q66 -28 115.5 -77.5t77.5 -115.5q29 -66 29 -141q0 -64 -21 -121t-57 -104l193 -193q13 -12 13 -30t-13 -30q-12 -13 -30 -13t-30 13l-193 193q-47 -36 -104 -57t-121 -21q-75 0 -141 29q-66 28 -115.5 77.5t-77.5 115.5q-29 66 -29 141t29 141
q28 66 77.5 115.5t115.5 77.5q66 29 141 29v0zM647 319q36 37 57 87t21 106q0 57 -21 108q-22 50 -60 88t-88 60q-51 21 -108 21t-108 -21q-50 -22 -88 -60t-60 -88q-21 -51 -21 -108t21 -108q22 -50 60 -88t88 -60q51 -21 108 -21q56 0 106 21t87 57l1.5 1.5l1.5 1.5
l1.5 1.5z" />
  </g>

</svg>
