<?xml version="1.0" standalone="no"?>
<!DOCTYPE svg PUBLIC "-//W3C//DTD SVG 1.1//EN" "http://www.w3.org/Graphics/SVG/1.1/DTD/svg11.dtd" >
<svg xmlns="http://www.w3.org/2000/svg" xmlns:xlink="http://www.w3.org/1999/xlink" version="1.1" viewBox="-10 0 1044 1024">
  <g transform="matrix(1 0 0 -1 0 960)">
   <path fill="currentColor"
d="M341 448q0 71 50 121t121 50t121 -50t50 -121t-50 -121t-121 -50t-121 50t-50 121v0zM512 533q-35 0 -60 -25t-25 -60t25 -60t60 -25t60 25t25 60t-25 60t-60 25v0zM512 875q-18 0 -30.5 -12.5t-12.5 -30.5v-7q0 -34 -18.5 -62.5t-49.5 -41.5l-6 -2t-5 -1
q-31 -11 -62.5 -4t-54.5 30v0l-3 3q-6 6 -14 9t-16 3t-16 -3t-14 -9v0q-6 -6 -9.5 -14t-3.5 -16q0 -9 3.5 -17t9.5 -14l3 -3q24 -24 30 -57.5t-7 -65.5q-12 -32 -40.5 -52t-62.5 -21h-1h-4q-18 0 -30.5 -12.5t-12.5 -29.5q0 -18 12.5 -30.5t30.5 -12.5h7q34 0 62 -18.5
t42 -49.5q14 -32 7.5 -66t-30.5 -59v0l-3 -3q-6 -6 -9 -14t-3 -16t3 -16t9 -14v0q6 -6 14 -9.5t16 -3.5q9 0 17 3.5t14 9.5l3 3q24 24 57.5 30t65.5 -7q32 -12 52 -40.5t21 -62.5v-1v-4q0 -18 12.5 -30.5t29.5 -12.5q18 0 30.5 12.5t12.5 30.5v7q0 34 18.5 62t49.5 42
q32 14 66 7.5t59 -30.5v0l3 -3q6 -6 14 -9t16 -3t16 3t14 9v0q6 6 9.5 14t3.5 16q0 9 -3.5 17t-9.5 14l-3 3q-24 24 -30 58t8 66q13 31 41 49.5t62 18.5h4q18 0 30.5 12.5t12.5 30.5t-12.5 30.5t-30.5 12.5h-7q-34 0 -62.5 18.5t-41.5 49.5l-2 6t-1 5q-11 31 -4 62.5
t30 54.5v0l3 3q6 6 9 14t3 16t-3 16t-9 14v0q-6 6 -14 9.5t-16 3.5q-9 0 -17 -3.5t-14 -9.5l-3 -3q-24 -24 -58 -30t-66 8q-31 13 -49.5 41t-18.5 62v4q0 18 -12.5 30.5t-30.5 12.5v0zM384 832q0 53 37.5 90.5t90.5 37.5t90.5 -37.5t37.5 -90.5v-4q0 -8 4.5 -15t12.5 -10v0
q8 -4 16.5 -2.5t14.5 7.5l2 3q18 18 41.5 27.5t49.5 9.5q25 0 48.5 -9.5t41.5 -27.5t28 -42t10 -49t-10 -49t-28 -42v0v0l-2 -2q-6 -6 -7.5 -14.5t1.5 -15.5q1 -2 2 -4.5t1 -4.5q4 -5 10 -8.5t13 -3.5h7q53 0 90.5 -37.5t37.5 -90.5t-37.5 -90.5t-90.5 -37.5h-4
q-8 0 -15 -4.5t-10 -12.5v0q-4 -8 -2.5 -16.5t7.5 -14.5l3 -2v0v0q18 -18 27.5 -41.5t9.5 -49.5q0 -25 -9.5 -48.5t-27.5 -41.5t-42 -28t-49 -10t-49 10t-42 28v0v0l-2 2q-6 6 -14.5 7.5t-15.5 -1.5l-1 -1q-7 -3 -12 -10t-5 -15v-7q0 -53 -37.5 -90.5t-90.5 -37.5
t-90.5 37.5t-37.5 90.5v3q0 9 -5 15.5t-13 9.5l-1 0.5l-1 0.5q-8 4 -16.5 2.5t-14.5 -7.5l-2 -3v0v0q-18 -18 -41.5 -27.5t-49.5 -9.5q-25 0 -48.5 9.5t-41.5 27.5t-28 42t-10 49t10 49t28 42l2 2q6 6 7.5 14.5t-1.5 15.5l-1 1q-3 7 -10 12t-15 5h-7q-53 0 -90.5 37.5
t-37.5 90.5t37.5 90.5t90.5 37.5h3q9 0 15.5 5t9.5 13l0.5 1l0.5 1q4 8 2.5 16.5t-7.5 14.5l-3 2q-18 18 -27.5 41.5t-9.5 49.5q0 25 9.5 48.5t27.5 41.5t42 28t49 10t49 -10t42 -28l2 -2q6 -6 14.5 -7.5t15.5 1.5q2 1 4.5 2t4.5 1q5 4 8.5 10t3.5 13v7v0z" />
  </g>

</svg>
