<?xml version="1.0" standalone="no"?>
<!DOCTYPE svg PUBLIC "-//W3C//DTD SVG 1.1//EN" "http://www.w3.org/Graphics/SVG/1.1/DTD/svg11.dtd" >
<svg xmlns="http://www.w3.org/2000/svg" xmlns:xlink="http://www.w3.org/1999/xlink" version="1.1" viewBox="-10 0 1044 1024">
  <g transform="matrix(1 0 0 -1 0 960)">
   <path fill="currentColor"
d="M213 64q0 53 37.5 90.5t90.5 37.5t90.5 -37.5t37.5 -90.5t-37.5 -90.5t-90.5 -37.5t-90.5 37.5t-37.5 90.5v0zM341 107q-17 0 -29.5 -12.5t-12.5 -30.5t12.5 -30.5t29.5 -12.5q18 0 30.5 12.5t12.5 30.5t-12.5 30.5t-30.5 12.5v0zM725 64q0 53 37.5 90.5t90.5 37.5
t90.5 -37.5t37.5 -90.5t-37.5 -90.5t-90.5 -37.5t-90.5 37.5t-37.5 90.5zM853 107q-17 0 -29.5 -12.5t-12.5 -30.5t12.5 -30.5t29.5 -12.5q18 0 30.5 12.5t12.5 30.5t-12.5 30.5t-30.5 12.5zM0 917q0 18 12.5 30.5t30.5 12.5h96q48 0 84 -32t42 -79v0v0l14 -102h702
q10 0 18.5 -4.5t14.5 -11.5t8.5 -16.5t0.5 -18.5l-71 -358h-1v0v0v0q-9 -46 -45 -75t-82 -28h-451q-48 -1 -84.5 31t-42.5 80zM246 346l-65 492q-2 15 -14 26t-28 11h-96q-18 0 -30.5 12.5t-12.5 29.5zM290 661l40 -304q2 -16 14.5 -26.5t28.5 -10.5h452q16 0 28 9.5
t15 24.5v0l61 307h-639v0z" />
  </g>

</svg>
