<?xml version="1.0" standalone="no"?>
<!DOCTYPE svg PUBLIC "-//W3C//DTD SVG 1.1//EN" "http://www.w3.org/Graphics/SVG/1.1/DTD/svg11.dtd" >
<svg xmlns="http://www.w3.org/2000/svg" xmlns:xlink="http://www.w3.org/1999/xlink" version="1.1" viewBox="-10 0 1034 1024">
  <g transform="matrix(1 0 0 -1 0 960)">
   <path fill="currentColor"
d="M410 700q-14 -20 -20 -42.5t-6 -38.5v-43h256v43q0 16 -6 38.5t-20 42.5q-13 19 -37 33t-65 14t-65 -14t-37 -33v0zM725 576h171q8 0 16 -3t14 -9t9.5 -14t3.5 -17q0 -8 -3.5 -16t-9.5 -14t-14 -9t-16 -3h-4l-39 -389q-1 -7 -4.5 -14.5t-9.5 -12.5t-13 -8t-15 -3h-598
q-8 0 -15 3t-13 8t-9.5 12.5t-4.5 14.5l-39 389h-4q-8 0 -16 3t-14 9t-9.5 14t-3.5 16q0 9 3.5 17t9.5 14t14 9t16 3h171v43q0 26 9 62t33 69q25 35 67 58.5t104 23.5t104 -23.5t67 -58.5q24 -33 33 -69t9 -62v-43v0zM384 363q0 8 -3 16t-9 14t-14 9t-17 3q-8 0 -16 -3
t-14 -9t-9 -14t-3 -16v-86q0 -8 3 -16t9 -14t14 -9t16 -3q9 0 17 3t14 9t9 14t3 16v86zM555 363q0 8 -3.5 16t-9.5 14t-14 9t-16 3t-16 -3t-14 -9t-9.5 -14t-3.5 -16v-86q0 -8 3.5 -16t9.5 -14t14 -9t16 -3t16 3t14 9t9.5 14t3.5 16v86zM725 363q0 8 -3 16t-9 14t-14 9
t-16 3q-9 0 -17 -3t-14 -9t-9 -14t-3 -16v-86q0 -8 3 -16t9 -14t14 -9t17 -3q8 0 16 3t14 9t9 14t3 16v86z" />
  </g>

</svg>
