<?xml version="1.0" standalone="no"?>
<!DOCTYPE svg PUBLIC "-//W3C//DTD SVG 1.1//EN" "http://www.w3.org/Graphics/SVG/1.1/DTD/svg11.dtd" >
<svg xmlns="http://www.w3.org/2000/svg" xmlns:xlink="http://www.w3.org/1999/xlink" version="1.1" viewBox="-10 0 1034 1024">
  <g transform="matrix(1 0 0 -1 0 960)">
   <path fill="currentColor"
d="M680 853q-7 8 -14.5 13.5t-16.5 9.5q-8 4 -17.5 6t-19.5 2q-9 1 -18.5 -1t-18.5 -5q-9 -4 -16.5 -9t-14.5 -12l-442 -441q-6 -7 -11.5 -15t-8.5 -17q-4 -8 -5.5 -17.5t-1.5 -19.5q0 -9 2 -18t6 -18t9.5 -16.5t12.5 -14.5l50 -46q20 -18 44 -17.5t40 7.5q8 3 16.5 4
t17.5 0q9 -2 16.5 -6t13.5 -10q7 -6 11.5 -13t6.5 -16q2 -8 2 -17t-3 -17q-5 -17 -4 -40.5t21 -42.5l37 -34q13 -12 30 -18.5t35 -6.5t34.5 7t29.5 20l422 414q13 13 20 29.5t8 34.5q0 18 -6 35t-18 31l-40 43q-17 19 -40 21t-40 -3q-8 -2 -16.5 -2t-17.5 2q-8 3 -15 7.5
t-13 10.5t-9.5 14t-5.5 16q-1 8 0 16.5t4 16.5q6 16 6.5 39.5t-16.5 42.5l-46 51v0z" />
  </g>

</svg>
