<?xml version="1.0" standalone="no"?>
<!DOCTYPE svg PUBLIC "-//W3C//DTD SVG 1.1//EN" "http://www.w3.org/Graphics/SVG/1.1/DTD/svg11.dtd" >
<svg xmlns="http://www.w3.org/2000/svg" xmlns:xlink="http://www.w3.org/1999/xlink" version="1.1" viewBox="-10 0 1034 1024">
  <g transform="matrix(1 0 0 -1 0 960)">
   <path fill="currentColor"
d="M128 277q18 0 30.5 -12.5t12.5 -29.5v-128q0 -18 12.5 -30.5t29.5 -12.5h598q17 0 29.5 12.5t12.5 30.5v128q0 17 12.5 29.5t30.5 12.5t30.5 -12.5t12.5 -29.5v-128q0 -53 -37.5 -90.5t-90.5 -37.5h-598q-53 0 -90.5 37.5t-37.5 90.5v128q0 17 12.5 29.5t30.5 12.5v0z
M482 905q12 12 30 12t30 -12l171 -171q12 -12 12 -30t-12 -30q-13 -13 -30.5 -13t-30.5 13l-140 140l-140 -140q-13 -13 -30.5 -13t-30.5 13q-12 12 -12 30t12 30l171 171v0zM512 917q18 0 30.5 -12.5t12.5 -29.5v-598q0 -17 -12.5 -29.5t-30.5 -12.5t-30.5 12.5t-12.5 29.5
v598q0 17 12.5 29.5t30.5 12.5v0z" />
  </g>

</svg>
