<?xml version="1.0" standalone="no"?>
<!DOCTYPE svg PUBLIC "-//W3C//DTD SVG 1.1//EN" "http://www.w3.org/Graphics/SVG/1.1/DTD/svg11.dtd" >
<svg xmlns="http://www.w3.org/2000/svg" xmlns:xlink="http://www.w3.org/1999/xlink" version="1.1" viewBox="-10 0 1044 1024">
  <g transform="matrix(1 0 0 -1 0 960)">
   <path fill="currentColor"
d="M91 448q4 6 8.5 13.5t10.5 16.5q15 23 36.5 52t49.5 59q29 31 63 59q35 29 74.5 50.5t84.5 35.5q44 13 94 13t94 -13q45 -14 84.5 -35.5t74.5 -50.5q34 -28 63 -59q28 -30 49.5 -59t36.5 -52q6 -9 10.5 -16.5t8.5 -13.5q-4 -6 -8.5 -13.5t-10.5 -16.5q-15 -23 -36.5 -52
t-49.5 -59q-29 -31 -63 -59q-35 -29 -74.5 -50.5t-84.5 -35.5q-44 -13 -94 -13t-94 13q-45 14 -84.5 35.5t-74.5 50.5q-34 28 -63 59q-28 30 -49.5 59t-36.5 52q-6 9 -10.5 16.5t-8.5 13.5v0zM981 448q29 14 33.5 16.5l4.5 2.5v0v1v0q-1 1 -1 2t-1 2l-2.5 5l-3.5 7
q-5 7 -11 17.5t-14 22.5q-16 26 -40.5 58t-55.5 66q-32 33 -71 66q-40 33 -87 59.5t-103 42.5q-55 16 -117 16t-117 -16q-56 -16 -103 -42.5t-87 -59.5q-39 -33 -71 -66q-31 -34 -55.5 -66t-40.5 -58q-8 -12 -14 -22.5t-11 -17.5l-3.5 -7l-2.5 -5q-1 -1 -1 -2t-1 -2v0v-1v0
l4.5 -2.5t33.5 -16.5l-38 19q-5 -9 -5 -19t5 -19l38 19q-29 -14 -34 -16.5t-4 -2.5v0v-1v0q1 -1 1 -2t1 -2l2.5 -5l3.5 -7q5 -7 11 -17.5t14 -22.5q16 -26 40.5 -58t55.5 -66q32 -33 71 -66q40 -33 87 -59.5t103 -42.5q55 -16 117 -16t117 16q56 16 103 42.5t87 59.5
q39 33 71 66q31 34 55.5 66t40.5 58q8 12 14 22.5t11 17.5l3.5 7l2.5 5q1 1 1 2t1 2v0v1v0l-4.5 2.5t-33.5 16.5v0zM981 448l38 19q5 -9 5 -19t-5 -19l-38 19v0zM341 448q0 71 50 121t121 50t121 -50t50 -121t-50 -121t-121 -50t-121 50t-50 121v0zM512 533q-35 0 -60 -25
t-25 -60t25 -60t60 -25t60 25t25 60t-25 60t-60 25v0z" />
  </g>

</svg>
