<svg viewBox="0 0 72.003 72.003" xmlns="http://www.w3.org/2000/svg"><path d="m69.853 2.448c-.926-.313-1.856-.475-2.739-.475-4.699 0-8.498 4.852-13.74 6.238 1.284.896 1.763 2.519 1.417 4.814l-6.39 42.306h-.574c-2.189-5.435-5.309-10.347-8.353-14.934 2.916-5.198 5.986-11.226 5.986-17.218 0-3.824-2.028-6.498-4.933-6.498-1.68 0-3.307.92-4.526 2.542-1.218-1.622-2.847-2.542-4.527-2.542-2.905 0-4.933 2.674-4.933 6.498 0 5.992 3.07 12.02 5.986 17.218-3.044 4.587-6.164 9.499-8.353 14.934h-.574l-6.389-42.306c-.346-2.295.132-3.919 1.417-4.814-5.241-1.386-9.041-6.237-13.739-6.237-.882 0-1.813.161-2.738.475 3.157 1.315 4.753 3.578 5.622 8.154l10.265 54.551c.221 1.166.316 2.955-.727 4.227l13.897-2.954c-1.274-.897-1.746-2.521-1.4-4.806.73-4.835 3.379-10.122 6.195-15.15 2.817 5.028 5.465 10.315 6.194 15.15.345 2.284-.125 3.908-1.4 4.806l13.898 2.954c-1.043-1.271-.948-3.061-.728-4.227l10.266-54.551c.868-4.577 2.462-6.84 5.62-8.155m-37.889 23.237c0-1.968.902-3.344 2.195-3.344.723 0 1.44.428 1.843 1.17.404-.742 1.119-1.17 1.842-1.17 1.293 0 2.195 1.376 2.195 3.344 0 2.455-1.466 5.895-4.037 9.492-2.57-3.597-4.038-7.037-4.038-9.492" fill="#e31837"/><g fill="#fff"><path d="m67.115 0c-6.1 0-10.199 6.133-15.891 6.588v2.251c1.262.684 1.776 1.994 1.494 3.873l-5.494 36.377c-1.772-3.356-3.804-6.514-5.297-8.785 2.767-5.036 5.632-11.027 5.632-17.121 0-5.906-3.645-8.596-7.031-8.596-1.714 0-3.337.631-4.526 1.768-1.189-1.137-2.812-1.768-4.527-1.768-3.386 0-7.03 2.689-7.03 8.596 0 6.094 2.866 12.085 5.633 17.121-1.494 2.271-3.526 5.429-5.298 8.785l-5.493-36.377c-.284-1.879.231-3.189 1.492-3.873v-2.251c-5.692-.455-9.79-6.588-15.89-6.588-1.601 0-3.329.429-4.889 1.208v2.355c3.351.923 4.859 2.9 5.711 7.429l10.257 54.498c.332 1.771-.257 3.519-1.491 4.359v2.153l18.896-4.017v-2.298c-1.227-.459-1.782-1.838-1.493-3.756.479-3.168 1.785-6.682 4.122-11.108 2.337 4.427 3.643 7.94 4.121 11.108.29 1.918-.266 3.297-1.493 3.756v2.298l18.896 4.017v-2.152c-1.234-.841-1.824-2.589-1.491-4.359l10.257-54.498c.853-4.528 2.359-6.506 5.711-7.429v-2.356c-1.561-.779-3.288-1.208-4.888-1.208m-13.149 65.153c-.221 1.166-.315 2.955.727 4.227l-13.897-2.955c1.274-.896 1.745-2.519 1.4-4.805-.73-4.834-3.377-10.121-6.195-15.151-2.817 5.03-5.466 10.317-6.195 15.151-.346 2.286.125 3.908 1.4 4.805l-13.896 2.955c1.043-1.271.948-3.061.727-4.227l-10.266-54.551c-.868-4.576-2.463-6.84-5.621-8.154.926-.313 1.857-.475 2.739-.475 4.699 0 8.497 4.852 13.741 6.237-1.285.895-1.764 2.521-1.418 4.815l6.39 42.306h.574c2.189-5.435 5.31-10.347 8.353-14.934-2.917-5.198-5.986-11.226-5.986-17.216 0-3.826 2.028-6.498 4.933-6.498 1.681 0 3.31.92 4.527 2.54 1.219-1.62 2.845-2.54 4.526-2.54 2.905 0 4.934 2.672 4.934 6.498 0 5.99-3.07 12.018-5.986 17.216 3.043 4.587 6.164 9.499 8.352 14.934h.574l6.388-42.306c.346-2.294-.131-3.92-1.417-4.815 5.243-1.386 9.042-6.237 13.741-6.237.881 0 1.813.161 2.739.475-3.158 1.313-4.753 3.578-5.621 8.154z"/><path d="m37.845 22.341c-.723 0-1.439.428-1.843 1.17-.403-.742-1.12-1.17-1.843-1.17-1.293 0-2.195 1.376-2.195 3.344 0 2.455 1.467 5.895 4.038 9.492 2.571-3.597 4.038-7.037 4.038-9.492 0-1.968-.903-3.344-2.195-3.344m-2.86 2.275c.408 0 .834.408 1.017.813.184-.404.608-.813 1.017-.813.527 0 .989.439.989 1.424 0 1.418-.865 3.752-2.006 5.32-1.139-1.568-2.007-3.902-2.007-5.32 0-.984.463-1.424.99-1.424"/><path d="m61.56 68.593h-.012l-.52-1.465h-.793v2.243h.455v-1.786h.012l.629 1.786h.443l.649-1.786h.012v1.786h.457v-2.243h-.788zm-3.547-1.067h.675v1.845h.459v-1.845h.676v-.398h-1.81z"/></g></svg>