<?xml version="1.0" encoding="utf-8"?>
<!-- Generator: Adobe Illustrator 27.8.1, SVG Export Plug-In . SVG Version: 6.00 Build 0)  -->
<svg version="1.1" id="Layer_1" xmlns="http://www.w3.org/2000/svg" xmlns:xlink="http://www.w3.org/1999/xlink"
	 viewBox="0 0 1383.5 1080" style="enable-background:new 0 0 1383.5 1080;" >
<style type="text/css">
	.st0{opacity:0.5;fill:#808080;stroke:#000000;stroke-miterlimit:10;enable-background:new    ;}
	.st1{fill:#8CC63F;}
	.st2{fill:#AA8313;}
	.st3{fill:none;stroke:#FFFFFF;stroke-width:3;stroke-miterlimit:10;}
	.st4{fill:#AA8313;stroke:#FFFFFF;stroke-width:3;stroke-miterlimit:10;}
	.st5{fill:#29ABE2;stroke:#FFFFFF;stroke-width:3;stroke-miterlimit:10;}
	.st6{fill:#092440;}
	.st7{fill:#CF2030;stroke:#FFFFFF;stroke-width:3;stroke-miterlimit:10;}
	.st8{fill:#5080C9;stroke:#FFFFFF;stroke-width:3;stroke-miterlimit:10;}
	.st9{fill:#84CE0A;stroke:#FFFFFF;stroke-width:3;stroke-miterlimit:10;}
	.st10{fill:#FFFF00;stroke:#FFFFFF;stroke-width:3;stroke-miterlimit:10;}
	.st11{fill:#0000FF;stroke:#FFFFFF;stroke-width:3;stroke-miterlimit:10;}
	.st12{fill:#4D4D4D;stroke:#FFFFFF;stroke-width:3;stroke-miterlimit:10;}
	.st13{fill:#006837;stroke:#FFFFFF;stroke-width:3;stroke-miterlimit:10;}
	.st14{fill:#39B54A;stroke:#FFFFFF;stroke-width:3;stroke-miterlimit:10;}
	.st15{fill:#092440;stroke:#FFFFFF;stroke-width:3;stroke-miterlimit:10;}
	.st16{fill:#F7931E;stroke:#FFFFFF;stroke-width:3;stroke-miterlimit:10;}
	.st17{fill:#FFFFFF;}
	.st18{font-family:'ArialMT';}
	.st19{font-size:12px;}
	.st20{fill:#9E005D;stroke:#000000;stroke-miterlimit:10;}
</style>
<g id="Ballpark_Outline">
	<polygon id="Building" class="st0" points="6.5,258.5 6.5,728.5 266.5,933.5 307.5,880.5 328.5,895.5 355.5,860.5 392.5,889.5 
		443.5,827.5 613.5,959.5 607.5,967.5 744.5,1074.5 769.5,1040.5 780.5,1041.5 800.5,1058.5 983.5,815.5 1097.5,815.5 1116.5,832.5 
		1383.5,487.5 1333.5,448.5 1362.5,413.5 836.5,13.5 480.54,13.5 480.54,47.5 412.5,47.5 146.5,259.5 	"/>
	<polyline id="Grass_00000116952251646661375310000009718261028293273005_" class="st1" points="372.5,665.5 442,720 452.66,709 
		475.5,728.5 481.5,720.5 757.5,915.5 971.5,735.5 1091.5,583.5 1088.5,417.5 1051.5,281.5 769.5,58.5 639.5,187.5 518.5,187.5 
		531.5,227.5 481.5,270.5 476.5,264.5 452.5,283.5 443.59,273 361.5,337.5 372.5,353.5 260.5,441.91 260.5,549.5 322.27,599.24 
		328.5,591.5 378.5,632.5 359.5,654.5 366,659 	"/>
	<path id="Home_Plate_Circle" class="st2" d="M357.98,479.14l-0.26-0.25c-9.69-9.28-25-9.18-34.55,0.24l0,0
		c-9.62,9.48-9.88,24.92-0.58,34.72l0.25,0.26c9.77,10.3,26.18,10.3,35.96,0l0.01-0.01C368.2,504.21,367.83,488.58,357.98,479.14z"
		/>
	<path id="Baseball_Diamond" class="st2" d="M501,664c15.11-3.59,48.05-13.64,77-43c18.74-19,28.73-38.91,34-52
		c6.18-12.46,14.71-33.53,17-61c2.33-28.03-2.85-50.62-7-64c-5.02-14.82-13.91-35.21-30-56c-9.88-12.77-20.1-22.61-29-30
		c-8.8-7.06-20.42-15.04-35-22c-9.36-4.47-18.18-7.67-26-10c-49.55,49.85-99.09,99.71-148.64,149.56L361,482l85-83
		c1.52,1.08,6.26,4.16,13,4c6.14-0.14,10.43-2.88,12-4c28.67,28,57.33,56,86,84c-1.23,1.52-4.64,6.13-5,13
		c-0.38,7.28,2.92,12.44,4,14c-28.33,28-56.67,56-85,84c-1.57-1.12-5.86-3.86-12-4c-6.74-0.16-11.48,2.92-13,4
		c-28-28.33-56-56.67-84-85l-7,8L501,664z"/>
	<path id="Home_Plate_Circle_00000007424454756940265730000018311603389770747275_" class="st2" d="M462.58,485.71l-0.17-0.16
		c-6.38-6.12-16.47-6.05-22.77,0.16l0,0c-6.34,6.25-6.51,16.42-0.38,22.88l0.16,0.17c6.44,6.79,17.25,6.79,23.69,0l0.01-0.01
		C469.32,502.22,469.07,491.93,462.58,485.71z"/>
	<g id="Dirt_Outline_thing">
		<path class="st2" d="M771.45,93.19l257.21,203.39l33.9,124.62l2.77,153.48l-112.6,142.63L756.11,882.69L496.88,699.53
			L338.3,578.77l-51.8-41.71v-82.54l101.94-80.47l108.82-82.86l0.62-0.47l0.59-0.5l50-43l13.12-11.29l-5.35-16.46l-1.94-5.96h85.21
			h10.71l7.6-7.54L771.45,93.19 M769.5,58.5l-130,129h-121l13,40l-50,43l-109,83l-112,88.41V549.5l61.77,49.74L481.5,720.5l276,195
			l214-180l120-152l-3-166l-37-136L769.5,58.5L769.5,58.5z"/>
	</g>
	<polygon id="Playing_field_outline" class="st3" points="639.5,187.5 518.5,187.5 531.5,227.5 481.5,270.5 476.5,264.5 
		452.5,283.5 443.59,273 361.5,337.5 372.5,353.5 260.5,441.91 260.5,549.5 322.27,599.24 328.5,591.5 378.5,632.5 359.5,654.5 
		365.5,659.5 349.5,677.5 356.5,683.5 372.5,665.5 442.5,720.5 452.66,709 475.5,728.5 481.5,720.5 757.5,915.5 971.5,735.5 
		1091.5,583.5 1088.5,417.5 1051.5,281.5 769.5,58.5 	"/>
</g>
<g id="Bullpens_and_Dugouts">
	<polygon id="Visitor_Bullpen" class="st4" points="699.5,127.5 498.5,127.5 518.5,187.5 639.5,187.5 	"/>
	<polygon id="Home_Bullpen" class="st4" points="475.5,728.5 449.5,761.5 575.5,851.5 606.56,808.86 481.5,720.5 	"/>
	<polygon id="Home_Dugout" class="st5" points="377.26,633.93 359.5,654.5 442.5,720.5 452.66,709 460.5,700.5 	"/>
	<polygon id="Visitor_Dugout" class="st5" points="360.5,337.5 372.5,353.5 456.95,289.19 443.59,273 	"/>
</g>
<g id="Main_Sections">
	<polygon id="Section_1" class="st6" points="488.5,129.5 491.5,133.5 523.5,227.5 494.5,250.5 433.5,173.5 	"/>
	<polygon id="Section_2" class="st6" points="426,179 488,257 478.5,263.52 476,260 458,273 446,258 436,266 390,208 	"/>
	<polygon id="Section_3" class="st6" points="384,214 432,274 396,303 346,242 	"/>
	<polygon id="Section_4" class="st6" points="340,247 388,308 367,326 351,307 341,315 308,272 	"/>
	<polygon id="Section_5" class="st6" points="302,278 364,355 327,384 266,306 	"/>
	<polygon id="Section_6" class="st6" points="259,311 320,389 288,415 227,337 	"/>
	<polygon id="Section_7" class="st6" points="221,342 281,418 261,436 165,386 	"/>
	<polygon id="Section_8" class="st6" points="151,391 256,442 256,458.21 151,458.92 	"/>
	<polygon id="Section_9" class="st6" points="151,465.87 255,467 256,523.69 151,525.54 	"/>
	<polygon id="Section_10" class="st6" points="256,532.76 256,550.48 151,599.24 151,532.76 	"/>
	<polygon id="Section_11" class="st6" points="261,555 276,567 266,580 272,584 223,648 162,605 	"/>
	<polygon id="Section_12" class="st6" points="280,590 288,597 262,630 272,639 300,605 317,618 263,685 226,655 	"/>
	<polygon id="Section_13" class="st6" points="270,688 330,616 361,640 348,657 352,660 307,718 	"/>
	<polygon id="Section_14" class="st6" points="313,722 348,679 357,686 372,669 393,687 345,749 	"/>
	<polygon id="Section_15" class="st6" points="351,754 385,781 435,719 400,691 	"/>
	<polygon id="Section_16" class="st6" points="392,786 438,728 443,732 455,716 472,729 415,804 	"/>
</g>
<g id="Food">
	<polygon id="Wonderbar_Pizza" class="st7" points="268.5,822.5 280.5,807.5 284.5,810.5 300.5,791.5 347.5,829.5 319.5,863.5 	"/>
	<polygon id="WooSox_Market" class="st7" points="133.5,801.5 154.5,819.5 226,731.61 179.75,694.95 128.5,759.5 152.5,779.5 	"/>
	<polygon id="Infield_Fry" class="st7" points="78.5,626.5 78.5,550.95 60.5,550.95 60.5,543.3 28.41,543.3 28.41,627.68 
		78.5,627.68 	"/>
	<rect id="Bar" x="49.5" y="479.14" class="st7" width="53.84" height="33.36"/>
	<polygon id="Behind_the_Plate" class="st7" points="29.5,447.5 29.5,364.5 75.5,364.5 75.5,441.5 60.5,441.5 60.5,447.5 	"/>
	<polygon id="Coney_Island" class="st7" points="209.5,268.5 268.5,222.5 239.28,185.56 180.17,232.66 	"/>
	<polygon id="Nachos_x2F_Ice_Cream" class="st7" points="380.5,134.5 448.5,80.5 424.6,47.5 412.5,47.5 351.03,96.49 	"/>
</g>
<g id="Restrooms">
	<polygon id="Behind_Section_3" class="st8" points="239.28,185.56 268.5,222.5 380.5,134.5 351.03,96.49 	"/>
	<polygon id="Men_x27_s_Behind_Home_Plate" class="st8" points="75.5,364.5 96.49,364.5 96.49,336.04 118.03,336.04 118.03,315.5 
		32.5,315.5 32.5,352.76 36.5,352.76 36.5,364.5 	"/>
	<polygon id="Women_x27_s_Behind_Home_Plate" class="st8" points="28.41,627.68 28.41,718.86 57.5,741.5 109.5,678.5 92.5,665.5 
		92.5,648.5 104.5,648.5 104.5,627.68 	"/>
	<polygon class="st5" points="820.45,1032 799.5,1015.5 880.5,909.5 900.37,925.88 	"/>
	<polygon class="st8" points="1147.5,419.5 1147.5,456.65 1141.95,456.65 1141.95,535.83 1147.5,535.83 1147.5,572.5 1103.5,572.5 
		1103.5,418.48 1147.5,418.48 	"/>
</g>
<g id="Other">
	<polygon id="Fan_Services" class="st9" points="276.35,828.81 262.5,845.5 253.5,838.5 228.5,871.5 236.5,877.5 220.36,897.12 
		266.5,933.5 307.5,880.5 328.5,895.5 355.5,860.5 334.25,845.59 319.5,863.5 	"/>
	<polygon id="Merch" class="st10" points="213.78,746.64 227.5,758.5 191.5,802.5 177.68,791.01 	"/>
	<polygon id="Gate_D_Entrence" class="st3" points="100.43,689.49 132.5,715.5 126.5,722.5 146.04,737.41 128.5,759.5 152.5,779.5 
		133.5,801.5 57.5,741.5 84.5,708.79 	"/>
	<polyline class="st11" points="378.5,632.5 367.89,644.79 329.5,613.5 323,621.35 267.5,579.5 279.63,564.9 322,599 328.5,591.5 
		378.5,632.5 	"/>
</g>
<g id="Inaccessible_Areas">
	<polygon class="st12" points="32.5,352.76 6.5,352.76 6.5,258.5 139.72,259.45 139.72,284.02 125.5,284.02 125.5,301.5 
		105.5,301.5 105.5,315.5 32.5,315.5 	"/>
	<polygon class="st12" points="209.5,268.5 180.17,232.66 146.5,259.5 176.5,296.5 	"/>
	<polygon class="st12" points="676,874.48 613.5,959.5 607,968 744.5,1074.5 769.5,1040.5 780.5,1041.5 800.5,1059.5 820.45,1032 
		983.5,815.5 1097.5,815.5 1116.5,832.5 1383.5,487.5 1333.5,448.5 1276.5,430.5 1131.5,620.5 1097.5,592.5 980.98,742.71 
		971.5,735.5 757.5,915.5 745.5,926.5 	"/>
	<polygon class="st12" points="154.5,819.5 142,835.34 6.5,728.5 6.5,543.3 28.41,543.3 28.41,718.86 	"/>
</g>
<g id="Group_Seating_Areas">
	<polygon class="st13" points="498.5,127.5 488.5,98.5 527.5,68.5 676.5,68.5 676.5,49.22 777.5,49.22 778.65,49.22 780.5,49.22 
		769.5,58.5 699.5,127.5 	"/>
	<polygon class="st13" points="449.5,761.5 428.5,788.5 552.5,882.5 575.5,851.5 	"/>
	<path class="st14" d="M780.5,49.22H825L1191,334l-35,40c-2.22,4.4-4.49,9.58-6.5,15.5c-2.18,6.42-3.58,12.34-4.5,17.5
		c-14,0-28,0-42,0v11h-14.5l-37-136.5l-281-222L780.5,49.22z"/>
	<polygon class="st15" points="1073.8,605.93 1081.23,613.48 980.98,742.71 971.5,735.5 	"/>
	<polygon class="st15" points="495.5,118.5 708.5,118.5 699.55,127.55 498.5,127.5 	"/>
</g>
<g id="Elevators_and_Stairs">
	<polygon class="st16" points="552.5,882.5 539.5,872.5 547.5,861.5 560.5,871.5 	"/>
	<polygon class="st16" points="77.98,716.69 114.68,745.49 93.74,770.11 57.5,741.5 	"/>
	<polygon class="st16" points="676,874.48 745.5,926.5 757.5,915.5 683.42,863.16 	"/>
	<polygon class="st16" points="1097.5,592.5 1090.37,584.93 1073.8,605.93 1081.23,613.48 	"/>
	<polygon class="st16" points="1121.96,612.64 1140.5,589.5 1149.79,596.54 1131.5,620.5 	"/>
	<polygon class="st16" points="1276.5,430.5 1284.35,418.48 1339.14,441.7 1333.5,448.5 	"/>
	<rect x="639.28" y="49.22" class="st16" width="37.22" height="19.28"/>
	<polygon class="st16" points="113.5,747.5 128.5,759.5 152.5,779.5 133.5,801.5 93.74,770.11 	"/>
	<g id="Elevator_00000181776093538066145140000001500055812214217906_">
		<path d="M80.28,737.33h9c1.1,0,2,0.9,2,2v9c0,1.1-0.9,2-2,2h-9c-1.1,0-2-0.9-2-2v-9C78.28,738.23,79.17,737.33,80.28,737.33z"/>
		<polygon class="st17" points="82.28,740.83 84.28,740.83 83.28,738.83 		"/>
		<polygon class="st17" points="87.28,738.83 85.28,738.83 86.28,740.83 		"/>
		<path class="st17" d="M81.78,742.33L81.78,742.33c-0.28,0.28-0.28,0.72,0,1l0,0c0.28,0.28,0.72,0.28,1,0l0,0
			c0.28-0.28,0.28-0.72,0-1l0,0C82.5,742.06,82.06,742.06,81.78,742.33z"/>
		<polyline class="st17" points="80.78,743.83 83.78,743.83 83.78,746.83 82.78,748.83 81.78,748.83 80.78,746.83 80.78,743.83 		
			"/>
		<path class="st17" d="M86.78,742.33L86.78,742.33c-0.28,0.28-0.28,0.72,0,1l0,0c0.28,0.28,0.72,0.28,1,0l0,0
			c0.28-0.28,0.28-0.72,0-1l0,0C87.5,742.06,87.06,742.06,86.78,742.33z"/>
		<polyline class="st17" points="85.78,743.83 88.78,743.83 88.78,746.83 87.78,748.83 86.78,748.83 85.78,746.83 85.78,743.83 		
			"/>
	</g>
	<g id="Stairs_00000098903088281287089520000004078908519070461854_">
		<path d="M119,769h9c1.1,0,2,0.9,2,2v9c0,1.1-0.9,2-2,2h-9c-1.1,0-2-0.9-2-2v-9C117,769.9,117.9,769,119,769z"/>
		<polygon class="st17" points="119,772 121,772 121,774 123,774 123,776 125,776 125,778 127,778 127,780 119,780 		"/>
	</g>
	<g id="Stairs_00000139981263579771179970000002910917142393809313_">
		<path d="M739,909h9c1.1,0,2,0.9,2,2v9c0,1.1-0.9,2-2,2h-9c-1.1,0-2-0.9-2-2v-9C737,909.9,737.9,909,739,909z"/>
		<polygon class="st17" points="739,912 741,912 741,914 743,914 743,916 745,916 745,918 747,918 747,920 739,920 		"/>
	</g>
	<g id="Elevator_00000039840771600126616740000004451978367391091890_">
		<path d="M546.08,865.92h9c1.1,0,2,0.9,2,2v9c0,1.1-0.9,2-2,2h-9c-1.1,0-2-0.9-2-2v-9C544.08,866.82,544.98,865.92,546.08,865.92z"
			/>
		<polygon class="st17" points="548.08,869.42 550.08,869.42 549.08,867.42 		"/>
		<polygon class="st17" points="553.08,867.42 551.08,867.42 552.08,869.42 		"/>
		<path class="st17" d="M547.58,870.92L547.58,870.92c-0.28,0.28-0.28,0.72,0,1l0,0c0.28,0.28,0.72,0.28,1,0l0,0
			c0.28-0.28,0.28-0.72,0-1l0,0C548.31,870.65,547.86,870.65,547.58,870.92z"/>
		<polyline class="st17" points="546.58,872.42 549.58,872.42 549.58,875.42 548.58,877.42 547.58,877.42 546.58,875.42 
			546.58,872.42 		"/>
		<path class="st17" d="M552.58,870.92L552.58,870.92c-0.28,0.28-0.28,0.72,0,1l0,0c0.28,0.28,0.72,0.28,1,0l0,0
			c0.28-0.28,0.28-0.72,0-1l0,0C553.31,870.65,552.86,870.65,552.58,870.92z"/>
		<polyline class="st17" points="551.58,872.42 554.58,872.42 554.58,875.42 553.58,877.42 552.58,877.42 551.58,875.42 
			551.58,872.42 		"/>
	</g>
	<g id="Stairs_00000000920017485254706930000000935839008149501336_">
		<path d="M1085.25,590.11h9c1.1,0,2,0.9,2,2v9c0,1.1-0.9,2-2,2h-9c-1.1,0-2-0.9-2-2v-9
			C1083.25,591.01,1084.14,590.11,1085.25,590.11z"/>
		<polygon class="st17" points="1085.25,593.11 1087.25,593.11 1087.25,595.11 1089.25,595.11 1089.25,597.11 1091.25,597.11 
			1091.25,599.11 1093.25,599.11 1093.25,601.11 1085.25,601.11 		"/>
	</g>
	<g id="Stairs_00000036968002520922980350000005556839297134074245_">
		<path d="M1127,605h9c1.1,0,2,0.9,2,2v9c0,1.1-0.9,2-2,2h-9c-1.1,0-2-0.9-2-2v-9C1125,605.9,1125.9,605,1127,605z"/>
		<polygon class="st17" points="1127,608 1129,608 1129,610 1131,610 1131,612 1133,612 1133,614 1135,614 1135,616 1127,616 		"/>
	</g>
	<g id="Ramp_00000165197197847034298100000007299705704277162117_">
		<path d="M1304.04,427.81h9c1.1,0,2,0.9,2,2v9c0,1.1-0.9,2-2,2h-9c-1.1,0-2-0.9-2-2v-9
			C1302.04,428.7,1302.93,427.81,1304.04,427.81z"/>
		<polygon class="st17" points="1304.04,436.81 1312.04,438.81 1304.04,438.81 		"/>
		<path class="st17" d="M1310.04,431.31L1310.04,431.31c-0.28,0.28-0.28,0.72,0,1l0,0c0.28,0.28,0.72,0.28,1,0l0,0
			c0.28-0.28,0.28-0.72,0-1l0,0C1310.76,431.03,1310.31,431.03,1310.04,431.31z"/>
		<polyline class="st17" points="1309.04,432.81 1312.04,432.81 1312.04,435.81 1311.04,437.81 1310.04,437.81 1309.04,435.81 
			1309.04,432.81 		"/>
	</g>
</g>
<g id="Layer_9">
	<g>
		<g>
			<path class="st17" d="M478.15,193.98l2.62-1.79l-4.74-6.92l-2.24,1.54l-1.18-1.72c1.12-1.12,1.74-2.03,2.22-3.12l2.04-1.4
				l6.67,9.73l2.24-1.54l1.53,2.24l-7.63,5.23L478.15,193.98z"/>
		</g>
	</g>
	<g>
		<g>
			<path class="st17" d="M525.75,97.72l0.6-0.69c0.57,0.59,1.35,0.98,2.17,0.98c1.03,0,1.65-0.51,1.65-1.28
				c0-0.8-0.57-1.06-1.31-1.38l-1.13-0.5c-0.73-0.31-1.59-0.87-1.59-2.03c0-1.2,1.05-2.09,2.48-2.09c0.93,0,1.76,0.4,2.32,0.98
				l-0.53,0.64c-0.48-0.46-1.06-0.74-1.79-0.74c-0.88,0-1.47,0.45-1.47,1.15c0,0.76,0.69,1.04,1.3,1.3l1.12,0.49
				c0.91,0.39,1.62,0.93,1.62,2.1c0,1.24-1.03,2.24-2.68,2.24C527.4,98.88,526.44,98.43,525.75,97.72z"/>
			<path class="st17" d="M532.64,90.2h0.99v2.34l-0.04,1.2c0.54-0.53,1.13-0.96,1.94-0.96c1.23,0,1.78,0.79,1.78,2.28v3.69h-0.99
				v-3.57c0-1.09-0.33-1.55-1.1-1.55c-0.6,0-1.01,0.3-1.59,0.9v4.22h-0.99L532.64,90.2L532.64,90.2z"/>
			<path class="st17" d="M538.8,97.23c0-1.27,1.1-1.9,3.58-2.18c0-0.75-0.25-1.47-1.2-1.47c-0.67,0-1.28,0.32-1.74,0.62l-0.39-0.68
				c0.54-0.35,1.35-0.76,2.29-0.76c1.42,0,2.02,0.95,2.02,2.4v3.58h-0.81l-0.08-0.7h-0.03c-0.56,0.46-1.2,0.84-1.93,0.84
				C539.54,98.88,538.8,98.28,538.8,97.23z M542.38,97.32V95.7c-1.95,0.23-2.61,0.71-2.61,1.46c0,0.66,0.45,0.93,1.02,0.93
				C541.35,98.09,541.82,97.82,542.38,97.32z"/>
			<path class="st17" d="M544.52,92.91h1.01l0.87,3.37c0.13,0.55,0.23,1.08,0.35,1.63h0.05c0.13-0.55,0.25-1.08,0.4-1.63l0.9-3.37
				h0.96l0.91,3.37c0.14,0.55,0.27,1.08,0.41,1.63h0.05c0.13-0.55,0.23-1.07,0.36-1.63l0.85-3.37h0.94l-1.56,5.83h-1.2l-0.84-3.13
				c-0.14-0.55-0.25-1.09-0.39-1.68h-0.05c-0.13,0.59-0.24,1.14-0.4,1.69l-0.82,3.12h-1.15L544.52,92.91z"/>
			<path class="st17" d="M553.18,98.07l0.49-0.65c0.51,0.41,1.02,0.69,1.72,0.69c0.77,0,1.15-0.41,1.15-0.91
				c0-0.6-0.69-0.87-1.33-1.1c-0.82-0.3-1.74-0.7-1.74-1.68c0-0.93,0.75-1.65,2.01-1.65c0.73,0,1.36,0.3,1.81,0.65l-0.47,0.63
				c-0.4-0.3-0.81-0.52-1.33-0.52c-0.73,0-1.07,0.39-1.07,0.84c0,0.55,0.63,0.77,1.29,1.01c0.84,0.32,1.78,0.66,1.78,1.77
				c0,0.95-0.75,1.73-2.13,1.73C554.53,98.88,553.73,98.53,553.18,98.07z"/>
			<path class="st17" d="M560.27,90.87h1.06l1.27,4.26c0.28,0.93,0.47,1.68,0.76,2.6h0.05c0.29-0.92,0.49-1.67,0.76-2.6l1.26-4.26
				h1.02l-2.5,7.87h-1.16L560.27,90.87z"/>
			<path class="st17" d="M567.25,91.07c0-0.39,0.3-0.64,0.68-0.64s0.68,0.25,0.68,0.64c0,0.37-0.3,0.64-0.68,0.64
				S567.25,91.45,567.25,91.07z M567.44,92.91h0.99v5.83h-0.99V92.91z"/>
			<path class="st17" d="M569.74,98.07l0.49-0.65c0.51,0.41,1.02,0.69,1.72,0.69c0.77,0,1.15-0.41,1.15-0.91
				c0-0.6-0.69-0.87-1.33-1.1c-0.82-0.3-1.74-0.7-1.74-1.68c0-0.93,0.75-1.65,2.01-1.65c0.73,0,1.36,0.3,1.81,0.65l-0.47,0.63
				c-0.4-0.3-0.81-0.52-1.33-0.52c-0.73,0-1.07,0.39-1.07,0.84c0,0.55,0.63,0.77,1.29,1.01c0.84,0.32,1.78,0.66,1.78,1.77
				c0,0.95-0.75,1.73-2.13,1.73C571.09,98.88,570.29,98.53,569.74,98.07z"/>
			<path class="st17" d="M575.23,91.07c0-0.39,0.3-0.64,0.68-0.64s0.68,0.25,0.68,0.64c0,0.37-0.3,0.64-0.68,0.64
				C575.53,91.71,575.23,91.45,575.23,91.07z M575.42,92.91h0.99v5.83h-0.99V92.91z"/>
			<path class="st17" d="M578.54,96.94v-3.22h-0.87v-0.75l0.91-0.06l0.12-1.63h0.82v1.63h1.58v0.8h-1.58v3.24
				c0,0.71,0.23,1.13,0.9,1.13c0.21,0,0.48-0.08,0.66-0.16l0.19,0.74c-0.33,0.11-0.72,0.22-1.08,0.22
				C578.96,98.88,578.54,98.1,578.54,96.94z"/>
			<path class="st17" d="M581.99,95.83c0-1.95,1.27-3.07,2.7-3.07s2.7,1.12,2.7,3.07c0,1.93-1.27,3.05-2.7,3.05
				C583.26,98.88,581.99,97.76,581.99,95.83z M586.37,95.83c0-1.34-0.68-2.25-1.68-2.25s-1.68,0.91-1.68,2.25s0.68,2.23,1.68,2.23
				C585.69,98.06,586.37,97.17,586.37,95.83z"/>
			<path class="st17" d="M588.93,92.91h0.81l0.08,1.06h0.03c0.41-0.74,1-1.21,1.66-1.21c0.26,0,0.44,0.03,0.62,0.12l-0.18,0.87
				c-0.2-0.06-0.33-0.1-0.57-0.1c-0.49,0-1.08,0.35-1.47,1.34v3.74h-0.99L588.93,92.91L588.93,92.91z"/>
			<path class="st17" d="M592.86,93.11c0.6-0.4,0.91-0.82,0.91-1.5l-0.14-0.79l0.5,0.61c-0.15,0.14-0.27,0.21-0.46,0.21
				c-0.33,0-0.64-0.22-0.64-0.6c0-0.41,0.26-0.66,0.64-0.66c0.48,0,0.76,0.39,0.76,1.08c0,0.96-0.45,1.65-1.28,2.13L592.86,93.11z"
				/>
			<path class="st17" d="M595.43,98.07l0.49-0.65c0.51,0.41,1.02,0.69,1.72,0.69c0.77,0,1.15-0.41,1.15-0.91
				c0-0.6-0.69-0.87-1.33-1.1c-0.82-0.3-1.74-0.7-1.74-1.68c0-0.93,0.75-1.65,2.01-1.65c0.73,0,1.36,0.3,1.81,0.65l-0.47,0.63
				c-0.4-0.3-0.81-0.52-1.33-0.52c-0.73,0-1.07,0.39-1.07,0.84c0,0.55,0.63,0.77,1.29,1.01c0.84,0.32,1.78,0.66,1.78,1.77
				c0,0.95-0.75,1.73-2.13,1.73C596.78,98.88,595.98,98.53,595.43,98.07z"/>
			<path class="st17" d="M603.6,90.87h2.34c1.6,0,2.71,0.54,2.71,1.93c0,0.78-0.41,1.47-1.15,1.71v0.05c0.94,0.19,1.6,0.81,1.6,1.88
				c0,1.55-1.22,2.3-2.98,2.3h-2.52V90.87z M605.77,94.22c1.34,0,1.89-0.49,1.89-1.29c0-0.92-0.63-1.26-1.85-1.26h-1.21v2.55H605.77
				z M605.97,97.95c1.35,0,2.14-0.48,2.14-1.55c0-0.97-0.76-1.41-2.14-1.41h-1.37v2.96C604.6,97.95,605.97,97.95,605.97,97.95z"/>
			<path class="st17" d="M610.48,96.6v-3.69h0.99v3.57c0,1.09,0.33,1.55,1.1,1.55c0.6,0,1.01-0.3,1.56-0.98v-4.13h0.99v5.83h-0.81
				l-0.08-0.91h-0.03c-0.54,0.64-1.12,1.06-1.92,1.06C611.04,98.88,610.48,98.09,610.48,96.6z"/>
			<path class="st17" d="M617.09,97.57V90.2h0.99v7.45c0,0.3,0.13,0.42,0.27,0.42c0.06,0,0.1,0,0.22-0.02l0.13,0.75
				c-0.14,0.05-0.31,0.09-0.57,0.09C617.39,98.88,617.09,98.41,617.09,97.57z"/>
			<path class="st17" d="M620.15,97.57V90.2h0.99v7.45c0,0.3,0.13,0.42,0.27,0.42c0.06,0,0.1,0,0.22-0.02l0.13,0.75
				c-0.14,0.05-0.31,0.09-0.57,0.09C620.45,98.88,620.15,98.41,620.15,97.57z"/>
			<path class="st17" d="M623.21,92.91h0.81l0.08,0.67h0.03c0.53-0.44,1.18-0.82,1.86-0.82c1.51,0,2.31,1.17,2.31,2.97
				c0,1.99-1.19,3.15-2.52,3.15c-0.53,0-1.08-0.25-1.62-0.68l0.03,1.02v1.97h-0.99L623.21,92.91L623.21,92.91z M627.29,95.75
				c0-1.29-0.44-2.15-1.54-2.15c-0.49,0-0.99,0.27-1.56,0.8v3.06c0.53,0.44,1.03,0.61,1.42,0.61
				C626.58,98.05,627.29,97.19,627.29,95.75z"/>
			<path class="st17" d="M629.44,95.83c0-1.9,1.28-3.07,2.62-3.07c1.49,0,2.33,1.07,2.33,2.74c0,0.21-0.02,0.42-0.05,0.56h-3.93
				c0.07,1.23,0.83,2.04,1.94,2.04c0.56,0,1.02-0.18,1.45-0.47l0.35,0.65c-0.51,0.33-1.13,0.6-1.92,0.6
				C630.67,98.88,629.44,97.75,629.44,95.83z M633.51,95.36c0-1.17-0.53-1.8-1.44-1.8c-0.82,0-1.55,0.66-1.67,1.8H633.51z"/>
			<path class="st17" d="M635.82,92.91h0.81l0.08,0.84h0.03c0.56-0.55,1.16-0.98,1.96-0.98c1.23,0,1.78,0.79,1.78,2.28v3.69h-0.99
				v-3.57c0-1.09-0.33-1.55-1.1-1.55c-0.6,0-1.01,0.3-1.59,0.9v4.22h-0.99L635.82,92.91L635.82,92.91z"/>
			<path class="st17" d="M646.52,91.72h-2.38v-0.85h5.76v0.85h-2.38v7.02h-1V91.72z"/>
			<path class="st17" d="M650.78,95.83c0-1.9,1.28-3.07,2.62-3.07c1.49,0,2.33,1.07,2.33,2.74c0,0.21-0.02,0.42-0.05,0.56h-3.93
				c0.07,1.23,0.83,2.04,1.94,2.04c0.56,0,1.02-0.18,1.45-0.47l0.35,0.65c-0.51,0.33-1.13,0.6-1.93,0.6
				C652.02,98.88,650.78,97.75,650.78,95.83z M654.86,95.36c0-1.17-0.53-1.8-1.44-1.8c-0.82,0-1.55,0.66-1.67,1.8H654.86z"/>
			<path class="st17" d="M657.17,92.91h0.82l0.08,1.06h0.03c0.41-0.74,1-1.21,1.66-1.21c0.26,0,0.44,0.03,0.62,0.12l-0.18,0.87
				c-0.2-0.06-0.33-0.1-0.57-0.1c-0.49,0-1.08,0.35-1.48,1.34v3.74h-0.99L657.17,92.91L657.17,92.91z"/>
			<path class="st17" d="M661.33,92.91h0.82l0.08,1.06h0.03c0.41-0.74,1-1.21,1.66-1.21c0.26,0,0.44,0.03,0.62,0.12l-0.18,0.87
				c-0.2-0.06-0.33-0.1-0.57-0.1c-0.49,0-1.08,0.35-1.48,1.34v3.74h-0.99L661.33,92.91L661.33,92.91z"/>
			<path class="st17" d="M665.14,97.23c0-1.27,1.1-1.9,3.58-2.18c0-0.75-0.25-1.47-1.2-1.47c-0.67,0-1.28,0.32-1.74,0.62l-0.39-0.68
				c0.54-0.35,1.35-0.76,2.29-0.76c1.42,0,2.02,0.95,2.02,2.4v3.58h-0.81l-0.08-0.7h-0.03c-0.56,0.46-1.21,0.84-1.93,0.84
				C665.87,98.88,665.14,98.28,665.14,97.23z M668.72,97.32V95.7c-1.95,0.23-2.61,0.71-2.61,1.46c0,0.66,0.45,0.93,1.02,0.93
				C667.69,98.09,668.15,97.82,668.72,97.32z"/>
			<path class="st17" d="M671.11,95.83c0-1.95,1.31-3.07,2.8-3.07c0.76,0,1.29,0.32,1.71,0.68l-0.5,0.65
				c-0.34-0.31-0.7-0.52-1.16-0.52c-1.06,0-1.83,0.91-1.83,2.25s0.73,2.23,1.8,2.23c0.53,0,1-0.26,1.37-0.58l0.43,0.66
				c-0.52,0.47-1.19,0.74-1.88,0.74C672.29,98.88,671.11,97.76,671.11,95.83z"/>
			<path class="st17" d="M676.58,95.83c0-1.9,1.28-3.07,2.62-3.07c1.49,0,2.33,1.07,2.33,2.74c0,0.21-0.02,0.42-0.05,0.56h-3.93
				c0.07,1.23,0.83,2.04,1.94,2.04c0.56,0,1.02-0.18,1.45-0.47l0.35,0.65c-0.51,0.33-1.13,0.6-1.92,0.6
				C677.82,98.88,676.58,97.75,676.58,95.83z M680.66,95.36c0-1.17-0.53-1.8-1.44-1.8c-0.82,0-1.55,0.66-1.67,1.8H680.66z"/>
		</g>
	</g>
	<g>
		<g>
			<path class="st17" d="M458.3,783.96l0.89-0.21c0.12,0.81,0.53,1.58,1.2,2.06c0.84,0.6,1.64,0.54,2.08-0.08
				c0.47-0.65,0.15-1.19-0.26-1.89l-0.63-1.06c-0.41-0.68-0.79-1.63-0.11-2.58c0.7-0.98,2.07-1.09,3.23-0.26
				c0.76,0.54,1.2,1.36,1.32,2.14l-0.81,0.21c-0.13-0.65-0.43-1.22-1.02-1.64c-0.72-0.51-1.45-0.49-1.86,0.08
				c-0.44,0.62-0.05,1.25,0.3,1.82l0.63,1.05c0.51,0.85,0.77,1.7,0.09,2.65c-0.72,1.01-2.14,1.22-3.48,0.26
				C458.96,785.87,458.44,784.95,458.3,783.96z"/>
			<path class="st17" d="M468.28,781.86l0.8,0.57l-1.36,1.9l-0.73,0.95c0.75-0.11,1.48-0.12,2.13,0.34c1,0.72,0.99,1.68,0.12,2.89
				l-2.15,3l-0.8-0.58l2.08-2.9c0.63-0.88,0.64-1.45,0.01-1.9c-0.48-0.35-1-0.34-1.82-0.2l-2.46,3.43l-0.8-0.57L468.28,781.86z"/>
			<path class="st17" d="M469.2,791.17c0.74-1.03,2-0.91,4.18,0.32c0.44-0.61,0.65-1.34-0.12-1.9c-0.55-0.39-1.23-0.49-1.78-0.5
				l0.08-0.77c0.64,0.03,1.54,0.17,2.31,0.71c1.16,0.83,1.09,1.95,0.25,3.13l-2.08,2.91l-0.66-0.47l0.34-0.62l-0.03-0.02
				c-0.72,0.05-1.47-0.02-2.06-0.44C468.83,792.94,468.59,792.02,469.2,791.17z M472.06,793.33l0.94-1.32
				c-1.72-0.95-2.54-0.94-2.97-0.34c-0.39,0.54-0.18,1.02,0.29,1.35C470.77,793.36,471.31,793.4,472.06,793.33z"/>
			<path class="st17" d="M476.36,790.99l0.82,0.59l-1.26,3.24c-0.22,0.52-0.44,1.01-0.67,1.52l0.04,0.03
				c0.42-0.37,0.83-0.73,1.27-1.09l2.69-2.21l0.78,0.56l-1.22,3.27c-0.21,0.53-0.41,1.03-0.62,1.56l0.04,0.03
				c0.42-0.37,0.81-0.73,1.24-1.11l2.65-2.24l0.76,0.55l-4.67,3.83l-0.98-0.7l1.14-3.04c0.21-0.53,0.43-1.03,0.66-1.59l-0.04-0.03
				c-0.45,0.41-0.86,0.79-1.31,1.14l-2.48,2.06l-0.94-0.67L476.36,790.99z"/>
			<path class="st17" d="M480.39,800.23l0.77-0.25c0.17,0.63,0.43,1.16,1,1.56c0.62,0.45,1.17,0.34,1.46-0.07
				c0.35-0.49-0.06-1.1-0.44-1.67c-0.49-0.72-1-1.58-0.43-2.38c0.54-0.76,1.57-0.91,2.6-0.17c0.59,0.42,0.93,1.03,1.09,1.59
				l-0.75,0.24c-0.15-0.48-0.36-0.9-0.78-1.2c-0.6-0.43-1.1-0.31-1.36,0.05c-0.32,0.45,0.07,0.99,0.46,1.58
				c0.5,0.75,1.06,1.57,0.42,2.47c-0.55,0.77-1.62,0.97-2.74,0.17C481.02,801.67,480.57,800.92,480.39,800.23z"/>
			<path class="st17" d="M491.23,799.13l0.81,0.58l-1.92,2.68l2.98,2.13l1.92-2.68l0.81,0.58l-4.58,6.4l-0.81-0.58l2.16-3.01
				l-2.98-2.13l-2.16,3.01l-0.81-0.58L491.23,799.13z"/>
			<path class="st17" d="M494.27,807.42c1.13-1.58,2.82-1.75,3.98-0.92s1.54,2.48,0.41,4.07c-1.12,1.57-2.81,1.74-3.97,0.91
				S493.15,808.99,494.27,807.42z M497.83,809.97c0.78-1.09,0.76-2.22-0.06-2.8s-1.9-0.24-2.67,0.85c-0.78,1.09-0.75,2.21,0.07,2.79
				C495.98,811.39,497.05,811.06,497.83,809.97z"/>
			<path class="st17" d="M501.61,809.08l0.66,0.47l-0.42,0.74l0.03,0.02c0.74-0.15,1.49-0.15,2.05,0.25
				c0.72,0.52,0.86,1.14,0.66,1.84c0.87-0.18,1.63-0.2,2.21,0.22c0.97,0.7,0.98,1.68,0.11,2.89l-2.15,3l-0.8-0.58l2.08-2.9
				c0.63-0.88,0.62-1.46,0.02-1.89c-0.37-0.26-0.92-0.3-1.71-0.12l-2.46,3.43l-0.8-0.57l2.08-2.9c0.63-0.88,0.62-1.46,0.02-1.89
				c-0.35-0.25-0.92-0.3-1.71-0.12l-2.46,3.43l-0.8-0.58L501.61,809.08z"/>
			<path class="st17" d="M507.64,817c1.1-1.54,2.83-1.75,3.92-0.97c1.21,0.87,1.27,2.22,0.3,3.58c-0.12,0.17-0.26,0.33-0.36,0.43
				l-3.19-2.29c-0.66,1.04-0.51,2.14,0.39,2.78c0.45,0.33,0.93,0.45,1.45,0.47l-0.09,0.73c-0.61-0.03-1.27-0.17-1.92-0.63
				C506.87,820.2,506.53,818.56,507.64,817z M511.23,818.99c0.68-0.95,0.62-1.77-0.12-2.3c-0.67-0.48-1.65-0.37-2.41,0.49
				L511.23,818.99z"/>
			<path class="st17" d="M517.75,818.14l1.9,1.36c1.3,0.93,1.88,2.02,1.08,3.14c-0.45,0.63-1.19,0.95-1.93,0.72l-0.03,0.04
				c0.66,0.7,0.83,1.59,0.2,2.46c-0.9,1.26-2.34,1.16-3.76,0.14l-2.04-1.47L517.75,818.14z M515.56,825.27
				c1.09,0.78,2.02,0.85,2.64-0.01c0.56-0.79,0.2-1.59-0.92-2.39l-1.11-0.8l-1.72,2.4L515.56,825.27z M517.56,822.12
				c1.09,0.78,1.83,0.7,2.29,0.05c0.54-0.75,0.22-1.39-0.77-2.1l-0.98-0.71l-1.49,2.08L517.56,822.12z"/>
			<path class="st17" d="M520.01,826.81l2.15-3l0.8,0.57l-2.08,2.9c-0.63,0.88-0.64,1.45-0.01,1.9c0.48,0.35,0.99,0.35,1.84,0.11
				l2.41-3.36l0.8,0.57l-3.4,4.74l-0.66-0.47l0.46-0.79l-0.03-0.02c-0.81,0.2-1.53,0.21-2.18-0.26
				C519.13,828.98,519.14,828.02,520.01,826.81z"/>
			<path class="st17" d="M524.81,831.44l4.29-5.99l0.8,0.58l-4.34,6.05c-0.18,0.25-0.14,0.42-0.02,0.5
				c0.05,0.03,0.09,0.06,0.19,0.11l-0.33,0.69c-0.14-0.04-0.31-0.11-0.52-0.26C524.29,832.69,524.32,832.13,524.81,831.44z"/>
			<path class="st17" d="M527.3,833.22l4.29-5.99l0.8,0.57l-4.34,6.05c-0.18,0.24-0.14,0.42-0.02,0.5c0.05,0.03,0.08,0.06,0.19,0.11
				l-0.33,0.69c-0.14-0.04-0.31-0.11-0.52-0.26C526.78,834.47,526.81,833.91,527.3,833.22z"/>
			<path class="st17" d="M532.5,831.22l0.66,0.47l-0.32,0.6l0.03,0.02c0.68-0.05,1.44,0.03,1.99,0.42c1.22,0.88,1.2,2.3,0.15,3.76
				c-1.16,1.62-2.8,1.86-3.89,1.09c-0.43-0.31-0.74-0.83-0.92-1.49l-0.57,0.84l-1.15,1.6l-0.8-0.57L532.5,831.22z M534.17,835.9
				c0.75-1.05,0.89-2,0-2.64c-0.4-0.29-0.96-0.36-1.73-0.26l-1.78,2.48c0.17,0.67,0.49,1.09,0.8,1.32
				C532.25,837.36,533.33,837.07,534.17,835.9z"/>
			<path class="st17" d="M535.86,837.22c1.1-1.54,2.83-1.75,3.92-0.97c1.21,0.87,1.27,2.22,0.3,3.58c-0.12,0.17-0.26,0.33-0.36,0.43
				l-3.19-2.29c-0.66,1.04-0.51,2.13,0.39,2.78c0.45,0.33,0.93,0.45,1.45,0.46l-0.09,0.73c-0.61-0.03-1.27-0.17-1.92-0.63
				C535.09,840.42,534.75,838.78,535.86,837.22z M539.45,839.21c0.68-0.95,0.62-1.77-0.12-2.3c-0.67-0.48-1.65-0.37-2.41,0.49
				L539.45,839.21z"/>
			<path class="st17" d="M542.75,838.56l0.66,0.47l-0.42,0.73l0.03,0.02c0.77-0.12,1.51-0.13,2.16,0.34c1,0.72,0.99,1.68,0.12,2.89
				l-2.15,3l-0.8-0.57l2.08-2.9c0.63-0.88,0.64-1.45,0.01-1.9c-0.48-0.35-1-0.34-1.82-0.2l-2.46,3.43l-0.8-0.58L542.75,838.56z"/>
			<path class="st17" d="M482.99,811.98l-1.94-1.39l0.49-0.69l4.69,3.36l-0.49,0.69l-1.94-1.39l-4.09,5.71l-0.81-0.58L482.99,811.98
				z"/>
			<path class="st17" d="M484.06,817.82c1.1-1.54,2.83-1.75,3.92-0.97c1.21,0.87,1.27,2.22,0.3,3.58c-0.12,0.17-0.26,0.33-0.36,0.43
				l-3.19-2.29c-0.66,1.04-0.51,2.14,0.39,2.78c0.45,0.33,0.93,0.45,1.45,0.47l-0.09,0.73c-0.61-0.03-1.27-0.17-1.92-0.63
				C483.29,821.02,482.94,819.37,484.06,817.82z M487.65,819.8c0.68-0.95,0.62-1.77-0.12-2.3c-0.67-0.48-1.65-0.37-2.41,0.49
				L487.65,819.8z"/>
			<path class="st17" d="M490.95,819.16l0.66,0.47l-0.55,0.91l0.03,0.02c0.76-0.37,1.52-0.4,2.05-0.02
				c0.21,0.15,0.34,0.28,0.44,0.46l-0.65,0.6c-0.13-0.17-0.21-0.27-0.4-0.41c-0.4-0.29-1.09-0.34-1.98,0.23l-2.18,3.04l-0.8-0.57
				L490.95,819.16z"/>
			<path class="st17" d="M494.34,821.58l0.66,0.47l-0.55,0.91l0.03,0.02c0.76-0.36,1.52-0.4,2.05-0.01
				c0.21,0.15,0.34,0.28,0.44,0.46l-0.65,0.6c-0.13-0.17-0.21-0.27-0.4-0.41c-0.4-0.29-1.09-0.34-1.98,0.23l-2.18,3.04l-0.8-0.57
				L494.34,821.58z"/>
			<path class="st17" d="M494.91,827.31c0.74-1.03,2-0.91,4.18,0.32c0.44-0.61,0.65-1.34-0.12-1.9c-0.55-0.39-1.23-0.49-1.78-0.5
				l0.08-0.77c0.64,0.03,1.54,0.17,2.31,0.71c1.16,0.83,1.09,1.95,0.25,3.13l-2.08,2.91l-0.66-0.47l0.34-0.61l-0.03-0.02
				c-0.72,0.05-1.47-0.02-2.06-0.44C494.54,829.08,494.3,828.16,494.91,827.31z M497.77,829.47l0.94-1.32
				c-1.73-0.95-2.54-0.94-2.97-0.34c-0.39,0.54-0.18,1.02,0.29,1.35C496.48,829.5,497.02,829.54,497.77,829.47z"/>
			<path class="st17" d="M500.58,829.66c1.13-1.58,2.85-1.73,4.07-0.86c0.62,0.45,0.87,1.01,0.99,1.55l-0.79,0.24
				c-0.1-0.45-0.27-0.83-0.64-1.09c-0.86-0.61-2.02-0.33-2.79,0.76c-0.78,1.09-0.7,2.24,0.17,2.86c0.43,0.31,0.97,0.38,1.45,0.33
				l-0.04,0.79c-0.7,0.08-1.39-0.09-1.96-0.5C499.77,832.83,499.46,831.23,500.58,829.66z"/>
			<path class="st17" d="M505.03,832.84c1.1-1.54,2.83-1.75,3.92-0.97c1.21,0.87,1.27,2.22,0.3,3.58c-0.12,0.17-0.26,0.33-0.36,0.43
				l-3.19-2.29c-0.66,1.04-0.51,2.14,0.39,2.78c0.45,0.33,0.93,0.45,1.45,0.47l-0.09,0.73c-0.61-0.03-1.27-0.17-1.92-0.63
				C504.26,836.04,503.91,834.4,505.03,832.84z M508.62,834.83c0.68-0.95,0.62-1.77-0.12-2.3c-0.67-0.48-1.65-0.37-2.41,0.49
				L508.62,834.83z"/>
		</g>
	</g>
	<text transform="matrix(1 0 0 1 696.1577 978.2285)" class="st17 st18 st19">See level 3</text>
	<g>
		<g>
			<path class="st17" d="M432.14,231.44c1.07-4.97,1.82-8.48,0.64-10.19c-0.79-1.16-1.87-1.35-2.93-0.63
				c-0.85,0.58-1.13,1.63-1.29,2.67l-2.53-0.47c0.31-2.07,1-3.47,2.71-4.64c2.36-1.62,5-1.21,6.58,1.09
				c1.38,2.02,0.97,5.45,0.4,8.82c0.57-0.49,1.35-1.13,1.91-1.51l2.41-1.65l1.6,2.33l-8.42,5.77L432.14,231.44z"/>
		</g>
	</g>
	<g>
		<g>
			<path class="st17" d="M387.93,265.75l0.08-2.63c1.21,0.2,2.45,0.1,3.45-0.59c1.17-0.8,1.6-1.84,0.97-2.76
				c-0.72-1.05-1.78-1.28-4.38,0.51l-1.35-1.96c2.15-1.47,2.38-2.59,1.73-3.54c-0.58-0.84-1.44-0.95-2.38-0.31
				c-0.85,0.58-1.23,1.41-1.52,2.58l-2.56-0.73c0.45-1.7,1.26-3.11,2.71-4.11c2.49-1.7,4.94-1.65,6.38,0.45
				c0.84,1.23,0.74,2.6-0.17,4.03l0.05,0.07c1.65-0.55,3.32-0.26,4.38,1.28c1.53,2.23,0.35,4.88-2.06,6.53
				C391.32,265.92,389.5,266.16,387.93,265.75z"/>
		</g>
	</g>
	<g>
		<g>
			<path class="st17" d="M345.32,285.79c-0.52-0.76-1.25-1.97-1.73-2.75l-0.08,0.05c0.16,0.88,0.28,1.78,0.41,2.69l0.22,3.69
				l6.48-4.44l1.45,2.11l-9.14,6.26l-1.31-1.92l-0.56-10.19l3.39-2.32l8.2,11.97l-2.58,1.77L345.32,285.79z"/>
		</g>
	</g>
	<g>
		<g>
			<path class="st17" d="M303.84,328.47l0.05-2.6c1.17,0.17,2.39,0.12,3.4-0.57c1.22-0.84,1.57-2.03,0.72-3.25
				c-0.82-1.2-2.04-1.32-3.15-0.56c-0.69,0.48-0.95,0.88-1.35,1.83l-1.78,0.05l-3.81-6.27l6.79-4.65l1.6,2.33l-4.4,3.01l1.34,2.38
				c0.32-0.5,0.65-0.85,1.14-1.19c2.07-1.42,4.61-1.44,6.36,1.1c1.82,2.66,0.81,5.59-1.52,7.19
				C307.27,328.59,305.42,328.76,303.84,328.47z"/>
		</g>
	</g>
	<g>
		<g>
			<path class="st17" d="M263.12,356.89c-3.07-4.47-2.12-8.08,0.39-9.8c1.58-1.08,3.2-1.21,4.49-0.96l-0.33,2.66
				c-0.72-0.18-1.75-0.07-2.45,0.41c-1.39,0.95-1.76,2.77,0.42,5.96c2.04,2.97,3.57,3.21,4.58,2.52c0.82-0.56,1.11-1.61,0.18-2.96
				c-0.87-1.26-1.86-1.29-2.77-0.67c-0.62,0.43-1.08,1.25-0.98,2.57l-1.36-1.72c0-1.33,0.75-2.62,1.54-3.16
				c2.05-1.4,4.36-1.28,6.1,1.26c1.71,2.49,0.94,5.25-1.23,6.74C269.39,361.31,266,361.1,263.12,356.89z"/>
		</g>
	</g>
	<g>
		<g>
			<path class="st17" d="M223.85,384.24l-5.36,3.68l-1.6-2.33l8.33-5.71l1.17,1.71c-0.49,5.24,0.68,7.76,3.65,12.58l-2.78,1.91
				C224.75,391.94,223.73,388.93,223.85,384.24z"/>
		</g>
	</g>
	<g>
		<g>
			<path class="st17" d="M194.71,441.97c0-1.75,1.11-2.83,2.48-3.56v-0.09c-1.13-0.84-1.95-1.89-1.95-3.41
				c0-2.47,1.95-4.01,4.64-4.01c2.66,0,4.41,1.57,4.41,3.98c0,1.38-0.9,2.5-1.89,3.17v0.09c1.38,0.76,2.5,1.87,2.5,3.79
				c0,2.29-2.06,4.02-5.13,4.02C196.88,445.96,194.71,444.33,194.71,441.97z M201.78,441.83c0-1.28-1.24-1.77-3.06-2.53
				c-0.64,0.57-1.11,1.4-1.11,2.3c0,1.27,1.02,2.03,2.24,2.03C200.95,443.62,201.78,443.04,201.78,441.83z M201.57,435.11
				c0-1.13-0.65-1.87-1.76-1.87c-0.89,0-1.61,0.56-1.61,1.67c0,1.18,1.01,1.74,2.48,2.33C201.25,436.57,201.57,435.87,201.57,435.11
				z"/>
		</g>
	</g>
	<g>
		<g>
			<path class="st17" d="M195.8,496.15l1.77-2.01c0.49,0.56,1.4,1.05,2.25,1.05c1.71,0,3.02-1.29,3.02-5.15
				c0-3.6-1.13-4.67-2.36-4.67c-0.99,0-1.83,0.7-1.83,2.34c0,1.53,0.81,2.11,1.9,2.11c0.76,0,1.6-0.42,2.26-1.56l0.15,2.19
				c-0.75,1.1-2.1,1.74-3.06,1.74c-2.48,0-4.32-1.41-4.32-4.49c0-3.02,2.2-4.86,4.82-4.86c2.81,0,5.49,2.1,5.49,7.19
				c0,5.42-2.81,7.86-5.86,7.86C198.13,497.9,196.72,497.08,195.8,496.15z"/>
		</g>
	</g>
	<g>
		<g>
			<path class="st17" d="M191.41,560.91h3.17v-8.39h-2.72v-2.08c1.56-0.3,2.58-0.69,3.6-1.32h2.48v11.8h2.72v2.71h-9.25
				L191.41,560.91L191.41,560.91z"/>
			<path class="st17" d="M202.72,556.3c0-4.94,2.07-7.46,5.19-7.46s5.19,2.54,5.19,7.46c0,4.94-2.07,7.59-5.19,7.59
				C204.79,563.9,202.72,561.24,202.72,556.3z M209.92,556.3c0-3.96-0.88-4.87-2.01-4.87s-2.01,0.91-2.01,4.87s0.88,4.99,2.01,4.99
				S209.92,560.26,209.92,556.3z"/>
		</g>
	</g>
	<g>
		<g>
			<path class="st17" d="M218.41,610.02l2.12-2.35l-6.23-5.62l-1.82,2.02l-1.55-1.4c0.82-1.35,1.22-2.38,1.43-3.55l1.66-1.84
				l8.76,7.9l1.82-2.02l2.01,1.82l-6.2,6.86L218.41,610.02z"/>
			<path class="st17" d="M226.49,601.07l2.12-2.35l-6.23-5.62l-1.82,2.02l-1.55-1.4c0.82-1.35,1.22-2.38,1.43-3.56l1.66-1.84
				l8.76,7.9l1.82-2.02l2.01,1.82l-6.19,6.86L226.49,601.07z"/>
		</g>
	</g>
	<g>
		<g>
			<path class="st17" d="M255.2,661.04l2.12-2.35l-6.23-5.62l-1.82,2.02l-1.55-1.4c0.82-1.35,1.22-2.38,1.43-3.55l1.66-1.84
				l8.76,7.9l1.82-2.02l2.01,1.82l-6.2,6.86L255.2,661.04z"/>
			<path class="st17" d="M263.36,653.16c-0.12-5.08-0.21-8.67-1.75-10.06c-1.04-0.94-2.14-0.88-2.99,0.07
				c-0.69,0.77-0.71,1.85-0.63,2.9l-2.56,0.14c-0.18-2.08,0.16-3.6,1.55-5.14c1.92-2.12,4.58-2.35,6.65-0.47
				c1.81,1.64,2.22,5.07,2.45,8.48c0.44-0.61,1.05-1.42,1.5-1.91l1.96-2.17l2.1,1.89l-6.84,7.57L263.36,653.16z"/>
		</g>
	</g>
	<g>
		<g>
			<path class="st17" d="M305.2,692.04l2.12-2.35l-6.23-5.62l-1.82,2.02l-1.55-1.4c0.82-1.35,1.22-2.38,1.43-3.55l1.66-1.84
				l8.76,7.9l1.82-2.02l2.01,1.82l-6.2,6.86L305.2,692.04z"/>
			<path class="st17" d="M313.24,684.52l-0.54-2.57c1.22-0.09,2.4-0.47,3.22-1.38c0.95-1.05,1.12-2.16,0.29-2.91
				c-0.95-0.85-2.03-0.83-4.14,1.52l-1.77-1.59c1.75-1.94,1.71-3.07,0.85-3.85c-0.76-0.68-1.62-0.59-2.38,0.26
				c-0.69,0.77-0.87,1.66-0.88,2.86l-2.66-0.11c0.04-1.76,0.49-3.32,1.68-4.63c2.02-2.24,4.42-2.76,6.31-1.05
				c1.11,1,1.33,2.35,0.77,3.95l0.07,0.06c1.48-0.92,3.17-1.03,4.56,0.22c2,1.81,1.48,4.67-0.48,6.83
				C316.58,683.88,314.86,684.55,313.24,684.52z"/>
		</g>
	</g>
	<g>
		<g>
			<path class="st17" d="M343.2,722.04l2.12-2.35l-6.23-5.62l-1.82,2.02l-1.55-1.4c0.82-1.35,1.22-2.38,1.43-3.55l1.66-1.84
				l8.76,7.9l1.82-2.02l2.01,1.82l-6.2,6.86L343.2,722.04z"/>
			<path class="st17" d="M350.5,705.48c-0.68-0.62-1.67-1.62-2.33-2.27l-0.06,0.07c0.36,0.82,0.68,1.66,1.02,2.52l1.07,3.53
				l5.27-5.83l1.9,1.71l-7.42,8.22l-1.72-1.55l-2.93-9.78l2.75-3.05l10.77,9.72l-2.1,2.32L350.5,705.48z"/>
		</g>
	</g>
	<g>
		<g>
			<path class="st17" d="M384.2,755.04l2.12-2.35l-6.23-5.62l-1.82,2.02l-1.55-1.4c0.82-1.35,1.22-2.38,1.43-3.55l1.66-1.84
				l8.76,7.9l1.82-2.02l2.01,1.82l-6.2,6.86L384.2,755.04z"/>
			<path class="st17" d="M392.26,747.51l-0.56-2.54c1.18-0.11,2.35-0.44,3.18-1.35c0.99-1.1,1.05-2.34-0.06-3.33
				c-1.08-0.97-2.29-0.81-3.19,0.19c-0.56,0.62-0.72,1.07-0.89,2.09l-1.72,0.46l-5.17-5.2l5.51-6.11l2.09,1.89l-3.57,3.96l1.86,2
				c0.2-0.57,0.43-0.98,0.83-1.42c1.68-1.86,4.15-2.48,6.44-0.41c2.39,2.16,2.09,5.25,0.2,7.35
				C395.62,746.83,393.87,747.43,392.26,747.51z"/>
		</g>
	</g>
	<g>
		<g>
			<path class="st17" d="M418.2,783.04l2.12-2.35l-6.23-5.62l-1.82,2.02l-1.55-1.4c0.82-1.35,1.22-2.38,1.43-3.55l1.66-1.84
				l8.76,7.9l1.82-2.02l2.01,1.82l-6.2,6.86L418.2,783.04z"/>
			<path class="st17" d="M422.71,771.75c-4.03-3.63-3.95-7.36-1.91-9.62c1.29-1.43,2.83-1.92,4.14-1.98l0.3,2.66
				c-0.75-0.01-1.72,0.34-2.28,0.97c-1.13,1.25-1.07,3.1,1.8,5.69c2.67,2.41,4.23,2.29,5.05,1.38c0.66-0.74,0.7-1.83-0.51-2.92
				c-1.14-1.03-2.11-0.82-2.84,0c-0.51,0.56-0.76,1.47-0.35,2.72l-1.73-1.36c-0.31-1.29,0.12-2.73,0.75-3.43
				c1.66-1.84,3.94-2.26,6.22-0.2c2.24,2.02,2.14,4.89,0.38,6.84C429.85,774.59,426.5,775.17,422.71,771.75z"/>
		</g>
	</g>
	<g>
		<g>
			<path d="M246.5,902.86l2.84-3.54l0.66,0.53l-2.21,2.76l2.07,1.66l1.88-2.34l0.66,0.53l-1.88,2.34l2.75,2.21l-0.63,0.78
				L246.5,902.86z"/>
			<path d="M254.88,902.57c-0.99-0.79-0.8-2.05,0.55-4.15c-0.59-0.47-1.31-0.73-1.9,0.02c-0.42,0.53-0.55,1.2-0.6,1.75l-0.77-0.12
				c0.06-0.64,0.25-1.53,0.84-2.26c0.89-1.11,2-0.99,3.14-0.08l2.79,2.24l-0.51,0.64l-0.6-0.37l-0.02,0.03
				c0.01,0.72-0.1,1.46-0.55,2.03C256.63,903.04,255.7,903.23,254.88,902.57z M257.19,899.84l-1.26-1.01
				c-1.04,1.67-1.08,2.49-0.5,2.95c0.52,0.42,1.01,0.23,1.37-0.21C257.15,901.12,257.23,900.59,257.19,899.84z"/>
			<path d="M255.53,894.87l0.51-0.63l0.71,0.46l0.02-0.03c-0.08-0.78-0.04-1.52,0.46-2.14c0.77-0.96,1.73-0.89,2.89,0.04l2.88,2.31
				l-0.62,0.77l-2.78-2.23c-0.85-0.68-1.42-0.71-1.9-0.11c-0.37,0.46-0.39,0.98-0.3,1.8l3.29,2.64l-0.62,0.77L255.53,894.87z"/>
			<path d="M264.59,891.27l-0.16-0.9c0.81-0.07,1.61-0.44,2.12-1.08c0.65-0.81,0.63-1.61,0.03-2.08c-0.63-0.5-1.18-0.22-1.9,0.16
				l-1.1,0.57c-0.7,0.38-1.67,0.7-2.58-0.03c-0.94-0.75-0.97-2.12-0.08-3.24c0.58-0.73,1.42-1.12,2.21-1.2l0.17,0.82
				c-0.66,0.09-1.24,0.36-1.69,0.93c-0.55,0.69-0.57,1.42-0.02,1.86c0.59,0.47,1.24,0.12,1.83-0.2l1.08-0.57
				c0.88-0.46,1.74-0.68,2.66,0.05c0.97,0.78,1.1,2.2,0.06,3.49C266.53,890.71,265.58,891.18,264.59,891.27z"/>
			<path d="M267.16,885.05c-1.48-1.19-1.59-2.92-0.75-3.96c0.93-1.16,2.29-1.15,3.59-0.1c0.16,0.13,0.31,0.27,0.41,0.39l-2.46,3.06
				c1.01,0.72,2.11,0.63,2.8-0.24c0.35-0.44,0.5-0.91,0.54-1.42l0.73,0.13c-0.06,0.61-0.24,1.26-0.73,1.88
				C270.31,886,268.65,886.25,267.16,885.05z M269.34,881.58c-0.91-0.73-1.74-0.72-2.31-0.01c-0.51,0.64-0.46,1.62,0.36,2.43
				L269.34,881.58z"/>
			<path d="M268.88,878.25l0.51-0.64l0.88,0.6l0.02-0.03c-0.32-0.78-0.31-1.54,0.1-2.05c0.16-0.2,0.3-0.32,0.48-0.41l0.56,0.69
				c-0.18,0.12-0.28,0.2-0.43,0.38c-0.31,0.38-0.4,1.06,0.12,1.99l2.92,2.34l-0.62,0.77L268.88,878.25z"/>
			<path d="M270.96,875.65l0.64-0.79l3.27,1.21c0.55,0.22,1.13,0.44,1.68,0.66l0.03-0.04c-0.33-0.48-0.67-1-1-1.49l-1.89-2.93
				l0.6-0.75l3.25,5.26l-0.72,0.89L270.96,875.65z"/>
			<path d="M273.45,869.62c-0.3-0.24-0.31-0.63-0.07-0.93s0.62-0.38,0.92-0.13c0.29,0.23,0.31,0.63,0.07,0.93
				S273.74,869.85,273.45,869.62z M274.99,870.63l0.62-0.77l4.54,3.65l-0.62,0.77L274.99,870.63z"/>
			<path d="M278.85,870.49c-1.52-1.22-1.57-2.94-0.64-4.11c0.48-0.6,1.06-0.81,1.6-0.9l0.19,0.8c-0.45,0.07-0.84,0.22-1.13,0.58
				c-0.66,0.82-0.44,2,0.6,2.83c1.04,0.84,2.2,0.83,2.87-0.01c0.33-0.42,0.43-0.95,0.41-1.43l0.78,0.08c0.04,0.7-0.16,1.39-0.6,1.93
				C281.97,871.48,280.35,871.7,278.85,870.49z"/>
			<path d="M282.27,866.23c-1.48-1.19-1.59-2.92-0.75-3.96c0.93-1.16,2.29-1.15,3.59-0.1c0.16,0.13,0.31,0.27,0.41,0.39l-2.46,3.06
				c1.01,0.72,2.1,0.63,2.8-0.24c0.35-0.44,0.5-0.91,0.54-1.42l0.73,0.13c-0.06,0.61-0.24,1.26-0.73,1.88
				C285.43,867.17,283.77,867.43,282.27,866.23z M284.45,862.75c-0.91-0.73-1.73-0.72-2.3-0.01c-0.51,0.64-0.46,1.62,0.36,2.43
				L284.45,862.75z"/>
			<path d="M287.62,863.16l-0.2-0.79c0.63-0.14,1.18-0.36,1.62-0.91c0.48-0.6,0.4-1.15,0.01-1.46c-0.47-0.38-1.11,0-1.7,0.35
				c-0.74,0.45-1.63,0.92-2.4,0.3c-0.73-0.58-0.82-1.62-0.03-2.6c0.46-0.57,1.08-0.88,1.65-1l0.2,0.76
				c-0.48,0.13-0.91,0.31-1.24,0.71c-0.46,0.57-0.37,1.08-0.02,1.36c0.43,0.35,0.99-0.02,1.6-0.38c0.77-0.46,1.63-0.97,2.49-0.28
				c0.74,0.59,0.88,1.67,0.02,2.74C289.09,862.61,288.32,863.02,287.62,863.16z"/>
		</g>
	</g>
	<g>
		<g>
			<path d="M297.02,801.08l0.81,0.65l-2.04,3.86c-0.41,0.75-0.82,1.51-1.23,2.27l0.04,0.03c0.67-0.55,1.35-1.1,2.02-1.63l3.53-2.66
				l0.71,0.57l-1.83,4.02c-0.37,0.77-0.76,1.55-1.15,2.33l0.04,0.03c0.65-0.57,1.29-1.14,1.94-1.7l3.33-2.82l0.75,0.6l-6.2,5.12
				L296.8,811l2.03-4.44c0.28-0.56,0.54-1.09,0.83-1.64l-0.04-0.03c-0.48,0.4-0.94,0.76-1.43,1.15l-3.87,2.96l-0.93-0.74
				L297.02,801.08z"/>
			<path d="M301.49,811.03c1.22-1.52,2.91-1.59,4.03-0.7c1.11,0.89,1.41,2.56,0.19,4.08c-1.21,1.5-2.9,1.58-4.02,0.69
				C300.57,814.2,300.28,812.53,301.49,811.03z M304.9,813.77c0.84-1.04,0.88-2.18,0.09-2.8c-0.78-0.63-1.88-0.34-2.72,0.7
				c-0.84,1.04-0.87,2.16-0.08,2.79C302.98,815.08,304.07,814.81,304.9,813.77z"/>
			<path d="M308.73,813.09l0.64,0.51l-0.46,0.71l0.03,0.02c0.78-0.08,1.52-0.04,2.14,0.46c0.96,0.77,0.89,1.73-0.04,2.89l-2.31,2.88
				l-0.77-0.62l2.23-2.78c0.68-0.85,0.71-1.41,0.11-1.9c-0.46-0.37-0.98-0.39-1.8-0.3l-2.64,3.29l-0.77-0.62L308.73,813.09z"/>
			<path d="M311.69,819.22c1.18-1.48,2.85-1.64,3.89-0.81c0.53,0.42,0.72,0.9,0.85,1.55l0.59-0.81l1.41-1.75l0.77,0.62l-5.35,6.66
				l-0.64-0.51l0.37-0.59l-0.03-0.02c-0.64,0.07-1.36-0.02-1.9-0.46C310.52,822.19,310.47,820.73,311.69,819.22z M314.01,822.91
				l1.91-2.38c-0.11-0.66-0.36-1.07-0.73-1.36c-0.73-0.58-1.87-0.35-2.7,0.69c-0.87,1.09-0.94,2.1-0.15,2.74
				C312.76,822.93,313.29,823.01,314.01,822.91z"/>
			<path d="M316.87,823.38c1.19-1.48,2.92-1.59,3.96-0.75c1.16,0.93,1.15,2.29,0.1,3.59c-0.13,0.16-0.27,0.31-0.39,0.41l-3.06-2.46
				c-0.72,1.01-0.63,2.1,0.24,2.8c0.44,0.35,0.91,0.5,1.42,0.54l-0.13,0.73c-0.61-0.06-1.26-0.24-1.88-0.73
				C315.92,826.53,315.67,824.87,316.87,823.38z M320.35,825.56c0.73-0.91,0.72-1.73,0.01-2.31c-0.64-0.51-1.62-0.46-2.43,0.36
				L320.35,825.56z"/>
			<path d="M323.68,825.09l0.64,0.51l-0.6,0.88l0.03,0.02c0.78-0.32,1.54-0.31,2.05,0.1c0.2,0.16,0.32,0.3,0.41,0.48l-0.69,0.56
				c-0.12-0.17-0.2-0.28-0.38-0.43c-0.38-0.31-1.06-0.4-1.99,0.12l-2.34,2.92l-0.77-0.62L323.68,825.09z"/>
			<path d="M324.36,832.35l-0.03-0.02l-0.45,0.41l-0.61-0.49l5.35-6.66l0.77,0.62l-1.46,1.82l-0.68,0.79
				c0.7-0.02,1.43,0.11,1.94,0.51c1.17,0.94,1.07,2.36-0.05,3.76c-1.25,1.55-2.9,1.71-3.94,0.88
				C324.77,833.63,324.47,833.04,324.36,832.35z M328.33,832.47c0.81-1,1-1.95,0.15-2.64c-0.38-0.31-0.95-0.42-1.71-0.35l-1.91,2.38
				c0.12,0.67,0.43,1.12,0.73,1.36C326.33,833.82,327.43,833.59,328.33,832.47z"/>
			<path d="M329.12,835c0.79-0.99,2.05-0.8,4.15,0.55c0.47-0.59,0.73-1.31-0.02-1.9c-0.53-0.42-1.2-0.55-1.75-0.6l0.12-0.77
				c0.64,0.06,1.53,0.25,2.26,0.84c1.11,0.89,0.99,2,0.08,3.14l-2.24,2.79l-0.64-0.51l0.37-0.6l-0.03-0.02
				c-0.72,0.01-1.47-0.1-2.03-0.55C328.65,836.75,328.46,835.82,329.12,835z M331.85,837.31l1.01-1.26
				c-1.67-1.04-2.49-1.08-2.95-0.5c-0.41,0.52-0.23,1.01,0.21,1.37C330.57,837.26,331.1,837.34,331.85,837.31z"/>
			<path d="M336.82,835.64l0.64,0.51l-0.6,0.88l0.03,0.02c0.78-0.32,1.54-0.31,2.05,0.1c0.2,0.16,0.32,0.3,0.41,0.48l-0.69,0.56
				c-0.12-0.17-0.2-0.28-0.38-0.43c-0.38-0.31-1.06-0.4-1.99,0.12l-2.34,2.92l-0.77-0.62L336.82,835.64z"/>
			<path d="M300.38,822.24l1.75,1.41c1.38,1.1,1.93,2.31,0.85,3.66c-1.04,1.29-2.45,1.16-3.79,0.08l-1.01-0.81l-1.95,2.43
				l-0.78-0.63L300.38,822.24z M299.61,826.67c1.07,0.86,1.9,0.88,2.6,0.01c0.71-0.89,0.4-1.61-0.68-2.48l-0.87-0.7l-1.96,2.44
				L299.61,826.67z"/>
			<path d="M304.33,828.03l0.77,0.62l-3.65,4.55l-0.77-0.62L304.33,828.03z M305.34,826.48c0.24-0.3,0.63-0.31,0.93-0.07
				s0.38,0.62,0.13,0.92c-0.23,0.29-0.63,0.31-0.93,0.07C305.17,827.17,305.1,826.77,305.34,826.48z"/>
			<path d="M302.83,833.63l5.21-1.59l-2.13-1.71l0.5-0.63l3.1,2.49l-0.33,0.41l-5.21,1.59l2.47,1.98l-0.5,0.63l-3.44-2.77
				L302.83,833.63z"/>
			<path d="M306.81,836.82l5.21-1.59l-2.13-1.71l0.5-0.63l3.1,2.49l-0.33,0.41l-5.21,1.59l2.47,1.98l-0.5,0.63l-3.44-2.77
				L306.81,836.82z"/>
			<path d="M311.6,839.4c0.79-0.99,2.05-0.8,4.15,0.55c0.47-0.59,0.73-1.31-0.02-1.9c-0.53-0.42-1.2-0.55-1.75-0.6l0.12-0.77
				c0.64,0.06,1.53,0.25,2.26,0.84c1.11,0.89,0.99,2.01,0.08,3.14l-2.24,2.79l-0.64-0.51l0.37-0.6l-0.03-0.02
				c-0.72,0.01-1.47-0.1-2.03-0.55C311.13,841.15,310.94,840.22,311.6,839.4z M314.33,841.71l1.01-1.26
				c-1.67-1.04-2.49-1.08-2.95-0.5c-0.41,0.52-0.23,1.01,0.21,1.37C313.05,841.67,313.58,841.75,314.33,841.71z"/>
		</g>
	</g>
	<g>
		<g>
			<path d="M164.3,727.18l0.77,0.69l-2.26,3.73c-0.45,0.73-0.9,1.46-1.36,2.19l0.04,0.03c0.7-0.51,1.41-1.02,2.11-1.51l3.68-2.45
				l0.67,0.61l-2.06,3.91c-0.42,0.75-0.85,1.51-1.28,2.26l0.04,0.03c0.68-0.53,1.36-1.06,2.03-1.58l3.48-2.63l0.72,0.65l-6.48,4.75
				l-0.89-0.81l2.29-4.31c0.31-0.55,0.6-1.06,0.92-1.58l-0.04-0.03c-0.5,0.37-0.98,0.7-1.49,1.07l-4.04,2.73l-0.88-0.79
				L164.3,727.18z"/>
			<path d="M168.19,737.37c1.3-1.44,3-1.42,4.06-0.47c1.06,0.96,1.25,2.64-0.05,4.09c-1.29,1.43-2.99,1.41-4.05,0.46
				C167.09,740.49,166.89,738.81,168.19,737.37z M171.44,740.31c0.9-0.99,1-2.12,0.26-2.79s-1.86-0.45-2.75,0.54
				c-0.9,0.99-0.99,2.11-0.24,2.78S170.54,741.3,171.44,740.31z"/>
			<path d="M173.01,741.73c1.3-1.45,3-1.42,4.06-0.47s1.25,2.64-0.05,4.09c-1.29,1.43-2.99,1.41-4.05,0.45
				S171.72,743.16,173.01,741.73z M176.27,744.67c0.9-0.99,1-2.12,0.26-2.79s-1.86-0.45-2.75,0.54c-0.9,0.99-0.99,2.11-0.25,2.78
				C174.27,745.87,175.37,745.66,176.27,744.67z"/>
			<path d="M176.55,747.46l0.91-0.11c0.03,0.82,0.35,1.63,0.96,2.18c0.77,0.69,1.57,0.72,2.08,0.15c0.54-0.6,0.29-1.17-0.05-1.91
				l-0.5-1.13c-0.33-0.72-0.6-1.71,0.18-2.57c0.81-0.89,2.18-0.85,3.24,0.11c0.69,0.62,1.04,1.48,1.07,2.28l-0.83,0.12
				c-0.05-0.66-0.29-1.26-0.83-1.74c-0.66-0.59-1.39-0.65-1.86-0.13c-0.51,0.56-0.19,1.23,0.09,1.84l0.51,1.11
				c0.41,0.9,0.58,1.78-0.21,2.65c-0.83,0.92-2.26,0.97-3.49-0.14C176.99,749.43,176.58,748.45,176.55,747.46z"/>
			<path d="M182.6,750.38c1.3-1.44,3-1.42,4.06-0.47c1.06,0.96,1.25,2.64-0.05,4.09c-1.29,1.43-2.99,1.41-4.05,0.45
				C181.5,753.5,181.3,751.82,182.6,750.38z M185.85,753.32c0.9-0.99,1-2.12,0.26-2.79s-1.86-0.45-2.75,0.54
				c-0.9,0.99-0.99,2.11-0.25,2.78C183.85,754.52,184.96,754.31,185.85,753.32z"/>
			<path d="M188.65,755.66l0.56-3.25l0.79,0.72l-0.28,1.47c-0.08,0.36-0.16,0.74-0.23,1.1l0.04,0.03c0.35-0.12,0.7-0.25,1.04-0.37
				l1.39-0.47l0.76,0.69l-3.25,0.96l-0.56,3.46l-0.79-0.72l0.27-1.58c0.08-0.4,0.17-0.81,0.23-1.2l-0.04-0.03
				c-0.37,0.12-0.75,0.25-1.14,0.38l-1.49,0.48l-0.76-0.69L188.65,755.66z"/>
			<path d="M157.41,740.36l0.9,0.81l-1.7,4.13c-0.22,0.53-0.46,1.06-0.68,1.59l0.04,0.03c0.51-0.28,1-0.58,1.5-0.85l3.92-2.12
				l0.9,0.81l-5.27,5.84l-0.69-0.62l2.9-3.22c0.46-0.51,1.15-1.16,1.65-1.64l-0.04-0.03l-1.67,0.92l-3.83,2.03l-0.49-0.44l1.62-4.02
				l0.74-1.75l-0.04-0.03c-0.43,0.55-1.01,1.3-1.47,1.81l-2.9,3.22l-0.67-0.61L157.41,740.36z"/>
			<path d="M159.29,750.62c0.85-0.94,2.09-0.68,4.12,0.79c0.5-0.56,0.8-1.26,0.09-1.9c-0.5-0.45-1.17-0.62-1.71-0.7l0.17-0.76
				c0.63,0.1,1.52,0.34,2.21,0.97c1.06,0.95,0.87,2.06-0.1,3.14l-2.4,2.66l-0.6-0.55l0.41-0.57l-0.02-0.02
				c-0.72-0.03-1.46-0.18-1.99-0.67C158.72,752.34,158.58,751.4,159.29,750.62z M161.89,753.09l1.08-1.2
				c-1.61-1.13-2.42-1.22-2.92-0.67c-0.44,0.49-0.29,0.99,0.13,1.38C160.61,752.97,161.13,753.08,161.89,753.09z"/>
			<path d="M166.94,751.71l0.6,0.55l-0.65,0.84l0.02,0.02c0.8-0.28,1.55-0.22,2.04,0.22c0.19,0.17,0.3,0.32,0.38,0.51l-0.72,0.52
				c-0.11-0.18-0.18-0.29-0.36-0.45c-0.37-0.33-1.04-0.46-1.99,0.01l-2.51,2.78l-0.73-0.66L166.94,751.71z"/>
			<path d="M171.85,752.49l0.72,0.65l-3.88,4.3l0.02,0.02l3.91-0.61l0.81,0.73l-3.02,0.43l-0.7,4.07l-0.8-0.72l0.62-3.22l-1.66,0.21
				l-1.03,1.14l-0.72-0.65L171.85,752.49z"/>
			<path d="M172.16,760.36c1.27-1.41,3-1.42,4-0.52c1.1,1,1.01,2.35-0.11,3.59c-0.14,0.15-0.29,0.3-0.41,0.38l-2.91-2.63
				c-0.78,0.96-0.75,2.07,0.07,2.81c0.42,0.38,0.88,0.55,1.39,0.62l-0.17,0.72c-0.6-0.09-1.25-0.31-1.83-0.84
				C171.03,763.45,170.88,761.78,172.16,760.36z M175.5,762.74c0.78-0.87,0.82-1.69,0.14-2.3c-0.61-0.55-1.59-0.55-2.45,0.22
				L175.5,762.74z"/>
			<path d="M176.29,765.57l2.16-2.39l-0.64-0.58l0.5-0.55l0.71,0.57l1.18-1.13l0.61,0.55l-1.1,1.21l1.17,1.06l-0.54,0.6l-1.17-1.06
				l-2.17,2.41c-0.48,0.53-0.58,0.99-0.08,1.44c0.15,0.14,0.41,0.26,0.6,0.33l-0.36,0.68c-0.32-0.14-0.68-0.32-0.95-0.56
				C175.29,767.3,175.51,766.43,176.29,765.57z"/>
		</g>
	</g>
	<g>
		<g>
			<path d="M39.4,580.07h1v7.87h-1V580.07z"/>
			<path d="M42.47,582.12h0.81l0.08,0.84h0.03c0.56-0.55,1.16-0.98,1.96-0.98c1.23,0,1.78,0.79,1.78,2.28v3.69h-0.99v-3.57
				c0-1.09-0.33-1.55-1.1-1.55c-0.6,0-1.01,0.3-1.59,0.9v4.22h-0.99v-5.83H42.47z"/>
			<path d="M48.4,582.17l0.84-0.06h2.18v0.8h-3.01L48.4,582.17L48.4,582.17z M49.19,581.19c0-1.18,0.54-1.94,1.71-1.94
				c0.35,0,0.7,0.09,0.97,0.2l-0.21,0.75c-0.22-0.1-0.45-0.15-0.66-0.15c-0.55,0-0.82,0.38-0.82,1.14v6.75h-0.99V581.19z"/>
			<path d="M52.35,580.28c0-0.39,0.3-0.64,0.68-0.64s0.68,0.25,0.68,0.64c0,0.37-0.3,0.64-0.68,0.64
				C52.65,580.92,52.35,580.65,52.35,580.28z M52.54,582.12h0.99v5.83h-0.99V582.12z"/>
			<path d="M55.05,585.04c0-1.9,1.28-3.07,2.62-3.07c1.49,0,2.33,1.07,2.33,2.74c0,0.21-0.02,0.42-0.05,0.56h-3.93
				c0.07,1.24,0.83,2.04,1.94,2.04c0.56,0,1.02-0.18,1.45-0.47l0.35,0.65c-0.51,0.33-1.13,0.6-1.92,0.6
				C56.29,588.09,55.05,586.95,55.05,585.04z M59.13,584.56c0-1.17-0.53-1.8-1.44-1.8c-0.82,0-1.55,0.66-1.67,1.8H59.13z"/>
			<path d="M61.44,586.77v-7.37h0.99v7.45c0,0.3,0.13,0.42,0.27,0.42c0.06,0,0.1,0,0.22-0.02l0.13,0.75
				c-0.14,0.05-0.31,0.09-0.57,0.09C61.74,588.09,61.44,587.62,61.44,586.77z"/>
			<path d="M64.08,585.04c0-1.89,1.19-3.07,2.52-3.07c0.68,0,1.12,0.25,1.63,0.67l-0.04-1v-2.25h0.99v8.54h-0.81l-0.08-0.69h-0.03
				c-0.45,0.45-1.07,0.83-1.77,0.83C65.03,588.09,64.08,586.98,64.08,585.04z M68.2,586.46v-3.06c-0.5-0.44-0.95-0.61-1.42-0.61
				c-0.93,0-1.67,0.9-1.67,2.23c0,1.4,0.58,2.23,1.6,2.23C67.24,587.26,67.71,587,68.2,586.46z"/>
			<path d="M47.48,594.47h4.54v0.85h-3.54v2.65h3v0.85h-3v3.52h-1V594.47z"/>
			<path d="M53.32,596.52h0.81l0.08,1.06h0.03c0.41-0.74,1-1.21,1.66-1.21c0.26,0,0.44,0.03,0.62,0.12l-0.18,0.87
				c-0.2-0.06-0.33-0.1-0.57-0.1c-0.49,0-1.08,0.35-1.47,1.34v3.74h-0.99v-5.82H53.32z"/>
			<path d="M56.9,604.74l0.19-0.79c0.12,0.04,0.29,0.09,0.44,0.09c0.66,0,1.07-0.53,1.31-1.25l0.13-0.43l-2.34-5.84h1.02l1.19,3.23
				c0.18,0.51,0.38,1.1,0.57,1.64h0.05c0.17-0.53,0.33-1.13,0.49-1.64l1.04-3.23h0.97l-2.2,6.31c-0.41,1.16-1.01,2.03-2.18,2.03
				C57.31,604.86,57.08,604.81,56.9,604.74z"/>
		</g>
	</g>
	<g>
		<g>
			<path d="M68.8,491.2h2.34c1.6,0,2.71,0.54,2.71,1.93c0,0.78-0.41,1.47-1.15,1.71v0.05c0.94,0.19,1.6,0.81,1.6,1.88
				c0,1.55-1.22,2.3-2.98,2.3H68.8V491.2z M70.97,494.55c1.34,0,1.89-0.49,1.89-1.29c0-0.92-0.63-1.26-1.85-1.26H69.8v2.55
				L70.97,494.55L70.97,494.55z M71.18,498.28c1.35,0,2.14-0.48,2.14-1.55c0-0.97-0.76-1.41-2.14-1.41h-1.37v2.96H71.18z"/>
			<path d="M75.41,497.56c0-1.27,1.1-1.9,3.58-2.18c0-0.75-0.25-1.47-1.2-1.47c-0.67,0-1.28,0.32-1.74,0.62l-0.39-0.68
				c0.54-0.35,1.35-0.76,2.29-0.76c1.42,0,2.02,0.95,2.02,2.4v3.58h-0.81l-0.08-0.7h-0.03c-0.56,0.46-1.2,0.84-1.93,0.84
				C76.14,499.21,75.41,498.61,75.41,497.56z M78.99,497.65v-1.62c-1.95,0.23-2.61,0.71-2.61,1.46c0,0.66,0.45,0.93,1.02,0.93
				C77.96,498.42,78.42,498.15,78.99,497.65z"/>
			<path d="M81.82,493.24h0.81l0.08,1.06h0.03c0.41-0.74,1-1.21,1.66-1.21c0.26,0,0.44,0.03,0.62,0.12l-0.18,0.87
				c-0.2-0.06-0.33-0.1-0.57-0.1c-0.49,0-1.08,0.35-1.47,1.34v3.74h-0.99v-5.82H81.82z"/>
		</g>
	</g>
	<g>
		<g>
			<path d="M33.74,387.05h2.34c1.6,0,2.71,0.54,2.71,1.93c0,0.78-0.41,1.47-1.15,1.71v0.05c0.94,0.19,1.6,0.81,1.6,1.88
				c0,1.55-1.22,2.3-2.98,2.3h-2.52V387.05z M35.91,390.4c1.34,0,1.89-0.49,1.89-1.29c0-0.92-0.63-1.26-1.85-1.26h-1.21v2.55
				L35.91,390.4L35.91,390.4z M36.11,394.13c1.35,0,2.14-0.48,2.14-1.55c0-0.97-0.76-1.41-2.14-1.41h-1.37v2.96H36.11z"/>
			<path d="M40.27,392.01c0-1.9,1.28-3.07,2.62-3.07c1.49,0,2.33,1.07,2.33,2.74c0,0.21-0.02,0.42-0.05,0.56h-3.93
				c0.07,1.23,0.83,2.04,1.94,2.04c0.56,0,1.02-0.18,1.45-0.47l0.35,0.65c-0.51,0.33-1.13,0.6-1.92,0.6
				C41.51,395.07,40.27,393.93,40.27,392.01z M44.35,391.54c0-1.17-0.53-1.8-1.44-1.8c-0.82,0-1.55,0.66-1.67,1.8H44.35z"/>
			<path d="M46.66,386.38h0.99v2.34l-0.04,1.2c0.54-0.53,1.13-0.96,1.94-0.96c1.23,0,1.78,0.79,1.78,2.28v3.69h-0.99v-3.57
				c0-1.09-0.33-1.55-1.1-1.55c-0.6,0-1.01,0.3-1.59,0.9v4.22h-0.99V386.38z"/>
			<path d="M53,387.26c0-0.39,0.3-0.64,0.68-0.64s0.68,0.25,0.68,0.64c0,0.37-0.3,0.64-0.68,0.64C53.3,387.89,53,387.63,53,387.26z
				 M53.18,389.09h0.99v5.83h-0.99V389.09z"/>
			<path d="M56.14,389.09h0.81l0.08,0.84h0.03c0.56-0.55,1.16-0.98,1.96-0.98c1.23,0,1.78,0.79,1.78,2.28v3.69h-0.99v-3.57
				c0-1.09-0.33-1.55-1.1-1.55c-0.6,0-1.01,0.3-1.59,0.9v4.22h-0.99v-5.83H56.14z"/>
			<path d="M62.28,392.01c0-1.89,1.19-3.07,2.52-3.07c0.68,0,1.12,0.25,1.63,0.68l-0.04-1v-2.25h0.99v8.54h-0.81l-0.08-0.69h-0.03
				c-0.45,0.45-1.07,0.83-1.77,0.83C63.23,395.07,62.28,393.96,62.28,392.01z M66.4,393.44v-3.06c-0.5-0.44-0.95-0.61-1.42-0.61
				c-0.93,0-1.67,0.9-1.67,2.23c0,1.4,0.58,2.23,1.6,2.23C65.44,394.24,65.91,393.97,66.4,393.44z"/>
			<path d="M43.78,402.3H41.4v-0.85h5.76v0.85h-2.38v7.02h-1V402.3z"/>
			<path d="M48.48,400.78h0.99v2.34l-0.04,1.2c0.54-0.53,1.13-0.96,1.94-0.96c1.23,0,1.78,0.79,1.78,2.28v3.69h-0.99v-3.57
				c0-1.09-0.33-1.55-1.1-1.55c-0.6,0-1.01,0.3-1.59,0.9v4.22h-0.99V400.78z"/>
			<path d="M54.57,406.41c0-1.9,1.28-3.07,2.62-3.07c1.49,0,2.33,1.07,2.33,2.74c0,0.21-0.02,0.42-0.05,0.56h-3.93
				c0.07,1.23,0.83,2.04,1.94,2.04c0.56,0,1.02-0.18,1.45-0.47l0.35,0.65c-0.51,0.33-1.13,0.6-1.92,0.6
				C55.81,409.47,54.57,408.33,54.57,406.41z M58.65,405.94c0-1.17-0.53-1.8-1.44-1.8c-0.82,0-1.55,0.66-1.67,1.8H58.65z"/>
			<path d="M38.64,415.85h2.25c1.76,0,2.95,0.59,2.95,2.32c0,1.66-1.18,2.43-2.91,2.43h-1.29v3.12h-1V415.85z M40.81,419.79
				c1.38,0,2.03-0.5,2.03-1.62c0-1.14-0.7-1.51-2.08-1.51h-1.12v3.12h1.17V419.79z"/>
			<path d="M45.34,422.55v-7.37h0.99v7.45c0,0.3,0.13,0.42,0.27,0.42c0.06,0,0.1,0,0.22-0.02l0.13,0.75
				c-0.14,0.05-0.31,0.09-0.57,0.09C45.65,423.87,45.34,423.39,45.34,422.55z"/>
			<path d="M48.04,422.21c0-1.27,1.1-1.9,3.58-2.18c0-0.75-0.25-1.47-1.2-1.47c-0.67,0-1.28,0.32-1.74,0.62l-0.39-0.68
				c0.54-0.35,1.35-0.76,2.29-0.76c1.42,0,2.02,0.95,2.02,2.4v3.58h-0.81l-0.08-0.7h-0.03c-0.56,0.46-1.2,0.84-1.93,0.84
				C48.77,423.87,48.04,423.26,48.04,422.21z M51.62,422.3v-1.62c-1.95,0.23-2.61,0.71-2.61,1.46c0,0.66,0.45,0.93,1.02,0.93
				C50.59,423.07,51.06,422.8,51.62,422.3z"/>
			<path d="M54.62,421.92v-3.22h-0.87v-0.75l0.91-0.06l0.12-1.63h0.82v1.63h1.58v0.8H55.6v3.24c0,0.71,0.23,1.13,0.9,1.13
				c0.21,0,0.48-0.08,0.66-0.16l0.19,0.74c-0.33,0.11-0.72,0.22-1.08,0.22C55.04,423.87,54.62,423.08,54.62,421.92z"/>
			<path d="M58.07,420.81c0-1.9,1.28-3.07,2.62-3.07c1.49,0,2.33,1.07,2.33,2.74c0,0.21-0.02,0.42-0.05,0.56h-3.93
				c0.07,1.23,0.83,2.04,1.94,2.04c0.56,0,1.02-0.18,1.45-0.47l0.35,0.65c-0.51,0.33-1.13,0.6-1.92,0.6
				C59.31,423.87,58.07,422.73,58.07,420.81z M62.15,420.34c0-1.17-0.53-1.8-1.44-1.8c-0.82,0-1.55,0.66-1.67,1.8H62.15z"/>
		</g>
	</g>
	<g>
		<g>
			<path d="M199.58,246.8c-1.54-2.02-1.29-4.16,0.3-5.37c0.76-0.58,1.64-0.67,2.31-0.54l-0.04,0.85c-0.6-0.1-1.19-0.02-1.72,0.38
				c-1.18,0.9-1.23,2.47-0.04,4.03c1.2,1.57,2.7,1.99,3.89,1.08c0.6-0.46,0.85-1.06,0.91-1.81l0.82,0.17
				c-0.06,0.95-0.42,1.75-1.23,2.37C203.22,249.14,201.13,248.83,199.58,246.8z"/>
			<path d="M205.59,243.49c-1.18-1.55-0.85-3.21,0.29-4.08s2.83-0.75,4.01,0.8c1.17,1.53,0.84,3.2-0.3,4.06
				S206.76,245.03,205.59,243.49z M209.08,240.83c-0.81-1.06-1.9-1.37-2.7-0.76s-0.79,1.74,0.03,2.81c0.81,1.06,1.89,1.36,2.69,0.75
				C209.89,243.02,209.89,241.9,209.08,240.83z"/>
			<path d="M209.33,236.96l0.65-0.49l0.58,0.62l0.03-0.02c0.11-0.77,0.32-1.48,0.96-1.97c0.98-0.75,1.9-0.45,2.8,0.73l2.24,2.94
				l-0.79,0.6l-2.16-2.83c-0.66-0.86-1.2-1.03-1.82-0.56c-0.47,0.36-0.62,0.85-0.72,1.68l2.56,3.36l-0.78,0.6L209.33,236.96z"/>
			<path d="M215.98,235.56c-1.15-1.51-0.84-3.21,0.22-4.03c1.18-0.9,2.5-0.56,3.51,0.76c0.13,0.17,0.24,0.34,0.3,0.47l-3.12,2.38
				c0.8,0.94,1.89,1.12,2.77,0.44c0.45-0.34,0.7-0.76,0.87-1.25l0.67,0.3c-0.2,0.58-0.53,1.17-1.16,1.65
				C218.81,237.24,217.14,237.09,215.98,235.56z M218.93,232.71c-0.71-0.93-1.51-1.11-2.24-0.56c-0.65,0.5-0.83,1.46-0.23,2.45
				L218.93,232.71z"/>
			<path d="M223.8,236.26l-0.32-0.74c0.12-0.04,0.29-0.11,0.41-0.2c0.52-0.4,0.53-1.07,0.29-1.79l-0.16-0.42l-5.4-3.22l0.81-0.62
				l2.9,1.84c0.45,0.29,0.97,0.65,1.45,0.96l0.04-0.03c-0.19-0.52-0.42-1.1-0.61-1.6l-1.13-3.2l0.77-0.59l2.08,6.35
				c0.38,1.17,0.43,2.23-0.5,2.94C224.21,236.1,224,236.2,223.8,236.26z"/>
			<path d="M224.48,222.83l0.8-0.61l4.78,6.26l-0.8,0.61L224.48,222.83z"/>
			<path d="M230.77,227.09l-0.01-0.81c0.65,0.02,1.23-0.07,1.79-0.5c0.61-0.46,0.66-1.02,0.36-1.41c-0.36-0.48-1.07-0.27-1.73-0.07
				c-0.83,0.26-1.81,0.5-2.4-0.28c-0.57-0.74-0.41-1.77,0.59-2.54c0.58-0.44,1.26-0.59,1.84-0.58l0.01,0.79
				c-0.5,0.01-0.96,0.08-1.37,0.39c-0.58,0.45-0.62,0.96-0.35,1.32c0.34,0.44,0.97,0.22,1.64,0.02c0.86-0.26,1.81-0.56,2.49,0.33
				c0.57,0.75,0.46,1.83-0.64,2.67C232.33,226.92,231.48,227.12,230.77,227.09z"/>
			<path d="M234.97,223.25l-4.47-5.86l0.78-0.6l4.52,5.92c0.18,0.24,0.36,0.25,0.47,0.17c0.05-0.03,0.08-0.06,0.16-0.15l0.56,0.52
				c-0.08,0.12-0.19,0.26-0.4,0.42C236.01,224.11,235.49,223.92,234.97,223.25z"/>
			<path d="M236.91,221.34c-0.77-1.01-0.28-2.18,1.53-3.9c-0.46-0.59-1.09-1.02-1.85-0.44c-0.54,0.41-0.82,1.03-1,1.55l-0.72-0.3
				c0.21-0.61,0.62-1.43,1.36-1.99c1.13-0.86,2.18-0.48,3.06,0.68l2.17,2.84l-0.65,0.49l-0.49-0.5l-0.03,0.02
				c-0.16,0.7-0.45,1.4-1.02,1.84C238.5,222.21,237.55,222.17,236.91,221.34z M239.81,219.24l-0.98-1.29
				c-1.41,1.37-1.64,2.15-1.19,2.75c0.4,0.53,0.92,0.47,1.38,0.12C239.46,220.47,239.67,219.97,239.81,219.24z"/>
			<path d="M239.39,214.02l0.65-0.49l0.58,0.62l0.03-0.02c0.11-0.77,0.32-1.48,0.96-1.97c0.98-0.75,1.9-0.45,2.8,0.73l2.24,2.94
				l-0.78,0.6l-2.17-2.83c-0.66-0.86-1.2-1.03-1.82-0.57c-0.47,0.36-0.62,0.85-0.72,1.68l2.56,3.36l-0.79,0.6L239.39,214.02z"/>
			<path d="M246.05,212.61c-1.15-1.5-0.91-3.16,0.14-3.97c0.54-0.41,1.05-0.48,1.71-0.46l-0.64-0.77l-1.36-1.79l0.79-0.6l5.18,6.79
				l-0.65,0.49l-0.48-0.5l-0.03,0.02c-0.09,0.63-0.35,1.31-0.9,1.73C248.65,214.46,247.23,214.15,246.05,212.61z M250.18,211.24
				l-1.85-2.43c-0.67-0.05-1.12,0.09-1.5,0.38c-0.74,0.57-0.78,1.73,0.02,2.79c0.85,1.11,1.81,1.42,2.62,0.8
				C249.91,212.46,250.12,211.96,250.18,211.24z"/>
		</g>
	</g>
	<g>
		<g>
			<path d="M379.51,92.07l0.82-0.63l5.27,2.21l1.67,0.78l0.04-0.03c-0.52-0.6-1.12-1.26-1.62-1.91l-2.47-3.24l0.76-0.58l4.78,6.26
				l-0.82,0.63l-5.27-2.21l-1.66-0.78l-0.04,0.03c0.52,0.6,1.09,1.22,1.59,1.88l2.5,3.27l-0.76,0.58L379.51,92.07z"/>
			<path d="M389.18,92.68c-0.77-1.01-0.29-2.18,1.53-3.9c-0.46-0.59-1.09-1.02-1.85-0.44c-0.54,0.41-0.82,1.03-1,1.55l-0.72-0.3
				c0.21-0.61,0.61-1.43,1.36-1.99c1.13-0.86,2.18-0.48,3.06,0.68l2.17,2.84l-0.65,0.49l-0.49-0.5l-0.03,0.02
				c-0.16,0.7-0.45,1.4-1.02,1.84C390.77,93.56,389.82,93.52,389.18,92.68z M392.08,90.58l-0.98-1.29
				c-1.41,1.37-1.65,2.15-1.19,2.75c0.4,0.53,0.92,0.47,1.38,0.12C391.73,91.82,391.94,91.32,392.08,90.58z"/>
			<path d="M393.09,87.95c-1.18-1.55-0.82-3.23,0.37-4.14c0.61-0.46,1.22-0.54,1.77-0.49v0.83c-0.46-0.04-0.87,0.01-1.23,0.29
				c-0.84,0.64-0.9,1.83-0.09,2.89s1.93,1.33,2.79,0.68c0.42-0.32,0.64-0.82,0.74-1.29l0.74,0.27c-0.13,0.69-0.49,1.31-1.05,1.73
				C395.88,89.66,394.26,89.48,393.09,87.95z"/>
			<path d="M394.36,79.89l0.78-0.6l1.42,1.86l0.7,0.97c0.11-0.75,0.32-1.45,0.95-1.94c0.98-0.75,1.9-0.45,2.8,0.73l2.24,2.94
				l-0.79,0.6l-2.16-2.83c-0.66-0.86-1.2-1.03-1.82-0.56c-0.47,0.36-0.62,0.85-0.72,1.68l2.56,3.36l-0.78,0.6L394.36,79.89z"/>
			<path d="M402.62,80.67c-1.18-1.55-0.85-3.21,0.29-4.08c1.14-0.87,2.83-0.75,4.01,0.8c1.17,1.53,0.84,3.2-0.29,4.06
				C405.49,82.32,403.8,82.2,402.62,80.67z M406.11,78.01c-0.81-1.06-1.9-1.37-2.7-0.76s-0.79,1.74,0.03,2.81
				c0.81,1.06,1.89,1.36,2.69,0.75S406.92,79.07,406.11,78.01z"/>
			<path d="M408.99,78.63l-0.01-0.81c0.65,0.02,1.23-0.07,1.79-0.5c0.61-0.46,0.66-1.02,0.36-1.41c-0.36-0.48-1.07-0.27-1.73-0.07
				c-0.83,0.26-1.81,0.5-2.4-0.28c-0.57-0.74-0.41-1.77,0.6-2.54c0.58-0.44,1.26-0.59,1.84-0.58l0.01,0.79
				c-0.5,0.01-0.96,0.08-1.37,0.39c-0.58,0.45-0.62,0.96-0.35,1.32c0.34,0.44,0.97,0.22,1.64,0.02c0.86-0.26,1.81-0.56,2.49,0.33
				c0.57,0.75,0.46,1.83-0.64,2.67C410.55,78.46,409.7,78.67,408.99,78.63z"/>
			<path d="M383.24,107.34l0.8-0.61l4.78,6.26l-0.8,0.61L383.24,107.34z"/>
			<path d="M388.35,109.68c-1.18-1.55-0.82-3.23,0.37-4.14c0.61-0.46,1.22-0.54,1.77-0.49l-0.01,0.83
				c-0.46-0.04-0.87,0.01-1.23,0.29c-0.84,0.64-0.9,1.83-0.09,2.9s1.93,1.33,2.79,0.68c0.42-0.32,0.64-0.82,0.73-1.29l0.74,0.27
				c-0.13,0.69-0.49,1.31-1.05,1.73C391.14,111.39,389.52,111.22,388.35,109.68z"/>
			<path d="M392.7,106.36c-1.15-1.51-0.84-3.21,0.22-4.03c1.18-0.9,2.5-0.56,3.51,0.76c0.13,0.17,0.24,0.34,0.3,0.47l-3.12,2.38
				c0.81,0.94,1.89,1.12,2.77,0.44c0.45-0.34,0.7-0.76,0.87-1.25l0.67,0.3c-0.2,0.58-0.53,1.17-1.16,1.65
				C395.53,108.04,393.86,107.89,392.7,106.36z M395.65,103.51c-0.71-0.93-1.51-1.12-2.24-0.56c-0.65,0.5-0.83,1.47-0.24,2.45
				L395.65,103.51z"/>
			<path d="M398.77,100.44c-1.54-2.02-1.29-4.16,0.3-5.37c0.76-0.58,1.64-0.66,2.31-0.54l-0.04,0.85c-0.6-0.1-1.19-0.02-1.72,0.38
				c-1.18,0.9-1.23,2.47-0.04,4.03c1.2,1.57,2.7,1.98,3.89,1.08c0.6-0.46,0.85-1.06,0.91-1.81l0.82,0.17
				c-0.06,0.95-0.42,1.75-1.23,2.37C402.41,102.79,400.32,102.48,398.77,100.44z"/>
			<path d="M403.35,94.55l0.65-0.49l0.71,0.79l0.03-0.02c-0.13-0.83,0.07-1.57,0.59-1.96c0.21-0.16,0.37-0.24,0.57-0.28l0.38,0.8
				c-0.2,0.07-0.32,0.12-0.51,0.27c-0.39,0.3-0.64,0.94-0.36,1.96l2.27,2.98l-0.79,0.6L403.35,94.55z"/>
			<path d="M408.09,94.61c-1.15-1.51-0.84-3.21,0.22-4.03c1.18-0.9,2.5-0.56,3.51,0.76c0.13,0.17,0.24,0.34,0.3,0.47L409,94.19
				c0.81,0.94,1.89,1.12,2.77,0.44c0.45-0.34,0.7-0.76,0.87-1.25l0.67,0.3c-0.2,0.58-0.53,1.17-1.16,1.65
				C410.93,96.29,409.25,96.13,408.09,94.61z M411.04,91.76c-0.71-0.93-1.51-1.12-2.24-0.56c-0.65,0.5-0.83,1.47-0.23,2.45
				L411.04,91.76z"/>
			<path d="M413.73,92.06c-0.77-1.01-0.29-2.18,1.53-3.9c-0.46-0.59-1.09-1.02-1.85-0.44c-0.54,0.41-0.82,1.03-1,1.55l-0.72-0.3
				c0.21-0.61,0.62-1.43,1.36-1.99c1.13-0.86,2.18-0.48,3.06,0.68l2.17,2.84l-0.65,0.49l-0.49-0.5l-0.03,0.02
				c-0.16,0.7-0.45,1.4-1.02,1.84C415.31,92.94,414.36,92.9,413.73,92.06z M416.63,89.96l-0.98-1.29c-1.41,1.37-1.64,2.15-1.19,2.75
				c0.4,0.53,0.92,0.47,1.38,0.12C416.28,91.2,416.48,90.7,416.63,89.96z"/>
			<path d="M416.2,84.74l0.65-0.49l0.58,0.62l0.03-0.02c0.07-0.75,0.29-1.47,0.84-1.89c0.71-0.54,1.35-0.49,1.95-0.09
				c0.08-0.89,0.29-1.62,0.85-2.05c0.95-0.73,1.89-0.45,2.79,0.74l2.24,2.94l-0.79,0.6l-2.16-2.83c-0.66-0.86-1.21-1.02-1.8-0.57
				c-0.36,0.27-0.55,0.79-0.62,1.6l2.56,3.36l-0.78,0.6l-2.16-2.83c-0.66-0.86-1.21-1.02-1.8-0.57c-0.35,0.27-0.55,0.79-0.62,1.6
				l2.56,3.36l-0.79,0.6L416.2,84.74z"/>
		</g>
	</g>
	<g>
		<g>
			<path class="st17" d="M918.83,141.14l3.15,2.29c2.16,1.57,3.12,3.39,1.76,5.26c-0.76,1.05-2,1.58-3.23,1.18l-0.05,0.06
				c1.09,1.17,1.37,2.66,0.31,4.11c-1.52,2.09-3.91,1.91-6.28,0.19l-3.4-2.47L918.83,141.14z M915.1,153.01
				c1.82,1.32,3.36,1.44,4.4,0.01c0.95-1.31,0.36-2.65-1.5-4l-1.85-1.34l-2.9,3.99L915.1,153.01z M918.48,147.78
				c1.81,1.31,3.04,1.19,3.82,0.11c0.9-1.24,0.39-2.32-1.25-3.51l-1.63-1.19l-2.5,3.45L918.48,147.78z"/>
			<path class="st17" d="M922.77,154.24c1.86-2.56,4.73-2.88,6.54-1.57c2.01,1.46,2.09,3.72,0.46,5.97
				c-0.21,0.28-0.43,0.54-0.61,0.71l-5.3-3.85c-1.12,1.74-0.88,3.56,0.62,4.64c0.75,0.55,1.55,0.76,2.42,0.79l-0.16,1.22
				c-1.02-0.05-2.12-0.29-3.19-1.07C921.45,159.57,920.9,156.82,922.77,154.24z M928.74,157.59c1.15-1.58,1.06-2.95-0.17-3.84
				c-1.11-0.8-2.74-0.63-4.02,0.79L928.74,157.59z"/>
			<path class="st17" d="M934.25,156.55l1.1,0.8l-0.93,1.51l0.04,0.03c1.27-0.6,2.53-0.65,3.42,0c0.35,0.25,0.56,0.48,0.72,0.77
				l-1.1,0.99c-0.21-0.28-0.35-0.46-0.67-0.68c-0.66-0.48-1.81-0.58-3.3,0.36l-3.67,5.05l-1.33-0.97L934.25,156.55z"/>
			<path class="st17" d="M939.86,160.62l1.1,0.8l-0.72,1.22l0.04,0.03c1.23-0.24,2.48-0.24,3.42,0.44c1.2,0.87,1.43,1.92,1.08,3.08
				c1.46-0.29,2.73-0.31,3.68,0.38c1.62,1.17,1.62,2.81,0.16,4.82l-3.62,4.98l-1.33-0.97l3.5-4.81c1.06-1.47,1.06-2.43,0.06-3.16
				c-0.61-0.44-1.53-0.51-2.85-0.22l-4.14,5.7l-1.33-0.97l3.5-4.81c1.06-1.47,1.06-2.43,0.06-3.16c-0.59-0.43-1.53-0.51-2.85-0.22
				l-4.14,5.7l-1.33-0.97L939.86,160.62z"/>
		</g>
	</g>
	<polygon id="Arrow_00000093142143827526596180000011475721704886115770_" class="st20" points="25.26,826.94 36.54,838.22 
		59.63,815.13 68.5,824 68.3,794.5 38.45,794.65 47.99,804.2 	"/>
	<g>
		<g>
			<path class="st20" d="M47.45,841.53c0-4.33,2.87-6.83,6.35-6.83c1.89,0,3.24,0.81,4.11,1.69l-1.55,1.89
				c-0.65-0.6-1.34-1.04-2.46-1.04c-2.01,0-3.43,1.58-3.43,4.19c0,2.68,1.21,4.24,3.67,4.24c0.52,0,1.06-0.14,1.38-0.39v-2.25h-2.16
				v-2.41h4.78v6.01c-0.9,0.88-2.48,1.58-4.3,1.58C50.24,848.22,47.45,845.92,47.45,841.53z"/>
			<path class="st20" d="M60.12,845.22c0-2.09,1.66-3.22,5.59-3.64c-0.06-0.87-0.49-1.43-1.57-1.43c-0.83,0-1.66,0.35-2.63,0.9
				l-1.04-1.93c1.26-0.77,2.68-1.31,4.24-1.31c2.54,0,3.94,1.45,3.94,4.49v5.67h-2.4l-0.21-1.02h-0.07
				c-0.84,0.73-1.77,1.26-2.89,1.26C61.27,848.22,60.12,846.9,60.12,845.22z M65.71,845.09v-1.73c-2.09,0.28-2.77,0.88-2.77,1.63
				c0,0.64,0.44,0.95,1.14,0.95C64.74,845.94,65.19,845.61,65.71,845.09z"/>
			<path class="st20" d="M71.52,844.37v-4.01h-1.36v-2.19l1.52-0.11l0.34-2.64h2.43v2.64h2.38v2.31h-2.38v3.97
				c0,1.12,0.51,1.58,1.29,1.58c0.33,0,0.68-0.09,0.94-0.19l0.46,2.14c-0.53,0.17-1.24,0.36-2.21,0.36
				C72.49,848.22,71.52,846.67,71.52,844.37z"/>
			<path class="st20" d="M78.2,843.02c0-3.22,2.3-5.21,4.68-5.21c2.83,0,4.23,2.05,4.23,4.76c0,0.53-0.07,1.06-0.12,1.3h-5.94
				c0.26,1.44,1.25,2.1,2.57,2.1c0.75,0,1.43-0.23,2.15-0.65l0.97,1.77c-1.02,0.7-2.34,1.12-3.52,1.12
				C80.39,848.22,78.2,846.3,78.2,843.02z M84.6,841.93c0-1.09-0.48-1.88-1.65-1.88c-0.93,0-1.73,0.62-1.93,1.88H84.6z"/>
			<path class="st20" d="M93.38,834.94h3.69c3.98,0,6.55,1.98,6.55,6.46c0,4.48-2.57,6.58-6.38,6.58h-3.85L93.38,834.94
				L93.38,834.94z M96.89,845.6c2.21,0,3.71-1.08,3.71-4.2s-1.49-4.09-3.71-4.09h-0.56v8.29L96.89,845.6L96.89,845.6z"/>
		</g>
	</g>
	<polygon id="Arrow_00000001636408934752075010000016459698934213872780_" class="st20" points="326.26,921.94 337.54,933.22 
		360.63,910.13 369.5,919 369.3,889.5 339.45,889.65 348.99,899.2 	"/>
	<g>
		<g>
			<path class="st20" d="M347.69,943.31c0-4.33,2.87-6.83,6.35-6.83c1.89,0,3.24,0.81,4.11,1.69l-1.55,1.89
				c-0.65-0.6-1.34-1.04-2.46-1.04c-2.01,0-3.43,1.58-3.43,4.19c0,2.68,1.21,4.24,3.67,4.24c0.52,0,1.06-0.14,1.38-0.39v-2.25h-2.16
				v-2.41h4.78v6.01c-0.9,0.88-2.48,1.58-4.3,1.58C350.48,949.99,347.69,947.7,347.69,943.31z"/>
			<path class="st20" d="M360.36,947c0-2.09,1.66-3.22,5.59-3.64c-0.06-0.87-0.49-1.43-1.57-1.43c-0.83,0-1.66,0.35-2.63,0.9
				l-1.04-1.93c1.26-0.77,2.68-1.31,4.24-1.31c2.54,0,3.94,1.45,3.94,4.49v5.67h-2.4l-0.21-1.02h-0.07
				c-0.84,0.73-1.77,1.26-2.89,1.26C361.51,949.99,360.36,948.67,360.36,947z M365.95,946.87v-1.73c-2.09,0.28-2.77,0.88-2.77,1.63
				c0,0.64,0.44,0.95,1.14,0.95C364.98,947.72,365.43,947.39,365.95,946.87z"/>
			<path class="st20" d="M371.75,946.14v-4.01h-1.36v-2.19l1.52-0.11l0.34-2.64h2.43v2.64h2.38v2.31h-2.38v3.97
				c0,1.12,0.51,1.58,1.29,1.58c0.33,0,0.68-0.09,0.94-0.19l0.46,2.14c-0.53,0.17-1.24,0.36-2.21,0.36
				C372.73,949.99,371.75,948.44,371.75,946.14z"/>
			<path class="st20" d="M378.44,944.79c0-3.22,2.3-5.21,4.68-5.21c2.83,0,4.23,2.05,4.23,4.76c0,0.53-0.07,1.06-0.12,1.3h-5.94
				c0.26,1.44,1.25,2.1,2.57,2.1c0.75,0,1.43-0.23,2.15-0.65l0.97,1.77c-1.02,0.7-2.34,1.12-3.52,1.12
				C380.63,949.99,378.44,948.08,378.44,944.79z M384.84,943.71c0-1.09-0.48-1.88-1.65-1.88c-0.93,0-1.73,0.62-1.93,1.88H384.84z"/>
			<path class="st20" d="M393,943.31c0-4.33,2.86-6.83,6.15-6.83c1.69,0,3.04,0.79,3.92,1.69l-1.55,1.89
				c-0.65-0.61-1.36-1.04-2.3-1.04c-1.79,0-3.2,1.58-3.2,4.19c0,2.68,1.25,4.24,3.15,4.24c1.07,0,1.91-0.53,2.55-1.22l1.55,1.85
				c-1.08,1.26-2.52,1.91-4.21,1.91C395.77,949.99,393,947.7,393,943.31z"/>
		</g>
	</g>
	<polygon id="Arrow_00000099621809017648019090000001824222452133117323_" class="st20" points="977.26,880.94 988.54,892.22 
		1011.63,869.13 1020.5,878 1020.3,848.5 990.45,848.65 999.99,858.2 	"/>
	<g>
		<g>
			<path class="st20" d="M998.46,902.31c0-4.33,2.87-6.83,6.35-6.83c1.89,0,3.24,0.81,4.11,1.69l-1.55,1.89
				c-0.65-0.6-1.34-1.04-2.46-1.04c-2.01,0-3.43,1.58-3.43,4.19c0,2.68,1.21,4.24,3.67,4.24c0.52,0,1.06-0.14,1.38-0.39v-2.25h-2.16
				v-2.41h4.78v6.01c-0.9,0.88-2.48,1.58-4.3,1.58C1001.25,908.99,998.46,906.7,998.46,902.31z"/>
			<path class="st20" d="M1011.13,906c0-2.09,1.66-3.22,5.59-3.64c-0.06-0.87-0.49-1.43-1.57-1.43c-0.83,0-1.66,0.35-2.63,0.9
				l-1.04-1.93c1.26-0.77,2.68-1.31,4.24-1.31c2.54,0,3.94,1.45,3.94,4.49v5.67h-2.4l-0.21-1.02h-0.07
				c-0.84,0.73-1.77,1.26-2.89,1.26C1012.28,908.99,1011.13,907.67,1011.13,906z M1016.72,905.87v-1.73
				c-2.09,0.28-2.77,0.88-2.77,1.63c0,0.64,0.44,0.95,1.14,0.95C1015.75,906.72,1016.2,906.39,1016.72,905.87z"/>
			<path class="st20" d="M1022.52,905.14v-4.01h-1.36v-2.19l1.52-0.11l0.34-2.64h2.43v2.64h2.38v2.31h-2.38v3.97
				c0,1.12,0.51,1.58,1.29,1.58c0.33,0,0.68-0.09,0.94-0.19l0.46,2.14c-0.53,0.17-1.24,0.36-2.21,0.36
				C1023.5,908.99,1022.52,907.44,1022.52,905.14z"/>
			<path class="st20" d="M1029.21,903.79c0-3.22,2.3-5.21,4.68-5.21c2.83,0,4.23,2.05,4.23,4.76c0,0.53-0.07,1.06-0.12,1.3h-5.94
				c0.26,1.44,1.25,2.1,2.57,2.1c0.75,0,1.43-0.23,2.15-0.65l0.97,1.77c-1.02,0.7-2.34,1.12-3.52,1.12
				C1031.4,908.99,1029.21,907.08,1029.21,903.79z M1035.61,902.71c0-1.09-0.48-1.88-1.65-1.88c-0.93,0-1.73,0.62-1.93,1.88H1035.61
				z"/>
			<path class="st20" d="M1044.39,895.71h4.46c2.71,0,4.81,0.74,4.81,3.23c0,1.17-0.65,2.42-1.72,2.82v0.08
				c1.33,0.35,2.36,1.33,2.36,3.07c0,2.65-2.24,3.84-5.08,3.84h-4.83L1044.39,895.71L1044.39,895.71z M1048.72,900.93
				c1.43,0,2.06-0.6,2.06-1.55c0-1-0.67-1.39-2.04-1.39h-1.4v2.95h1.38V900.93z M1048.99,906.48c1.61,0,2.44-0.57,2.44-1.76
				c0-1.14-0.82-1.61-2.44-1.61h-1.65v3.37H1048.99z"/>
		</g>
	</g>
	<polygon id="Arrow_00000175294552270452782370000012118981672297902485_" class="st20" points="1346.93,329.68 1330.97,329.68 
		1330.97,362.34 1318.43,362.34 1339.43,383.06 1360.43,361.84 1346.93,361.84 	"/>
	<g>
		<g>
			<path class="st20" d="M1304.62,315.31c0-4.33,2.87-6.83,6.35-6.83c1.89,0,3.24,0.81,4.11,1.69l-1.55,1.89
				c-0.65-0.6-1.34-1.04-2.46-1.04c-2.01,0-3.43,1.58-3.43,4.19c0,2.68,1.21,4.24,3.67,4.24c0.52,0,1.06-0.14,1.38-0.39v-2.25h-2.16
				v-2.41h4.78v6.01c-0.9,0.88-2.48,1.58-4.3,1.58C1307.42,321.99,1304.62,319.7,1304.62,315.31z"/>
			<path class="st20" d="M1317.3,319c0-2.09,1.66-3.22,5.59-3.64c-0.06-0.87-0.49-1.43-1.57-1.43c-0.83,0-1.66,0.35-2.63,0.9
				l-1.04-1.93c1.26-0.77,2.68-1.31,4.24-1.31c2.54,0,3.94,1.45,3.94,4.49v5.67h-2.4l-0.21-1.02h-0.07
				c-0.84,0.73-1.77,1.26-2.89,1.26C1318.45,321.99,1317.3,320.67,1317.3,319z M1322.89,318.87v-1.73
				c-2.09,0.28-2.77,0.88-2.77,1.63c0,0.64,0.44,0.95,1.14,0.95C1321.92,319.72,1322.37,319.39,1322.89,318.87z"/>
			<path class="st20" d="M1328.69,318.14v-4.01h-1.36v-2.19l1.52-0.11l0.34-2.64h2.43v2.64h2.38v2.31h-2.38v3.97
				c0,1.12,0.51,1.58,1.29,1.58c0.33,0,0.68-0.09,0.94-0.19l0.46,2.14c-0.53,0.17-1.24,0.36-2.21,0.36
				C1329.67,321.99,1328.69,320.44,1328.69,318.14z"/>
			<path class="st20" d="M1335.38,316.79c0-3.22,2.3-5.21,4.68-5.21c2.83,0,4.23,2.05,4.23,4.76c0,0.53-0.07,1.06-0.12,1.3h-5.94
				c0.26,1.44,1.25,2.1,2.57,2.1c0.75,0,1.43-0.23,2.15-0.65l0.97,1.77c-1.02,0.7-2.34,1.12-3.52,1.12
				C1337.57,321.99,1335.38,320.08,1335.38,316.79z M1341.78,315.7c0-1.09-0.48-1.88-1.65-1.88c-0.93,0-1.73,0.62-1.93,1.88H1341.78
				z"/>
			<path class="st20" d="M1353.25,318.56l-1.08,3.19h-2.93l4.68-13.79h3.75l4.89,13.79h-3.13l-1.13-3.19H1353.25z M1357.65,316.12
				c-0.98-2.91-1.6-4.77-1.94-6.01h-0.02c-0.34,1.36-1.03,3.52-1.81,6.01H1357.65z"/>
		</g>
	</g>
	<g>
		<g>
			<path d="M513.11,896.08c-0.36,1.73-1.57,3.59-4.66,3.59c-3.22,0-4.88-2.23-4.88-5.34c0-3.06,1.87-5.49,5.02-5.49
				c3.49,0,4.46,2.5,4.52,3.68h-2.8c-0.18-0.84-0.66-1.43-1.77-1.43c-1.31,0-2.05,1.15-2.05,3.16c0,2.2,0.79,3.21,2.04,3.21
				c0.98,0,1.51-0.58,1.77-1.36h2.81V896.08z"/>
			<path d="M518.2,893.91v5.52h-2.91v-13.79h6.06c3.01,0,4.63,1.66,4.63,3.79c0,1.85-1.01,2.85-2,3.26
				c0.68,0.25,1.71,0.96,1.71,3.43v0.68c0,0.93,0.01,1.98,0.2,2.63h-2.83c-0.24-0.6-0.29-1.63-0.29-3.1v-0.2
				c0-1.51-0.38-2.22-2.6-2.22L518.2,893.91L518.2,893.91z M518.2,891.53h2.5c1.63,0,2.26-0.62,2.26-1.77
				c0-1.12-0.73-1.75-2.19-1.75h-2.57V891.53z"/>
			<path d="M531.11,896.24l-1.08,3.19h-2.93l4.68-13.79h3.75l4.89,13.79h-3.13l-1.13-3.19H531.11z M535.5,893.79
				c-0.98-2.91-1.6-4.77-1.94-6.01h-0.02c-0.34,1.36-1.03,3.52-1.81,6.01H535.5z"/>
			<path d="M542.28,885.63h9.63v2.44h-6.71v3.38h6.29v2.44h-6.29v5.52h-2.91v-13.78H542.28z"/>
			<path d="M556.8,888.08h-4.19v-2.44h11.35v2.44h-4.18v11.35h-2.98V888.08z"/>
			<path d="M582.35,895.17c-0.55,2.57-2.49,4.45-5.95,4.45c-4.37,0-6.44-3.09-6.44-7.02c0-3.78,2.13-7.17,6.58-7.17
				c3.67,0,5.45,2.16,5.79,4.46h-2.98c-0.29-1.06-1.03-2.12-2.9-2.12c-2.46,0-3.41,2.21-3.41,4.72c0,2.33,0.82,4.79,3.49,4.79
				c1.95,0,2.56-1.3,2.82-2.11H582.35z"/>
			<path d="M597.58,892.48c0,3.84-2.3,7.14-6.78,7.14c-4.33,0-6.59-3.15-6.59-7.1c0-4.01,2.5-7.1,6.79-7.1
				C595.02,885.43,597.58,888.26,597.58,892.48z M587.28,892.47c0,2.69,1.18,4.73,3.63,4.73c2.65,0,3.59-2.22,3.59-4.68
				c0-2.61-1.07-4.66-3.64-4.66C588.37,887.86,587.28,889.78,587.28,892.47z"/>
			<path d="M603.1,893.91v5.52h-2.91v-13.79h6.06c3.01,0,4.63,1.66,4.63,3.79c0,1.85-1.01,2.85-2,3.26
				c0.68,0.25,1.71,0.96,1.71,3.43v0.68c0,0.93,0.01,1.98,0.2,2.63h-2.83c-0.24-0.6-0.29-1.63-0.29-3.1v-0.2
				c0-1.51-0.38-2.22-2.6-2.22L603.1,893.91L603.1,893.91z M603.1,891.53h2.5c1.63,0,2.26-0.62,2.26-1.77
				c0-1.12-0.73-1.75-2.19-1.75h-2.57V891.53z"/>
			<path d="M613.42,899.42v-13.79h3.7c1.72,3.1,4.91,8.68,5.54,10.18h0.04c-0.15-1.44-0.15-3.83-0.15-6.1v-4.09h2.7v13.79h-3.51
				c-1.48-2.69-5.01-9.11-5.69-10.7h-0.04c0.1,1.21,0.13,4.04,0.13,6.51v4.19h-2.72V899.42z"/>
			<path d="M638.01,893.48h-6.6v3.5h7.28l-0.35,2.44h-9.82v-13.79h9.78v2.44h-6.89v2.96h6.6L638.01,893.48L638.01,893.48z"/>
			<path d="M643.8,893.91v5.52h-2.91v-13.79h6.06c3.01,0,4.63,1.66,4.63,3.79c0,1.85-1.01,2.85-2,3.26
				c0.68,0.25,1.71,0.96,1.71,3.43v0.68c0,0.93,0.01,1.98,0.2,2.63h-2.83c-0.24-0.6-0.29-1.63-0.29-3.1v-0.2
				c0-1.51-0.38-2.22-2.6-2.22L643.8,893.91L643.8,893.91z M643.8,891.53h2.5c1.63,0,2.26-0.62,2.26-1.77
				c0-1.12-0.73-1.75-2.19-1.75h-2.57V891.53z"/>
		</g>
	</g>
	<g>
		<g>
			<path d="M1135.42,463.11v4.88h-2.85v-11.82c0-0.84,0-1.67-0.02-2.5h2.78c0.04,0.27,0.09,0.91,0.09,1.29
				c0.44-0.76,1.37-1.53,3.01-1.53c2.33,0,4.12,1.94,4.12,5.16c0,3.65-2.01,5.68-4.52,5.68
				C1136.58,464.26,1135.82,463.71,1135.42,463.11z M1139.65,458.7c0-1.9-0.77-2.97-2.13-2.97c-1.63,0-2.21,1.04-2.21,3.13
				c0,1.98,0.53,3.13,2.08,3.13C1138.91,461.98,1139.65,460.81,1139.65,458.7z"/>
			<path d="M1144.53,464.02v-14.6h2.87v14.6H1144.53z"/>
			<path d="M1158.56,461.35c0,0.99,0.08,2.43,0.14,2.68h-2.74c-0.08-0.21-0.14-0.75-0.14-1.01c-0.38,0.58-1.08,1.25-2.91,1.25
				c-2.5,0-3.55-1.64-3.55-3.25c0-2.36,1.89-3.45,4.93-3.45c0.5,0,1.13,0,1.48,0v-0.63c0-0.74-0.26-1.46-1.59-1.46
				c-1.21,0-1.47,0.51-1.61,1.26h-2.73c0.16-1.84,1.29-3.33,4.44-3.31c2.77,0.02,4.28,1.1,4.28,3.57V461.35z M1155.76,459.31
				c-0.24,0-0.79,0-1.17,0c-1.73,0-2.37,0.53-2.37,1.53c0,0.75,0.46,1.38,1.49,1.38c1.82,0,2.04-1.27,2.04-2.63v-0.28H1155.76z"/>
			<path d="M1163.04,453.67c1.07,3.57,2,6.76,2.17,7.72h0.02c0.22-1.04,0.83-3.36,2.07-7.72h2.85l-3.48,10.65
				c-0.99,2.98-1.82,3.87-4.3,3.87c-0.25,0-0.85-0.02-1.34-0.08v-2.3c0.19,0.02,0.51,0.04,0.74,0.04c1.05,0,1.58-0.37,1.97-1.51
				l-3.77-10.67H1163.04z"/>
			<path d="M1180.95,462.76c0,3.32-1.23,5.43-5.15,5.43c-3.78,0-4.53-2.11-4.62-3.28h2.92c0.2,0.71,0.73,1.2,1.83,1.2
				c1.86,0,2.21-1.13,2.21-3.16v-0.49c-0.54,0.9-1.4,1.45-2.92,1.45c-2.73,0-4.28-2.24-4.28-5.02c0-3.24,1.94-5.45,4.53-5.45
				c1.78,0,2.52,0.84,2.67,1.32c0.02-0.28,0.09-0.91,0.11-1.08h2.72c-0.02,0.92-0.02,1.98-0.02,2.97L1180.95,462.76L1180.95,462.76z
				 M1173.89,458.75c0,1.78,0.89,2.83,2.16,2.83c1.73,0,2.19-1.19,2.19-2.92c0-1.74-0.31-2.94-2.13-2.94
				C1174.86,455.73,1173.89,456.68,1173.89,458.75z"/>
			<path d="M1183.49,456.48c0-1.03,0-1.94-0.02-2.81h2.81c0.04,0.23,0.08,1.26,0.08,1.82c0.46-1.18,1.56-2.05,3.32-2.06v2.74
				c-2.08-0.05-3.32,0.51-3.32,3.34v4.51h-2.87V456.48z"/>
			<path d="M1201,458.83c0,3.13-1.88,5.44-5.16,5.44c-3.21,0-5.08-2.29-5.08-5.38c0-3.19,1.93-5.45,5.22-5.45
				C1199.03,453.43,1201,455.58,1201,458.83z M1193.67,458.85c0,1.99,0.86,3.17,2.24,3.17c1.4,0,2.18-1.18,2.18-3.16
				c0-2.17-0.79-3.19-2.22-3.19C1194.54,455.67,1193.67,456.66,1193.67,458.85z"/>
			<path d="M1212.09,461.01c0,1,0,2.08,0.02,3.01h-2.81c-0.04-0.28-0.06-0.83-0.08-1.19c-0.61,1.04-1.53,1.43-2.85,1.43
				c-2.11,0-3.46-1.28-3.46-3.85v-6.74h2.86v6.17c0,1.14,0.35,2.09,1.59,2.09c1.31,0,1.85-0.7,1.85-2.75v-5.51h2.87v7.34H1212.09z"
				/>
			<path d="M1214.69,456.28c0-0.88,0-1.84-0.02-2.61h2.78c0.06,0.27,0.09,0.99,0.11,1.32c0.35-0.65,1.19-1.56,3-1.56
				c2.08,0,3.43,1.41,3.43,4.01v6.59h-2.87v-6.27c0-1.16-0.39-2.01-1.65-2.01c-1.22,0-1.92,0.68-1.92,2.51v5.77h-2.87v-7.75H1214.69
				z"/>
			<path d="M1236.03,449.42v11.76c0,0.94,0,1.9,0.02,2.85h-2.76c-0.06-0.31-0.11-0.85-0.13-1.08c-0.5,0.81-1.39,1.32-2.94,1.32
				c-2.62,0-4.28-2.1-4.28-5.33c0-3.19,1.77-5.5,4.7-5.5c1.49,0,2.29,0.53,2.52,0.99v-5h2.87V449.42z M1228.89,458.86
				c0,2.02,0.79,3.11,2.19,3.11c1.97,0,2.2-1.64,2.2-3.13c0-1.77-0.25-3.11-2.12-3.11C1229.65,455.73,1228.89,456.9,1228.89,458.86z
				"/>
		</g>
	</g>
	<g id="Family">
		<g id="Man_00000085248834986944354690000013280555349216320416_">
			<path class="st17" d="M82.65,632.13L82.65,632.13c-0.55,0.55-0.55,1.45,0,2l0,0c0.55,0.55,1.45,0.55,2,0l0,0
				c0.55-0.55,0.55-1.45,0-2l0,0C84.1,631.57,83.21,631.57,82.65,632.13z"/>
			<polygon class="st17" points="83.65,635.19 81.65,635.19 81.65,640.13 85.65,640.13 85.65,635.19 			"/>
			<rect x="82.39" y="640.97" class="st17" width="0.53" height="3.16"/>
			<rect x="84.39" y="640.97" class="st17" width="0.53" height="3.16"/>
		</g>
		<g id="Woman_00000175319987196730109950000003978694824429907849_">
			<path class="st17" d="M96.65,632.13L96.65,632.13c-0.55,0.55-0.55,1.45,0,2l0,0c0.55,0.55,1.45,0.55,2,0l0,0
				c0.55-0.55,0.55-1.45,0-2l0,0C98.1,631.57,97.21,631.57,96.65,632.13z"/>
			<polygon class="st17" points="96.65,635.19 95.65,640.13 99.65,640.13 98.65,635.19 			"/>
			<rect x="96.39" y="640.97" class="st17" width="0.53" height="3.16"/>
			<rect x="98.39" y="640.97" class="st17" width="0.53" height="3.16"/>
		</g>
		<g id="Boy_00000121989612346681214370000008591143390115625118_">
			<path class="st17" d="M92.4,635.43L92.4,635.43c-0.41,0.4-0.41,1.05,0,1.45l0,0c0.41,0.4,1.09,0.4,1.5,0l0,0
				c0.41-0.4,0.41-1.05,0-1.45l0,0C93.49,635.03,92.82,635.03,92.4,635.43z"/>
			<polygon class="st17" points="93.15,637.65 91.65,637.65 91.65,641.23 94.65,641.23 94.65,637.65 			"/>
			<rect x="92.21" y="641.84" class="st17" width="0.39" height="2.29"/>
			<rect x="93.71" y="641.84" class="st17" width="0.39" height="2.29"/>
		</g>
		<g id="Girl_00000053515975748195034870000011169918879569626037_">
			<path class="st17" d="M87.4,635.43L87.4,635.43c-0.41,0.4-0.41,1.05,0,1.45l0,0c0.41,0.4,1.09,0.4,1.5,0l0,0
				c0.41-0.4,0.41-1.05,0-1.45l0,0C88.49,635.03,87.82,635.03,87.4,635.43z"/>
			<polygon class="st17" points="87.4,637.65 86.65,641.23 89.65,641.23 88.9,637.65 			"/>
			<rect x="87.21" y="641.84" class="st17" width="0.39" height="2.29"/>
			<rect x="88.71" y="641.84" class="st17" width="0.39" height="2.29"/>
		</g>
	</g>
	<g id="Woman_00000060717737302202538720000006901508525304234378_">
		<path class="st17" d="M95.77,673.85L95.77,673.85c-0.55,0.55-0.55,1.45,0,2l0,0c0.55,0.55,1.45,0.55,2,0l0,0
			c0.55-0.55,0.55-1.45,0-2l0,0C97.22,673.3,96.32,673.3,95.77,673.85z"/>
		<polygon class="st17" points="95.77,676.92 94.77,681.85 98.77,681.85 97.77,676.92 		"/>
		<rect x="95.51" y="682.7" class="st17" width="0.53" height="3.16"/>
		<rect x="97.51" y="682.7" class="st17" width="0.53" height="3.16"/>
	</g>
	<g id="Woman_00000158009350667150286190000003430524211614891666_">
		<path class="st17" d="M1140,423.27L1140,423.27c-0.55,0.55-0.55,1.45,0,2l0,0c0.55,0.55,1.45,0.55,2,0l0,0
			c0.55-0.55,0.55-1.45,0-2l0,0C1141.45,422.72,1140.55,422.72,1140,423.27z"/>
		<polygon class="st17" points="1140,426.33 1139,431.27 1143,431.27 1142,426.33 		"/>
		<rect x="1139.74" y="432.11" class="st17" width="0.53" height="3.16"/>
		<rect x="1141.74" y="432.11" class="st17" width="0.53" height="3.16"/>
	</g>
	<g id="Man_00000106105020339106617360000000753986650117543061_">
		<path class="st17" d="M111.02,320.8L111.02,320.8c-0.55,0.55-0.55,1.45,0,2l0,0c0.55,0.55,1.45,0.55,2,0l0,0
			c0.55-0.55,0.55-1.45,0-2l0,0C112.47,320.25,111.58,320.25,111.02,320.8z"/>
		<polygon class="st17" points="112.02,323.86 110.02,323.86 110.02,328.8 114.02,328.8 114.02,323.86 		"/>
		<rect x="110.76" y="329.64" class="st17" width="0.53" height="3.16"/>
		<rect x="112.76" y="329.64" class="st17" width="0.53" height="3.16"/>
	</g>
	<g id="Man_00000060015768259702746460000000140268825471596946_">
		<path class="st17" d="M1140,556.27L1140,556.27c-0.55,0.55-0.55,1.45,0,2l0,0c0.55,0.55,1.45,0.55,2,0l0,0
			c0.55-0.55,0.55-1.45,0-2l0,0C1141.45,555.72,1140.55,555.72,1140,556.27z"/>
		<polygon class="st17" points="1141,559.33 1139,559.33 1139,564.27 1143,564.27 1143,559.33 		"/>
		<rect x="1139.74" y="565.11" class="st17" width="0.53" height="3.16"/>
		<rect x="1141.74" y="565.11" class="st17" width="0.53" height="3.16"/>
	</g>
	<g id="Woman_00000114050136956381781110000008349301202170665352_">
		<path class="st17" d="M286.21,183.95L286.21,183.95c-0.55,0.55-0.55,1.45,0,2l0,0c0.55,0.55,1.45,0.55,2,0l0,0
			c0.55-0.55,0.55-1.45,0-2l0,0C287.66,183.39,286.76,183.39,286.21,183.95z"/>
		<polygon class="st17" points="286.21,187.01 285.21,191.95 289.21,191.95 288.21,187.01 		"/>
		<rect x="285.95" y="192.79" class="st17" width="0.53" height="3.16"/>
		<rect x="287.95" y="192.79" class="st17" width="0.53" height="3.16"/>
	</g>
	<g id="Man_00000090995075525077071540000008721064684598010758_">
		<path class="st17" d="M342.21,143.95L342.21,143.95c-0.55,0.55-0.55,1.45,0,2l0,0c0.55,0.55,1.45,0.55,2,0l0,0
			c0.55-0.55,0.55-1.45,0-2l0,0C343.66,143.39,342.76,143.39,342.21,143.95z"/>
		<polygon class="st17" points="343.21,147.01 341.21,147.01 341.21,151.95 345.21,151.95 345.21,147.01 		"/>
		<rect x="341.95" y="152.79" class="st17" width="0.53" height="3.16"/>
		<rect x="343.95" y="152.79" class="st17" width="0.53" height="3.16"/>
	</g>
</g>
</svg>
