<?xml version="1.0" encoding="UTF-8"?>
<svg xmlns="http://www.w3.org/2000/svg" viewBox="0 0 1380.6 1063.63">
  <defs>
    <style>
      .cls-1 {
        fill: blue;
      }

      .cls-1, .cls-2, .cls-3, .cls-4, .cls-5, .cls-6, .cls-7, .cls-8, .cls-9, .cls-10, .cls-11, .cls-12, .cls-13, .cls-14, .cls-15 {
        stroke-miterlimit: 10;
      }

      .cls-1, .cls-2, .cls-4, .cls-5, .cls-6, .cls-8, .cls-9, .cls-10, .cls-11, .cls-12, .cls-13, .cls-14, .cls-15 {
        stroke: #fff;
        stroke-width: 3px;
      }

      .cls-2 {
        fill: #ff0;
      }

      .cls-3 {
        fill: gray;
        opacity: .5;
      }

      .cls-3, .cls-7 {
        stroke: #000;
      }

      .cls-16, .cls-17, .cls-18, .cls-19, .cls-20 {
        stroke-width: 0px;
      }

      .cls-17 {
        fill: #8cc63f;
      }

      .cls-4 {
        fill: #cf2030;
      }

      .cls-5 {
        fill: #4d4d4d;
      }

      .cls-6 {
        fill: none;
      }

      .cls-7 {
        fill: #9e005d;
      }

      .cls-8 {
        fill: #f7931e;
      }

      .cls-18 {
        fill: #fff;
      }

      .cls-19, .cls-12 {
        fill: #092440;
      }

      .cls-9, .cls-20 {
        fill: #aa8313;
      }

      .cls-10 {
        fill: #39b54a;
      }

      .cls-11 {
        fill: #006837;
      }

      .cls-13 {
        fill: #5080c9;
      }

      .cls-14 {
        fill: #84ce0a;
      }

      .cls-15 {
        fill: #29abe2;
      }
    </style>
  </defs>
  <g id="Ballpark_Outline" data-name="Ballpark Outline">
    <polygon id="Building" class="cls-3" points="1.5 245.5 1.5 715.5 261.5 920.5 302.5 867.5 323.5 882.5 350.5 847.5 387.5 876.5 438.5 814.5 608.5 946.5 602.5 954.5 739.5 1061.5 764.5 1027.5 775.5 1028.5 795.5 1045.5 978.5 802.5 1092.5 802.5 1111.5 819.5 1378.5 474.5 1328.5 435.5 1357.5 400.5 831.5 .5 475.54 .5 475.54 34.5 407.5 34.5 141.5 246.5 1.5 245.5"/>
    <polyline id="Grass" class="cls-17" points="367.5 652.5 437 707 447.66 696 470.5 715.5 476.5 707.5 752.5 902.5 966.5 722.5 1086.5 570.5 1083.5 404.5 1046.5 268.5 764.5 45.5 634.5 174.5 513.5 174.5 526.5 214.5 476.5 257.5 471.5 251.5 447.5 270.5 438.59 260 356.5 324.5 367.5 340.5 255.5 428.91 255.5 536.5 317.27 586.24 323.5 578.5 373.5 619.5 354.5 641.5 361 646"/>
    <path id="Home_Plate_Circle" data-name="Home Plate Circle" class="cls-20" d="m352.98,466.14l-.26-.25c-9.69-9.28-25-9.18-34.55.24h0c-9.62,9.48-9.88,24.92-.58,34.72l.25.26c9.77,10.3,26.18,10.3,35.96,0h.01c9.39-9.91,9.02-25.54-.83-34.98Z"/>
    <path id="Baseball_Diamond" data-name="Baseball Diamond" class="cls-20" d="m496,651c15.11-3.59,48.05-13.64,77-43,18.74-19,28.73-38.91,34-52,6.18-12.46,14.71-33.53,17-61,2.33-28.03-2.85-50.62-7-64-5.02-14.82-13.91-35.21-30-56-9.88-12.77-20.1-22.61-29-30-8.8-7.06-20.42-15.04-35-22-9.36-4.47-18.18-7.67-26-10-49.55,49.85-99.09,99.71-148.64,149.56l7.64,6.44,85-83c1.52,1.08,6.26,4.16,13,4,6.14-.14,10.43-2.88,12-4,28.67,28,57.33,56,86,84-1.23,1.52-4.64,6.13-5,13-.38,7.28,2.92,12.44,4,14-28.33,28-56.67,56-85,84-1.57-1.12-5.86-3.86-12-4-6.74-.16-11.48,2.92-13,4-28-28.33-56-56.67-84-85l-7,8,146,147Z"/>
    <path id="Home_Plate_Circle-2" data-name="Home Plate Circle" class="cls-20" d="m457.58,472.71l-.17-.16c-6.38-6.12-16.47-6.05-22.77.16h0c-6.34,6.25-6.51,16.42-.38,22.88l.16.17c6.44,6.79,17.25,6.79,23.69,0h0c6.19-6.53,5.95-16.83-.55-23.05Z"/>
    <g id="Dirt_Outline_thing" data-name="Dirt Outline thing">
      <path class="cls-20" d="m766.45,80.19l257.21,203.39,33.9,124.62,2.77,153.48-112.6,142.63-196.62,165.38-259.24-183.16-158.58-120.77-51.8-41.71v-82.54l101.94-80.47,108.82-82.86.62-.47.59-.5,50-43,13.12-11.29-5.35-16.46-1.94-5.96h95.92l7.6-7.54,113.64-112.76m-1.95-34.69l-130,129h-121l13,40-50,43-109,83-112,88.41v107.59l61.77,49.74,159.23,121.26,276,195,214-180,120-152-3-166-37-136L764.5,45.5h0Z"/>
    </g>
    <polygon id="Playing_field_outline" data-name="Playing field outline" class="cls-6" points="634.5 174.5 513.5 174.5 526.5 214.5 476.5 257.5 471.5 251.5 447.5 270.5 438.59 260 356.5 324.5 367.5 340.5 255.5 428.91 255.5 536.5 317.27 586.24 323.5 578.5 373.5 619.5 354.5 641.5 360.5 646.5 344.5 664.5 351.5 670.5 367.5 652.5 437.5 707.5 447.66 696 470.5 715.5 476.5 707.5 752.5 902.5 966.5 722.5 1086.5 570.5 1083.5 404.5 1046.5 268.5 764.5 45.5 634.5 174.5"/>
  </g>
  <g id="Bullpens_and_Dugouts" data-name="Bullpens and Dugouts">
    <polygon id="Visitor_Bullpen" data-name="Visitor Bullpen" class="cls-9" points="694.5 114.5 493.5 114.5 513.5 174.5 634.5 174.5 694.5 114.5"/>
    <polygon id="Home_Bullpen" data-name="Home Bullpen" class="cls-9" points="470.5 715.5 444.5 748.5 570.5 838.5 601.56 795.86 476.5 707.5 470.5 715.5"/>
    <polygon id="Home_Dugout" data-name="Home Dugout" class="cls-15" points="372.26 620.93 354.5 641.5 437.5 707.5 447.66 696 455.5 687.5 372.26 620.93"/>
    <polygon id="Visitor_Dugout" data-name="Visitor Dugout" class="cls-15" points="355.5 324.5 367.5 340.5 451.95 276.19 438.59 260 355.5 324.5"/>
  </g>
  <g id="Main_Sections" data-name="Main Sections">
    <polygon id="Section_1" data-name="Section 1" class="cls-19" points="483.5 116.5 486.5 120.5 518.5 214.5 489.5 237.5 428.5 160.5 483.5 116.5"/>
    <polygon id="Section_2" data-name="Section 2" class="cls-19" points="421 166 483 244 473.5 250.52 471 247 453 260 441 245 431 253 385 195 421 166"/>
    <polygon id="Section_3" data-name="Section 3" class="cls-19" points="379 201 427 261 391 290 341 229 379 201"/>
    <polygon id="Section_4" data-name="Section 4" class="cls-19" points="335 234 383 295 362 313 346 294 336 302 303 259 335 234"/>
    <polygon id="Section_5" data-name="Section 5" class="cls-19" points="297 265 359 342 322 371 261 293 297 265"/>
    <polygon id="Section_6" data-name="Section 6" class="cls-19" points="254 298 315 376 283 402 222 324 254 298"/>
    <polygon id="Section_7" data-name="Section 7" class="cls-19" points="216 329 276 405 256 423 160 373 216 329"/>
    <polygon id="Section_8" data-name="Section 8" class="cls-19" points="146 378 251 429 251 445.21 146 445.92 146 378"/>
    <polygon id="Section_9" data-name="Section 9" class="cls-19" points="146 452.87 250 454 251 510.69 146 512.54 146 452.87"/>
    <polygon id="Section_10" data-name="Section 10" class="cls-19" points="251 519.76 251 537.48 146 586.24 146 519.76 251 519.76"/>
    <polygon id="Section_11" data-name="Section 11" class="cls-19" points="256 542 271 554 261 567 267 571 218 635 157 592 256 542"/>
    <polygon id="Section_12" data-name="Section 12" class="cls-19" points="275 577 283 584 257 617 267 626 295 592 312 605 258 672 221 642 275 577"/>
    <polygon id="Section_13" data-name="Section 13" class="cls-19" points="265 675 325 603 356 627 343 644 347 647 302 705 265 675"/>
    <polygon id="Section_14" data-name="Section 14" class="cls-19" points="308 709 343 666 352 673 367 656 388 674 340 736 308 709"/>
    <polygon id="Section_15" data-name="Section 15" class="cls-19" points="346 741 380 768 430 706 395 678 346 741"/>
    <polygon id="Section_16" data-name="Section 16" class="cls-19" points="387 773 433 715 438 719 450 703 467 716 410 791 387 773"/>
  </g>
  <g id="Food">
    <polygon id="Wonderbar_Pizza" data-name="Wonderbar Pizza" class="cls-4" points="263.5 809.5 275.5 794.5 279.5 797.5 295.5 778.5 342.5 816.5 314.5 850.5 263.5 809.5"/>
    <polygon id="WooSox_Market" data-name="WooSox Market" class="cls-4" points="128.5 788.5 149.5 806.5 221 718.61 174.75 681.95 123.5 746.5 147.5 766.5 128.5 788.5"/>
    <polygon id="Infield_Fry" data-name="Infield Fry" class="cls-4" points="73.5 613.5 73.5 537.95 55.5 537.95 55.5 530.3 23.41 530.3 23.41 614.68 73.5 614.68 73.5 613.5"/>
    <rect id="Bar" class="cls-4" x="44.5" y="466.14" width="53.84" height="33.36"/>
    <polygon id="Behind_the_Plate" data-name="Behind the Plate" class="cls-4" points="24.5 434.5 24.5 351.5 70.5 351.5 70.5 428.5 55.5 428.5 55.5 434.5 24.5 434.5 24.5 434.5"/>
    <polygon id="Coney_Island" data-name="Coney Island" class="cls-4" points="204.5 255.5 263.5 209.5 234.28 172.56 175.17 219.66 204.5 255.5"/>
    <polygon id="Nachos_Ice_Cream" data-name="Nachos/Ice Cream" class="cls-4" points="375.5 121.5 443.5 67.5 419.6 34.5 407.5 34.5 346.03 83.49 375.5 121.5"/>
    <polygon class="cls-4" points="608.5 946.5 595.85 936.68 659.5 853.5 671 861.48 608.5 946.5"/>
  </g>
  <g id="Restrooms">
    <polygon id="Behind_Section_3" data-name="Behind Section 3" class="cls-13" points="234.28 172.56 263.5 209.5 375.5 121.5 346.03 83.49 234.28 172.56"/>
    <polygon id="Men_s_Behind_Home_Plate" data-name="Men&amp;apos;s Behind Home Plate" class="cls-13" points="70.5 351.5 91.49 351.5 91.49 323.04 113.03 323.04 113.03 302.5 27.5 302.5 27.5 339.76 31.5 339.76 31.5 351.5 70.5 351.5"/>
    <polygon id="Women_s_Behind_Home_Plate" data-name="Women&amp;apos;s Behind Home Plate" class="cls-13" points="23.41 614.68 23.41 705.86 52.5 728.5 104.5 665.5 87.5 652.5 87.5 635.5 99.5 635.5 99.5 614.68 23.41 614.68"/>
    <polygon class="cls-15" points="815.45 1019 794.5 1002.5 875.5 896.5 895.37 912.88 815.45 1019"/>
    <polygon class="cls-13" points="1142.5 406.5 1142.5 443.65 1136.95 443.65 1136.95 522.83 1142.5 522.83 1142.5 559.5 1098.5 559.5 1098.5 405.48 1142.5 405.48 1142.5 406.5"/>
  </g>
  <g id="Other">
    <polygon id="Fan_Services" data-name="Fan Services" class="cls-14" points="271.35 815.81 257.5 832.5 248.5 825.5 223.5 858.5 231.5 864.5 215.36 884.12 261.5 920.5 302.5 867.5 323.5 882.5 350.5 847.5 329.25 832.59 314.5 850.5 271.35 815.81"/>
    <polygon id="Merch" class="cls-2" points="208.78 733.64 222.5 745.5 186.5 789.5 172.68 778.01 208.78 733.64"/>
    <polygon id="Gate_D_Entrence" data-name="Gate D Entrence" class="cls-6" points="95.43 676.49 127.5 702.5 121.5 709.5 141.04 724.41 123.5 746.5 147.5 766.5 128.5 788.5 52.5 728.5 79.5 695.79 95.43 676.49"/>
    <polyline class="cls-1" points="373.5 619.5 362.89 631.79 324.5 600.5 318 608.35 262.5 566.5 274.63 551.9 317 586 323.5 578.5 373.5 619.5"/>
    <polygon class="cls-17" points="1159.5 519.5 1172.06 519.5 1261.63 411.27 1159.5 411.27 1159.5 519.5"/>
  </g>
  <g id="Inaccessible_Areas" data-name="Inaccessible Areas">
    <polygon class="cls-5" points="27.5 339.76 1.5 339.76 1.5 245.5 134.72 246.45 134.72 271.02 120.5 271.02 120.5 288.5 100.5 288.5 100.5 302.5 27.5 302.5 27.5 339.76"/>
    <polygon class="cls-5" points="204.5 255.5 175.17 219.66 141.5 246.5 171.5 283.5 204.5 255.5"/>
    <polygon class="cls-5" points="671 861.48 608.5 946.5 602 955 739.5 1061.5 764.5 1027.5 775.5 1028.5 795.5 1046.5 815.45 1019 978.5 802.5 1092.5 802.5 1111.5 819.5 1378.5 474.5 1328.5 435.5 1271.5 417.5 1126.5 607.5 1092.5 579.5 975.98 729.71 966.5 722.5 752.5 902.5 740.5 913.5 671 861.48"/>
    <polygon class="cls-5" points="149.5 806.5 137 822.34 1.5 715.5 1.5 530.3 23.41 530.3 23.41 705.86 149.5 806.5"/>
  </g>
  <g id="Group_Seating_Areas" data-name="Group Seating Areas">
    <polygon class="cls-11" points="493.5 114.5 483.5 85.5 522.5 55.5 671.5 55.5 671.5 36.22 772.5 36.22 773.65 36.22 775.5 36.22 764.5 45.5 694.5 114.5 493.5 114.5"/>
    <polygon class="cls-11" points="444.5 748.5 423.5 775.5 547.5 869.5 570.5 838.5 444.5 748.5"/>
    <path class="cls-10" d="m775.5,36.22h44.5l366,284.78-35,40c-2.22,4.4-4.49,9.58-6.5,15.5-2.18,6.42-3.58,12.34-4.5,17.5h-42v11h-14.5l-37-136.5L765.5,46.5l10-10.28Z"/>
    <polygon class="cls-12" points="1068.8 592.93 1076.23 600.48 975.98 729.71 966.5 722.5 1068.8 592.93"/>
    <polygon class="cls-12" points="490.5 105.5 703.5 105.5 694.55 114.55 493.5 114.5 490.5 105.5"/>
  </g>
  <g id="Elevators_and_Stairs" data-name="Elevators and Stairs">
    <polygon class="cls-8" points="547.5 869.5 534.5 859.5 542.5 848.5 555.5 858.5 547.5 869.5"/>
    <polygon class="cls-8" points="72.98 703.69 109.68 732.49 88.74 757.11 52.5 728.5 72.98 703.69"/>
    <polygon class="cls-8" points="671 861.48 740.5 913.5 752.5 902.5 678.42 850.16 671 861.48"/>
    <polygon class="cls-8" points="1092.5 579.5 1085.37 571.93 1068.8 592.93 1076.23 600.48 1092.5 579.5"/>
    <polygon class="cls-8" points="1116.96 599.64 1135.5 576.5 1144.79 583.54 1126.5 607.5 1116.96 599.64"/>
    <polygon class="cls-8" points="1271.5 417.5 1279.35 405.48 1334.14 428.7 1328.5 435.5 1271.5 417.5"/>
    <rect class="cls-8" x="634.28" y="36.22" width="37.22" height="19.28"/>
    <polygon class="cls-8" points="108.5 734.5 123.5 746.5 147.5 766.5 128.5 788.5 88.74 757.11 108.5 734.5"/>
    <g id="Elevator">
      <rect class="cls-16" x="66.78" y="717.83" width="26" height="26" rx="4" ry="4"/>
      <polygon class="cls-18" points="74.78 724.83 78.78 724.83 76.78 720.83 74.78 724.83"/>
      <polygon class="cls-18" points="84.78 720.83 80.78 720.83 82.78 724.83 84.78 720.83"/>
      <rect class="cls-18" x="73.37" y="727.42" width="2.83" height="2.83" rx="1.41" ry="1.41" transform="translate(-493.46 266.35) rotate(-45)"/>
      <polyline class="cls-18" points="71.78 730.83 77.78 730.83 77.78 736.83 75.78 740.83 73.78 740.83 71.78 736.83 71.78 730.83"/>
      <rect class="cls-18" x="83.37" y="727.42" width="2.83" height="2.83" rx="1.41" ry="1.41" transform="translate(-490.53 273.42) rotate(-45)"/>
      <polyline class="cls-18" points="81.78 730.83 87.78 730.83 87.78 736.83 85.78 740.83 83.78 740.83 81.78 736.83 81.78 730.83"/>
    </g>
    <g id="Stairs">
      <rect class="cls-16" x="105.5" y="749.5" width="26" height="26" rx="4" ry="4"/>
      <polygon class="cls-18" points="109.5 755.5 113.5 755.5 113.5 759.5 117.5 759.5 117.5 763.5 121.5 763.5 121.5 767.5 125.5 767.5 125.5 771.5 109.5 771.5 109.5 755.5"/>
    </g>
    <g id="Stairs-2" data-name="Stairs">
      <rect class="cls-16" x="725.5" y="889.5" width="26" height="26" rx="4" ry="4"/>
      <polygon class="cls-18" points="729.5 895.5 733.5 895.5 733.5 899.5 737.5 899.5 737.5 903.5 741.5 903.5 741.5 907.5 745.5 907.5 745.5 911.5 729.5 911.5 729.5 895.5"/>
    </g>
    <g id="Elevator-2" data-name="Elevator">
      <rect class="cls-16" x="533.04" y="844.96" width="26" height="26" rx="4" ry="4"/>
      <polygon class="cls-18" points="541.05 851.96 545.04 851.96 543.05 847.96 541.05 851.96"/>
      <polygon class="cls-18" points="551.04 847.96 547.05 847.96 549.04 851.96 551.04 847.96"/>
      <rect class="cls-18" x="539.63" y="854.55" width="2.83" height="2.83" rx="1.41" ry="1.41" transform="translate(-446.79 633.28) rotate(-45)"/>
      <polyline class="cls-18" points="538.04 857.96 544.04 857.96 544.04 863.96 542.04 867.96 540.04 867.96 538.04 863.96 538.04 857.96"/>
      <rect class="cls-18" x="549.63" y="854.55" width="2.83" height="2.83" rx="1.41" ry="1.41" transform="translate(-443.86 640.35) rotate(-45)"/>
      <polyline class="cls-18" points="548.04 857.96 554.04 857.96 554.04 863.96 552.04 867.96 550.04 867.96 548.04 863.96 548.04 857.96"/>
    </g>
    <g id="Stairs-3" data-name="Stairs">
      <rect class="cls-16" x="1071.75" y="570.61" width="26" height="26" rx="4" ry="4"/>
      <polygon class="cls-18" points="1075.75 576.61 1079.75 576.61 1079.75 580.61 1083.75 580.61 1083.75 584.61 1087.75 584.61 1087.75 588.61 1091.75 588.61 1091.75 592.61 1075.75 592.61 1075.75 576.61"/>
    </g>
    <g id="Stairs-4" data-name="Stairs">
      <rect class="cls-16" x="1113.5" y="585.5" width="26" height="26" rx="4" ry="4"/>
      <polygon class="cls-18" points="1117.5 591.5 1121.5 591.5 1121.5 595.5 1125.5 595.5 1125.5 599.5 1129.5 599.5 1129.5 603.5 1133.5 603.5 1133.5 607.5 1117.5 607.5 1117.5 591.5"/>
    </g>
    <g id="Ramp">
      <rect class="cls-16" x="1290.54" y="408.31" width="26" height="26" rx="4" ry="4"/>
      <polygon class="cls-18" points="1294.54 426.31 1310.54 430.31 1294.54 430.31 1294.54 426.31"/>
      <rect class="cls-18" x="1306.12" y="414.89" width="2.83" height="2.83" rx="1.41" ry="1.41" transform="translate(88.59 1046.5) rotate(-45)"/>
      <polyline class="cls-18" points="1304.54 418.31 1310.54 418.31 1310.54 424.31 1308.54 428.31 1306.54 428.31 1304.54 424.31 1304.54 418.31"/>
    </g>
    <g id="Stairs-5" data-name="Stairs">
      <rect class="cls-16" x="640" y="32" width="26" height="26" rx="4" ry="4"/>
      <polygon class="cls-18" points="644 38 648 38 648 42 652 42 652 46 656 46 656 50 660 50 660 54 644 54 644 38"/>
    </g>
  </g>
  <g id="Layer_9" data-name="Layer 9">
    <path class="cls-18" d="m473.15,180.98l2.62-1.79-4.74-6.92-2.24,1.54-1.18-1.72c1.12-1.12,1.74-2.03,2.22-3.12l2.04-1.4,6.67,9.73,2.24-1.54,1.53,2.24-7.63,5.23-1.53-2.24Z"/>
    <g>
      <path class="cls-18" d="m516.73,84.59l1.19-1.42c.65.56,1.49.95,2.24.95.86,0,1.28-.34,1.28-.88,0-.57-.52-.76-1.32-1.09l-1.19-.51c-.95-.39-1.84-1.16-1.84-2.49,0-1.51,1.35-2.72,3.25-2.72,1.05,0,2.15.41,2.94,1.2l-1.04,1.3c-.6-.46-1.17-.72-1.9-.72s-1.16.3-1.16.82c0,.56.6.76,1.39,1.08l1.16.47c1.11.45,1.81,1.19,1.81,2.48,0,1.52-1.26,2.83-3.44,2.83-1.19,0-2.45-.45-3.38-1.32Z"/>
      <path class="cls-18" d="m524.93,75.93h2.06v2.4l-.09,1.26c.52-.47,1.2-.96,2.15-.96,1.51,0,2.16,1.07,2.16,2.8v4.31h-2.06v-4.05c0-1-.27-1.31-.86-1.31-.52,0-.83.24-1.29.68v4.69h-2.06v-9.81Z"/>
      <path class="cls-18" d="m532.61,83.81c0-1.46,1.17-2.26,3.91-2.55-.04-.61-.34-1-1.1-1-.58,0-1.17.25-1.84.63l-.73-1.35c.88-.54,1.88-.91,2.97-.91,1.78,0,2.76,1.02,2.76,3.14v3.97h-1.68l-.15-.71h-.05c-.58.51-1.24.88-2.02.88-1.27,0-2.07-.92-2.07-2.1Zm3.91-.09v-1.21c-1.46.2-1.94.62-1.94,1.14,0,.45.31.67.8.67s.78-.23,1.14-.59Z"/>
      <path class="cls-18" d="m539.74,78.79h2.05l.67,3.22c.12.69.2,1.36.31,2.07h.06c.12-.7.24-1.4.41-2.07l.76-3.22h1.79l.78,3.22c.17.69.29,1.36.43,2.07h.06c.12-.7.2-1.38.32-2.07l.66-3.22h1.9l-1.66,6.95h-2.41l-.64-2.78c-.13-.64-.24-1.28-.37-2.03h-.06c-.12.75-.22,1.39-.35,2.04l-.61,2.77h-2.36l-1.74-6.95Z"/>
      <path class="cls-18" d="m550.56,84.94l.93-1.28c.63.48,1.21.73,1.79.73.61,0,.88-.23.88-.6,0-.46-.69-.67-1.4-.95-.85-.33-1.84-.9-1.84-2.04,0-1.29,1.05-2.18,2.66-2.18,1.06,0,1.86.43,2.45.88l-.92,1.24c-.49-.36-.98-.59-1.46-.59-.53,0-.79.21-.79.55,0,.44.65.61,1.37.88.88.33,1.87.82,1.87,2.09s-.99,2.24-2.85,2.24c-.92,0-1.96-.4-2.67-.97Z"/>
      <path class="cls-18" d="m559.17,76.61h2.18l1.1,4.25c.27,1,.46,1.92.73,2.93h.06c.28-1.01.47-1.93.73-2.93l1.08-4.25h2.11l-2.75,9.13h-2.48l-2.76-9.13Z"/>
      <path class="cls-18" d="m567.8,76.7c0-.63.5-1.08,1.19-1.08s1.19.44,1.19,1.08-.5,1.08-1.19,1.08-1.19-.45-1.19-1.08Zm.16,2.09h2.06v6.95h-2.06v-6.95Z"/>
      <path class="cls-18" d="m571.21,84.94l.93-1.28c.63.48,1.21.73,1.79.73.61,0,.88-.23.88-.6,0-.46-.69-.67-1.4-.95-.85-.33-1.84-.9-1.84-2.04,0-1.29,1.05-2.18,2.66-2.18,1.06,0,1.86.43,2.45.88l-.92,1.24c-.49-.36-.98-.59-1.46-.59-.53,0-.79.21-.79.55,0,.44.65.61,1.37.88.88.33,1.87.82,1.87,2.09s-.99,2.24-2.85,2.24c-.92,0-1.96-.4-2.67-.97Z"/>
      <path class="cls-18" d="m577.86,76.7c0-.63.5-1.08,1.19-1.08s1.19.44,1.19,1.08-.5,1.08-1.19,1.08-1.19-.45-1.19-1.08Zm.16,2.09h2.06v6.95h-2.06v-6.95Z"/>
      <path class="cls-18" d="m582.16,83.21v-2.81h-.95v-1.54l1.06-.08.24-1.85h1.7v1.85h1.67v1.62h-1.67v2.78c0,.79.36,1.1.9,1.1.23,0,.48-.07.66-.13l.32,1.5c-.37.12-.87.25-1.54.25-1.72,0-2.4-1.08-2.4-2.69Z"/>
      <path class="cls-18" d="m586.59,82.27c0-2.31,1.63-3.65,3.39-3.65s3.38,1.33,3.38,3.65-1.63,3.64-3.38,3.64-3.39-1.33-3.39-3.64Zm4.66,0c0-1.2-.42-1.98-1.27-1.98s-1.27.78-1.27,1.98.42,1.98,1.27,1.98,1.27-.78,1.27-1.98Z"/>
      <path class="cls-18" d="m594.77,78.79h1.68l.15,1.21h.05c.51-.93,1.27-1.38,1.97-1.38.4,0,.63.05.83.14l-.34,1.78c-.25-.06-.45-.11-.75-.11-.52,0-1.16.34-1.53,1.29v4.03h-2.06v-6.95Z"/>
      <path class="cls-18" d="m600.3,79.91c.84-.41,1.27-.95,1.27-1.78l-.06-1.21.68.94c-.21.17-.47.3-.76.3-.59,0-1.08-.39-1.08-1.02,0-.7.45-1.15,1.08-1.15.86,0,1.32.67,1.32,1.83,0,1.32-.65,2.34-1.99,3l-.46-.9Z"/>
      <path class="cls-18" d="m603.31,84.94l.93-1.28c.63.48,1.21.73,1.79.73.61,0,.88-.23.88-.6,0-.46-.69-.67-1.4-.95-.85-.33-1.84-.9-1.84-2.04,0-1.29,1.05-2.18,2.66-2.18,1.06,0,1.86.43,2.45.88l-.92,1.24c-.49-.36-.98-.59-1.46-.59-.53,0-.79.21-.79.55,0,.44.65.61,1.37.88.88.33,1.87.82,1.87,2.09s-.99,2.24-2.85,2.24c-.92,0-1.96-.4-2.67-.97Z"/>
      <path class="cls-18" d="m613.09,76.61h3.12c1.9,0,3.37.52,3.37,2.26,0,.82-.46,1.69-1.2,1.97v.06c.93.24,1.65.93,1.65,2.15,0,1.86-1.57,2.69-3.56,2.69h-3.39v-9.13Zm3.03,3.66c1,0,1.44-.42,1.44-1.09,0-.7-.47-.98-1.43-.98h-.98v2.06h.97Zm.19,3.88c1.12,0,1.71-.4,1.71-1.23s-.57-1.13-1.71-1.13h-1.15v2.36h1.15Z"/>
      <path class="cls-18" d="m621.33,83.1v-4.31h2.06v4.05c0,1,.27,1.31.86,1.31.52,0,.83-.22,1.24-.76v-4.6h2.06v6.95h-1.68l-.15-.96h-.05c-.58.69-1.23,1.13-2.18,1.13-1.51,0-2.16-1.07-2.16-2.8Z"/>
      <path class="cls-18" d="m629.35,83.58v-7.65h2.06v7.74c0,.44.2.58.37.58.08,0,.13,0,.25-.03l.25,1.52c-.23.1-.57.17-1.03.17-1.41,0-1.9-.92-1.9-2.33Z"/>
      <path class="cls-18" d="m633.35,83.58v-7.65h2.06v7.74c0,.44.2.58.37.58.08,0,.13,0,.25-.03l.25,1.52c-.23.1-.57.17-1.03.17-1.41,0-1.9-.92-1.9-2.33Z"/>
      <path class="cls-18" d="m637.35,78.79h1.68l.15.68h.05c.55-.49,1.25-.85,1.98-.85,1.68,0,2.71,1.39,2.71,3.53,0,2.38-1.42,3.75-2.92,3.75-.6,0-1.16-.26-1.66-.73l.07,1.1v2.04h-2.06v-9.53Zm4.46,3.39c0-1.25-.39-1.87-1.21-1.87-.42,0-.79.19-1.19.62v2.85c.37.33.76.44,1.11.44.72,0,1.29-.61,1.29-2.04Z"/>
      <path class="cls-18" d="m644.97,82.27c0-2.25,1.61-3.65,3.28-3.65,1.98,0,2.96,1.44,2.96,3.34,0,.37-.05.74-.09.91h-4.16c.18,1.01.88,1.47,1.8,1.47.53,0,1-.16,1.5-.45l.68,1.24c-.71.49-1.64.78-2.47.78-1.98,0-3.52-1.34-3.52-3.64Zm4.48-.76c0-.76-.33-1.31-1.16-1.31-.65,0-1.21.44-1.35,1.31h2.51Z"/>
      <path class="cls-18" d="m652.63,78.79h1.68l.15.88h.05c.58-.56,1.29-1.05,2.23-1.05,1.51,0,2.16,1.07,2.16,2.8v4.31h-2.06v-4.05c0-1-.27-1.31-.86-1.31-.52,0-.83.24-1.29.68v4.69h-2.06v-6.95Z"/>
      <path class="cls-18" d="m665.39,78.34h-2.51v-1.73h7.09v1.73h-2.51v7.4h-2.06v-7.4Z"/>
      <path class="cls-18" d="m669.75,82.27c0-2.25,1.61-3.65,3.28-3.65,1.98,0,2.96,1.44,2.96,3.34,0,.37-.05.74-.09.91h-4.16c.18,1.01.88,1.47,1.8,1.47.53,0,1-.16,1.5-.45l.68,1.24c-.71.49-1.64.78-2.47.78-1.98,0-3.51-1.34-3.51-3.64Zm4.48-.76c0-.76-.33-1.31-1.16-1.31-.65,0-1.21.44-1.35,1.31h2.51Z"/>
      <path class="cls-18" d="m677.41,78.79h1.68l.15,1.21h.05c.51-.93,1.27-1.38,1.97-1.38.4,0,.63.05.83.14l-.34,1.78c-.25-.06-.45-.11-.75-.11-.52,0-1.16.34-1.53,1.29v4.03h-2.06v-6.95Z"/>
      <path class="cls-18" d="m682.98,78.79h1.68l.15,1.21h.05c.51-.93,1.27-1.38,1.97-1.38.4,0,.63.05.83.14l-.34,1.78c-.25-.06-.45-.11-.75-.11-.52,0-1.16.34-1.53,1.29v4.03h-2.06v-6.95Z"/>
      <path class="cls-18" d="m687.84,83.81c0-1.46,1.17-2.26,3.91-2.55-.04-.61-.34-1-1.1-1-.58,0-1.17.25-1.84.63l-.73-1.35c.88-.54,1.88-.91,2.97-.91,1.78,0,2.76,1.02,2.76,3.14v3.97h-1.68l-.15-.71h-.05c-.58.51-1.24.88-2.02.88-1.27,0-2.07-.92-2.07-2.1Zm3.91-.09v-1.21c-1.46.2-1.94.62-1.94,1.14,0,.45.31.67.8.67s.78-.23,1.14-.59Z"/>
      <path class="cls-18" d="m695.13,82.27c0-2.31,1.7-3.65,3.62-3.65.86,0,1.51.3,2.03.75l-.97,1.32c-.33-.28-.61-.41-.94-.41-.99,0-1.63.78-1.63,1.98s.66,1.98,1.56,1.98c.46,0,.89-.23,1.25-.51l.81,1.35c-.68.6-1.54.83-2.29.83-1.94,0-3.44-1.33-3.44-3.64Z"/>
      <path class="cls-18" d="m701.28,82.27c0-2.25,1.61-3.65,3.28-3.65,1.98,0,2.96,1.44,2.96,3.34,0,.37-.05.74-.09.91h-4.16c.18,1.01.88,1.47,1.8,1.47.53,0,1-.16,1.5-.45l.68,1.24c-.71.49-1.64.78-2.47.78-1.98,0-3.51-1.34-3.51-3.64Zm4.48-.76c0-.76-.33-1.31-1.16-1.31-.65,0-1.21.44-1.35,1.31h2.51Z"/>
    </g>
    <g>
      <path class="cls-18" d="m443.83,764.02l1.79-.46c.2.84.66,1.64,1.27,2.08.7.5,1.24.47,1.56.03.33-.47.02-.92-.44-1.65l-.67-1.1c-.54-.86-.82-2.02-.05-3.1.88-1.23,2.68-1.43,4.23-.32.85.61,1.51,1.59,1.69,2.68l-1.6.45c-.22-.73-.54-1.26-1.12-1.68-.58-.42-1.12-.44-1.42-.01-.33.46.04.97.5,1.69l.67,1.06c.64,1.02.78,2.02.03,3.07-.88,1.23-2.68,1.56-4.44.3-.97-.69-1.73-1.79-1.98-3.04Z"/>
      <path class="cls-18" d="m455.54,761.76l1.67,1.2-1.4,1.95-.81.97c.7-.08,1.53-.08,2.3.47,1.23.88,1.13,2.12.12,3.53l-2.51,3.51-1.67-1.2,2.36-3.29c.58-.81.55-1.22.06-1.57-.42-.3-.82-.29-1.44-.2l-2.73,3.81-1.67-1.2,5.72-7.98Z"/>
      <path class="cls-18" d="m457.19,772.64c.85-1.19,2.26-1.16,4.66.21.32-.52.31-1.02-.31-1.46-.47-.34-1.09-.48-1.86-.56l.19-1.53c1.03.08,2.06.35,2.95.99,1.44,1.04,1.65,2.43.41,4.16l-2.31,3.23-1.37-.98.29-.67-.04-.03c-.77.08-1.52,0-2.16-.46-1.03-.74-1.15-1.96-.46-2.91Zm3.23,2.21l.71-.99c-1.31-.69-1.94-.63-2.24-.2-.26.36-.14.72.26,1.01.38.27.77.27,1.28.18Z"/>
      <path class="cls-18" d="m465.91,772.71l1.66,1.19-1.33,3c-.3.63-.63,1.22-.95,1.86l.05.03c.51-.5,1.02-1,1.54-1.44l2.49-2.17,1.45,1.04-1.24,3.07c-.26.66-.56,1.28-.85,1.93l.05.03c.51-.5.96-1.01,1.46-1.49l2.41-2.23,1.55,1.11-5.4,4.68-1.96-1.4,1.1-2.63c.27-.6.55-1.19.88-1.87l-.05-.03c-.53.54-.99,1-1.47,1.45l-2.11,1.9-1.92-1.37,2.63-6.66Z"/>
      <path class="cls-18" d="m471.12,784l1.5-.5c.23.75.56,1.3,1.03,1.64.5.36.85.32,1.06.02.27-.37-.17-.94-.59-1.59-.5-.76-.97-1.8-.3-2.73.75-1.05,2.12-1.16,3.43-.22.87.62,1.26,1.43,1.48,2.14l-1.47.47c-.19-.58-.45-1.05-.84-1.33-.43-.31-.77-.29-.97-.01-.26.36.17.88.61,1.51.53.78,1.04,1.76.3,2.79-.73,1.02-2.11,1.24-3.63.16-.74-.53-1.37-1.47-1.6-2.34Z"/>
      <path class="cls-18" d="m483.93,782.94l1.68,1.2-2.05,2.86,2.56,1.83,2.05-2.86,1.68,1.2-5.32,7.42-1.68-1.2,2.22-3.1-2.56-1.83-2.22,3.1-1.68-1.2,5.32-7.42Z"/>
      <path class="cls-18" d="m487.84,792.7c1.35-1.88,3.45-2.02,4.87-.99,1.43,1.02,1.97,3.06.63,4.93-1.34,1.87-3.44,2.01-4.87.99-1.43-1.02-1.97-3.06-.63-4.93Zm3.79,2.71c.7-.98.81-1.86.12-2.35-.69-.5-1.49-.11-2.19.87-.7.98-.81,1.85-.12,2.35.69.5,1.49.11,2.19-.87Z"/>
      <path class="cls-18" d="m496.51,794.63l1.37.98-.4.81.04.03c.8-.13,1.59-.17,2.33.37.79.57,1.03,1.26.88,2.07.87-.16,1.71-.21,2.45.32,1.22.88,1.15,2.13.13,3.54l-2.51,3.51-1.67-1.2,2.36-3.29c.58-.81.54-1.23.07-1.57-.28-.2-.73-.26-1.35-.14l-2.73,3.81-1.67-1.2,2.36-3.29c.58-.81.54-1.23.07-1.57-.28-.2-.73-.26-1.35-.14l-2.73,3.81-1.67-1.2,4.05-5.65Z"/>
      <path class="cls-18" d="m503.9,804.21c1.31-1.83,3.43-2.03,4.79-1.05,1.61,1.15,1.57,2.89.46,4.44-.22.3-.47.58-.6.69l-3.38-2.42c-.44.93-.15,1.71.61,2.25.43.31.9.45,1.49.51l-.17,1.41c-.87-.01-1.79-.32-2.46-.8-1.61-1.15-2.08-3.14-.74-5.01Zm4.08,1.99c.45-.62.5-1.26-.17-1.74-.53-.38-1.24-.35-1.86.28l2.04,1.46Z"/>
      <path class="cls-18" d="m515.84,805.8l2.54,1.82c1.54,1.1,2.43,2.38,1.42,3.8-.48.67-1.36,1.11-2.13.9l-.03.05c.62.74.8,1.72.09,2.71-1.08,1.51-2.84,1.27-4.46.12l-2.75-1.97,5.32-7.42Zm-1.77,8c.91.66,1.62.67,2.1,0,.47-.65.19-1.25-.73-1.91l-.94-.67-1.37,1.92.94.67Zm2.11-3.26c.81.58,1.42.5,1.81-.04.41-.57.19-1.07-.59-1.63l-.8-.57-1.2,1.68.78.56Z"/>
      <path class="cls-18" d="m518.75,815.88l2.51-3.51,1.67,1.2-2.36,3.29c-.58.81-.55,1.22-.06,1.57.42.3.8.31,1.45.1l2.68-3.74,1.67,1.2-4.05,5.65-1.37-.98.44-.87-.04-.03c-.88.23-1.66.2-2.43-.35-1.23-.88-1.13-2.12-.12-3.53Z"/>
      <path class="cls-18" d="m524.99,820.93l4.46-6.22,1.67,1.2-4.51,6.29c-.26.36-.17.59-.04.69.06.04.11.08.22.12l-.69,1.38c-.24-.05-.56-.19-.94-.46-1.15-.82-1-1.85-.19-3Z"/>
      <path class="cls-18" d="m528.24,823.26l4.46-6.22,1.67,1.2-4.51,6.29c-.26.36-.17.59-.04.69.06.04.11.08.22.12l-.68,1.38c-.24-.05-.56-.19-.94-.46-1.15-.82-1-1.85-.19-3Z"/>
      <path class="cls-18" d="m534.29,821.7l1.37.98-.28.64.04.03c.73-.08,1.52.04,2.1.46,1.37.98,1.4,2.71.15,4.45-1.39,1.94-3.34,2.22-4.56,1.35-.49-.35-.79-.89-.93-1.55l-.58.93-1.19,1.65-1.67-1.2,5.55-7.74Zm1.65,5.35c.73-1.01.78-1.75.11-2.22-.34-.25-.75-.3-1.33-.19l-1.66,2.32c.11.48.36.8.64,1,.58.42,1.4.26,2.24-.91Z"/>
      <path class="cls-18" d="m538.45,828.97c1.31-1.83,3.43-2.03,4.79-1.05,1.61,1.15,1.57,2.89.46,4.44-.22.3-.47.58-.6.69l-3.38-2.42c-.44.93-.15,1.71.61,2.25.43.31.9.45,1.49.51l-.17,1.41c-.87-.01-1.79-.32-2.46-.8-1.61-1.15-2.08-3.14-.74-5.01Zm4.08,1.99c.45-.62.5-1.26-.17-1.74-.53-.38-1.24-.35-1.86.28l2.04,1.46Z"/>
      <path class="cls-18" d="m546.7,830.6l1.37.98-.39.8.04.03c.8-.12,1.65-.1,2.43.45,1.23.88,1.13,2.12.12,3.53l-2.51,3.51-1.67-1.2,2.36-3.29c.58-.81.55-1.22.06-1.57-.42-.3-.82-.29-1.44-.2l-2.73,3.81-1.67-1.2,4.05-5.65Z"/>
      <path class="cls-18" d="m473.95,798.59l-2.04-1.46,1.01-1.41,5.76,4.13-1.01,1.41-2.04-1.46-4.31,6.01-1.68-1.2,4.31-6.01Z"/>
      <path class="cls-18" d="m475.21,804.32c1.31-1.83,3.43-2.03,4.79-1.05,1.61,1.15,1.57,2.89.46,4.44-.22.3-.47.58-.6.69l-3.38-2.42c-.44.93-.15,1.71.61,2.25.43.31.9.45,1.49.51l-.17,1.41c-.87-.01-1.79-.32-2.46-.8-1.61-1.15-2.08-3.14-.74-5.01Zm4.08,1.99c.44-.62.5-1.26-.17-1.74-.53-.38-1.24-.35-1.86.28l2.04,1.46Z"/>
      <path class="cls-18" d="m483.46,805.95l1.37.98-.59,1.07.04.03c.95-.46,1.83-.39,2.41.03.32.23.48.41.59.6l-1.31,1.25c-.17-.19-.3-.35-.54-.53-.43-.31-1.14-.4-1.99.15l-2.35,3.27-1.67-1.2,4.05-5.65Z"/>
      <path class="cls-18" d="m487.99,809.19l1.37.98-.59,1.07.04.03c.95-.46,1.83-.39,2.41.03.32.23.48.41.59.6l-1.31,1.25c-.17-.19-.3-.35-.54-.53-.43-.3-1.14-.4-1.99.15l-2.35,3.27-1.67-1.2,4.05-5.65Z"/>
      <path class="cls-18" d="m489.01,816.11c.85-1.19,2.26-1.16,4.66.21.32-.52.31-1.02-.31-1.46-.47-.34-1.09-.48-1.86-.56l.19-1.53c1.03.08,2.06.35,2.95.99,1.44,1.03,1.65,2.43.41,4.16l-2.31,3.23-1.37-.98.29-.67-.04-.03c-.77.08-1.52,0-2.16-.46-1.03-.74-1.15-1.96-.46-2.91Zm3.23,2.21l.71-.99c-1.31-.69-1.94-.63-2.24-.2-.26.37-.14.72.26,1.01.38.27.77.27,1.28.18Z"/>
      <path class="cls-18" d="m495.84,819.1c1.35-1.88,3.51-1.97,5.07-.85.69.5,1.05,1.13,1.21,1.79l-1.56.51c-.11-.42-.26-.69-.53-.88-.81-.58-1.78-.31-2.48.67-.7.98-.61,1.99.11,2.52.37.27.86.34,1.32.31l-.13,1.56c-.9.09-1.73-.22-2.34-.66-1.58-1.13-2.02-3.09-.67-4.96Z"/>
      <path class="cls-18" d="m500.84,822.68c1.31-1.83,3.43-2.03,4.79-1.05,1.61,1.15,1.57,2.89.46,4.44-.22.3-.47.58-.6.69l-3.38-2.42c-.44.93-.15,1.7.61,2.25.43.31.9.45,1.49.51l-.17,1.41c-.87-.01-1.79-.32-2.46-.8-1.61-1.15-2.08-3.14-.74-5.01Zm4.08,1.99c.44-.62.5-1.26-.17-1.74-.53-.38-1.24-.35-1.87.28l2.04,1.46Z"/>
    </g>
    <g>
      <path class="cls-18" d="m691.93,963.96c.47.29,1.15.53,1.87.53,1.07,0,1.69-.56,1.69-1.38,0-.76-.43-1.19-1.52-1.61-1.32-.47-2.14-1.15-2.14-2.29,0-1.26,1.04-2.2,2.61-2.2.83,0,1.43.19,1.79.4l-.29.85c-.26-.14-.8-.38-1.54-.38-1.1,0-1.52.66-1.52,1.21,0,.76.49,1.13,1.61,1.56,1.37.53,2.06,1.19,2.06,2.37,0,1.25-.92,2.33-2.83,2.33-.78,0-1.63-.23-2.06-.52l.26-.88Z"/>
      <path class="cls-18" d="m698.61,962.52c.02,1.43.94,2.02,1.99,2.02.76,0,1.21-.13,1.61-.3l.18.75c-.37.17-1.01.36-1.93.36-1.79,0-2.85-1.18-2.85-2.93s1.03-3.13,2.72-3.13c1.89,0,2.4,1.67,2.4,2.73,0,.22-.02.38-.04.49h-4.08Zm3.09-.75c.01-.67-.28-1.72-1.46-1.72-1.07,0-1.54.98-1.62,1.72h3.08Z"/>
      <path class="cls-18" d="m704.62,962.52c.02,1.43.94,2.02,1.99,2.02.76,0,1.21-.13,1.61-.3l.18.75c-.37.17-1.01.36-1.93.36-1.79,0-2.85-1.18-2.85-2.93s1.03-3.13,2.72-3.13c1.89,0,2.4,1.67,2.4,2.73,0,.22-.02.38-.04.49h-4.08Zm3.09-.75c.01-.67-.28-1.72-1.46-1.72-1.07,0-1.54.98-1.62,1.72h3.08Z"/>
      <path class="cls-18" d="m712.59,956.71h1.05v8.52h-1.05v-8.52Z"/>
      <path class="cls-18" d="m716.01,962.52c.02,1.43.94,2.02,1.99,2.02.76,0,1.21-.13,1.61-.3l.18.75c-.37.17-1.01.36-1.93.36-1.79,0-2.85-1.18-2.85-2.93s1.03-3.13,2.72-3.13c1.89,0,2.4,1.67,2.4,2.73,0,.22-.02.38-.04.49h-4.08Zm3.09-.75c.01-.67-.28-1.72-1.46-1.72-1.07,0-1.54.98-1.62,1.72h3.08Z"/>
      <path class="cls-18" d="m721.84,959.42l1.14,3.26c.19.53.35,1.01.47,1.49h.04c.13-.48.3-.96.49-1.49l1.13-3.26h1.1l-2.28,5.8h-1.01l-2.21-5.8h1.13Z"/>
      <path class="cls-18" d="m727.67,962.52c.02,1.43.94,2.02,1.99,2.02.76,0,1.21-.13,1.61-.3l.18.75c-.37.17-1.01.36-1.93.36-1.79,0-2.85-1.18-2.85-2.93s1.03-3.13,2.72-3.13c1.89,0,2.4,1.67,2.4,2.73,0,.22-.02.38-.04.49h-4.08Zm3.09-.75c.01-.67-.28-1.72-1.46-1.72-1.07,0-1.54.98-1.62,1.72h3.08Z"/>
      <path class="cls-18" d="m733.1,956.71h1.05v8.52h-1.05v-8.52Z"/>
      <path class="cls-18" d="m738.39,964.02c.3.19,1,.49,1.73.49,1.36,0,1.78-.86,1.76-1.51-.01-1.09-1-1.56-2.01-1.56h-.59v-.79h.59c.77,0,1.74-.4,1.74-1.32,0-.62-.4-1.18-1.37-1.18-.62,0-1.22.28-1.56.52l-.28-.77c.41-.3,1.2-.6,2.04-.6,1.54,0,2.23.91,2.23,1.86,0,.8-.48,1.49-1.44,1.83v.02c.96.19,1.74.91,1.74,2,0,1.25-.97,2.34-2.84,2.34-.88,0-1.64-.28-2.03-.53l.29-.82Z"/>
    </g>
    <path class="cls-18" d="m427.14,218.44c1.07-4.97,1.82-8.48.64-10.19-.79-1.16-1.87-1.35-2.93-.63-.85.58-1.13,1.63-1.29,2.67l-2.53-.47c.31-2.07,1-3.47,2.71-4.64,2.36-1.62,5-1.21,6.58,1.09,1.38,2.02.97,5.45.4,8.82.57-.49,1.35-1.13,1.91-1.51l2.41-1.65,1.6,2.33-8.42,5.77-1.09-1.59Z"/>
    <path class="cls-18" d="m382.93,252.75l.08-2.63c1.21.2,2.45.1,3.45-.59,1.17-.8,1.6-1.84.97-2.76-.72-1.05-1.78-1.28-4.38.51l-1.35-1.96c2.15-1.47,2.38-2.59,1.73-3.54-.58-.84-1.44-.95-2.38-.31-.85.58-1.23,1.41-1.52,2.58l-2.56-.73c.45-1.7,1.26-3.11,2.71-4.11,2.49-1.7,4.94-1.65,6.38.45.84,1.23.74,2.6-.17,4.03l.05.07c1.65-.55,3.32-.26,4.38,1.28,1.53,2.23.35,4.88-2.06,6.53-1.94,1.33-3.77,1.57-5.33,1.16Z"/>
    <path class="cls-18" d="m340.32,272.79c-.52-.76-1.25-1.97-1.73-2.75l-.08.05c.16.88.28,1.78.41,2.69l.22,3.69,6.48-4.44,1.45,2.11-9.14,6.26-1.31-1.92-.56-10.19,3.39-2.32,8.2,11.97-2.58,1.77-4.74-6.92Z"/>
    <path class="cls-18" d="m298.84,315.47l.05-2.6c1.17.17,2.39.12,3.4-.57,1.22-.84,1.57-2.03.72-3.25-.82-1.2-2.04-1.32-3.15-.56-.69.48-.95.88-1.35,1.83l-1.78.05-3.81-6.27,6.79-4.65,1.6,2.33-4.4,3.01,1.34,2.38c.32-.5.65-.85,1.14-1.19,2.07-1.42,4.61-1.44,6.36,1.1,1.82,2.66.81,5.59-1.52,7.19-1.95,1.34-3.8,1.51-5.38,1.21Z"/>
    <path class="cls-18" d="m258.12,343.89c-3.07-4.47-2.12-8.08.39-9.8,1.58-1.08,3.2-1.21,4.49-.96l-.33,2.66c-.72-.18-1.75-.07-2.45.41-1.39.95-1.76,2.77.42,5.96,2.04,2.97,3.57,3.21,4.58,2.52.82-.56,1.11-1.61.18-2.96-.87-1.26-1.86-1.29-2.77-.67-.62.43-1.08,1.25-.98,2.57l-1.36-1.72c0-1.33.75-2.62,1.54-3.16,2.05-1.4,4.36-1.28,6.1,1.26,1.71,2.49.94,5.25-1.23,6.74-2.32,1.59-5.71,1.37-8.59-2.83Z"/>
    <path class="cls-18" d="m218.85,371.24l-5.36,3.68-1.6-2.33,8.33-5.71,1.17,1.71c-.49,5.24.68,7.76,3.65,12.58l-2.78,1.91c-2.51-4.13-3.52-7.14-3.41-11.83Z"/>
    <path class="cls-18" d="m189.71,428.97c0-1.75,1.11-2.83,2.48-3.56v-.09c-1.13-.84-1.95-1.89-1.95-3.41,0-2.47,1.95-4.01,4.64-4.01s4.41,1.57,4.41,3.98c0,1.38-.9,2.5-1.89,3.17v.09c1.38.76,2.5,1.87,2.5,3.79,0,2.29-2.06,4.02-5.13,4.02-2.89,0-5.06-1.62-5.06-3.98Zm7.07-.15c0-1.28-1.24-1.77-3.06-2.53-.64.57-1.11,1.4-1.11,2.3,0,1.27,1.02,2.03,2.24,2.03,1.1,0,1.93-.59,1.93-1.8Zm-.21-6.72c0-1.13-.65-1.87-1.76-1.87-.89,0-1.61.56-1.61,1.67,0,1.18,1.01,1.74,2.48,2.33.57-.67.89-1.37.89-2.13Z"/>
    <path class="cls-18" d="m190.8,483.15l1.77-2.01c.49.56,1.4,1.05,2.25,1.05,1.71,0,3.02-1.29,3.02-5.15,0-3.6-1.13-4.67-2.36-4.67-.99,0-1.83.7-1.83,2.34,0,1.53.81,2.11,1.9,2.11.76,0,1.6-.42,2.26-1.56l.15,2.19c-.75,1.1-2.1,1.74-3.06,1.74-2.48,0-4.32-1.41-4.32-4.49s2.2-4.86,4.82-4.86c2.81,0,5.49,2.1,5.49,7.19,0,5.42-2.81,7.86-5.86,7.86-1.92,0-3.33-.81-4.24-1.75Z"/>
    <g>
      <path class="cls-18" d="m186.41,547.91h3.17v-8.39h-2.72v-2.08c1.56-.3,2.58-.69,3.6-1.32h2.48v11.8h2.72v2.71h-9.25v-2.71Z"/>
      <path class="cls-18" d="m197.72,543.3c0-4.94,2.07-7.46,5.19-7.46s5.19,2.54,5.19,7.46-2.07,7.59-5.19,7.59-5.19-2.66-5.19-7.59Zm7.2,0c0-3.96-.88-4.87-2.01-4.87s-2.01.91-2.01,4.87.88,4.99,2.01,4.99,2.01-1.04,2.01-4.99Z"/>
    </g>
    <g>
      <path class="cls-18" d="m213.41,597.02l2.12-2.35-6.23-5.62-1.82,2.02-1.55-1.4c.82-1.35,1.22-2.38,1.43-3.55l1.66-1.84,8.76,7.9,1.82-2.02,2.01,1.82-6.2,6.86-2.01-1.82Z"/>
      <path class="cls-18" d="m221.49,588.07l2.12-2.35-6.23-5.62-1.82,2.02-1.55-1.4c.82-1.35,1.22-2.38,1.43-3.56l1.66-1.84,8.76,7.9,1.82-2.02,2.01,1.82-6.19,6.86-2.01-1.82Z"/>
    </g>
    <g>
      <path class="cls-18" d="m250.2,648.04l2.12-2.35-6.23-5.62-1.82,2.02-1.55-1.4c.82-1.35,1.22-2.38,1.43-3.55l1.66-1.84,8.76,7.9,1.82-2.02,2.01,1.82-6.2,6.86-2.01-1.82Z"/>
      <path class="cls-18" d="m258.36,640.16c-.12-5.08-.21-8.67-1.75-10.06-1.04-.94-2.14-.88-2.99.07-.69.77-.71,1.85-.63,2.9l-2.56.14c-.18-2.08.16-3.6,1.55-5.14,1.92-2.12,4.58-2.35,6.65-.47,1.81,1.64,2.22,5.07,2.45,8.48.44-.61,1.05-1.42,1.5-1.91l1.96-2.17,2.1,1.89-6.84,7.57-1.43-1.29Z"/>
    </g>
    <g>
      <path class="cls-18" d="m300.2,679.04l2.12-2.35-6.23-5.62-1.82,2.02-1.55-1.4c.82-1.35,1.22-2.38,1.43-3.55l1.66-1.84,8.76,7.9,1.82-2.02,2.01,1.82-6.2,6.86-2.01-1.82Z"/>
      <path class="cls-18" d="m308.24,671.52l-.54-2.57c1.22-.09,2.4-.47,3.22-1.38.95-1.05,1.12-2.16.29-2.91-.95-.85-2.03-.83-4.14,1.52l-1.77-1.59c1.75-1.94,1.71-3.07.85-3.85-.76-.68-1.62-.59-2.38.26-.69.77-.87,1.66-.88,2.86l-2.66-.11c.04-1.76.49-3.32,1.68-4.63,2.02-2.24,4.42-2.76,6.31-1.05,1.11,1,1.33,2.35.77,3.95l.07.06c1.48-.92,3.17-1.03,4.56.22,2,1.81,1.48,4.67-.48,6.83-1.57,1.74-3.29,2.41-4.92,2.38Z"/>
    </g>
    <g>
      <path class="cls-18" d="m338.2,709.04l2.12-2.35-6.23-5.62-1.82,2.02-1.55-1.4c.82-1.35,1.22-2.38,1.43-3.55l1.66-1.84,8.76,7.9,1.82-2.02,2.01,1.82-6.2,6.86-2.01-1.82Z"/>
      <path class="cls-18" d="m345.5,692.48c-.68-.62-1.67-1.62-2.33-2.27l-.06.07c.36.82.68,1.66,1.02,2.52l1.07,3.53,5.27-5.83,1.9,1.71-7.42,8.22-1.72-1.55-2.93-9.78,2.75-3.05,10.77,9.72-2.1,2.32-6.23-5.62Z"/>
    </g>
    <g>
      <path class="cls-18" d="m379.2,742.04l2.12-2.35-6.23-5.62-1.82,2.02-1.55-1.4c.82-1.35,1.22-2.38,1.43-3.55l1.66-1.84,8.76,7.9,1.82-2.02,2.01,1.82-6.2,6.86-2.01-1.82Z"/>
      <path class="cls-18" d="m387.26,734.51l-.56-2.54c1.18-.11,2.35-.44,3.18-1.35.99-1.1,1.05-2.34-.06-3.33-1.08-.97-2.29-.81-3.19.19-.56.62-.72,1.07-.89,2.09l-1.72.46-5.17-5.2,5.51-6.11,2.09,1.89-3.57,3.96,1.86,2c.2-.57.43-.98.83-1.42,1.68-1.86,4.15-2.48,6.44-.41,2.39,2.16,2.09,5.25.2,7.35-1.59,1.76-3.34,2.36-4.95,2.44Z"/>
    </g>
    <g>
      <path class="cls-18" d="m413.2,770.04l2.12-2.35-6.23-5.62-1.82,2.02-1.55-1.4c.82-1.35,1.22-2.38,1.43-3.55l1.66-1.84,8.76,7.9,1.82-2.02,2.01,1.82-6.2,6.86-2.01-1.82Z"/>
      <path class="cls-18" d="m417.71,758.75c-4.03-3.63-3.95-7.36-1.91-9.62,1.29-1.43,2.83-1.92,4.14-1.98l.3,2.66c-.75,0-1.72.34-2.28.97-1.13,1.25-1.07,3.1,1.8,5.69,2.67,2.41,4.23,2.29,5.05,1.38.66-.74.7-1.83-.51-2.92-1.14-1.03-2.11-.82-2.84,0-.51.56-.76,1.47-.35,2.72l-1.73-1.36c-.31-1.29.12-2.73.75-3.43,1.66-1.84,3.94-2.26,6.22-.2,2.24,2.02,2.14,4.89.38,6.84-1.88,2.09-5.24,2.67-9.02-.74Z"/>
    </g>
    <g>
      <path class="cls-19" d="m239.12,867.06l5.41-6.73,2.02,1.62-3.47,4.32,2.47,1.99,2.96-3.69,2.02,1.62-2.96,3.69,4.15,3.33-1.94,2.41-10.67-8.57Z"/>
      <path class="cls-19" d="m253.47,866.43c-1.71-1.37-1.54-3.48.69-6.96-.75-.52-1.5-.54-2.21.34-.55.68-.81,1.59-.99,2.74l-2.27-.41c.2-1.54.69-3.05,1.72-4.33,1.67-2.08,3.78-2.27,6.27-.28l4.64,3.73-1.58,1.96-.97-.49-.05.06c.05,1.17-.14,2.28-.87,3.19-1.19,1.48-3.02,1.55-4.39.45Zm3.56-4.66l-1.42-1.14c-1.14,1.9-1.1,2.85-.49,3.34.52.42,1.07.27,1.53-.31.44-.54.46-1.13.38-1.9Z"/>
      <path class="cls-19" d="m254.83,852.72l1.58-1.96,1.17.65.05-.06c-.11-1.21-.02-2.49.87-3.59,1.42-1.77,3.27-1.52,5.3.11l5.04,4.05-1.93,2.41-4.73-3.8c-1.17-.94-1.79-.92-2.34-.22-.49.6-.5,1.2-.42,2.14l5.48,4.4-1.93,2.41-8.12-6.52Z"/>
      <path class="cls-19" d="m255.1,906.51l-.54-2.71c1.27-.23,2.51-.85,3.22-1.73.81-1.01.81-1.82.17-2.33-.67-.54-1.37-.11-2.5.52l-1.71.91c-1.34.75-3.09,1.06-4.64-.18-1.77-1.42-1.91-4.13-.13-6.36.99-1.23,2.5-2.12,4.16-2.31l.54,2.44c-1.1.27-1.94.7-2.61,1.54-.67.83-.75,1.64-.14,2.13.65.53,1.45.02,2.57-.62l1.64-.92c1.57-.88,3.09-1,4.6.21,1.77,1.42,2.12,4.13.08,6.68-1.12,1.39-2.83,2.44-4.72,2.71Z"/>
      <path class="cls-19" d="m259.71,895.21c-2.63-2.12-2.75-5.3-1.19-7.25,1.86-2.31,4.46-2.11,6.68-.33.43.35.82.75.98.95l-3.9,4.86c1.35.73,2.54.36,3.41-.73.49-.61.75-1.32.88-2.18l2.09.37c-.09,1.29-.62,2.65-1.4,3.62-1.86,2.32-4.86,2.85-7.55.69Zm3.31-5.95c-.89-.72-1.85-.84-2.62.12-.61.76-.63,1.83.27,2.81l2.35-2.93Z"/>
      <path class="cls-19" d="m262.84,882.99l1.58-1.96,1.56.97.05-.06c-.61-1.46-.43-2.78.24-3.61.37-.46.65-.68.94-.84l1.76,2.07c-.3.23-.56.42-.84.77-.49.61-.69,1.67.07,3l4.71,3.78-1.93,2.41-8.12-6.52Z"/>
      <path class="cls-19" d="m267.47,877.23l1.94-2.42,4.68,2.02c.97.44,1.99.9,3,1.38l.05-.07c-.68-.89-1.35-1.78-1.99-2.63l-2.99-4.14,1.85-2.3,6,9.17-2.23,2.78-10.32-3.78Z"/>
      <path class="cls-19" d="m272.44,866.02c-.74-.59-.79-1.6-.14-2.4.65-.81,1.64-.98,2.38-.38.73.59.79,1.6.14,2.4-.65.81-1.64.97-2.38.38Zm2.6,1.78l1.93-2.41,8.12,6.52-1.93,2.41-8.12-6.52Z"/>
      <path class="cls-19" d="m282.35,867.01c-2.7-2.17-2.67-5.41-.86-7.65.8-1,1.78-1.48,2.78-1.67l.63,2.38c-.64.12-1.05.33-1.36.72-.93,1.16-.61,2.63.79,3.76,1.41,1.13,2.93,1.08,3.77.04.43-.53.58-1.25.58-1.95l2.33.32c.06,1.35-.48,2.57-1.18,3.45-1.82,2.27-4.79,2.76-7.48.6Z"/>
      <path class="cls-19" d="m288.12,859.82c-2.63-2.12-2.75-5.3-1.19-7.25,1.86-2.31,4.46-2.11,6.68-.33.43.35.82.75.98.95l-3.9,4.86c1.35.73,2.54.36,3.41-.73.49-.61.75-1.32.88-2.18l2.09.37c-.09,1.29-.62,2.65-1.4,3.62-1.86,2.31-4.86,2.85-7.55.69Zm3.31-5.95c-.89-.72-1.85-.84-2.62.12-.61.76-.63,1.83.27,2.81l2.35-2.93Z"/>
      <path class="cls-19" d="m297.86,854.09l-.63-2.29c1.15-.29,1.99-.73,2.54-1.41.58-.72.55-1.25.12-1.59-.53-.43-1.42.18-2.42.75-1.18.69-2.77,1.31-4.11.23-1.51-1.21-1.56-3.27-.05-5.14,1-1.25,2.25-1.77,3.33-2.04l.58,2.24c-.88.24-1.62.59-2.07,1.15-.5.62-.5,1.12-.1,1.45.52.42,1.33-.19,2.31-.78,1.21-.72,2.72-1.42,4.2-.23,1.47,1.18,1.69,3.26-.06,5.44-.86,1.07-2.31,1.92-3.64,2.21Z"/>
    </g>
    <g>
      <path class="cls-19" d="m279.3,765.8l2.47,1.98-3.26,5.58c-.76,1.24-1.51,2.49-2.27,3.72l.07.05c1.11-.96,2.24-1.92,3.35-2.86l5.15-4.06,2.05,1.64-2.85,5.91c-.66,1.26-1.37,2.58-2.07,3.89l.07.05c1.05-1.03,2.12-2.04,3.14-3.03l4.74-4.39,2.3,1.85-10.46,9.15-3.03-2.43,2.85-5.69c.49-.96,1.04-1.93,1.56-2.82l-.07-.05c-.77.69-1.59,1.44-2.42,2.13l-4.9,4.04-2.98-2.39,6.58-12.26Z"/>
      <path class="cls-19" d="m287.67,783.4c2.17-2.7,5.32-2.73,7.38-1.08,2.06,1.65,2.7,4.74.54,7.44-2.16,2.7-5.32,2.73-7.37,1.08-2.06-1.65-2.7-4.74-.54-7.43Zm5.45,4.37c1.13-1.41,1.37-2.71.37-3.51-1-.8-2.22-.29-3.35,1.12-1.13,1.41-1.36,2.71-.37,3.51,1,.8,2.22.29,3.35-1.12Z"/>
      <path class="cls-19" d="m300.5,787.01l1.96,1.58-.65,1.17.06.05c1.21-.11,2.49-.02,3.59.87,1.77,1.42,1.52,3.27-.11,5.3l-4.05,5.04-2.41-1.93,3.8-4.73c.94-1.17.92-1.79.22-2.34-.6-.49-1.2-.5-2.14-.42l-4.4,5.48-2.41-1.93,6.52-8.12Z"/>
      <path class="cls-19" d="m306.18,798.26c2.13-2.66,5.08-2.93,6.79-1.56.9.72,1.17,1.49,1.31,2.45l.9-1.3,2.22-2.77,2.41,1.93-9.21,11.47-1.96-1.58.47-.94-.06-.05c-1.03.11-2.18-.1-2.97-.73-2.02-1.62-2.04-4.27.09-6.92Zm4.02,5.79l2.68-3.33c-.12-.72-.49-1.24-.93-1.59-.78-.62-2.04-.45-3.28,1.09-1.28,1.59-1.31,2.75-.37,3.5.51.41,1.08.55,1.91.33Z"/>
      <path class="cls-19" d="m315.51,805.75c2.12-2.63,5.3-2.75,7.25-1.19,2.31,1.86,2.11,4.46.33,6.68-.35.43-.75.82-.95.98l-4.86-3.9c-.73,1.35-.36,2.54.73,3.41.61.49,1.32.75,2.18.88l-.37,2.09c-1.29-.09-2.65-.62-3.62-1.4-2.32-1.86-2.85-4.87-.69-7.55Zm5.95,3.31c.72-.89.84-1.85-.12-2.62-.76-.61-1.83-.63-2.81.27l2.93,2.35Z"/>
      <path class="cls-19" d="m327.73,808.87l1.96,1.58-.97,1.56.06.05c1.46-.61,2.78-.43,3.6.24.46.37.69.65.84.94l-2.07,1.76c-.23-.3-.42-.56-.77-.83-.61-.49-1.67-.69-3,.07l-3.78,4.71-2.41-1.93,6.52-8.12Z"/>
      <path class="cls-19" d="m330.56,823.08l-.06-.05-.9.71-1.88-1.51,9.21-11.47,2.41,1.93-2.25,2.8-1.06,1.2c1.06-.06,2.1.21,2.87.83,1.97,1.58,1.88,4.18-.12,6.67-2.25,2.8-5.19,3.07-6.95,1.66-.73-.58-1.18-1.55-1.27-2.77Zm5.72-.83c1.17-1.46,1.31-2.55.35-3.32-.5-.4-1.1-.52-1.98-.39l-2.68,3.33c.12.73.48,1.23.88,1.55.84.67,2.08.51,3.43-1.18Z"/>
      <path class="cls-19" d="m338.36,827.06c1.37-1.71,3.48-1.54,6.96.69.52-.75.54-1.5-.34-2.21-.68-.55-1.59-.81-2.74-.99l.41-2.27c1.54.2,3.05.69,4.33,1.72,2.08,1.67,2.27,3.78.28,6.27l-3.73,4.64-1.96-1.58.49-.97-.06-.05c-1.17.05-2.28-.14-3.19-.87-1.48-1.19-1.55-3.02-.46-4.39Zm4.66,3.56l1.14-1.42c-1.9-1.14-2.85-1.1-3.34-.49-.42.52-.27,1.07.31,1.53.54.44,1.13.46,1.9.38Z"/>
      <path class="cls-19" d="m352.08,828.42l1.96,1.58-.97,1.56.06.05c1.46-.61,2.78-.43,3.6.24.46.37.69.65.84.94l-2.07,1.76c-.23-.3-.42-.55-.77-.83-.61-.49-1.67-.69-3,.07l-3.78,4.71-2.41-1.93,6.52-8.12Z"/>
      <path class="cls-19" d="m285.94,803.45l3.67,2.94c2.35,1.88,3.57,4.25,1.49,6.84-2.01,2.51-4.82,2.08-7.08.26l-1.32-1.06-2.91,3.62-2.41-1.94,8.57-10.67Zm-.53,8.02c1.33,1.06,2.43.98,3.32-.13.9-1.12.5-2.09-.8-3.14l-1.11-.89-2.58,3.22,1.18.95Z"/>
      <path class="cls-19" d="m293.46,813.67l2.41,1.93-6.52,8.12-2.41-1.93,6.52-8.12Zm1.78-2.6c.59-.74,1.6-.79,2.4-.14.81.65.98,1.64.38,2.38-.59.73-1.6.79-2.4.14-.81-.65-.97-1.64-.38-2.38Z"/>
      <path class="cls-19" d="m292.04,823.78l7.38-2.21-3.02-2.43,1.52-1.89,6.02,4.84-1.03,1.29-7.38,2.21,3.52,2.83-1.52,1.89-6.52-5.24,1.03-1.29Z"/>
      <path class="cls-19" d="m299.57,829.83l7.38-2.21-3.02-2.43,1.52-1.89,6.02,4.84-1.03,1.29-7.38,2.21,3.52,2.83-1.52,1.89-6.52-5.24,1.03-1.29Z"/>
      <path class="cls-19" d="m307.72,834.78c1.37-1.71,3.48-1.54,6.96.69.52-.75.54-1.5-.34-2.21-.68-.55-1.59-.81-2.74-.99l.41-2.27c1.54.2,3.05.69,4.33,1.72,2.08,1.67,2.27,3.78.28,6.27l-3.73,4.64-1.96-1.58.49-.97-.06-.05c-1.17.05-2.28-.13-3.19-.87-1.48-1.19-1.55-3.03-.46-4.39Zm4.66,3.56l1.14-1.42c-1.9-1.14-2.85-1.1-3.34-.49-.42.52-.27,1.07.31,1.53.54.44,1.13.46,1.9.38Z"/>
    </g>
    <g>
      <path class="cls-19" d="m133.15,751.47l1.98-2.47,5.58,3.26c1.24.76,2.49,1.51,3.72,2.28l.05-.07c-.96-1.11-1.92-2.24-2.87-3.34l-4.06-5.15,1.64-2.05,5.91,2.85c1.26.66,2.58,1.37,3.89,2.07l.05-.07c-1.03-1.05-2.04-2.12-3.03-3.14l-4.39-4.74,1.85-2.3,9.15,10.46-2.43,3.03-5.69-2.85c-.96-.49-1.93-1.04-2.82-1.56l-.05.07c.69.77,1.44,1.59,2.13,2.42l4.04,4.9-2.39,2.98-12.26-6.58Z"/>
      <path class="cls-19" d="m150.74,743.1c-2.7-2.17-2.73-5.32-1.08-7.38,1.65-2.06,4.74-2.7,7.44-.54,2.69,2.16,2.73,5.32,1.08,7.37s-4.74,2.7-7.43.54Zm4.37-5.45c-1.41-1.13-2.71-1.37-3.51-.37-.8,1-.29,2.22,1.12,3.35,1.41,1.13,2.71,1.36,3.51.37.8-1,.29-2.22-1.12-3.35Z"/>
      <path class="cls-19" d="m158.04,734.01c-2.7-2.17-2.73-5.32-1.08-7.38,1.65-2.06,4.74-2.7,7.44-.54,2.69,2.16,2.73,5.32,1.08,7.37-1.65,2.06-4.74,2.71-7.43.54Zm4.37-5.45c-1.41-1.13-2.71-1.37-3.52-.37-.8,1-.28,2.22,1.12,3.35s2.71,1.36,3.51.37c.8-1,.29-2.22-1.12-3.35Z"/>
      <path class="cls-19" d="m168.03,727.12l-.54-2.71c1.27-.23,2.52-.85,3.22-1.73.81-1.01.81-1.82.17-2.33-.67-.54-1.38-.11-2.51.52l-1.71.91c-1.34.75-3.09,1.06-4.64-.18-1.77-1.42-1.91-4.13-.13-6.35.99-1.23,2.5-2.12,4.16-2.31l.54,2.44c-1.1.27-1.94.7-2.61,1.54-.67.83-.75,1.64-.14,2.13.65.53,1.45.02,2.57-.62l1.64-.92c1.57-.88,3.09-1,4.6.21,1.77,1.42,2.12,4.13.08,6.68-1.12,1.39-2.83,2.44-4.72,2.71Z"/>
      <path class="cls-19" d="m172.64,715.82c-2.7-2.17-2.73-5.32-1.08-7.38,1.65-2.06,4.74-2.7,7.44-.54,2.69,2.16,2.73,5.32,1.08,7.37-1.65,2.06-4.74,2.71-7.43.54Zm4.37-5.45c-1.41-1.13-2.71-1.37-3.51-.37-.8,1-.28,2.22,1.12,3.35,1.41,1.13,2.71,1.36,3.51.37.8-1,.29-2.22-1.12-3.35Z"/>
      <path class="cls-19" d="m181.14,704.88l-5.78-.78,2.07-2.58,1.89.33c.63.14,1.3.29,1.94.42l.05-.06c-.31-.54-.63-1.13-.94-1.67l-.87-1.61,2-2.49,2.29,5.7,5.96.68-2.07,2.58-1.98-.28c-.67-.12-1.36-.27-2.02-.37l-.05.06c.29.57.6,1.17.91,1.76l.84,1.71-2,2.49-2.22-5.89Z"/>
      <path class="cls-19" d="m156.52,762.61l2.11-2.63,6.13,2.08c.8.29,1.63.65,2.46.97l.05-.07c-.49-.74-1.02-1.47-1.48-2.19l-3.39-5.48,2.11-2.63,10.67,8.57-1.76,2.2-3.92-3.14c-1.04-.84-2.44-2.28-3.38-3.22l-.05.07,1.82,2.9,2.88,4.79-1.08,1.34-5.3-1.77-3.21-1.18-.05.07c1.12.71,2.83,1.77,3.87,2.6l3.92,3.14-1.74,2.16-10.67-8.57Z"/>
      <path class="cls-19" d="m174.5,757.46c-1.71-1.38-1.54-3.48.7-6.97-.75-.52-1.5-.54-2.21.34-.55.68-.81,1.59-.99,2.74l-2.27-.41c.2-1.54.69-3.05,1.72-4.33,1.67-2.08,3.78-2.27,6.27-.28l4.64,3.73-1.58,1.96-.97-.5-.05.06c.05,1.17-.14,2.28-.87,3.19-1.19,1.48-3.02,1.55-4.39.46Zm3.57-4.66l-1.42-1.14c-1.14,1.9-1.1,2.85-.49,3.34.52.42,1.07.27,1.53-.31.44-.54.46-1.13.38-1.9Z"/>
      <path class="cls-19" d="m175.86,743.75l1.58-1.96,1.56.97.05-.06c-.61-1.46-.43-2.78.24-3.61.37-.46.65-.69.94-.84l1.76,2.07c-.3.23-.55.42-.83.77-.49.61-.69,1.67.07,3l4.71,3.78-1.93,2.41-8.12-6.52Z"/>
      <path class="cls-19" d="m177.74,734.54l1.89-2.35,6.57,5.27.05-.06-1.15-5.16,2.1-2.61,1.06,5.53,7.23.77-2.09,2.61-4.63-.71.34,1.97,2,1.6-1.89,2.35-11.47-9.21Z"/>
      <path class="cls-19" d="m191.61,732.45c-2.63-2.12-2.75-5.3-1.19-7.25,1.86-2.31,4.46-2.11,6.68-.33.43.35.83.75.98.96l-3.9,4.86c1.35.73,2.54.36,3.41-.73.49-.61.75-1.32.88-2.18l2.09.37c-.09,1.29-.62,2.65-1.4,3.62-1.86,2.32-4.87,2.85-7.55.69Zm3.31-5.95c-.89-.72-1.85-.85-2.62.12-.61.76-.63,1.83.27,2.81l2.35-2.93Z"/>
      <path class="cls-19" d="m200.03,724.22l-3.28-2.63-.89,1.11-1.79-1.44.91-1.32-1.93-2.01,1.6-1.99,2.16,1.73,1.56-1.95,1.89,1.52-1.56,1.95,3.25,2.61c.92.74,1.62.62,2.13-.02.21-.27.37-.62.47-.89l2.05,1.02c-.21.54-.52,1.25-1.15,2.04-1.61,2.01-3.52,1.79-5.4.28Z"/>
    </g>
    <g>
      <path class="cls-19" d="m27.76,555.26h3.09v13.68h-3.09v-13.68Z"/>
      <path class="cls-19" d="m33.83,558.53h2.52l.22,1.32h.08c.88-.84,1.93-1.57,3.35-1.57,2.27,0,3.23,1.6,3.23,4.2v6.47h-3.09v-6.07c0-1.5-.4-1.97-1.29-1.97-.78,0-1.25.36-1.93,1.01v7.03h-3.09v-10.42Z"/>
      <path class="cls-19" d="m44.99,558.65l1.56-.12h4.79v2.42h-6.35v-2.3Zm1.39-.66c0-2.2,1.02-4,3.83-4,.87,0,1.62.19,2.08.37l-.56,2.28c-.35-.14-.74-.23-1.08-.23-.75,0-1.19.42-1.19,1.49v11.05h-3.09v-10.96Z"/>
      <path class="cls-19" d="m52.76,555.39c0-.95.75-1.61,1.79-1.61s1.79.67,1.79,1.61-.75,1.61-1.79,1.61-1.79-.67-1.79-1.61Zm.24,3.14h3.09v10.42h-3.09v-10.42Z"/>
      <path class="cls-19" d="m58.19,563.74c0-3.38,2.41-5.46,4.91-5.46,2.97,0,4.44,2.16,4.44,5,0,.56-.07,1.11-.13,1.36h-6.23c.28,1.51,1.31,2.2,2.7,2.2.79,0,1.5-.24,2.25-.68l1.02,1.86c-1.07.74-2.46,1.17-3.7,1.17-2.97,0-5.27-2.01-5.27-5.46Zm6.71-1.14c0-1.15-.5-1.97-1.73-1.97-.98,0-1.82.65-2.03,1.97h3.76Z"/>
      <path class="cls-19" d="m69.67,565.71v-11.47h3.09v11.6c0,.66.31.87.56.87.12,0,.2,0,.38-.04l.37,2.28c-.34.15-.85.26-1.55.26-2.12,0-2.84-1.38-2.84-3.49Z"/>
      <path class="cls-19" d="m75.14,563.74c0-3.41,2.13-5.46,4.32-5.46,1.15,0,1.85.43,2.55,1.09l-.11-1.58v-3.55h3.09v14.71h-2.52l-.22-1.03h-.08c-.74.74-1.77,1.28-2.77,1.28-2.59,0-4.26-2.06-4.26-5.46Zm6.76,2v-4.28c-.55-.49-1.16-.66-1.72-.66-1,0-1.88.92-1.88,2.9s.71,2.97,1.9,2.97c.66,0,1.19-.25,1.7-.93Z"/>
      <path class="cls-19" d="m42.85,580.46h8.64v2.59h-5.54v3.17h4.73v2.59h-4.73v5.32h-3.09v-13.68Z"/>
      <path class="cls-19" d="m53.18,583.73h2.52l.22,1.82h.08c.76-1.39,1.9-2.07,2.96-2.07.6,0,.94.08,1.24.21l-.51,2.66c-.37-.09-.68-.17-1.12-.17-.79,0-1.74.51-2.29,1.93v6.04h-3.09v-10.42Z"/>
      <path class="cls-19" d="m61.37,598.01l.55-2.35c.19.05.48.13.7.13,1.02,0,1.55-.56,1.82-1.37l.16-.54-4.02-10.15h3.1l1.49,4.48c.3.94.55,1.93.82,2.95h.08c.23-.99.46-1.97.72-2.95l1.26-4.48h2.96l-3.62,10.53c-.99,2.61-2.1,3.96-4.55,3.96-.65,0-1.06-.08-1.48-.21Z"/>
    </g>
    <g>
      <path class="cls-19" d="m56.91,474.39h4.68c2.84,0,5.05.78,5.05,3.39,0,1.23-.69,2.53-1.8,2.95v.08c1.4.36,2.48,1.39,2.48,3.22,0,2.78-2.35,4.03-5.33,4.03h-5.07v-13.68Zm4.54,5.48c1.5,0,2.17-.63,2.17-1.63,0-1.05-.7-1.46-2.14-1.46h-1.47v3.09h1.45Zm.28,5.82c1.69,0,2.56-.6,2.56-1.84s-.86-1.69-2.56-1.69h-1.73v3.53h1.73Z"/>
      <path class="cls-19" d="m68.88,485.18c0-2.19,1.75-3.38,5.87-3.82-.06-.91-.52-1.51-1.65-1.51-.87,0-1.75.37-2.76.94l-1.1-2.03c1.32-.81,2.81-1.37,4.45-1.37,2.66,0,4.14,1.52,4.14,4.71v5.96h-2.52l-.22-1.07h-.08c-.88.77-1.86,1.32-3.03,1.32-1.9,0-3.1-1.39-3.1-3.14Zm5.87-.14v-1.82c-2.2.3-2.91.92-2.91,1.71,0,.67.46,1,1.2,1s1.17-.35,1.72-.89Z"/>
      <path class="cls-19" d="m80.43,477.65h2.52l.22,1.82h.08c.76-1.39,1.9-2.07,2.96-2.07.6,0,.94.08,1.24.21l-.51,2.66c-.37-.09-.68-.17-1.12-.17-.79,0-1.74.51-2.29,1.93v6.04h-3.09v-10.42Z"/>
    </g>
    <g>
      <path class="cls-19" d="m18.43,358.24h4.68c2.84,0,5.05.78,5.05,3.39,0,1.23-.69,2.53-1.8,2.95v.08c1.4.36,2.48,1.39,2.48,3.22,0,2.78-2.35,4.03-5.33,4.03h-5.07v-13.68Zm4.54,5.48c1.5,0,2.17-.63,2.17-1.63,0-1.05-.7-1.46-2.14-1.46h-1.47v3.09h1.45Zm.28,5.82c1.69,0,2.56-.6,2.56-1.84s-.86-1.69-2.56-1.69h-1.73v3.53h1.73Z"/>
      <path class="cls-19" d="m30.27,366.72c0-3.38,2.41-5.46,4.91-5.46,2.97,0,4.44,2.16,4.44,5,0,.56-.07,1.11-.13,1.36h-6.23c.28,1.51,1.31,2.2,2.7,2.2.79,0,1.5-.24,2.25-.68l1.02,1.86c-1.07.74-2.46,1.17-3.7,1.17-2.97,0-5.27-2.01-5.27-5.46Zm6.71-1.14c0-1.15-.5-1.97-1.73-1.97-.98,0-1.82.65-2.03,1.97h3.76Z"/>
      <path class="cls-19" d="m41.75,357.21h3.09v3.59l-.14,1.89c.78-.71,1.8-1.44,3.22-1.44,2.27,0,3.23,1.6,3.23,4.2v6.47h-3.09v-6.07c0-1.5-.4-1.97-1.29-1.97-.78,0-1.25.36-1.93,1.01v7.03h-3.09v-14.71Z"/>
      <path class="cls-19" d="m53.5,358.37c0-.95.75-1.61,1.79-1.61s1.79.67,1.79,1.61-.75,1.61-1.79,1.61-1.79-.67-1.79-1.61Zm.24,3.14h3.09v10.42h-3.09v-10.42Z"/>
      <path class="cls-19" d="m59.54,361.5h2.52l.22,1.32h.08c.88-.84,1.93-1.57,3.35-1.57,2.27,0,3.23,1.6,3.23,4.2v6.47h-3.09v-6.07c0-1.5-.4-1.97-1.29-1.97-.78,0-1.25.36-1.93,1.01v7.03h-3.09v-10.42Z"/>
      <path class="cls-19" d="m71.02,366.72c0-3.41,2.13-5.46,4.32-5.46,1.15,0,1.85.43,2.55,1.09l-.11-1.58v-3.55h3.09v14.71h-2.52l-.22-1.03h-.08c-.74.74-1.77,1.28-2.77,1.28-2.59,0-4.26-2.06-4.26-5.46Zm6.76,2v-4.28c-.55-.49-1.16-.66-1.72-.66-1,0-1.88.92-1.88,2.9s.71,2.97,1.9,2.97c.66,0,1.19-.25,1.7-.93Z"/>
      <path class="cls-19" d="m36.54,386.03h-3.77v-2.59h10.63v2.59h-3.77v11.09h-3.09v-11.09Z"/>
      <path class="cls-19" d="m45.28,382.41h3.09v3.59l-.14,1.89c.78-.71,1.8-1.44,3.22-1.44,2.27,0,3.23,1.6,3.23,4.2v6.47h-3.09v-6.07c0-1.5-.4-1.97-1.29-1.97-.78,0-1.25.36-1.93,1.01v7.03h-3.09v-14.71Z"/>
      <path class="cls-19" d="m56.67,391.92c0-3.38,2.41-5.46,4.91-5.46,2.97,0,4.44,2.16,4.44,5,0,.56-.07,1.11-.13,1.36h-6.23c.28,1.51,1.31,2.2,2.7,2.2.79,0,1.5-.24,2.25-.68l1.02,1.86c-1.07.74-2.46,1.17-3.7,1.17-2.97,0-5.27-2.01-5.27-5.46Zm6.71-1.14c0-1.15-.5-1.97-1.73-1.97-.98,0-1.82.65-2.03,1.97h3.76Z"/>
      <path class="cls-19" d="m27.26,408.64h4.7c3.01,0,5.44,1.08,5.44,4.4s-2.46,4.64-5.36,4.64h-1.69v4.64h-3.09v-13.68Zm4.6,6.59c1.7,0,2.51-.76,2.51-2.18s-.92-1.95-2.59-1.95h-1.42v4.13h1.51Z"/>
      <path class="cls-19" d="m39.52,419.08v-11.47h3.09v11.6c0,.66.31.87.56.87.12,0,.2,0,.38-.04l.37,2.28c-.34.15-.85.26-1.55.26-2.12,0-2.84-1.38-2.84-3.49Z"/>
      <path class="cls-19" d="m45.04,419.43c0-2.19,1.75-3.38,5.87-3.82-.06-.91-.52-1.51-1.65-1.51-.87,0-1.75.37-2.76.94l-1.1-2.03c1.32-.81,2.81-1.37,4.45-1.37,2.66,0,4.14,1.52,4.14,4.71v5.96h-2.52l-.22-1.07h-.08c-.88.77-1.86,1.32-3.03,1.32-1.9,0-3.1-1.39-3.1-3.14Zm5.87-.14v-1.82c-2.2.3-2.91.92-2.91,1.71,0,.67.46,1,1.2,1s1.17-.35,1.72-.89Z"/>
      <path class="cls-19" d="m56.63,418.53v-4.21h-1.42v-2.3l1.6-.12.36-2.77h2.55v2.77h2.5v2.42h-2.5v4.17c0,1.18.54,1.65,1.35,1.65.34,0,.72-.1.99-.2l.49,2.24c-.55.18-1.3.38-2.31.38-2.57,0-3.6-1.63-3.6-4.04Z"/>
      <path class="cls-19" d="m63.27,417.12c0-3.38,2.41-5.46,4.91-5.46,2.97,0,4.44,2.16,4.44,5,0,.56-.07,1.11-.13,1.36h-6.23c.28,1.51,1.31,2.2,2.7,2.2.79,0,1.5-.24,2.25-.68l1.02,1.86c-1.07.74-2.46,1.17-3.7,1.17-2.97,0-5.27-2.01-5.27-5.46Zm6.71-1.14c0-1.15-.5-1.97-1.73-1.97-.98,0-1.82.65-2.03,1.97h3.76Z"/>
    </g>
    <g>
      <path class="cls-19" d="m187.17,222.54c-2.75-3.61-1.97-7.52.78-9.62,1.41-1.07,3.04-1.28,4.35-1.09l-.09,2.57c-.93-.09-1.79,0-2.58.6-1.49,1.14-1.67,3.35,0,5.53,1.71,2.24,3.74,2.74,5.33,1.53.89-.68,1.26-1.66,1.35-2.64l2.47.55c-.1,1.74-.89,3.2-2.29,4.28-2.76,2.11-6.52,1.95-9.32-1.71Z"/>
      <path class="cls-19" d="m197.66,216.49c-2.1-2.75-1.38-5.82.72-7.42,2.1-1.6,5.25-1.49,7.35,1.26,2.1,2.75,1.37,5.82-.72,7.42-2.09,1.6-5.25,1.49-7.34-1.26Zm5.55-4.24c-1.09-1.43-2.31-1.98-3.32-1.2-1.01.77-.81,2.09.29,3.52,1.09,1.43,2.3,1.97,3.32,1.2,1.02-.77.81-2.08-.28-3.52Z"/>
      <path class="cls-19" d="m204.25,204.91l2-1.53.98.91.06-.05c.19-1.2.58-2.42,1.71-3.28,1.8-1.37,3.54-.69,5.12,1.38l3.92,5.14-2.45,1.87-3.69-4.83c-.91-1.19-1.51-1.32-2.22-.78-.62.47-.77,1.04-.92,1.97l4.26,5.59-2.45,1.87-6.32-8.28Z"/>
      <path class="cls-19" d="m216.48,202.13c-2.05-2.69-1.4-5.81.59-7.32,2.36-1.8,4.84-.98,6.56,1.28.34.44.62.93.73,1.16l-4.95,3.78c1.14,1.03,2.38.96,3.49.11.63-.48,1.04-1.1,1.38-1.91l1.94.86c-.4,1.23-1.24,2.43-2.22,3.17-2.36,1.8-5.41,1.6-7.5-1.14Zm4.64-4.98c-.7-.91-1.59-1.26-2.57-.52-.77.59-1.05,1.62-.42,2.8l2.99-2.28Z"/>
      <path class="cls-19" d="m230.75,202.64l-.99-2.2c.18-.08.46-.18.64-.32.81-.62.89-1.39.62-2.19l-.21-.53-9.35-5.63,2.46-1.88,3.9,2.66c.81.57,1.61,1.2,2.45,1.85l.07-.05c-.41-.92-.83-1.85-1.22-2.79l-1.71-4.33,2.35-1.79,3.52,10.56c.8,2.67.73,4.42-1.21,5.91-.51.39-.89.58-1.31.73Z"/>
      <path class="cls-19" d="m200.78,235.15l2.46-1.88,8.3,10.88-2.46,1.88-8.3-10.88Z"/>
      <path class="cls-19" d="m212.45,241.95l-.06-2.37c1.18,0,2.11-.23,2.8-.76.73-.56.83-1.08.5-1.51-.42-.55-1.43-.17-2.53.15-1.32.38-3,.61-4.05-.76-1.18-1.54-.73-3.55,1.18-5.01,1.27-.97,2.6-1.18,3.72-1.18l.03,2.31c-.92.02-1.71.19-2.28.62-.63.48-.76.97-.44,1.38.4.53,1.33.14,2.43-.2,1.34-.41,2.98-.73,4.13.79,1.14,1.5.86,3.57-1.36,5.27-1.09.83-2.7,1.31-4.06,1.27Z"/>
      <path class="cls-19" d="m219.34,234.13l-6.96-9.12,2.45-1.87,7.04,9.22c.4.53.77.51.97.35.09-.07.16-.12.28-.26l1.67,1.59c-.18.32-.52.72-1.08,1.14-1.68,1.29-3.1.63-4.38-1.05Z"/>
      <path class="cls-19" d="m223.94,231.05c-1.33-1.74-.66-3.75,2.35-6.59-.6-.69-1.32-.88-2.22-.2-.69.53-1.17,1.35-1.62,2.42l-2.1-.95c.56-1.44,1.4-2.8,2.71-3.79,2.12-1.62,4.21-1.3,6.15,1.24l3.61,4.73-2,1.53-.83-.71-.06.05c-.23,1.14-.68,2.18-1.61,2.89-1.51,1.15-3.31.78-4.38-.61Zm4.58-3.67l-1.1-1.45c-1.56,1.57-1.75,2.5-1.27,3.13.41.53.97.51,1.56.07.56-.42.72-.98.82-1.75Z"/>
      <path class="cls-19" d="m228.55,218.06l2-1.53.98.91.06-.05c.19-1.2.58-2.42,1.71-3.28,1.8-1.37,3.54-.69,5.12,1.38l3.92,5.14-2.45,1.87-3.68-4.83c-.91-1.19-1.52-1.32-2.22-.78-.62.47-.78,1.04-.92,1.98l4.26,5.59-2.45,1.87-6.32-8.28Z"/>
      <path class="cls-19" d="m240.84,215.24c-2.07-2.71-1.62-5.63.12-6.96.91-.7,1.73-.78,2.69-.69l-1.05-1.19-2.15-2.82,2.45-1.87,8.93,11.69-2,1.53-.8-.69-.06.05c-.14,1.03-.62,2.09-1.42,2.7-2.06,1.57-4.63.95-6.7-1.75Zm6.59-2.52l-2.6-3.4c-.73-.06-1.32.18-1.77.52-.79.61-.93,1.87.27,3.45,1.24,1.63,2.36,1.93,3.31,1.2.52-.4.79-.92.78-1.77Z"/>
    </g>
    <g>
      <path class="cls-19" d="m357.36,80.32l2.52-1.92,6.97,3.24,2.9,1.57.07-.05c-1-1.06-2.36-2.44-3.33-3.72l-2.93-3.84,2.34-1.79,8.3,10.88-2.52,1.92-6.98-3.26-2.89-1.56-.07.05c1.03,1.11,2.34,2.42,3.32,3.7l2.95,3.86-2.34,1.79-8.3-10.88Z"/>
      <path class="cls-19" d="m374.42,80.88c-1.33-1.74-.66-3.75,2.35-6.59-.6-.69-1.32-.88-2.22-.2-.69.53-1.17,1.35-1.62,2.42l-2.1-.94c.56-1.44,1.4-2.8,2.7-3.79,2.12-1.62,4.21-1.3,6.15,1.24l3.61,4.73-2,1.53-.83-.71-.06.05c-.23,1.14-.68,2.18-1.61,2.89-1.51,1.15-3.31.78-4.38-.61Zm4.58-3.67l-1.1-1.45c-1.56,1.57-1.75,2.5-1.27,3.13.41.53.97.51,1.56.07.56-.42.72-.98.82-1.75Z"/>
      <path class="cls-19" d="m381.71,72.4c-2.1-2.75-1.29-5.89,1-7.64,1.02-.78,2.08-1.01,3.1-.96l.05,2.46c-.65-.03-1.1.07-1.5.37-1.18.9-1.23,2.41-.13,3.84,1.09,1.43,2.59,1.75,3.65.94.54-.42.86-1.08,1.03-1.75l2.19.87c-.26,1.33-1.08,2.38-1.98,3.07-2.31,1.76-5.31,1.54-7.41-1.21Z"/>
      <path class="cls-19" d="m384.22,58.52l2.45-1.87,2.18,2.86,1.04,1.58c.19-1.04.55-2.23,1.68-3.1,1.8-1.37,3.54-.69,5.12,1.38l3.92,5.14-2.45,1.87-3.68-4.83c-.91-1.19-1.51-1.32-2.22-.78-.62.47-.77,1.04-.92,1.97l4.27,5.59-2.45,1.87-8.93-11.69Z"/>
      <path class="cls-19" d="m399.04,59.17c-2.1-2.75-1.38-5.82.72-7.42,2.09-1.6,5.25-1.49,7.35,1.26,2.1,2.75,1.37,5.82-.72,7.42-2.09,1.6-5.25,1.49-7.34-1.26Zm5.55-4.24c-1.09-1.43-2.31-1.98-3.32-1.2-1.01.77-.81,2.09.29,3.52,1.09,1.43,2.3,1.97,3.32,1.2,1.01-.77.81-2.08-.28-3.52Z"/>
      <path class="cls-19" d="m410.4,55.53l-.06-2.37c1.18,0,2.11-.23,2.8-.76.73-.56.83-1.08.5-1.51-.42-.55-1.43-.17-2.53.15-1.31.38-3,.61-4.05-.76-1.18-1.54-.73-3.55,1.18-5.01,1.27-.97,2.61-1.18,3.72-1.18l.03,2.31c-.92.02-1.71.19-2.28.62-.63.48-.76.97-.44,1.38.4.53,1.33.14,2.43-.2,1.34-.41,2.98-.72,4.13.79,1.14,1.5.86,3.57-1.36,5.27-1.09.83-2.7,1.31-4.06,1.27Z"/>
      <path class="cls-19" d="m363.5,107.34l2.46-1.88,8.3,10.88-2.46,1.88-8.3-10.88Z"/>
      <path class="cls-19" d="m372.99,110.77c-2.1-2.75-1.29-5.89,1-7.64,1.02-.78,2.08-1.01,3.1-.96l.04,2.46c-.65-.03-1.1.07-1.5.37-1.18.9-1.23,2.41-.13,3.84,1.09,1.43,2.59,1.75,3.65.94.54-.42.86-1.08,1.03-1.75l2.19.87c-.26,1.32-1.08,2.38-1.98,3.07-2.31,1.76-5.31,1.53-7.4-1.21Z"/>
      <path class="cls-19" d="m380.32,105.17c-2.05-2.69-1.4-5.81.59-7.32,2.36-1.8,4.83-.98,6.56,1.28.34.44.62.93.73,1.16l-4.95,3.78c1.14,1.03,2.38.96,3.48.11.63-.48,1.04-1.1,1.38-1.91l1.94.86c-.4,1.23-1.24,2.43-2.23,3.17-2.36,1.8-5.41,1.6-7.5-1.14Zm4.64-4.98c-.69-.91-1.59-1.26-2.57-.52-.78.59-1.05,1.62-.42,2.8l2.99-2.28Z"/>
      <path class="cls-19" d="m391.52,94.65c-2.75-3.61-1.97-7.52.78-9.62,1.41-1.07,3.04-1.28,4.35-1.09l-.09,2.57c-.93-.09-1.79,0-2.58.6-1.49,1.14-1.67,3.35,0,5.53,1.71,2.24,3.74,2.74,5.33,1.53.89-.68,1.26-1.66,1.35-2.64l2.48.55c-.1,1.74-.89,3.2-2.29,4.28-2.76,2.11-6.52,1.95-9.32-1.71Z"/>
      <path class="cls-19" d="m399.33,84.1l2-1.53,1.28,1.31.06-.05c-.24-1.57.25-2.8,1.09-3.44.47-.36.79-.51,1.12-.59l1.21,2.43c-.35.15-.64.28-.99.55-.62.48-1.08,1.46-.66,2.92l3.66,4.8-2.45,1.87-6.32-8.28Z"/>
      <path class="cls-19" d="m408.49,83.66c-2.05-2.69-1.4-5.81.59-7.32,2.36-1.8,4.83-.98,6.56,1.28.34.44.62.93.73,1.16l-4.95,3.78c1.14,1.03,2.38.96,3.48.11.63-.48,1.04-1.1,1.38-1.91l1.94.86c-.4,1.23-1.24,2.43-2.23,3.17-2.36,1.8-5.41,1.6-7.5-1.14Zm4.64-4.98c-.7-.91-1.59-1.26-2.57-.52-.78.59-1.05,1.62-.42,2.8l2.99-2.28Z"/>
      <path class="cls-19" d="m418.46,78.96c-1.33-1.74-.66-3.75,2.35-6.59-.6-.69-1.32-.88-2.22-.2-.69.53-1.16,1.35-1.62,2.42l-2.1-.95c.56-1.44,1.4-2.8,2.71-3.79,2.12-1.62,4.21-1.3,6.15,1.24l3.61,4.73-2,1.53-.82-.71-.06.05c-.23,1.15-.68,2.18-1.61,2.89-1.51,1.15-3.31.78-4.37-.61Zm4.58-3.67l-1.11-1.45c-1.56,1.57-1.75,2.5-1.28,3.13.41.53.97.51,1.56.07.56-.42.72-.98.82-1.75Z"/>
      <path class="cls-19" d="m423.07,65.97l2-1.53.99.93.06-.05c.16-1.2.46-2.35,1.55-3.18,1.16-.89,2.25-.92,3.35-.35.15-1.32.44-2.54,1.54-3.38,1.79-1.37,3.56-.71,5.14,1.36l3.92,5.14-2.45,1.87-3.68-4.83c-.91-1.19-1.52-1.32-2.22-.78-.42.32-.69.94-.79,1.88l4.26,5.59-2.45,1.87-3.68-4.83c-.91-1.19-1.52-1.32-2.22-.78-.41.31-.69.94-.79,1.88l4.26,5.59-2.45,1.87-6.32-8.28Z"/>
    </g>
    <g>
      <path class="cls-18" d="m909,119.11l4.87,3.54c2.95,2.15,4.66,4.62,2.68,7.34-.93,1.28-2.63,2.12-4.11,1.71l-.06.09c1.18,1.44,1.52,3.32.14,5.22-2.1,2.9-5.49,2.41-8.59.17l-5.28-3.83,10.34-14.23Zm-3.52,15.39c1.75,1.27,3.11,1.31,4.05.01.91-1.25.38-2.4-1.38-3.69l-1.8-1.31-2.67,3.67,1.8,1.31Zm4.1-6.26c1.56,1.13,2.73.98,3.48-.06.8-1.1.38-2.05-1.12-3.14l-1.53-1.11-2.34,3.22,1.51,1.09Z"/>
      <path class="cls-18" d="m914.91,136.88c2.55-3.51,6.64-3.86,9.24-1.97,3.09,2.24,2.98,5.6.84,8.55-.42.58-.91,1.1-1.16,1.32l-6.48-4.71c-.86,1.78-.3,3.28,1.14,4.33.82.6,1.74.88,2.86.99l-.35,2.71c-1.67-.04-3.45-.64-4.73-1.57-3.09-2.24-3.96-6.07-1.36-9.66Zm7.84,3.88c.87-1.19.97-2.43-.31-3.36-1.01-.74-2.38-.69-3.6.52l3.91,2.84Z"/>
      <path class="cls-18" d="m930.79,140.13l2.62,1.9-1.14,2.06.08.06c1.84-.87,3.54-.72,4.64.08.62.45.92.79,1.13,1.16l-2.55,2.38c-.32-.38-.58-.69-1.04-1.02-.82-.59-2.19-.79-3.84.27l-4.56,6.28-3.21-2.33,7.87-10.83Z"/>
      <path class="cls-18" d="m939.49,146.45l2.62,1.9-.78,1.56.08.06c1.54-.25,3.06-.3,4.48.73,1.52,1.11,1.97,2.43,1.67,4,1.68-.3,3.3-.39,4.73.65,2.34,1.7,2.18,4.12.21,6.83l-4.89,6.73-3.21-2.33,4.59-6.32c1.13-1.56,1.06-2.36.15-3.02-.54-.4-1.41-.51-2.61-.29l-5.31,7.31-3.21-2.33,4.59-6.32c1.13-1.56,1.06-2.36.15-3.02-.54-.39-1.41-.5-2.61-.29l-5.31,7.31-3.21-2.33,7.87-10.84Z"/>
    </g>
    <polygon id="Arrow" class="cls-7" points="20.26 813.94 31.54 825.22 54.63 802.13 63.5 811 63.3 781.5 33.45 781.65 42.99 791.2 20.26 813.94"/>
    <g>
      <path class="cls-7" d="m42.81,828.53c0-4.33,2.87-6.83,6.35-6.83,1.89,0,3.24.81,4.11,1.69l-1.55,1.89c-.65-.6-1.34-1.04-2.46-1.04-2.01,0-3.43,1.58-3.43,4.19s1.21,4.24,3.67,4.24c.52,0,1.06-.14,1.38-.39v-2.25h-2.16v-2.41h4.78v6.01c-.9.88-2.48,1.58-4.3,1.58-3.59,0-6.39-2.29-6.39-6.68Z"/>
      <path class="cls-7" d="m55.48,832.22c0-2.09,1.66-3.22,5.59-3.64-.06-.87-.49-1.43-1.57-1.43-.83,0-1.66.35-2.63.9l-1.04-1.93c1.26-.77,2.68-1.31,4.24-1.31,2.54,0,3.94,1.45,3.94,4.49v5.67h-2.4l-.21-1.02h-.07c-.84.73-1.77,1.26-2.89,1.26-1.81,0-2.96-1.32-2.96-2.99Zm5.59-.13v-1.73c-2.09.28-2.77.88-2.77,1.63,0,.64.44.95,1.14.95s1.11-.33,1.63-.85Z"/>
      <path class="cls-7" d="m66.52,831.37v-4.01h-1.36v-2.19l1.52-.11.34-2.64h2.43v2.64h2.38v2.31h-2.38v3.97c0,1.12.51,1.58,1.29,1.58.33,0,.68-.09.94-.19l.46,2.14c-.53.17-1.24.36-2.21.36-2.45,0-3.43-1.55-3.43-3.85Z"/>
      <path class="cls-7" d="m72.84,830.02c0-3.22,2.3-5.21,4.68-5.21,2.83,0,4.23,2.05,4.23,4.76,0,.53-.07,1.06-.12,1.3h-5.94c.26,1.44,1.25,2.1,2.57,2.1.75,0,1.43-.23,2.15-.65l.97,1.77c-1.02.7-2.34,1.12-3.52,1.12-2.83,0-5.02-1.91-5.02-5.2Zm6.4-1.09c0-1.09-.48-1.88-1.65-1.88-.93,0-1.73.62-1.93,1.88h3.58Z"/>
      <path class="cls-7" d="m88.02,821.94h3.69c3.98,0,6.55,1.98,6.55,6.46s-2.57,6.58-6.38,6.58h-3.85v-13.04Zm3.51,10.67c2.21,0,3.71-1.08,3.71-4.2s-1.49-4.09-3.71-4.09h-.56v8.29h.56Z"/>
    </g>
    <polygon id="Arrow-2" data-name="Arrow" class="cls-7" points="321.26 908.94 332.54 920.22 355.63 897.13 364.5 906 364.3 876.5 334.45 876.65 343.99 886.2 321.26 908.94"/>
    <g>
      <path class="cls-7" d="m343.05,930.31c0-4.33,2.87-6.83,6.35-6.83,1.89,0,3.24.81,4.11,1.69l-1.55,1.89c-.65-.6-1.34-1.04-2.46-1.04-2.01,0-3.43,1.58-3.43,4.19s1.21,4.24,3.67,4.24c.52,0,1.06-.14,1.38-.39v-2.25h-2.16v-2.41h4.78v6.01c-.9.88-2.48,1.58-4.3,1.58-3.59,0-6.39-2.29-6.39-6.68Z"/>
      <path class="cls-7" d="m355.72,934c0-2.09,1.66-3.22,5.59-3.64-.06-.87-.49-1.43-1.57-1.43-.83,0-1.66.35-2.63.9l-1.04-1.93c1.26-.77,2.68-1.31,4.24-1.31,2.54,0,3.94,1.45,3.94,4.49v5.67h-2.4l-.21-1.02h-.07c-.84.73-1.77,1.26-2.89,1.26-1.81,0-2.96-1.32-2.96-2.99Zm5.59-.13v-1.73c-2.09.28-2.77.88-2.77,1.63,0,.64.44.95,1.14.95s1.11-.33,1.63-.85Z"/>
      <path class="cls-7" d="m366.75,933.14v-4.01h-1.36v-2.19l1.52-.11.34-2.64h2.43v2.64h2.38v2.31h-2.38v3.97c0,1.12.51,1.58,1.29,1.58.33,0,.68-.09.94-.19l.46,2.14c-.53.17-1.24.36-2.21.36-2.45,0-3.43-1.55-3.43-3.85Z"/>
      <path class="cls-7" d="m373.08,931.79c0-3.22,2.3-5.21,4.68-5.21,2.83,0,4.23,2.05,4.23,4.76,0,.53-.07,1.06-.12,1.3h-5.94c.26,1.44,1.25,2.1,2.57,2.1.75,0,1.43-.23,2.15-.65l.97,1.77c-1.02.7-2.34,1.12-3.52,1.12-2.83,0-5.02-1.91-5.02-5.2Zm6.4-1.09c0-1.09-.48-1.88-1.65-1.88-.93,0-1.73.62-1.93,1.88h3.58Z"/>
      <path class="cls-7" d="m387.65,930.31c0-4.33,2.86-6.83,6.15-6.83,1.69,0,3.04.79,3.92,1.69l-1.55,1.89c-.65-.61-1.36-1.04-2.3-1.04-1.79,0-3.2,1.58-3.2,4.19s1.25,4.24,3.15,4.24c1.07,0,1.91-.53,2.55-1.22l1.55,1.85c-1.08,1.26-2.52,1.91-4.21,1.91-3.31,0-6.07-2.29-6.07-6.68Z"/>
    </g>
    <polygon id="Arrow-3" data-name="Arrow" class="cls-7" points="972.26 867.94 983.54 879.22 1006.63 856.13 1015.5 865 1015.3 835.5 985.45 835.65 994.99 845.2 972.26 867.94"/>
    <g>
      <path class="cls-7" d="m993.82,889.31c0-4.33,2.87-6.83,6.35-6.83,1.89,0,3.24.81,4.11,1.69l-1.55,1.89c-.65-.6-1.34-1.04-2.46-1.04-2.01,0-3.43,1.58-3.43,4.19s1.21,4.24,3.67,4.24c.52,0,1.06-.14,1.38-.39v-2.25h-2.16v-2.41h4.78v6.01c-.9.88-2.48,1.58-4.3,1.58-3.59,0-6.38-2.29-6.38-6.68Z"/>
      <path class="cls-7" d="m1006.49,893c0-2.09,1.66-3.22,5.59-3.64-.06-.87-.49-1.43-1.57-1.43-.83,0-1.66.35-2.63.9l-1.04-1.93c1.26-.77,2.68-1.31,4.24-1.31,2.54,0,3.94,1.45,3.94,4.49v5.67h-2.4l-.21-1.02h-.07c-.83.73-1.77,1.26-2.89,1.26-1.81,0-2.96-1.32-2.96-2.99Zm5.59-.13v-1.73c-2.09.28-2.77.88-2.77,1.63,0,.64.44.95,1.14.95s1.11-.33,1.63-.85Z"/>
      <path class="cls-7" d="m1017.52,892.14v-4.01h-1.36v-2.19l1.52-.11.34-2.64h2.43v2.64h2.38v2.31h-2.38v3.97c0,1.12.51,1.58,1.29,1.58.33,0,.68-.09.94-.19l.46,2.14c-.53.17-1.24.36-2.21.36-2.45,0-3.43-1.55-3.43-3.85Z"/>
      <path class="cls-7" d="m1023.85,890.79c0-3.22,2.3-5.21,4.68-5.21,2.83,0,4.23,2.05,4.23,4.76,0,.53-.07,1.06-.12,1.3h-5.94c.26,1.44,1.25,2.1,2.57,2.1.75,0,1.43-.23,2.15-.65l.97,1.77c-1.02.7-2.34,1.12-3.52,1.12-2.83,0-5.02-1.91-5.02-5.2Zm6.4-1.09c0-1.09-.47-1.88-1.65-1.88-.93,0-1.73.62-1.93,1.88h3.58Z"/>
      <path class="cls-7" d="m1039.03,882.71h4.46c2.71,0,4.81.74,4.81,3.23,0,1.17-.65,2.42-1.72,2.82v.08c1.33.35,2.36,1.33,2.36,3.07,0,2.65-2.24,3.84-5.08,3.84h-4.83v-13.04Zm4.33,5.22c1.43,0,2.06-.6,2.06-1.55,0-1-.67-1.39-2.04-1.39h-1.4v2.95h1.38Zm.27,5.54c1.61,0,2.44-.57,2.44-1.76s-.82-1.61-2.44-1.61h-1.65v3.37h1.65Z"/>
    </g>
    <polygon id="Arrow-4" data-name="Arrow" class="cls-7" points="1341.93 316.68 1325.97 316.68 1325.97 349.34 1313.43 349.34 1334.43 370.06 1355.43 348.84 1341.93 348.84 1341.93 316.68"/>
    <g>
      <path class="cls-7" d="m1299.99,302.31c0-4.33,2.87-6.83,6.35-6.83,1.89,0,3.24.81,4.11,1.69l-1.55,1.89c-.65-.6-1.34-1.04-2.46-1.04-2.01,0-3.43,1.58-3.43,4.19s1.21,4.24,3.67,4.24c.52,0,1.06-.14,1.38-.39v-2.25h-2.16v-2.41h4.78v6.01c-.9.88-2.48,1.58-4.3,1.58-3.59,0-6.38-2.29-6.38-6.68Z"/>
      <path class="cls-7" d="m1312.66,306c0-2.09,1.66-3.22,5.59-3.64-.06-.87-.49-1.43-1.57-1.43-.83,0-1.66.35-2.63.9l-1.04-1.93c1.26-.77,2.68-1.31,4.24-1.31,2.54,0,3.94,1.45,3.94,4.49v5.67h-2.4l-.21-1.02h-.07c-.83.73-1.77,1.26-2.89,1.26-1.81,0-2.96-1.32-2.96-2.99Zm5.59-.13v-1.73c-2.09.28-2.77.88-2.77,1.63,0,.64.44.95,1.14.95s1.11-.33,1.63-.85Z"/>
      <path class="cls-7" d="m1323.69,305.14v-4.01h-1.36v-2.19l1.52-.11.34-2.64h2.43v2.64h2.38v2.31h-2.38v3.97c0,1.12.51,1.58,1.29,1.58.33,0,.68-.09.94-.19l.46,2.14c-.53.17-1.24.36-2.21.36-2.45,0-3.43-1.55-3.43-3.85Z"/>
      <path class="cls-7" d="m1330.02,303.79c0-3.22,2.3-5.21,4.68-5.21,2.83,0,4.23,2.05,4.23,4.76,0,.53-.07,1.06-.12,1.3h-5.94c.26,1.44,1.25,2.1,2.57,2.1.75,0,1.43-.23,2.15-.65l.97,1.77c-1.02.7-2.34,1.12-3.52,1.12-2.83,0-5.02-1.91-5.02-5.2Zm6.4-1.09c0-1.09-.47-1.88-1.65-1.88-.93,0-1.73.62-1.93,1.88h3.58Z"/>
      <path class="cls-7" d="m1347.89,305.56l-1.08,3.19h-2.93l4.68-13.79h3.75l4.88,13.79h-3.13l-1.13-3.19h-5.04Zm4.4-2.44c-.98-2.91-1.6-4.77-1.94-6.01h-.02c-.34,1.36-1.03,3.52-1.81,6.01h3.77Z"/>
    </g>
    <g>
      <path class="cls-19" d="m573.22,872.42c0-4.33,2.86-6.83,6.15-6.83,1.69,0,3.04.79,3.92,1.69l-1.55,1.89c-.65-.61-1.36-1.04-2.3-1.04-1.79,0-3.2,1.58-3.2,4.19s1.25,4.24,3.15,4.24c1.07,0,1.91-.53,2.55-1.22l1.55,1.85c-1.08,1.26-2.52,1.91-4.21,1.91-3.31,0-6.07-2.29-6.07-6.68Z"/>
      <path class="cls-19" d="m585.23,868.94h2.4l.21,1.73h.07c.72-1.33,1.81-1.97,2.82-1.97.57,0,.9.07,1.18.2l-.49,2.54c-.35-.09-.65-.16-1.07-.16-.75,0-1.66.48-2.19,1.84v5.75h-2.94v-9.92Z"/>
      <path class="cls-19" d="m592.17,876.11c0-2.09,1.66-3.22,5.59-3.64-.06-.87-.49-1.43-1.57-1.43-.83,0-1.66.35-2.63.9l-1.04-1.93c1.26-.77,2.68-1.31,4.24-1.31,2.54,0,3.94,1.45,3.94,4.49v5.67h-2.4l-.21-1.02h-.07c-.84.73-1.77,1.26-2.89,1.26-1.81,0-2.96-1.32-2.96-2.99Zm5.59-.13v-1.73c-2.09.28-2.77.88-2.77,1.63,0,.64.44.95,1.14.95s1.11-.33,1.63-.85Z"/>
      <path class="cls-19" d="m609.67,875.25v-4.01h-7.31v-2.19l1.48-.11h5.99l.34-2.64h2.43v2.64h2.38v2.31h-2.38v3.97c0,1.12.51,1.58,1.29,1.58.33,0,.68-.09.94-.19l.46,2.14c-.53.17-1.24.36-2.21.36-2.45,0-3.43-1.55-3.43-3.85Zm-5.99-6.83c0-2.09.97-3.82,3.65-3.82.83,0,1.54.19,1.98.35l-.53,2.17c-.33-.13-.7-.21-1.03-.21-.72,0-1.13.4-1.13,1.42v10.52h-2.94v-10.44Z"/>
      <path class="cls-19" d="m564.66,896.42c0-4.33,2.86-6.83,6.15-6.83,1.69,0,3.04.79,3.92,1.69l-1.55,1.89c-.65-.61-1.36-1.04-2.3-1.04-1.79,0-3.2,1.58-3.2,4.19s1.25,4.24,3.15,4.24c1.07,0,1.91-.53,2.55-1.22l1.55,1.85c-1.08,1.26-2.52,1.91-4.21,1.91-3.31,0-6.07-2.29-6.07-6.68Z"/>
      <path class="cls-19" d="m576.09,897.9c0-3.3,2.32-5.21,4.83-5.21s4.83,1.91,4.83,5.21-2.32,5.2-4.83,5.2-4.83-1.91-4.83-5.2Zm6.65,0c0-1.72-.6-2.83-1.82-2.83s-1.82,1.12-1.82,2.83.6,2.83,1.82,2.83,1.82-1.11,1.82-2.83Z"/>
      <path class="cls-19" d="m587.77,892.94h2.4l.21,1.73h.07c.72-1.33,1.81-1.97,2.82-1.97.57,0,.9.07,1.18.2l-.49,2.54c-.35-.09-.65-.16-1.07-.16-.75,0-1.66.48-2.19,1.84v5.75h-2.94v-9.92Z"/>
      <path class="cls-19" d="m595.73,892.94h2.4l.21,1.26h.07c.84-.8,1.84-1.5,3.19-1.5,2.16,0,3.08,1.52,3.08,4v6.16h-2.94v-5.78c0-1.43-.38-1.88-1.23-1.88-.74,0-1.19.34-1.84.96v6.7h-2.94v-9.92Z"/>
      <path class="cls-19" d="m606.59,897.9c0-3.22,2.3-5.21,4.68-5.21,2.83,0,4.23,2.05,4.23,4.76,0,.53-.07,1.06-.12,1.3h-5.94c.26,1.44,1.25,2.1,2.57,2.1.75,0,1.43-.23,2.15-.65l.97,1.77c-1.02.7-2.34,1.12-3.52,1.12-2.83,0-5.02-1.91-5.02-5.2Zm6.4-1.09c0-1.09-.48-1.88-1.65-1.88-.93,0-1.73.62-1.93,1.88h3.58Z"/>
      <path class="cls-19" d="m617.53,892.94h2.4l.21,1.73h.07c.72-1.33,1.81-1.97,2.82-1.97.57,0,.9.07,1.18.2l-.49,2.54c-.35-.09-.65-.16-1.07-.16-.75,0-1.66.48-2.19,1.84v5.75h-2.94v-9.92Z"/>
    </g>
    <g>
      <path class="cls-16" d="m1149.8,419.23h5.71c2.93,0,4.92,1.65,4.92,4.27,0,3-2.27,4.37-4.99,4.37h-2.65v5.15h-2.98v-13.79Zm2.98,6.27h2.28c1.38,0,2.35-.53,2.35-1.94s-1.03-1.96-2.29-1.96h-2.34v3.89Z"/>
      <path class="cls-16" d="m1162.22,433.02v-14.6h2.87v14.6h-2.87Z"/>
      <path class="cls-16" d="m1176.17,430.35c0,.99.08,2.43.14,2.68h-2.74c-.08-.21-.14-.75-.14-1.01-.38.58-1.08,1.25-2.91,1.25-2.5,0-3.55-1.64-3.55-3.25,0-2.36,1.89-3.45,4.93-3.45h1.48v-.63c0-.74-.26-1.46-1.59-1.46-1.21,0-1.47.51-1.61,1.26h-2.73c.16-1.84,1.29-3.33,4.44-3.31,2.77.02,4.28,1.1,4.28,3.56v4.35Zm-2.79-2.04h-1.17c-1.73,0-2.37.53-2.37,1.53,0,.75.46,1.38,1.49,1.38,1.82,0,2.04-1.27,2.04-2.63v-.27Z"/>
      <path class="cls-16" d="m1180.49,422.67c1.07,3.57,2,6.76,2.17,7.72h.02c.22-1.04.83-3.36,2.07-7.72h2.85l-3.48,10.65c-.99,2.98-1.82,3.87-4.3,3.87-.25,0-.85-.02-1.34-.08v-2.3c.19.02.51.04.74.04,1.05,0,1.58-.37,1.97-1.51l-3.77-10.67h3.07Z"/>
      <path class="cls-16" d="m1198.26,431.76c0,3.32-1.23,5.43-5.15,5.43s-4.53-2.11-4.62-3.28h2.92c.2.71.73,1.2,1.83,1.2,1.86,0,2.21-1.13,2.21-3.17v-.49c-.54.9-1.4,1.46-2.92,1.46-2.73,0-4.28-2.24-4.28-5.02,0-3.24,1.94-5.45,4.53-5.45,1.78,0,2.52.84,2.67,1.32.02-.28.09-.91.11-1.08h2.72c-.02.92-.02,1.98-.02,2.97v6.12Zm-7.06-4.01c0,1.78.89,2.83,2.16,2.83,1.73,0,2.19-1.18,2.19-2.92s-.31-2.94-2.13-2.94c-1.24,0-2.22.96-2.22,3.03Z"/>
      <path class="cls-16" d="m1200.8,425.48c0-1.03,0-1.94-.02-2.81h2.81c.04.23.08,1.26.08,1.82.46-1.18,1.56-2.05,3.32-2.06v2.73c-2.08-.05-3.32.51-3.32,3.35v4.51h-2.87v-7.55Z"/>
      <path class="cls-16" d="m1218.13,427.83c0,3.13-1.88,5.44-5.16,5.44s-5.08-2.29-5.08-5.38,1.93-5.45,5.22-5.45c3.05,0,5.02,2.15,5.02,5.4Zm-7.33.02c0,1.99.86,3.17,2.24,3.17s2.18-1.18,2.18-3.16c0-2.17-.79-3.19-2.22-3.19-1.33,0-2.2.99-2.2,3.17Z"/>
      <path class="cls-16" d="m1229.22,430.01c0,1,0,2.08.02,3.01h-2.81c-.04-.28-.06-.83-.08-1.19-.61,1.04-1.53,1.43-2.85,1.43-2.11,0-3.46-1.28-3.46-3.85v-6.75h2.86v6.17c0,1.14.35,2.09,1.59,2.09,1.31,0,1.85-.7,1.85-2.75v-5.51h2.87v7.35Z"/>
      <path class="cls-16" d="m1231.82,425.28c0-.88,0-1.84-.02-2.61h2.78c.06.27.09.99.11,1.32.35-.65,1.19-1.56,3-1.56,2.08,0,3.43,1.4,3.43,4.01v6.59h-2.87v-6.27c0-1.16-.39-2.01-1.65-2.01s-1.92.68-1.92,2.5v5.77h-2.87v-7.75Z"/>
      <path class="cls-16" d="m1253.16,418.42v11.76c0,.94,0,1.9.02,2.85h-2.76c-.06-.31-.11-.85-.13-1.08-.5.82-1.39,1.32-2.94,1.32-2.62,0-4.28-2.1-4.28-5.33s1.77-5.5,4.7-5.5c1.49,0,2.29.53,2.52.99v-5h2.87Zm-7.14,9.43c0,2.02.79,3.11,2.19,3.11,1.97,0,2.2-1.64,2.2-3.13,0-1.77-.25-3.11-2.12-3.11-1.5,0-2.26,1.18-2.26,3.13Z"/>
    </g>
    <g id="Family">
      <g id="Man">
        <rect class="cls-18" x="46.83" y="618.51" width="5.66" height="5.66" rx="2.83" ry="2.83" transform="translate(-424.81 217.09) rotate(-45)"/>
        <polygon class="cls-18" points="49.65 625.46 45.65 625.46 45.65 635.33 53.65 635.33 53.65 625.46 49.65 625.46"/>
        <rect class="cls-18" x="47.13" y="637.01" width="1.05" height="6.32"/>
        <rect class="cls-18" x="51.13" y="637.01" width="1.05" height="6.32"/>
      </g>
      <g id="Woman">
        <rect class="cls-18" x="74.83" y="618.51" width="5.66" height="5.66" rx="2.83" ry="2.83" transform="translate(-416.61 236.89) rotate(-45)"/>
        <polygon class="cls-18" points="75.65 625.46 73.65 635.33 81.65 635.33 79.65 625.46 75.65 625.46"/>
        <rect class="cls-18" x="75.13" y="637.01" width="1.05" height="6.32"/>
        <rect class="cls-18" x="79.13" y="637.01" width="1.05" height="6.32"/>
      </g>
      <g id="Boy">
        <path class="cls-18" d="m67.15,625.93h0c-.83.8-.83,2.1,0,2.9h0c.83.8,2.17.8,3,0h0c.83-.8.83-2.1,0-2.9h0c-.83-.8-2.17-.8-3,0Z"/>
        <polygon class="cls-18" points="68.65 630.38 65.65 630.38 65.65 637.53 71.65 637.53 71.65 630.38 68.65 630.38"/>
        <rect class="cls-18" x="66.76" y="638.75" width=".79" height="4.58"/>
        <rect class="cls-18" x="69.76" y="638.75" width=".79" height="4.58"/>
      </g>
      <g id="Girl">
        <path class="cls-18" d="m57.15,625.93h0c-.83.8-.83,2.1,0,2.9h0c.83.8,2.17.8,3,0h0c.83-.8.83-2.1,0-2.9h0c-.83-.8-2.17-.8-3,0Z"/>
        <polygon class="cls-18" points="57.15 630.38 55.65 637.53 61.65 637.53 60.15 630.38 57.15 630.38"/>
        <rect class="cls-18" x="56.76" y="638.75" width=".79" height="4.58"/>
        <rect class="cls-18" x="59.76" y="638.75" width=".79" height="4.58"/>
      </g>
    </g>
    <g id="Woman-2" data-name="Woman">
      <rect class="cls-18" x="77.94" y="657.23" width="5.66" height="5.66" rx="2.83" ry="2.83" transform="translate(-443.08 250.44) rotate(-45)"/>
      <polygon class="cls-18" points="78.77 664.19 76.77 674.06 84.77 674.06 82.77 664.19 78.77 664.19"/>
      <rect class="cls-18" x="78.25" y="675.74" width="1.05" height="6.32"/>
      <rect class="cls-18" x="82.25" y="675.74" width="1.05" height="6.32"/>
    </g>
    <g id="Woman-3" data-name="Woman">
      <rect class="cls-18" x="1131.17" y="410.65" width="5.66" height="5.66" rx="2.83" ry="2.83" transform="translate(39.77 922.96) rotate(-45)"/>
      <polygon class="cls-18" points="1132 417.61 1130 427.48 1138 427.48 1136 417.61 1132 417.61"/>
      <rect class="cls-18" x="1131.47" y="429.16" width="1.05" height="6.32"/>
      <rect class="cls-18" x="1135.47" y="429.16" width="1.05" height="6.32"/>
    </g>
    <g id="Man-2" data-name="Man">
      <rect class="cls-18" x="79.2" y="307.18" width="5.66" height="5.66" rx="2.83" ry="2.83" transform="translate(-195.18 148.8) rotate(-45)"/>
      <polygon class="cls-18" points="82.02 314.14 78.02 314.14 78.02 324.01 86.02 324.01 86.02 314.14 82.02 314.14"/>
      <rect class="cls-18" x="79.5" y="325.69" width="1.05" height="6.32"/>
      <rect class="cls-18" x="83.5" y="325.69" width="1.05" height="6.32"/>
    </g>
    <g id="Man-3" data-name="Man">
      <rect class="cls-18" x="1132.17" y="529.65" width="5.66" height="5.66" rx="2.83" ry="2.83" transform="translate(-44.08 958.52) rotate(-45)"/>
      <polygon class="cls-18" points="1135 536.61 1131 536.61 1131 546.48 1139 546.48 1139 536.61 1135 536.61"/>
      <rect class="cls-18" x="1132.47" y="548.16" width="1.05" height="6.32"/>
      <rect class="cls-18" x="1136.47" y="548.16" width="1.05" height="6.32"/>
    </g>
    <g id="Woman-4" data-name="Woman">
      <rect class="cls-18" x="279.38" y="164.32" width="5.66" height="5.66" rx="2.83" ry="2.83" transform="translate(-35.54 248.51) rotate(-45)"/>
      <polygon class="cls-18" points="280.21 171.28 278.21 181.15 286.21 181.15 284.21 171.28 280.21 171.28"/>
      <rect class="cls-18" x="279.69" y="182.83" width="1.05" height="6.32"/>
      <rect class="cls-18" x="283.69" y="182.83" width="1.05" height="6.32"/>
    </g>
    <g id="Man-4" data-name="Man">
      <rect class="cls-18" x="338.38" y="119.32" width="5.66" height="5.66" rx="2.83" ry="2.83" transform="translate(13.56 277.05) rotate(-45)"/>
      <polygon class="cls-18" points="341.21 126.28 337.21 126.28 337.21 136.15 345.21 136.15 345.21 126.28 341.21 126.28"/>
      <rect class="cls-18" x="338.69" y="137.83" width="1.05" height="6.32"/>
      <rect class="cls-18" x="342.69" y="137.83" width="1.05" height="6.32"/>
    </g>
  </g>
</svg>