<?xml version="1.0" encoding="UTF-8"?>
<svg xmlns="http://www.w3.org/2000/svg" viewBox="0 0 1382.4 1064.13">
  <defs>
    <style>
      .cls-1, .cls-2, .cls-3 {
        stroke-width: 0px;
      }

      .cls-4 {
        fill: #4d4d4d;
      }

      .cls-4, .cls-5, .cls-6, .cls-7, .cls-8, .cls-9, .cls-10 {
        stroke-miterlimit: 10;
      }

      .cls-4, .cls-5, .cls-6, .cls-8, .cls-9 {
        stroke: #fff;
        stroke-width: 3px;
      }

      .cls-5 {
        fill: none;
      }

      .cls-6 {
        fill: #ed1c24;
      }

      .cls-7 {
        fill: #9e005d;
      }

      .cls-7, .cls-10 {
        stroke: #000;
      }

      .cls-8 {
        fill: #f7931e;
      }

      .cls-2 {
        fill: #fff;
      }

      .cls-3 {
        fill: #092440;
      }

      .cls-9 {
        fill: #5080c9;
      }

      .cls-10 {
        fill: gray;
        opacity: .5;
        stroke-width: 2px;
      }
    </style>
  </defs>
  <g id="Ballpark_Outline" data-name="Ballpark Outline">
    <polygon id="Building" class="cls-10" points="1.5 246 1.5 716 261.5 921 302.5 868 323.5 883 350.5 848 387.5 877 438.5 815 608.5 947 602.5 955 739.5 1062 764.5 1028 775.5 1029 795.5 1046 978.5 803 1092.5 803 1111.5 820 1378.5 475 1328.5 436 1272.5 417 1145.5 585 1134.5 576 1114.5 601 1092.5 585 977.5 730 968.5 718 752.5 903 678.5 851 623.5 928 434.5 784 199.5 610 199.5 343 546.5 80 832.5 80 831.5 1 475.54 1 464.5 1 141.5 247 1.5 246"/>
    <polyline class="cls-5" points="1003 748.5 977 729.5 968.5 718"/>
  </g>
  <g id="Sections">
    <polygon class="cls-3" points="754 906.5 774 930.5 812.5 897.3 793.31 876 754 906.5"/>
    <polygon class="cls-3" points="796.27 872.76 816 894.5 860.36 857.76 840.36 834.76 796.27 872.76"/>
    <polygon class="cls-3" points="843.18 832.36 863 855.5 905 819.5 886 795.5 843.18 832.36"/>
    <polygon class="cls-3" points="889 794.5 930 760.5 949 781.5 907 817.5 889 794.5"/>
    <polygon class="cls-3" points="952 779.5 987 748.5 967 726.5 932 757.5 952 779.5"/>
    <polygon class="cls-3" points="609 953.5 662 995.5 728 909.5 674 867.5 609 953.5"/>
    <polygon class="cls-3" points="977 729.5 1003 748.5 1114.65 600.98 1092.5 584.11 977 729.5"/>
    <polygon class="cls-3" points="381.5 848 363 834.5 415 769.5 433.91 783.85 381.5 848"/>
    <polygon class="cls-3" points="358.5 831 340 817.5 392 752.5 410.91 766.85 358.5 831"/>
    <polygon class="cls-3" points="332.5 812 314 798.5 366 733.5 384.91 747.85 332.5 812"/>
    <polygon class="cls-3" points="308.5 794 290 780.5 342 715.5 360.91 729.85 308.5 794"/>
    <polygon class="cls-3" points="284.5 777 266 763.5 318 698.5 337 712.5 284.5 777"/>
    <polygon class="cls-3" points="260.5 759 242 745.5 294 680.5 312.91 694.85 260.5 759"/>
    <polygon class="cls-3" points="237 742.5 218 728.5 271 662.5 289.91 676.85 237 742.5"/>
    <polygon class="cls-3" points="214 725.5 195 711.5 248 645.5 266.91 659.85 214 725.5"/>
    <polygon class="cls-3" points="191 708.5 173 695.5 226 629.5 244.91 643.85 191 708.5"/>
    <polygon class="cls-3" points="223.63 630 199 659.5 176 641.5 201 613.5 223.63 630"/>
    <polygon class="cls-3" points="197 570.5 197 611.05 199.5 613.5 175 640.5 164 626.5 164 570.5 197 570.5"/>
    <rect class="cls-3" x="164" y="525.33" width="33" height="43.09"/>
    <rect class="cls-3" x="180.5" y="430.5" width="16.5" height="90.53"/>
    <rect class="cls-3" x="164" y="384.59" width="33" height="43.09"/>
    <polygon class="cls-3" points="197 382.5 197 341.95 199.5 339.5 175 312.5 164 326.5 164 382.5 197 382.5"/>
    <polygon class="cls-3" points="223.63 322 199 292.5 176 310.5 201 338.5 223.63 322"/>
    <polygon class="cls-3" points="191.28 240.24 173.28 253.24 226.28 319.24 245.18 304.9 191.28 240.24"/>
    <polygon class="cls-3" points="213.28 223.24 195.28 236.24 248.28 302.24 267.18 287.9 213.28 223.24"/>
    <polygon class="cls-3" points="235.28 207.24 217.28 220.24 270.28 286.24 289.18 271.9 235.28 207.24"/>
    <polygon class="cls-3" points="257.28 190.24 239.28 203.24 292.28 269.24 311.18 254.9 257.28 190.24"/>
    <polygon class="cls-3" points="279.28 173.24 261.28 186.24 314.28 252.24 333.18 237.9 279.28 173.24"/>
    <polygon class="cls-3" points="301.28 157.24 283.28 170.24 336.28 236.24 355.18 221.9 301.28 157.24"/>
    <polygon class="cls-3" points="323.28 140.24 305.28 153.24 358.28 219.24 377.18 204.9 323.28 140.24"/>
    <polygon class="cls-3" points="345.28 123.24 327.28 136.24 380.28 202.24 399.18 187.9 345.28 123.24"/>
    <polygon class="cls-3" points="367.28 107.24 349.28 120.24 402.28 186.24 421.18 171.9 367.28 107.24"/>
    <polygon class="cls-3" points="390.28 90.24 372.28 103.24 425.28 169.24 444.18 154.9 390.28 90.24"/>
    <polygon class="cls-3" points="412.28 73.24 394.28 86.24 447.28 152.24 466.18 137.9 412.28 73.24"/>
    <polygon class="cls-3" points="434.28 57.24 416.28 70.24 469.28 136.24 488.18 121.9 434.28 57.24"/>
    <polygon class="cls-3" points="456.28 40.24 438.28 53.24 491.28 119.24 510.18 104.9 456.28 40.24"/>
  </g>
  <g id="Restrooms">
    <polygon class="cls-9" points="815.45 1019.5 794.5 1003 875.5 897 895.37 913.38 815.45 1019.5"/>
    <polygon class="cls-9" points="302.5 820 314.5 828 291.5 859 280.5 850 302.5 820"/>
    <polygon class="cls-9" points="323.5 836 335.5 844 312.5 875 301.5 866 323.5 836"/>
    <polygon class="cls-9" points="72.98 704.19 72.98 629.5 1.5 629.5 1.5 716 37.65 744.5 72.98 704.19"/>
  </g>
  <g id="Concessions">
    <polygon class="cls-6" points="704.66 1034.79 730.5 1001 764.5 1028 739.5 1062 704.66 1034.79"/>
    <polygon class="cls-6" points="875.5 897 927.5 828 947.56 844.09 895.37 913.38 875.5 897"/>
    <polygon class="cls-6" points="1117.01 812.88 1102.5 800 1136.5 757 1151.01 768.95 1117.01 812.88"/>
    <polygon class="cls-6" points="1301.75 574.17 1274.5 554 1263.5 567 1275.85 577 1253.55 605.5 1268.43 617.22 1301.75 574.17"/>
  </g>
  <g id="Inaccessible_Areas" data-name="Inaccessible Areas">
    <polyline class="cls-4" points="147.5 767 179.79 729.63 302.5 820 280.5 850 302.5 868 261.5 921 37.65 744.5 52.5 729 128.5 789 147.5 767"/>
    <polygon class="cls-4" points="335.5 844 347.5 852 323.5 883 312.5 875 335.5 844"/>
    <polygon class="cls-4" points="158.88 627.55 158.88 521.03 177.8 521.03 177.8 430.5 158.88 430.5 158.88 326.52 136.13 326.52 136.13 627.55 158.88 627.55"/>
    <polygon class="cls-4" points="1.5 246 141.5 247 100.99 276.34 100.99 343 1.5 343 1.5 246"/>
    <polygon class="cls-4" points="546.5 80 546.5 33.7 460.98 33.7 517.11 102.27 546.5 80"/>
  </g>
  <g id="Elevators_and_Stairs" data-name="Elevators and Stairs">
    <polygon class="cls-8" points="547.5 870 534.5 860 542.5 849 555.5 859 547.5 870"/>
    <polygon class="cls-8" points="72.98 704.19 109.68 732.99 88.74 757.61 52.5 729 72.98 704.19"/>
    <polygon class="cls-8" points="671 861.98 740.5 914 752.5 903 678.42 850.66 671 861.98"/>
    <polygon class="cls-8" points="1116.96 600.14 1135.5 577 1144.79 584.04 1126.5 608 1116.96 600.14"/>
    <polygon class="cls-8" points="1271.5 418 1279.35 405.98 1334.14 429.2 1328.5 436 1271.5 418"/>
    <rect class="cls-8" x="634.28" y="36.72" width="37.22" height="19.28"/>
    <polygon class="cls-8" points="108.5 735 123.5 747 147.5 767 128.5 789 88.74 757.61 108.5 735"/>
    <g id="Elevator">
      <rect class="cls-1" x="66.78" y="718.33" width="26" height="26" rx="4" ry="4"/>
      <polygon class="cls-2" points="74.78 725.33 78.78 725.33 76.78 721.33 74.78 725.33"/>
      <polygon class="cls-2" points="84.78 721.33 80.78 721.33 82.78 725.33 84.78 721.33"/>
      <rect class="cls-2" x="73.37" y="727.92" width="2.83" height="2.83" rx="1.41" ry="1.41" transform="translate(-493.82 266.49) rotate(-45)"/>
      <polyline class="cls-2" points="71.78 731.33 77.78 731.33 77.78 737.33 75.78 741.33 73.78 741.33 71.78 737.33 71.78 731.33"/>
      <rect class="cls-2" x="83.37" y="727.92" width="2.83" height="2.83" rx="1.41" ry="1.41" transform="translate(-490.89 273.57) rotate(-45)"/>
      <polyline class="cls-2" points="81.78 731.33 87.78 731.33 87.78 737.33 85.78 741.33 83.78 741.33 81.78 737.33 81.78 731.33"/>
    </g>
    <g id="Stairs">
      <rect class="cls-1" x="105.5" y="750" width="26" height="26" rx="4" ry="4"/>
      <polygon class="cls-2" points="109.5 756 113.5 756 113.5 760 117.5 760 117.5 764 121.5 764 121.5 768 125.5 768 125.5 772 109.5 772 109.5 756"/>
    </g>
    <g id="Stairs-2" data-name="Stairs">
      <rect class="cls-1" x="725.5" y="890" width="26" height="26" rx="4" ry="4"/>
      <polygon class="cls-2" points="729.5 896 733.5 896 733.5 900 737.5 900 737.5 904 741.5 904 741.5 908 745.5 908 745.5 912 729.5 912 729.5 896"/>
    </g>
    <g id="Elevator-2" data-name="Elevator">
      <rect class="cls-1" x="532.58" y="846.92" width="26" height="26" rx="4" ry="4"/>
      <polygon class="cls-2" points="540.59 853.92 544.58 853.92 542.59 849.92 540.59 853.92"/>
      <polygon class="cls-2" points="550.58 849.92 546.59 849.92 548.58 853.92 550.58 849.92"/>
      <rect class="cls-2" x="539.17" y="856.51" width="2.83" height="2.83" rx="1.41" ry="1.41" transform="translate(-448.31 633.53) rotate(-45)"/>
      <polyline class="cls-2" points="537.58 859.92 543.58 859.92 543.58 865.92 541.58 869.92 539.58 869.92 537.58 865.92 537.58 859.92"/>
      <rect class="cls-2" x="549.17" y="856.51" width="2.83" height="2.83" rx="1.41" ry="1.41" transform="translate(-445.38 640.6) rotate(-45)"/>
      <polyline class="cls-2" points="547.58 859.92 553.58 859.92 553.58 865.92 551.58 869.92 549.58 869.92 547.58 865.92 547.58 859.92"/>
    </g>
    <g id="Stairs-3" data-name="Stairs">
      <rect class="cls-1" x="1113.5" y="586" width="26" height="26" rx="4" ry="4"/>
      <polygon class="cls-2" points="1117.5 592 1121.5 592 1121.5 596 1125.5 596 1125.5 600 1129.5 600 1129.5 604 1133.5 604 1133.5 608 1117.5 608 1117.5 592"/>
    </g>
    <g id="Ramp">
      <rect class="cls-1" x="1290.54" y="408.81" width="26" height="26" rx="4" ry="4"/>
      <polygon class="cls-2" points="1294.54 426.81 1310.54 430.81 1294.54 430.81 1294.54 426.81"/>
      <rect class="cls-2" x="1306.12" y="415.39" width="2.83" height="2.83" rx="1.41" ry="1.41" transform="translate(88.24 1046.65) rotate(-45)"/>
      <polyline class="cls-2" points="1304.54 418.81 1310.54 418.81 1310.54 424.81 1308.54 428.81 1306.54 428.81 1304.54 424.81 1304.54 418.81"/>
    </g>
    <g id="Stairs-4" data-name="Stairs">
      <rect class="cls-1" x="643.5" y="34" width="26" height="26" rx="4" ry="4"/>
      <polygon class="cls-2" points="647.5 40 651.5 40 651.5 44 655.5 44 655.5 48 659.5 48 659.5 52 663.5 52 663.5 56 647.5 56 647.5 40"/>
    </g>
  </g>
  <g id="Layer_8" data-name="Layer 8">
    <g>
      <path class="cls-2" d="m639.19,951.51l.06-2.85c1.15.2,1.98-.12,2.45-.72.74-.95.65-1.84-.91-3.06l-7.61-5.94,2.07-2.65,7.83,6.11c2.26,1.76,3.21,4.39,1.19,6.98-1.4,1.79-3.02,2.43-5.08,2.13Z"/>
      <path class="cls-2" d="m644.06,939.99c-2.9-2.26-3.08-5.72-1.4-7.87,1.98-2.55,4.82-2.36,7.26-.46.48.37.91.8,1.08,1.02l-4.17,5.35c1.48.77,2.77.35,3.7-.84.53-.68.79-1.44.92-2.39l2.28.37c-.08,1.41-.64,2.9-1.46,3.96-1.99,2.55-5.25,3.18-8.21.87Zm3.51-6.52c-.98-.77-2.02-.89-2.85.17-.65.84-.65,2,.33,3.06l2.51-3.22Z"/>
      <path class="cls-2" d="m653.09,930.92l-3.61-2.81-.95,1.22-1.98-1.54.97-1.45-2.13-2.16,1.71-2.19,2.37,1.85,1.67-2.14,2.08,1.62-1.67,2.14,3.58,2.79c1.01.79,1.78.65,2.32-.05.23-.29.39-.68.49-.98l2.25,1.08c-.22.59-.55,1.37-1.22,2.24-1.72,2.21-3.8,2-5.87.38Z"/>
      <path class="cls-2" d="m652.68,913.93l3.13-4.02c1.9-2.44,4.04-3.81,6.29-2.06,1.05.82,1.71,2.28,1.33,3.52l.07.06c1.25-.96,2.85-1.19,4.42.03,2.39,1.86,1.88,4.72-.11,7.27l-3.39,4.35-11.74-9.15Zm7.74-.23c1-1.29.9-2.28.05-2.95-.9-.71-1.72-.38-2.69.86l-.98,1.26,2.66,2.07.97-1.24Zm5.18,3.65c1.13-1.45,1.2-2.6.13-3.43-1.03-.8-2.02-.39-3.16,1.07l-1.16,1.48,3.03,2.36,1.16-1.48Z"/>
      <path class="cls-2" d="m669.96,910.25l-9.84-7.67,2.06-2.65,9.95,7.76c.57.44.95.32,1.12.1.08-.1.14-.17.22-.35l2.2,1.21c-.1.39-.35.9-.81,1.5-1.42,1.82-3.09,1.51-4.89.1Z"/>
      <path class="cls-2" d="m673.3,904.7l-5.55-4.33,2.06-2.65,5.21,4.06c1.29,1,1.96.97,2.55.21.52-.67.56-1.29.25-2.36l-5.92-4.61,2.06-2.65,8.94,6.97-1.68,2.16-1.39-.78-.05.07c.31,1.44.22,2.72-.73,3.94-1.52,1.94-3.53,1.7-5.77-.04Z"/>
      <path class="cls-2" d="m679.86,894.07c-2.9-2.26-3.07-5.72-1.4-7.87,1.98-2.55,4.82-2.37,7.26-.46.48.37.91.8,1.08,1.02l-4.17,5.35c1.48.77,2.77.35,3.7-.84.53-.68.79-1.44.92-2.39l2.28.37c-.08,1.41-.64,2.9-1.46,3.96-1.99,2.55-5.25,3.18-8.21.87Zm3.51-6.52c-.98-.77-2.02-.89-2.85.17-.65.84-.65,2,.33,3.06l2.51-3.22Z"/>
      <path class="cls-2" d="m651.82,959.6l2.07-2.66,4.52,3.53,3.16-4.05-4.52-3.53,2.07-2.65,11.74,9.15-2.07,2.65-4.9-3.82-3.16,4.05,4.9,3.82-2.07,2.66-11.74-9.15Z"/>
      <path class="cls-2" d="m670.06,955.31c-1.88-1.47-1.73-3.76.65-7.59-.82-.56-1.64-.56-2.39.41-.58.75-.85,1.74-1.04,2.99l-2.47-.41c.19-1.67.7-3.33,1.8-4.73,1.78-2.28,4.07-2.53,6.81-.4l5.11,3.98-1.68,2.16-1.06-.52-.05.07c.08,1.27-.11,2.48-.9,3.48-1.27,1.63-3.27,1.74-4.77.56Zm3.81-5.13l-1.56-1.22c-1.21,2.08-1.15,3.12-.48,3.64.58.45,1.17.27,1.66-.36.47-.6.48-1.23.38-2.07Z"/>
      <path class="cls-2" d="m671.32,940.37l1.68-2.16,1.28.69.05-.07c-.14-1.32-.06-2.7.89-3.92,1.52-1.94,3.53-1.7,5.77.04l5.55,4.33-2.06,2.65-5.21-4.06c-1.29-1-1.96-.97-2.55-.21-.52.67-.53,1.31-.42,2.33l6.03,4.7-2.06,2.65-8.94-6.97Z"/>
      <path class="cls-2" d="m689.39,938.78c-.74-.58-1-1.49-.81-2.67l-.07-.06c-.67.22-1.42.21-2.15-.37-.64-.5-.94-1.42-.9-2.3l-.07-.06c-.93.29-2.21.21-3.25-.61-2.14-1.67-1.85-4.29-.35-6.22.39-.5.84-.92,1.29-1.22l2.55-3.27,1.93,1.5-1.12,1.44c.4.04.95.25,1.42.62,2.06,1.6,1.78,3.91.26,5.86-.25.33-.6.65-1.03.96.02.37.11.58.42.83.44.34.94.15,1.7-.83l1.13-1.45c1.71-2.19,3.33-2.89,4.93-1.64,1.86,1.45,1.7,4.44-.69,7.5-1.62,2.08-3.59,3.21-5.18,1.97Zm-3.43-10.98c-.95-.74-1.86-.62-2.4.09s-.45,1.61.5,2.35c.98.76,1.9.64,2.44-.06.54-.7.44-1.62-.54-2.38Zm7.77,4.39c-.56-.44-1.07-.06-1.76.82l-.72.93c-.48.61-.79.93-1.09,1.16.02.55.18.92.5,1.17.68.53,1.64.02,2.57-1.18.93-1.19,1.12-2.42.5-2.9Z"/>
      <path class="cls-2" d="m692.72,926.24c-1.88-1.47-1.73-3.76.65-7.59-.83-.56-1.64-.56-2.39.41-.58.75-.85,1.74-1.04,2.99l-2.47-.41c.19-1.67.7-3.33,1.8-4.73,1.78-2.28,4.07-2.53,6.81-.4l5.11,3.98-1.68,2.16-1.06-.52-.05.07c.08,1.27-.11,2.48-.9,3.48-1.27,1.63-3.26,1.74-4.77.56Zm3.81-5.13l-1.56-1.22c-1.21,2.08-1.16,3.12-.48,3.64.58.45,1.17.27,1.66-.36.47-.6.48-1.23.38-2.07Z"/>
      <path class="cls-2" d="m693.98,911.3l1.68-2.16,1.71,1.03.05-.07c-.69-1.58-.51-3.01.2-3.92.4-.51.7-.76,1.01-.93l1.94,2.22c-.33.26-.6.47-.9.85-.52.67-.73,1.83.12,3.26l5.18,4.04-2.06,2.65-8.94-6.97Z"/>
    </g>
    <g>
      <path class="cls-2" d="m771.03,914.84l2.62-1.79-4.74-6.92-2.24,1.54-1.18-1.72c1.12-1.12,1.74-2.03,2.22-3.12l2.04-1.4,6.67,9.73,2.24-1.54,1.53,2.24-7.63,5.23-1.53-2.24Z"/>
      <path class="cls-2" d="m777.75,904.64c-2.79-4.07-2.51-7.33.06-9.09s5.72-.83,8.5,3.22c2.79,4.07,2.58,7.43.01,9.2s-5.78.74-8.57-3.33Zm5.94-4.07c-2.24-3.26-3.48-3.52-4.41-2.88s-1.15,1.89,1.09,5.15c2.24,3.26,3.55,3.62,4.48,2.98s1.07-1.99-1.16-5.26Z"/>
      <path class="cls-2" d="m790.92,901.21l2.62-1.79-4.74-6.92-2.24,1.54-1.18-1.72c1.12-1.12,1.74-2.03,2.22-3.12l2.04-1.4,6.67,9.73,2.24-1.54,1.53,2.24-7.63,5.23-1.53-2.24Z"/>
    </g>
    <g>
      <path class="cls-2" d="m815.03,877.84l2.62-1.79-4.74-6.92-2.24,1.54-1.18-1.72c1.12-1.12,1.74-2.03,2.22-3.12l2.04-1.4,6.67,9.73,2.24-1.54,1.53,2.24-7.63,5.23-1.53-2.24Z"/>
      <path class="cls-2" d="m821.75,867.64c-2.79-4.07-2.51-7.33.06-9.09s5.72-.83,8.5,3.22c2.79,4.07,2.58,7.43.01,9.2s-5.78.74-8.57-3.33Zm5.94-4.07c-2.24-3.26-3.48-3.52-4.41-2.88s-1.15,1.89,1.09,5.15c2.24,3.26,3.55,3.62,4.48,2.98s1.07-1.99-1.16-5.26Z"/>
      <path class="cls-2" d="m834.75,865.27c1.07-4.97,1.82-8.48.64-10.19-.79-1.16-1.87-1.35-2.93-.63-.85.58-1.13,1.63-1.29,2.67l-2.53-.46c.31-2.07,1-3.47,2.71-4.64,2.36-1.62,5-1.21,6.58,1.09,1.38,2.02.97,5.45.4,8.82.57-.49,1.36-1.13,1.91-1.51l2.41-1.65,1.6,2.33-8.42,5.77-1.09-1.59Z"/>
    </g>
    <g>
      <path class="cls-2" d="m862.13,837.59l2.62-1.79-4.75-6.92-2.24,1.54-1.18-1.72c1.12-1.12,1.74-2.03,2.22-3.12l2.04-1.4,6.67,9.73,2.24-1.54,1.53,2.24-7.63,5.23-1.53-2.24Z"/>
      <path class="cls-2" d="m868.85,827.39c-2.79-4.07-2.51-7.33.06-9.09,2.57-1.76,5.72-.83,8.5,3.22,2.79,4.07,2.58,7.43.01,9.2-2.57,1.76-5.78.74-8.57-3.33Zm5.94-4.07c-2.24-3.26-3.48-3.52-4.41-2.88-.93.64-1.15,1.89,1.09,5.15s3.55,3.62,4.48,2.98c.93-.64,1.07-1.99-1.16-5.26Z"/>
      <path class="cls-2" d="m881.64,825.34l.08-2.62c1.21.2,2.45.1,3.45-.59,1.17-.8,1.6-1.84.97-2.76-.72-1.05-1.78-1.28-4.38.51l-1.35-1.96c2.15-1.47,2.38-2.59,1.73-3.54-.58-.84-1.44-.95-2.38-.31-.85.58-1.23,1.41-1.52,2.58l-2.56-.73c.45-1.7,1.26-3.11,2.71-4.11,2.49-1.7,4.94-1.65,6.38.45.84,1.23.74,2.6-.17,4.03l.05.07c1.65-.55,3.32-.26,4.38,1.28,1.53,2.23.35,4.88-2.06,6.53-1.94,1.33-3.77,1.57-5.33,1.16Z"/>
    </g>
    <g>
      <path class="cls-2" d="m907.13,801.59l2.62-1.79-4.75-6.92-2.24,1.54-1.18-1.72c1.12-1.12,1.74-2.03,2.22-3.12l2.04-1.4,6.67,9.73,2.24-1.54,1.53,2.24-7.63,5.23-1.53-2.24Z"/>
      <path class="cls-2" d="m913.85,791.39c-2.79-4.07-2.51-7.33.06-9.09,2.57-1.76,5.72-.83,8.5,3.22,2.79,4.07,2.58,7.43.01,9.2-2.57,1.76-5.78.74-8.57-3.33Zm5.94-4.07c-2.24-3.26-3.48-3.52-4.41-2.88-.93.64-1.15,1.89,1.09,5.15s3.55,3.62,4.48,2.98c.93-.64,1.07-1.99-1.16-5.26Z"/>
      <path class="cls-2" d="m928.04,780.37c-.52-.76-1.25-1.97-1.73-2.75l-.08.05c.16.88.28,1.78.41,2.69l.22,3.69,6.48-4.44,1.45,2.11-9.14,6.26-1.31-1.92-.56-10.19,3.39-2.32,8.2,11.97-2.58,1.77-4.74-6.92Z"/>
    </g>
    <g>
      <path class="cls-2" d="m948.13,766.59l2.62-1.79-4.75-6.92-2.24,1.54-1.18-1.72c1.12-1.12,1.74-2.03,2.22-3.12l2.04-1.4,6.67,9.73,2.24-1.54,1.53,2.24-7.63,5.23-1.53-2.24Z"/>
      <path class="cls-2" d="m954.85,756.39c-2.79-4.07-2.51-7.33.06-9.09,2.57-1.76,5.72-.83,8.5,3.22,2.79,4.07,2.58,7.43.01,9.2-2.57,1.76-5.78.74-8.57-3.33Zm5.94-4.07c-2.24-3.26-3.48-3.52-4.41-2.88-.93.64-1.15,1.89,1.09,5.15s3.55,3.62,4.48,2.98c.93-.64,1.07-1.99-1.16-5.26Z"/>
      <path class="cls-2" d="m967.67,754.34l.05-2.6c1.17.17,2.38.12,3.4-.58,1.22-.84,1.57-2.03.72-3.25-.82-1.2-2.04-1.32-3.15-.56-.69.47-.95.88-1.35,1.82l-1.78.05-3.81-6.27,6.79-4.65,1.59,2.33-4.4,3.01,1.34,2.38c.32-.5.65-.85,1.14-1.19,2.07-1.42,4.61-1.44,6.36,1.1,1.82,2.66.81,5.59-1.52,7.19-1.95,1.34-3.8,1.51-5.38,1.21Z"/>
    </g>
    <polygon id="Arrow" class="cls-7" points="11.26 832.44 22.54 843.72 45.63 820.63 54.5 829.5 54.3 800 24.45 800.15 33.99 809.7 11.26 832.44"/>
    <g>
      <path class="cls-7" d="m33.81,847.03c0-4.33,2.87-6.83,6.35-6.83,1.89,0,3.24.81,4.11,1.69l-1.55,1.89c-.65-.6-1.34-1.04-2.46-1.04-2.01,0-3.43,1.58-3.43,4.19s1.21,4.24,3.67,4.24c.52,0,1.06-.14,1.38-.39v-2.25h-2.16v-2.41h4.78v6.01c-.9.88-2.48,1.58-4.3,1.58-3.59,0-6.39-2.29-6.39-6.68Z"/>
      <path class="cls-7" d="m46.48,850.72c0-2.09,1.66-3.22,5.59-3.64-.06-.87-.49-1.43-1.57-1.43-.83,0-1.66.35-2.63.9l-1.04-1.93c1.26-.77,2.68-1.31,4.24-1.31,2.54,0,3.94,1.45,3.94,4.49v5.67h-2.4l-.21-1.02h-.07c-.84.73-1.77,1.26-2.89,1.26-1.81,0-2.96-1.32-2.96-2.99Zm5.59-.13v-1.73c-2.09.28-2.77.88-2.77,1.63,0,.64.44.95,1.14.95s1.11-.33,1.63-.85Z"/>
      <path class="cls-7" d="m57.52,849.87v-4.01h-1.36v-2.19l1.52-.11.34-2.64h2.43v2.64h2.38v2.31h-2.38v3.97c0,1.12.51,1.58,1.29,1.58.33,0,.68-.09.94-.19l.46,2.14c-.53.17-1.24.36-2.21.36-2.45,0-3.43-1.55-3.43-3.85Z"/>
      <path class="cls-7" d="m63.84,848.52c0-3.22,2.3-5.21,4.68-5.21,2.83,0,4.23,2.05,4.23,4.76,0,.53-.07,1.06-.12,1.3h-5.94c.26,1.44,1.25,2.1,2.57,2.1.75,0,1.43-.23,2.15-.65l.97,1.77c-1.02.7-2.34,1.12-3.52,1.12-2.83,0-5.02-1.91-5.02-5.2Zm6.4-1.09c0-1.09-.48-1.88-1.65-1.88-.93,0-1.73.62-1.93,1.88h3.58Z"/>
      <path class="cls-7" d="m79.02,840.44h3.69c3.98,0,6.55,1.98,6.55,6.46s-2.57,6.58-6.38,6.58h-3.85v-13.04Zm3.51,10.67c2.21,0,3.71-1.08,3.71-4.2s-1.49-4.09-3.71-4.09h-.56v8.29h.56Z"/>
    </g>
    <polygon id="Arrow-2" data-name="Arrow" class="cls-7" points="312.26 927.44 323.54 938.72 346.63 915.63 355.5 924.5 355.3 895 325.45 895.15 334.99 904.7 312.26 927.44"/>
    <g>
      <path class="cls-7" d="m334.05,948.81c0-4.33,2.87-6.83,6.35-6.83,1.89,0,3.24.81,4.11,1.69l-1.55,1.89c-.65-.6-1.34-1.04-2.46-1.04-2.01,0-3.43,1.58-3.43,4.19s1.21,4.24,3.67,4.24c.52,0,1.06-.14,1.38-.39v-2.25h-2.16v-2.41h4.78v6.01c-.9.88-2.48,1.58-4.3,1.58-3.59,0-6.39-2.29-6.39-6.68Z"/>
      <path class="cls-7" d="m346.72,952.5c0-2.09,1.66-3.22,5.59-3.64-.06-.87-.49-1.43-1.57-1.43-.83,0-1.66.35-2.63.9l-1.04-1.93c1.26-.77,2.68-1.31,4.24-1.31,2.54,0,3.94,1.45,3.94,4.49v5.67h-2.4l-.21-1.02h-.07c-.84.73-1.77,1.26-2.89,1.26-1.81,0-2.96-1.32-2.96-2.99Zm5.59-.13v-1.73c-2.09.28-2.77.88-2.77,1.63,0,.64.44.95,1.14.95s1.11-.33,1.63-.85Z"/>
      <path class="cls-7" d="m357.75,951.64v-4.01h-1.36v-2.19l1.52-.11.34-2.64h2.43v2.64h2.38v2.31h-2.38v3.97c0,1.12.51,1.58,1.29,1.58.33,0,.68-.09.94-.19l.46,2.14c-.53.17-1.24.36-2.21.36-2.45,0-3.43-1.55-3.43-3.85Z"/>
      <path class="cls-7" d="m364.08,950.29c0-3.22,2.3-5.21,4.68-5.21,2.83,0,4.23,2.05,4.23,4.76,0,.53-.07,1.06-.12,1.3h-5.94c.26,1.44,1.25,2.1,2.57,2.1.75,0,1.43-.23,2.15-.65l.97,1.77c-1.02.7-2.34,1.12-3.52,1.12-2.83,0-5.02-1.91-5.02-5.2Zm6.4-1.09c0-1.09-.48-1.88-1.65-1.88-.93,0-1.73.62-1.93,1.88h3.58Z"/>
      <path class="cls-7" d="m378.65,948.81c0-4.33,2.86-6.83,6.15-6.83,1.69,0,3.04.79,3.92,1.69l-1.55,1.89c-.65-.61-1.36-1.04-2.3-1.04-1.79,0-3.2,1.58-3.2,4.19s1.25,4.24,3.15,4.24c1.07,0,1.91-.53,2.55-1.22l1.55,1.85c-1.08,1.26-2.52,1.91-4.21,1.91-3.31,0-6.07-2.29-6.07-6.68Z"/>
    </g>
    <polygon id="Arrow-3" data-name="Arrow" class="cls-7" points="963.26 886.44 974.54 897.72 997.63 874.63 1006.5 883.5 1006.3 854 976.45 854.15 985.99 863.7 963.26 886.44"/>
    <g>
      <path class="cls-7" d="m984.82,907.81c0-4.33,2.87-6.83,6.35-6.83,1.89,0,3.24.81,4.11,1.69l-1.55,1.89c-.65-.6-1.34-1.04-2.46-1.04-2.01,0-3.43,1.58-3.43,4.19s1.21,4.24,3.67,4.24c.52,0,1.06-.14,1.38-.39v-2.25h-2.16v-2.41h4.78v6.01c-.9.88-2.48,1.58-4.3,1.58-3.59,0-6.38-2.29-6.38-6.68Z"/>
      <path class="cls-7" d="m997.49,911.5c0-2.09,1.66-3.22,5.59-3.64-.06-.87-.49-1.43-1.57-1.43-.83,0-1.66.35-2.63.9l-1.04-1.93c1.26-.77,2.68-1.31,4.24-1.31,2.54,0,3.94,1.45,3.94,4.49v5.67h-2.4l-.21-1.02h-.07c-.83.73-1.77,1.26-2.89,1.26-1.81,0-2.96-1.32-2.96-2.99Zm5.59-.13v-1.73c-2.09.28-2.77.88-2.77,1.63,0,.64.44.95,1.14.95s1.11-.33,1.63-.85Z"/>
      <path class="cls-7" d="m1008.52,910.64v-4.01h-1.36v-2.19l1.52-.11.34-2.64h2.43v2.64h2.38v2.31h-2.38v3.97c0,1.12.51,1.58,1.29,1.58.33,0,.68-.09.94-.19l.46,2.14c-.53.17-1.24.36-2.21.36-2.45,0-3.43-1.55-3.43-3.85Z"/>
      <path class="cls-7" d="m1014.85,909.29c0-3.22,2.3-5.21,4.68-5.21,2.83,0,4.23,2.05,4.23,4.76,0,.53-.07,1.06-.12,1.3h-5.94c.26,1.44,1.25,2.1,2.57,2.1.75,0,1.43-.23,2.15-.65l.97,1.77c-1.02.7-2.34,1.12-3.52,1.12-2.83,0-5.02-1.91-5.02-5.2Zm6.4-1.09c0-1.09-.47-1.88-1.65-1.88-.93,0-1.73.62-1.93,1.88h3.58Z"/>
      <path class="cls-7" d="m1030.03,901.21h4.46c2.71,0,4.81.74,4.81,3.23,0,1.17-.65,2.42-1.72,2.82v.08c1.33.35,2.36,1.33,2.36,3.07,0,2.65-2.24,3.84-5.08,3.84h-4.83v-13.04Zm4.33,5.22c1.43,0,2.06-.6,2.06-1.55,0-1-.67-1.39-2.04-1.39h-1.4v2.95h1.38Zm.27,5.54c1.61,0,2.44-.57,2.44-1.76s-.82-1.61-2.44-1.61h-1.65v3.37h1.65Z"/>
    </g>
    <polygon id="Arrow-4" data-name="Arrow" class="cls-7" points="1332.93 335.18 1316.97 335.18 1316.97 367.84 1304.43 367.84 1325.43 388.56 1346.43 367.34 1332.93 367.34 1332.93 335.18"/>
    <g>
      <path class="cls-7" d="m1290.99,320.81c0-4.33,2.87-6.83,6.35-6.83,1.89,0,3.24.81,4.11,1.69l-1.55,1.89c-.65-.6-1.34-1.04-2.46-1.04-2.01,0-3.43,1.58-3.43,4.19s1.21,4.24,3.67,4.24c.52,0,1.06-.14,1.38-.39v-2.25h-2.16v-2.41h4.78v6.01c-.9.88-2.48,1.58-4.3,1.58-3.59,0-6.38-2.29-6.38-6.68Z"/>
      <path class="cls-7" d="m1303.66,324.5c0-2.09,1.66-3.22,5.59-3.64-.06-.87-.49-1.43-1.57-1.43-.83,0-1.66.35-2.63.9l-1.04-1.93c1.26-.77,2.68-1.31,4.24-1.31,2.54,0,3.94,1.45,3.94,4.49v5.67h-2.4l-.21-1.02h-.07c-.83.73-1.77,1.26-2.89,1.26-1.81,0-2.96-1.32-2.96-2.99Zm5.59-.13v-1.73c-2.09.28-2.77.88-2.77,1.63,0,.64.44.95,1.14.95s1.11-.33,1.63-.85Z"/>
      <path class="cls-7" d="m1314.69,323.64v-4.01h-1.36v-2.19l1.52-.11.34-2.64h2.43v2.64h2.38v2.31h-2.38v3.97c0,1.12.51,1.58,1.29,1.58.33,0,.68-.09.94-.19l.46,2.14c-.53.17-1.24.36-2.21.36-2.45,0-3.43-1.55-3.43-3.85Z"/>
      <path class="cls-7" d="m1321.02,322.29c0-3.22,2.3-5.21,4.68-5.21,2.83,0,4.23,2.05,4.23,4.76,0,.53-.07,1.06-.12,1.3h-5.94c.26,1.44,1.25,2.1,2.57,2.1.75,0,1.43-.23,2.15-.65l.97,1.77c-1.02.7-2.34,1.12-3.52,1.12-2.83,0-5.02-1.91-5.02-5.2Zm6.4-1.09c0-1.09-.47-1.88-1.65-1.88-.93,0-1.73.62-1.93,1.88h3.58Z"/>
      <path class="cls-7" d="m1338.89,324.06l-1.08,3.19h-2.93l4.68-13.79h3.75l4.88,13.79h-3.13l-1.13-3.19h-5.04Zm4.4-2.44c-.98-2.91-1.6-4.77-1.94-6.01h-.02c-.34,1.36-1.03,3.52-1.81,6.01h3.77Z"/>
    </g>
    <g>
      <path class="cls-2" d="m394.4,821.17c-.18-5.08-.31-8.67-1.87-10.04-1.05-.93-2.15-.85-2.99.1-.68.77-.69,1.86-.6,2.91l-2.56.17c-.2-2.08.11-3.61,1.49-5.16,1.89-2.15,4.55-2.4,6.65-.55,1.83,1.62,2.28,5.05,2.55,8.45.43-.62,1.04-1.43,1.48-1.93l1.93-2.19,2.12,1.87-6.75,7.65-1.45-1.27Z"/>
      <path class="cls-2" d="m402.38,812.12c-.18-5.08-.32-8.67-1.87-10.04-1.05-.93-2.15-.85-2.99.1-.68.77-.69,1.86-.6,2.91l-2.56.17c-.2-2.08.12-3.61,1.49-5.16,1.89-2.15,4.55-2.4,6.65-.55,1.83,1.62,2.28,5.05,2.55,8.45.43-.62,1.04-1.43,1.48-1.93l1.93-2.19,2.12,1.87-6.75,7.65-1.44-1.27Z"/>
    </g>
    <g>
      <path class="cls-2" d="m371.7,802.51c-.18-5.08-.31-8.67-1.87-10.04-1.05-.93-2.15-.85-2.99.1-.68.77-.69,1.86-.6,2.91l-2.56.17c-.2-2.08.11-3.61,1.49-5.16,1.89-2.15,4.55-2.4,6.65-.55,1.83,1.62,2.28,5.05,2.55,8.45.43-.62,1.04-1.43,1.48-1.93l1.93-2.19,2.12,1.87-6.75,7.65-1.45-1.27Z"/>
      <path class="cls-2" d="m379.57,792.38l2.1-2.38-6.3-5.55-1.8,2.04-1.56-1.38c.81-1.36,1.19-2.39,1.39-3.57l1.64-1.86,8.85,7.8,1.8-2.04,2.03,1.79-6.11,6.94-2.03-1.79Z"/>
    </g>
    <g>
      <path class="cls-2" d="m347.02,782.11c-.18-5.08-.31-8.67-1.87-10.04-1.05-.93-2.15-.85-2.99.1-.68.77-.69,1.86-.6,2.91l-2.56.17c-.2-2.08.11-3.61,1.49-5.16,1.89-2.15,4.55-2.4,6.65-.55,1.83,1.62,2.28,5.05,2.55,8.45.43-.62,1.04-1.43,1.48-1.93l1.93-2.19,2.12,1.87-6.75,7.65-1.45-1.27Z"/>
      <path class="cls-2" d="m350.95,769.5c-3.7-3.26-4.23-6.49-2.17-8.83s5.34-2.21,9.03,1.04c3.7,3.26,4.33,6.57,2.26,8.91-2.06,2.34-5.42,2.14-9.13-1.13Zm4.76-5.4c-2.97-2.62-4.23-2.56-4.98-1.71-.75.85-.65,2.11,2.32,4.73,2.97,2.62,4.33,2.64,5.08,1.79.75-.85.55-2.19-2.42-4.81Z"/>
    </g>
    <g>
      <path class="cls-2" d="m322.72,763.93l2.1-2.38-6.3-5.55-1.8,2.04-1.56-1.38c.81-1.36,1.19-2.39,1.39-3.57l1.64-1.86,8.85,7.8,1.8-2.04,2.03,1.79-6.11,6.94-2.03-1.79Z"/>
      <path class="cls-2" d="m331.22,756.15l-.33-2.66c.75,0,1.71-.36,2.27-1,1.13-1.28,1.03-3.11-1.87-5.67-2.7-2.38-4.25-2.24-5.06-1.32-.66.74-.68,1.83.55,2.92,1.15,1.01,2.12.79,2.85-.03.5-.57.74-1.48.32-2.73l1.75,1.34c.33,1.29-.08,2.73-.71,3.44-1.64,1.86-3.92,2.31-6.22.28-2.26-2-2.2-4.86-.46-6.83,1.86-2.11,5.2-2.73,9.02.64,4.07,3.58,4.04,7.31,2.02,9.6-1.27,1.44-2.81,1.96-4.12,2.03Z"/>
    </g>
    <g>
      <path class="cls-2" d="m301.64,744.88l2.1-2.38-6.3-5.55-1.8,2.04-1.56-1.38c.81-1.36,1.19-2.39,1.39-3.57l1.64-1.86,8.85,7.8,1.8-2.04,2.03,1.79-6.11,6.94-2.03-1.79Z"/>
      <path class="cls-2" d="m308.44,735.65c-1.31-1.15-1.39-2.71-1.03-4.22l-.07-.06c-1.37.29-2.71.21-3.85-.79-1.85-1.63-1.72-4.11.06-6.13,1.76-1.99,4.09-2.27,5.9-.68,1.04.91,1.28,2.33,1.13,3.52l.07.06c1.48-.54,3.06-.64,4.5.63,1.72,1.51,1.66,4.2-.38,6.51-1.91,2.17-4.56,2.72-6.33,1.16Zm-.62-9.68c-.84-.75-1.84-.75-2.57.08-.59.67-.65,1.58.19,2.32.88.78,1.98.39,3.39-.32-.13-.88-.44-1.58-1.01-2.08Zm5.18,4.28c-.96-.85-2.15-.24-3.92.62,0,.86.32,1.76.99,2.36.95.84,2.19.58,3-.34.73-.83.84-1.84-.07-2.64Z"/>
    </g>
    <g>
      <path class="cls-2" d="m275.78,727.88l2.1-2.38-6.3-5.55-1.8,2.04-1.56-1.38c.81-1.36,1.19-2.39,1.39-3.57l1.64-1.86,8.85,7.8,1.8-2.04,2.03,1.79-6.11,6.94-2.03-1.79Z"/>
      <path class="cls-2" d="m280.93,708.46l-4.3,4.88-2.12-1.87,6.68-7.58,1.55,1.37c.81,5.2,2.56,7.36,6.62,11.3l-2.23,2.53c-3.45-3.39-5.17-6.06-6.2-10.63Z"/>
    </g>
    <g>
      <path class="cls-2" d="m252.64,710.15l2.1-2.38-6.3-5.55-1.8,2.04-1.56-1.38c.81-1.36,1.19-2.39,1.39-3.57l1.64-1.86,8.85,7.8,1.8-2.04,2.03,1.79-6.11,6.94-2.03-1.79Z"/>
      <path class="cls-2" d="m257.02,698.82c-4.07-3.59-4.04-7.31-2.02-9.6,1.27-1.44,2.81-1.96,4.12-2.03l.33,2.66c-.74,0-1.71.36-2.27,1-1.12,1.27-1.03,3.11,1.87,5.67,2.7,2.38,4.25,2.24,5.06,1.32.66-.74.68-1.83-.55-2.92-1.15-1.01-2.12-.79-2.84.03-.5.57-.74,1.48-.32,2.73l-1.74-1.34c-.33-1.29.08-2.73.71-3.44,1.64-1.86,3.92-2.31,6.22-.28,2.26,2,2.2,4.86.46,6.83-1.86,2.11-5.2,2.73-9.02-.64Z"/>
    </g>
    <g>
      <path class="cls-2" d="m230.2,692.99l2.1-2.38-6.3-5.55-1.8,2.04-1.56-1.38c.81-1.36,1.19-2.39,1.39-3.57l1.64-1.86,8.85,7.8,1.8-2.04,2.03,1.79-6.11,6.94-2.03-1.79Z"/>
      <path class="cls-2" d="m238.17,685.37l-.59-2.54c1.17-.12,2.34-.46,3.16-1.39.98-1.11,1.02-2.35-.1-3.33-1.09-.96-2.3-.78-3.19.22-.56.63-.71,1.08-.86,2.1l-1.71.48-5.23-5.14,5.44-6.17,2.12,1.87-3.52,4,1.88,1.98c.19-.57.42-.98.82-1.43,1.66-1.88,4.12-2.53,6.43-.49,2.42,2.13,2.16,5.22.28,7.34-1.57,1.78-3.31,2.39-4.92,2.5Z"/>
    </g>
    <g>
      <path class="cls-2" d="m206.63,678.01l2.1-2.38-6.3-5.55-1.8,2.04-1.56-1.38c.81-1.36,1.19-2.39,1.39-3.57l1.64-1.86,8.85,7.8,1.8-2.04,2.03,1.79-6.11,6.94-2.03-1.79Z"/>
      <path class="cls-2" d="m213.73,661.37c-.69-.61-1.69-1.6-2.35-2.25l-.06.07c.37.82.7,1.66,1.05,2.51l1.12,3.52,5.2-5.9,1.92,1.69-7.33,8.31-1.74-1.54-3.04-9.74,2.72-3.08,10.88,9.59-2.07,2.35-6.29-5.55Z"/>
    </g>
    <g>
      <path class="cls-1" d="m7.62,500.46h5.53c5.97,0,9.82,2.97,9.82,9.69s-3.85,9.86-9.57,9.86h-5.77v-19.55Zm5.26,15.99c3.32,0,5.56-1.63,5.56-6.3s-2.24-6.13-5.56-6.13h-.84v12.43h.84Z"/>
      <path class="cls-1" d="m25.74,510.35c0-6.49,4.29-10.25,9.23-10.25,2.53,0,4.56,1.19,5.88,2.54l-2.33,2.84c-.98-.91-2.04-1.56-3.45-1.56-2.68,0-4.8,2.36-4.8,6.28s1.87,6.35,4.73,6.35c1.61,0,2.87-.79,3.83-1.83l2.33,2.78c-1.62,1.89-3.78,2.87-6.31,2.87-4.96,0-9.1-3.44-9.1-10.02Z"/>
      <path class="cls-1" d="m43.48,510.95v-10.49h4.42v10.94c0,3.83,1.21,5.15,3.39,5.15s3.46-1.32,3.46-5.15v-10.94h4.26v10.49c0,6.56-2.67,9.42-7.73,9.42s-7.81-2.86-7.81-9.42Z"/>
      <path class="cls-1" d="m68.61,510.35c0-6.49,4.29-10.25,9.23-10.25,2.53,0,4.56,1.19,5.88,2.54l-2.33,2.84c-.98-.91-2.04-1.56-3.45-1.56-2.68,0-4.8,2.36-4.8,6.28s1.87,6.35,4.73,6.35c1.61,0,2.87-.79,3.83-1.83l2.33,2.78c-1.62,1.89-3.78,2.87-6.31,2.87-4.96,0-9.1-3.44-9.1-10.02Z"/>
      <path class="cls-1" d="m86.63,515.39v-16.39h4.41v16.57c0,.95.44,1.25.8,1.25.17,0,.29,0,.54-.06l.53,3.25c-.49.21-1.21.37-2.21.37-3.03,0-4.06-1.97-4.06-4.98Z"/>
      <path class="cls-1" d="m95.07,514.37v-9.24h4.41v8.67c0,2.14.57,2.81,1.85,2.81,1.11,0,1.79-.47,2.65-1.64v-9.85h4.41v14.88h-3.6l-.32-2.06h-.11c-1.24,1.48-2.64,2.42-4.67,2.42-3.24,0-4.62-2.28-4.62-6Z"/>
      <path class="cls-1" d="m116.17,518.42h-.11l-.37,1.59h-3.45v-21.02h4.41v5.13l-.11,2.29c1.13-1.01,2.53-1.65,3.94-1.65,3.6,0,5.83,2.98,5.83,7.54,0,5.13-3.04,8.06-6.26,8.06-1.33,0-2.7-.67-3.89-1.95Zm5.63-6.04c0-2.67-.83-4.01-2.59-4.01-.91,0-1.7.41-2.56,1.33v6.11c.79.7,1.63.94,2.37.94,1.54,0,2.77-1.3,2.77-4.38Z"/>
    </g>
    <g>
      <path class="cls-2" d="m191.74,652.61c-.18-5.08-.32-8.67-1.87-10.04-1.05-.93-2.15-.85-2.99.1-.68.77-.69,1.86-.6,2.91l-2.56.17c-.2-2.08.11-3.61,1.49-5.16,1.89-2.15,4.55-2.4,6.65-.55,1.83,1.62,2.28,5.05,2.55,8.45.43-.62,1.04-1.43,1.48-1.93l1.93-2.19,2.12,1.87-6.75,7.65-1.44-1.27Z"/>
      <path class="cls-2" d="m195.67,640c-3.7-3.26-4.23-6.49-2.17-8.83s5.34-2.21,9.03,1.04c3.7,3.26,4.33,6.57,2.26,8.91s-5.42,2.14-9.13-1.13Zm4.76-5.4c-2.97-2.62-4.23-2.56-4.98-1.71-.75.85-.65,2.11,2.32,4.73,2.97,2.62,4.33,2.64,5.08,1.79.75-.85.55-2.19-2.42-4.81Z"/>
      <path class="cls-2" d="m204.77,623.07l-4.3,4.88-2.12-1.87,6.68-7.58,1.55,1.37c.81,5.2,2.56,7.36,6.62,11.3l-2.23,2.53c-3.45-3.39-5.17-6.06-6.2-10.63Z"/>
    </g>
    <g>
      <path class="cls-2" d="m163.6,603.09c3.69-3.49,6.29-5.97,6.29-8.04,0-1.4-.78-2.18-2.06-2.18-1.03,0-1.85.71-2.58,1.47l-1.82-1.81c1.43-1.53,2.78-2.3,4.86-2.3,2.86,0,4.81,1.82,4.81,4.62,0,2.44-2.28,5.05-4.66,7.5.75-.08,1.76-.17,2.43-.17h2.92v2.82h-10.2v-1.92Z"/>
      <path class="cls-2" d="m175.65,597.7c0-4.94,2.07-7.46,5.19-7.46s5.19,2.54,5.19,7.46-2.07,7.59-5.19,7.59-5.19-2.66-5.19-7.59Zm7.2,0c0-3.96-.88-4.87-2.01-4.87s-2.01.91-2.01,4.87.88,4.99,2.01,4.99,2.01-1.04,2.01-4.99Z"/>
      <path class="cls-2" d="m187.8,598.1c0-5.42,2.81-7.86,5.86-7.86,1.92,0,3.32.81,4.24,1.75l-1.77,2.01c-.49-.56-1.4-1.04-2.25-1.04-1.69,0-3.02,1.29-3.02,5.15,0,3.6,1.13,4.67,2.36,4.67.99,0,1.83-.7,1.83-2.34,0-1.53-.81-2.11-1.9-2.11-.76,0-1.6.42-2.26,1.56l-.15-2.19c.75-1.1,2.1-1.74,3.06-1.74,2.48,0,4.32,1.41,4.32,4.48s-2.2,4.86-4.82,4.86c-2.81,0-5.49-2.1-5.49-7.19Z"/>
    </g>
    <g>
      <path class="cls-2" d="m163.6,554.09c3.69-3.49,6.29-5.97,6.29-8.04,0-1.4-.78-2.18-2.06-2.18-1.03,0-1.85.71-2.58,1.47l-1.82-1.81c1.43-1.53,2.78-2.3,4.86-2.3,2.86,0,4.81,1.82,4.81,4.62,0,2.44-2.28,5.05-4.66,7.5.75-.08,1.76-.17,2.43-.17h2.92v2.82h-10.2v-1.92Z"/>
      <path class="cls-2" d="m175.65,548.7c0-4.94,2.07-7.46,5.19-7.46s5.19,2.54,5.19,7.46-2.07,7.59-5.19,7.59-5.19-2.66-5.19-7.59Zm7.2,0c0-3.96-.88-4.87-2.01-4.87s-2.01.91-2.01,4.87.88,4.99,2.01,4.99,2.01-1.04,2.01-4.99Z"/>
      <path class="cls-2" d="m187.39,554.25l1.51-2.12c.87.8,1.9,1.45,3.13,1.45,1.48,0,2.44-.79,2.44-2.28s-.94-2.24-2.28-2.24c-.84,0-1.28.19-2.15.74l-1.5-.97.4-7.33h8.23v2.82h-5.33l-.24,2.72c.55-.23,1.02-.33,1.61-.33,2.5,0,4.62,1.42,4.62,4.5s-2.49,5.07-5.32,5.07c-2.37,0-3.99-.9-5.13-2.04Z"/>
    </g>
    <g>
      <path class="cls-2" d="m195.1,497.07c-3.49-3.69-5.97-6.29-8.04-6.29-1.4,0-2.18.78-2.18,2.06,0,1.03.71,1.85,1.47,2.58l-1.81,1.82c-1.53-1.43-2.3-2.78-2.3-4.86,0-2.86,1.83-4.81,4.62-4.81,2.44,0,5.05,2.28,7.5,4.66-.08-.75-.17-1.76-.17-2.43v-2.92h2.82v10.2h-1.92Z"/>
      <path class="cls-2" d="m189.71,485.01c-4.94,0-7.46-2.07-7.46-5.19s2.54-5.19,7.46-5.19,7.59,2.07,7.59,5.19-2.66,5.19-7.59,5.19Zm0-7.2c-3.96,0-4.87.88-4.87,2.01s.91,2.01,4.87,2.01,4.99-.88,4.99-2.01-1.04-2.01-4.99-2.01Z"/>
      <path class="cls-2" d="m188.64,467.09c-.92,0-2.33-.08-3.25-.13v.09c.82.37,1.62.78,2.45,1.19l3.17,1.9v-7.86h2.56v11.08h-2.32l-8.72-5.3v-4.11h14.51v3.13h-8.39Z"/>
    </g>
    <g>
      <path class="cls-2" d="m162.12,412.25c3.69-3.49,6.29-5.97,6.29-8.04,0-1.4-.78-2.18-2.06-2.18-1.03,0-1.85.71-2.58,1.47l-1.82-1.81c1.43-1.53,2.78-2.3,4.86-2.3,2.86,0,4.81,1.83,4.81,4.62,0,2.44-2.28,5.05-4.66,7.5.75-.08,1.76-.17,2.43-.17h2.92v2.82h-10.2v-1.92Z"/>
      <path class="cls-2" d="m174.17,406.86c0-4.94,2.07-7.46,5.19-7.46s5.19,2.54,5.19,7.46-2.07,7.59-5.19,7.59-5.19-2.66-5.19-7.59Zm7.2,0c0-3.96-.88-4.87-2.01-4.87s-2.01.91-2.01,4.87.88,4.99,2.01,4.99,2.01-1.04,2.01-4.99Z"/>
      <path class="cls-2" d="m185.89,412.4l1.55-2.12c.89.85,1.96,1.47,3.18,1.47,1.42,0,2.36-.62,2.36-1.73,0-1.27-.74-2.06-3.9-2.06v-2.38c2.61,0,3.43-.79,3.43-1.94,0-1.02-.65-1.6-1.79-1.6-1.03,0-1.81.47-2.71,1.27l-1.7-2.04c1.34-1.15,2.79-1.86,4.56-1.86,3.01,0,5,1.43,5,3.98,0,1.49-.86,2.56-2.42,3.22v.09c1.68.48,2.89,1.66,2.89,3.54,0,2.7-2.48,4.22-5.39,4.22-2.35,0-3.99-.83-5.06-2.06Z"/>
    </g>
    <g>
      <path class="cls-2" d="m162.12,364.25c3.69-3.49,6.29-5.97,6.29-8.04,0-1.4-.78-2.18-2.06-2.18-1.03,0-1.85.71-2.58,1.47l-1.82-1.81c1.43-1.53,2.78-2.3,4.86-2.3,2.86,0,4.81,1.83,4.81,4.62,0,2.44-2.28,5.05-4.66,7.5.75-.08,1.76-.17,2.43-.17h2.92v2.82h-10.2v-1.92Z"/>
      <path class="cls-2" d="m174.17,358.86c0-4.94,2.07-7.46,5.19-7.46s5.19,2.54,5.19,7.46-2.07,7.59-5.19,7.59-5.19-2.66-5.19-7.59Zm7.2,0c0-3.96-.88-4.87-2.01-4.87s-2.01.91-2.01,4.87.88,4.99,2.01,4.99,2.01-1.04,2.01-4.99Z"/>
      <path class="cls-2" d="m186.23,364.25c3.69-3.49,6.29-5.97,6.29-8.04,0-1.4-.78-2.18-2.06-2.18-1.03,0-1.85.71-2.58,1.47l-1.82-1.81c1.43-1.53,2.78-2.3,4.86-2.3,2.86,0,4.81,1.83,4.81,4.62,0,2.44-2.28,5.05-4.66,7.5.75-.08,1.76-.17,2.43-.17h2.92v2.82h-10.2v-1.92Z"/>
    </g>
    <g>
      <path class="cls-2" d="m184.12,307.86c5.08.14,8.67.23,10.14-1.24.99-.99.99-2.09.08-2.99-.73-.73-1.81-.81-2.86-.78v-2.57c2.08-.07,3.59.34,5.05,1.81,2.02,2.02,2.11,4.69.13,6.67-1.73,1.73-5.18,1.96-8.6,2.01.59.47,1.36,1.12,1.84,1.6l2.06,2.06-2,2-7.21-7.21,1.36-1.36Z"/>
      <path class="cls-2" d="m196.46,312.56c3.49-3.49,6.74-3.81,8.95-1.61s1.87,5.47-1.61,8.95c-3.49,3.49-6.83,3.9-9.04,1.7s-1.79-5.55,1.7-9.04Zm5.09,5.09c2.8-2.8,2.82-4.06,2.02-4.86s-2.07-.78-4.86,2.02c-2.8,2.8-2.91,4.15-2.11,4.95s2.16.69,4.95-2.11Z"/>
      <path class="cls-2" d="m202.26,324.88l2.24,2.24,5.93-5.93-1.92-1.92,1.47-1.47c1.31.89,2.31,1.34,3.48,1.61l1.75,1.75-8.34,8.34,1.92,1.92-1.92,1.92-6.54-6.54,1.92-1.92Z"/>
    </g>
    <g>
      <path class="cls-2" d="m203.62,277.35l1.86,2.57,6.79-4.93-1.6-2.2,1.69-1.22c1.15,1.08,2.08,1.68,3.18,2.14l1.46,2-9.54,6.93,1.6,2.2-2.19,1.59-5.43-7.48,2.19-1.59Z"/>
      <path class="cls-2" d="m209.64,286.97c4.99.94,8.53,1.58,10.21.36,1.13-.82,1.3-1.91.55-2.94-.61-.83-1.66-1.08-2.71-1.22l.4-2.54c2.07.26,3.49.9,4.71,2.58,1.68,2.31,1.35,4.96-.91,6.61-1.98,1.44-5.42,1.12-8.81.64.51.56,1.17,1.32,1.56,1.87l1.72,2.36-2.28,1.66-6-8.25,1.56-1.13Z"/>
      <path class="cls-2" d="m229.38,292.09l2.37,3.26-9.3,12.53-2.09-2.88,4.96-6.01c.96-1.21,2.15-2.57,3.17-3.8l-.05-.07c-1.48.63-3.13,1.33-4.57,1.87l-7.25,2.85-2.02-2.78,14.79-4.97Zm-8,3.84l4.21,5.8-2.12,1.54-4.21-5.8,2.12-1.54Z"/>
    </g>
    <g>
      <path class="cls-2" d="m227.41,264.57l1.86,2.57,6.79-4.93-1.6-2.2,1.69-1.22c1.15,1.09,2.08,1.68,3.18,2.14l1.46,2-9.54,6.93,1.6,2.2-2.19,1.59-5.43-7.48,2.19-1.59Z"/>
      <path class="cls-2" d="m233.43,274.19c4.99.94,8.53,1.58,10.21.36,1.13-.82,1.3-1.91.55-2.94-.61-.83-1.66-1.08-2.71-1.22l.4-2.54c2.07.26,3.49.9,4.71,2.58,1.68,2.31,1.35,4.96-.91,6.61-1.98,1.44-5.42,1.12-8.81.64.51.56,1.17,1.32,1.56,1.87l1.72,2.36-2.28,1.66-6-8.25,1.56-1.13Z"/>
    </g>
    <g>
      <path class="cls-2" d="m250.41,249.57l1.86,2.57,6.79-4.93-1.6-2.2,1.69-1.22c1.15,1.09,2.08,1.68,3.18,2.14l1.46,2-9.54,6.93,1.6,2.2-2.19,1.59-5.43-7.48,2.19-1.59Z"/>
      <path class="cls-2" d="m257.5,259.33l1.86,2.57,6.79-4.93-1.6-2.2,1.69-1.22c1.15,1.09,2.08,1.68,3.18,2.14l1.46,2-9.54,6.93,1.6,2.2-2.19,1.59-5.43-7.48,2.19-1.59Z"/>
    </g>
    <g>
      <path class="cls-2" d="m273.41,233.57l1.86,2.57,6.79-4.93-1.6-2.2,1.69-1.22c1.15,1.09,2.08,1.68,3.18,2.14l1.46,2-9.54,6.93,1.6,2.2-2.19,1.59-5.43-7.48,2.19-1.59Z"/>
      <path class="cls-2" d="m283.79,240.02c3.99-2.9,7.26-2.71,9.09-.19s.99,5.69-2.99,8.58c-3.99,2.9-7.36,2.79-9.19.26-1.83-2.52-.9-5.76,3.09-8.66Zm4.23,5.83c3.2-2.33,3.42-3.57,2.75-4.49s-1.92-1.09-5.12,1.23c-3.2,2.33-3.52,3.65-2.86,4.56.66.92,2.02,1.02,5.22-1.31Z"/>
    </g>
    <path class="cls-2" d="m298.6,223.69l2.67.25c-.16.73-.02,1.75.48,2.43,1,1.38,2.81,1.68,5.94-.59,2.91-2.12,3.11-3.66,2.39-4.65-.58-.8-1.64-1.07-2.97-.1-1.24.9-1.24,1.9-.59,2.78.45.61,1.28,1.04,2.59.91l-1.69,1.41c-1.33.04-2.64-.68-3.21-1.45-1.46-2.01-1.4-4.33,1.09-6.13,2.44-1.77,5.22-1.08,6.77,1.05,1.65,2.27,1.53,5.67-2.59,8.67-4.39,3.19-8.02,2.34-9.81-.12-1.13-1.55-1.3-3.17-1.08-4.46Z"/>
    <path class="cls-2" d="m322.39,205.35c1.41-1.03,2.94-.77,4.34-.09l.07-.05c.01-1.4.39-2.69,1.61-3.58,2-1.45,4.39-.78,5.97,1.4,1.56,2.15,1.32,4.49-.63,5.91-1.12.81-2.56.74-3.68.33l-.07.05c.2,1.57-.04,3.12-1.6,4.25-1.85,1.35-4.46.7-6.27-1.79-1.7-2.34-1.66-5.05.25-6.43Zm4.27,5.63c1.04-.75.7-2.04.25-3.96-.84-.18-1.79-.08-2.52.45-1.03.75-1.04,2.01-.32,3,.65.89,1.61,1.22,2.59.51Zm5.31-4.12c.91-.66,1.13-1.63.48-2.52-.52-.72-1.4-.98-2.3-.32-.95.69-.82,1.84-.43,3.38.88.07,1.63-.09,2.25-.53Z"/>
    <path class="cls-2" d="m354.7,188.97l-3.82-5.26,2.28-1.66,5.93,8.17-1.67,1.21c-5.25-.35-7.74.89-12.47,4l-1.98-2.73c4.06-2.62,7.04-3.72,11.73-3.73Z"/>
    <path class="cls-2" d="m368.98,168.45c4.39-3.19,8.02-2.34,9.81.12,1.13,1.55,1.3,3.16,1.08,4.46l-2.67-.26c.16-.73.02-1.75-.48-2.43-.99-1.37-2.82-1.69-5.94.59-2.91,2.12-3.11,3.66-2.39,4.65.58.8,1.64,1.07,2.97.1,1.24-.9,1.23-1.9.59-2.78-.45-.61-1.28-1.04-2.59-.91l1.69-1.41c1.33-.04,2.64.68,3.2,1.45,1.46,2.01,1.4,4.33-1.09,6.13-2.44,1.77-5.22,1.08-6.77-1.05-1.65-2.27-1.53-5.67,2.59-8.67Z"/>
    <path class="cls-2" d="m385.57,155.14l2.6-.02c-.14,1.17-.06,2.39.67,3.39.87,1.2,2.07,1.51,3.27.63,1.17-.85,1.27-2.07.48-3.16-.49-.68-.9-.93-1.86-1.3l-.1-1.78,6.16-3.98,4.83,6.66-2.28,1.66-3.13-4.31-2.34,1.41c.51.31.87.63,1.22,1.11,1.47,2.03,1.57,4.57-.93,6.38-2.6,1.89-5.56.96-7.23-1.33-1.39-1.92-1.61-3.75-1.36-5.35Z"/>
    <path class="cls-2" d="m415.95,138.61c.75-.54,1.93-1.3,2.71-1.8l-.05-.07c-.88.19-1.77.33-2.68.48l-3.68.32,4.62,6.36-2.07,1.5-6.51-8.96,1.88-1.36,10.17-.84,2.41,3.32-11.74,8.52-1.84-2.53,6.79-4.93Z"/>
    <path class="cls-2" d="m429.95,119.47h2.63c-.16,1.22-.03,2.46.68,3.44.83,1.15,1.89,1.55,2.79.89,1.03-.75,1.23-1.81-.63-4.36l1.93-1.4c1.53,2.11,2.65,2.31,3.58,1.63.83-.6.91-1.46.24-2.39-.61-.83-1.44-1.19-2.62-1.45l.66-2.58c1.71.41,3.15,1.17,4.18,2.6,1.77,2.44,1.78,4.89-.28,6.39-1.21.88-2.58.81-4.03-.06l-.07.05c.6,1.64.36,3.32-1.16,4.42-2.18,1.59-4.87.48-6.59-1.88-1.38-1.9-1.67-3.72-1.31-5.3Z"/>
    <path class="cls-2" d="m452.28,104.67c4.99.94,8.53,1.58,10.21.36,1.13-.82,1.3-1.91.55-2.94-.61-.83-1.66-1.08-2.71-1.22l.4-2.54c2.07.26,3.49.9,4.71,2.58,1.68,2.31,1.35,4.96-.91,6.61-1.98,1.44-5.42,1.12-8.81.64.51.56,1.17,1.32,1.56,1.87l1.72,2.36-2.28,1.66-6-8.25,1.56-1.13Z"/>
    <path class="cls-2" d="m474.35,86.81l1.86,2.57,6.79-4.93-1.6-2.2,1.69-1.22c1.15,1.09,2.08,1.68,3.18,2.14l1.46,2-9.54,6.93,1.6,2.2-2.19,1.59-5.43-7.48,2.19-1.59Z"/>
    <g>
      <path class="cls-1" d="m585.06,7.37h4.42v7.53h6.75v-7.53h4.42v19.55h-4.42v-8.16h-6.75v8.16h-4.42V7.37Z"/>
      <path class="cls-1" d="m604.23,22.79c0-3.14,2.49-4.83,8.38-5.45-.09-1.3-.74-2.15-2.35-2.15-1.25,0-2.49.53-3.94,1.34l-1.57-2.9c1.89-1.15,4.02-1.96,6.36-1.96,3.8,0,5.91,2.17,5.91,6.73v8.51h-3.6l-.32-1.52h-.11c-1.25,1.1-2.66,1.88-4.33,1.88-2.71,0-4.44-1.98-4.44-4.49Zm8.38-.2v-2.6c-3.14.42-4.16,1.32-4.16,2.44,0,.96.66,1.43,1.71,1.43s1.67-.49,2.45-1.27Z"/>
      <path class="cls-1" d="m620.72,12.04h3.6l.32,1.88h.11c1.25-1.2,2.75-2.24,4.78-2.24,3.24,0,4.62,2.28,4.62,6v9.24h-4.41v-8.67c0-2.14-.57-2.81-1.85-2.81-1.11,0-1.79.51-2.75,1.45v10.04h-4.41v-14.88Z"/>
      <path class="cls-1" d="m637.88,12.04h3.6l.32,1.88h.11c1.25-1.2,2.75-2.24,4.78-2.24,3.24,0,4.62,2.28,4.62,6v9.24h-4.41v-8.67c0-2.14-.58-2.81-1.85-2.81-1.11,0-1.79.51-2.75,1.45v10.04h-4.41v-14.88Z"/>
      <path class="cls-1" d="m654.18,19.48c0-4.95,3.48-7.81,7.25-7.81s7.25,2.86,7.25,7.81-3.48,7.8-7.25,7.8-7.25-2.86-7.25-7.8Zm9.98,0c0-2.58-.91-4.25-2.73-4.25s-2.73,1.67-2.73,4.25.91,4.24,2.73,4.24,2.73-1.66,2.73-4.24Z"/>
      <path class="cls-1" d="m669.87,12.04h4.43l1.94,7.03c.38,1.48.77,3.02,1.15,4.57h.12c.38-1.56.77-3.1,1.15-4.57l1.94-7.03h4.22l-4.86,14.88h-5.08l-5.02-14.88Z"/>
      <path class="cls-1" d="m686.04,19.48c0-4.83,3.44-7.81,7.02-7.81,4.24,0,6.34,3.08,6.34,7.14,0,.79-.1,1.59-.18,1.95h-8.9c.4,2.16,1.87,3.15,3.86,3.15,1.13,0,2.14-.34,3.22-.97l1.46,2.66c-1.52,1.06-3.52,1.68-5.28,1.68-4.24,0-7.53-2.87-7.53-7.8Zm9.59-1.63c0-1.64-.71-2.81-2.47-2.81-1.39,0-2.6.93-2.9,2.81h5.37Z"/>
      <path class="cls-1" d="m702.44,12.04h3.6l.32,2.6h.11c1.08-1.99,2.71-2.96,4.23-2.96.85,0,1.34.11,1.78.3l-.73,3.81c-.53-.13-.97-.24-1.61-.24-1.12,0-2.48.72-3.28,2.75v8.62h-4.41v-14.88Z"/>
      <path class="cls-1" d="m720.75,7.37h5.53c5.97,0,9.82,2.97,9.82,9.69s-3.85,9.86-9.57,9.86h-5.78V7.37Zm5.26,15.99c3.32,0,5.56-1.63,5.56-6.3s-2.24-6.13-5.56-6.13h-.84v12.43h.84Z"/>
      <path class="cls-1" d="m738.57,19.48c0-4.83,3.45-7.81,7.02-7.81,4.24,0,6.34,3.08,6.34,7.14,0,.79-.1,1.59-.18,1.95h-8.9c.4,2.16,1.87,3.15,3.86,3.15,1.12,0,2.14-.34,3.22-.97l1.46,2.66c-1.52,1.06-3.52,1.68-5.28,1.68-4.24,0-7.53-2.87-7.53-7.8Zm9.59-1.63c0-1.64-.71-2.81-2.47-2.81-1.39,0-2.6.93-2.9,2.81h5.37Z"/>
      <path class="cls-1" d="m754.11,19.48c0-4.95,3.64-7.81,7.75-7.81,1.83,0,3.24.65,4.35,1.6l-2.08,2.84c-.71-.6-1.31-.88-2.02-.88-2.12,0-3.48,1.67-3.48,4.25s1.42,4.24,3.33,4.24c.98,0,1.91-.48,2.68-1.1l1.73,2.88c-1.45,1.28-3.29,1.77-4.91,1.77-4.15,0-7.36-2.86-7.36-7.8Z"/>
      <path class="cls-1" d="m768.98,5.9h4.31v12.04h.11l4.72-5.91h4.79l-5.21,6.13,5.61,8.75h-4.78l-3.35-5.8-1.89,2.14v3.66h-4.31V5.9Z"/>
    </g>
    <g>
      <path class="cls-2" d="m992.37,728.27l5.57-7.57,2.27,1.67-3.57,4.86,2.78,2.05,3.05-4.15,2.27,1.67-3.05,4.15,4.66,3.43-2,2.71-11.99-8.83Z"/>
      <path class="cls-2" d="m999.46,718.64l1.99-2.71,9.72,7.15,3.48-4.73,2.27,1.67-5.48,7.44-11.99-8.83Z"/>
      <path class="cls-2" d="m1006.47,709.11l5.53-7.51,2.27,1.67-3.54,4.8,2.41,1.77,3.01-4.09,2.27,1.67-3.01,4.09,2.76,2.03,3.67-4.99,2.27,1.67-5.66,7.7-11.99-8.83Z"/>
      <path class="cls-2" d="m1021.26,701.21l-8.12-1.17,2.22-3.02,3.03.63c.75.13,1.56.33,2.56.54l.05-.07c-.55-.83-.98-1.54-1.36-2.18l-1.57-2.62,2.13-2.89,3.65,7.5,8.48,1.13-2.22,3.02-3.32-.62c-.84-.15-1.66-.33-2.63-.55l-.05.07c.53.82.95,1.55,1.37,2.28l1.62,2.92-2.13,2.89-3.73-7.86Z"/>
      <path class="cls-2" d="m1028.22,695.12c-3.04-2.23-3.14-5.76-1.29-8.28.83-1.12,1.86-1.69,2.95-1.94l.8,2.56c-.69.16-1.13.41-1.45.84-.96,1.3-.55,2.89,1.03,4.05,1.58,1.16,3.24,1.04,4.1-.13.44-.6.57-1.39.54-2.14l2.55.24c.13,1.46-.4,2.82-1.13,3.81-1.88,2.55-5.07,3.22-8.1.99Z"/>
      <path class="cls-2" d="m1034.17,687.05c-3.04-2.23-3.21-5.66-1.52-7.97,1.7-2.31,5.03-3.16,8.06-.92,3.03,2.23,3.21,5.66,1.51,7.96-1.7,2.31-5.03,3.16-8.05.93Zm4.5-6.12c-1.58-1.16-3.01-1.36-3.84-.24-.82,1.12-.21,2.43,1.37,3.59,1.58,1.16,3.01,1.36,3.83.24.82-1.12.21-2.42-1.37-3.59Z"/>
      <path class="cls-2" d="m1037.5,672.95l1.62-2.21,1.3.66.05-.07c-.17-1.31-.13-2.7.78-3.95,1.46-1.99,3.48-1.8,5.76-.12l5.67,4.17-1.99,2.7-5.32-3.92c-1.31-.97-1.98-.92-2.56-.14-.5.68-.49,1.33-.36,2.34l6.16,4.53-1.99,2.7-9.13-6.72Z"/>
      <path class="cls-2" d="m1045.26,656.42l1.99-2.71,9.72,7.15,3.48-4.73,2.27,1.67-5.48,7.44-11.99-8.83Z"/>
      <path class="cls-2" d="m1061.25,654.5c-1.92-1.42-1.84-3.71.44-7.6-.84-.53-1.65-.52-2.38.47-.56.77-.8,1.77-.96,3.02l-2.48-.34c.14-1.68.61-3.35,1.67-4.78,1.72-2.33,4-2.64,6.8-.59l5.22,3.84-1.62,2.21-1.08-.49-.05.07c.11,1.27-.04,2.48-.8,3.51-1.23,1.66-3.22,1.83-4.76.69Zm3.66-5.23l-1.59-1.17c-1.15,2.11-1.07,3.15-.38,3.65.59.43,1.17.24,1.65-.4.45-.61.45-1.25.32-2.08Z"/>
      <path class="cls-2" d="m1062.1,639.53l1.62-2.21,1.3.66.05-.07c-.17-1.31-.13-2.7.78-3.95,1.46-1.99,3.48-1.8,5.77-.12l5.67,4.17-1.99,2.71-5.32-3.92c-1.31-.97-1.98-.92-2.56-.14-.5.68-.49,1.33-.36,2.34l6.16,4.53-1.99,2.7-9.13-6.72Z"/>
      <path class="cls-2" d="m1074.07,632.84c-2.99-2.2-3.42-5.39-2-7.31.74-1.01,1.57-1.34,2.6-1.54l-1.46-.92-3.11-2.29,1.99-2.7,12.89,9.49-1.62,2.21-1.05-.47-.05.07c.17,1.12-.01,2.38-.66,3.26-1.67,2.27-4.55,2.41-7.53.21Zm6.11-4.64l-3.75-2.76c-.78.16-1.32.59-1.69,1.09-.64.88-.4,2.24,1.33,3.52,1.79,1.32,3.05,1.29,3.83.25.42-.58.55-1.2.28-2.09Z"/>
      <path class="cls-2" d="m1074.7,616.66c-.83-.61-.93-1.7-.26-2.61s1.74-1.13,2.57-.52c.82.61.93,1.7.26,2.61-.67.91-1.74,1.13-2.56.53Zm2.9,1.81l1.99-2.7,9.13,6.72-1.99,2.7-9.13-6.72Z"/>
      <path class="cls-2" d="m1081.34,613.4l1.62-2.21,1.3.66.05-.07c-.17-1.31-.13-2.7.78-3.95,1.46-1.98,3.48-1.8,5.76-.12l5.67,4.17-1.99,2.7-5.32-3.92c-1.31-.97-1.98-.92-2.56-.14-.5.68-.49,1.33-.36,2.34l6.16,4.53-1.99,2.7-9.13-6.72Z"/>
      <path class="cls-2" d="m1099.36,611.31c-.76-.56-1.04-1.46-.88-2.65l-.07-.05c-.67.24-1.41.25-2.16-.31-.66-.48-.98-1.39-.96-2.28l-.07-.05c-.92.31-2.2.27-3.27-.52-2.19-1.61-1.97-4.24-.52-6.21.38-.51.82-.95,1.26-1.25l2.46-3.34,1.97,1.45-1.08,1.47c.4.03.95.22,1.43.58,2.1,1.54,1.89,3.85.42,5.85-.24.33-.58.67-1,.98.03.37.12.58.44.82.45.33.94.12,1.67-.87l1.09-1.48c1.65-2.24,3.25-2.98,4.88-1.78,1.9,1.4,1.82,4.39-.48,7.52-1.56,2.12-3.5,3.31-5.12,2.11Zm-3.73-10.88c-.97-.72-1.87-.56-2.4.15-.53.72-.41,1.62.57,2.34,1,.74,1.91.58,2.44-.13.53-.71.4-1.63-.6-2.37Zm7.89,4.17c-.58-.42-1.07-.03-1.73.87l-.7.95c-.46.63-.76.96-1.06,1.19.04.55.2.91.53,1.15.69.51,1.64-.03,2.54-1.25.9-1.22,1.05-2.45.42-2.91Z"/>
    </g>
    <g>
      <path class="cls-3" d="m715.87,1022.95h4.68c2.84,0,5.05.78,5.05,3.39,0,1.23-.69,2.53-1.8,2.95v.08c1.4.36,2.48,1.39,2.48,3.22,0,2.78-2.35,4.03-5.33,4.03h-5.07v-13.68Zm4.54,5.48c1.5,0,2.17-.63,2.17-1.63,0-1.05-.7-1.46-2.14-1.46h-1.47v3.09h1.45Zm.28,5.82c1.69,0,2.56-.6,2.56-1.84s-.86-1.69-2.56-1.69h-1.73v3.53h1.73Z"/>
      <path class="cls-3" d="m730.67,1025.55h-3.77v-2.59h10.63v2.59h-3.77v11.09h-3.09v-11.09Z"/>
      <path class="cls-3" d="m739.54,1027.89c1.26-.62,1.9-1.43,1.9-2.67l-.08-1.81,1.02,1.4c-.31.25-.71.45-1.13.45-.89,0-1.61-.59-1.61-1.54,0-1.05.67-1.72,1.61-1.72,1.29,0,1.97,1.01,1.97,2.74,0,1.98-.98,3.5-2.99,4.49l-.68-1.35Z"/>
      <path class="cls-3" d="m744.05,1035.43l1.39-1.92c.94.71,1.82,1.09,2.69,1.09.92,0,1.32-.35,1.32-.9,0-.69-1.03-1-2.1-1.42-1.28-.49-2.76-1.34-2.76-3.06,0-1.94,1.58-3.26,3.98-3.26,1.6,0,2.78.64,3.67,1.32l-1.38,1.85c-.74-.54-1.47-.89-2.19-.89-.8,0-1.19.31-1.19.83,0,.66.98.92,2.05,1.31,1.32.49,2.81,1.23,2.81,3.13s-1.49,3.36-4.28,3.36c-1.37,0-2.95-.6-4-1.46Z"/>
    </g>
    <g>
      <path class="cls-3" d="m880.79,897.16l1.86-2.47,4.21,3.17,2.84-3.77-4.21-3.17,1.86-2.47,10.93,8.24-1.86,2.47-4.56-3.44-2.84,3.77,4.56,3.44-1.86,2.47-10.93-8.24Z"/>
      <path class="cls-3" d="m897.48,892.95c-1.75-1.32-1.65-3.43.48-6.98-.76-.5-1.51-.49-2.19.41-.53.7-.76,1.62-.91,2.77l-2.28-.34c.15-1.54.6-3.07,1.58-4.38,1.6-2.13,3.71-2.39,6.25-.47l4.76,3.58-1.52,2.01-.99-.46-.05.06c.09,1.16-.07,2.28-.77,3.21-1.14,1.52-2.98,1.64-4.38.59Zm3.42-4.77l-1.45-1.1c-1.08,1.93-1.01,2.88-.38,3.35.54.4,1.08.23,1.52-.35.42-.56.43-1.14.32-1.91Z"/>
      <path class="cls-3" d="m898.42,879.2l1.52-2.01,1.59.92.05-.06c-.66-1.44-.51-2.76.13-3.61.36-.47.63-.71.92-.87l1.82,2.01c-.3.24-.54.44-.81.8-.47.63-.64,1.69.16,2.99l4.82,3.63-1.86,2.46-8.32-6.27Z"/>
      <path class="cls-3" d="m903.45,872.52l1.52-2.01.95.44.05-.06c-.09-1.09.11-2.27.77-3.14,1.52-2.01,4.11-1.99,6.68-.06,2.85,2.15,3.21,5.08,1.85,6.88-.54.72-1.36,1.15-2.36,1.33l1.38.91,2.44,1.84-1.86,2.46-11.4-8.6Zm8.08-2.28c-1.49-1.12-2.59-1.23-3.33-.24-.38.51-.48,1.11-.33,1.99l3.42,2.57c.73-.15,1.21-.51,1.53-.93.65-.86.44-2.09-1.28-3.39Z"/>
      <path class="cls-3" d="m914.49,866.53c-2.77-2.08-2.9-5.24-1.31-7.34,1.59-2.11,4.65-2.85,7.42-.76,2.76,2.08,2.89,5.23,1.3,7.34-1.59,2.11-4.65,2.85-7.41.77Zm4.2-5.58c-1.44-1.08-2.76-1.28-3.52-.26-.77,1.02-.22,2.23,1.22,3.32,1.44,1.09,2.75,1.28,3.52.26.77-1.02.22-2.23-1.22-3.31Z"/>
      <path class="cls-3" d="m921.51,857.23c-2.77-2.08-2.9-5.24-1.31-7.34,1.59-2.1,4.65-2.85,7.42-.76,2.76,2.08,2.89,5.23,1.3,7.34-1.59,2.11-4.65,2.85-7.41.77Zm4.2-5.58c-1.44-1.08-2.76-1.28-3.52-.26s-.22,2.23,1.22,3.32c1.44,1.08,2.75,1.28,3.52.26.77-1.02.22-2.22-1.22-3.31Z"/>
      <path class="cls-3" d="m924.73,844.3l1.52-2.01,1.19.62.05-.06c-.14-1.21-.09-2.48.76-3.62,1.36-1.81,3.22-1.62,5.3-.05l5.16,3.89-1.86,2.46-4.85-3.65c-1.2-.9-1.81-.86-2.35-.15-.47.62-.46,1.21-.35,2.15l5.61,4.23-1.86,2.46-8.32-6.27Z"/>
    </g>
    <g>
      <path class="cls-3" d="m1132.91,792.15h3.17l.95,6.39c.18,1.44.38,2.89.56,4.33h.08c.27-1.44.54-2.9.82-4.33l1.47-6.39h2.62l1.47,6.39c.27,1.39.55,2.87.82,4.33h.08c.18-1.46.37-2.92.55-4.33l.95-6.39h2.96l-2.43,13.68h-3.89l-1.34-6.21c-.22-1.06-.4-2.15-.55-3.18h-.08c-.17,1.02-.34,2.12-.56,3.18l-1.3,6.21h-3.82l-2.54-13.68Z"/>
      <path class="cls-3" d="m1150.45,800.63c0-3.46,2.44-5.46,5.07-5.46s5.07,2,5.07,5.46-2.44,5.46-5.07,5.46-5.07-2-5.07-5.46Zm6.98,0c0-1.8-.63-2.97-1.91-2.97s-1.91,1.17-1.91,2.97.63,2.97,1.91,2.97,1.91-1.16,1.91-2.97Z"/>
      <path class="cls-3" d="m1162.71,795.42h2.52l.22,1.82h.08c.76-1.39,1.9-2.07,2.96-2.07.59,0,.94.08,1.24.21l-.51,2.66c-.37-.09-.68-.17-1.12-.17-.79,0-1.74.51-2.29,1.93v6.04h-3.09v-10.42Z"/>
      <path class="cls-3" d="m1171.07,795.42h2.52l.22,1.34h.08c.85-.86,1.79-1.59,3.16-1.59,1.46,0,2.35.63,2.88,1.75.92-.96,1.89-1.75,3.27-1.75,2.25,0,3.26,1.6,3.26,4.2v6.47h-3.09v-6.07c0-1.5-.41-1.97-1.29-1.97-.52,0-1.12.33-1.77,1.01v7.03h-3.09v-6.07c0-1.5-.41-1.97-1.29-1.97-.52,0-1.12.33-1.77,1.01v7.03h-3.09v-10.42Z"/>
      <path class="cls-3" d="m1189.48,802.05v-4.21h-1.42v-2.3l1.6-.12.36-2.77h2.55v2.77h2.5v2.42h-2.5v4.17c0,1.18.54,1.65,1.35,1.65.34,0,.72-.1.99-.2l.49,2.24c-.55.18-1.3.38-2.32.38-2.57,0-3.6-1.62-3.6-4.04Z"/>
      <path class="cls-3" d="m1196.12,800.63c0-3.46,2.44-5.46,5.07-5.46s5.07,2,5.07,5.46-2.44,5.46-5.07,5.46-5.07-2-5.07-5.46Zm6.98,0c0-1.8-.63-2.97-1.91-2.97s-1.91,1.17-1.91,2.97.63,2.97,1.91,2.97,1.91-1.16,1.91-2.97Z"/>
      <path class="cls-3" d="m1207.36,795.42h3.07l1,4.82c.18,1.03.3,2.04.47,3.1h.08c.18-1.05.37-2.1.62-3.1l1.14-4.82h2.68l1.17,4.82c.25,1.03.43,2.04.65,3.1h.08c.18-1.05.3-2.07.48-3.1l.99-4.82h2.85l-2.49,10.42h-3.62l-.96-4.16c-.19-.97-.37-1.92-.56-3.05h-.08c-.18,1.12-.33,2.09-.53,3.05l-.91,4.16h-3.53l-2.61-10.42Z"/>
      <path class="cls-3" d="m1224.51,795.42h2.52l.22,1.32h.08c.88-.84,1.93-1.57,3.35-1.57,2.27,0,3.23,1.6,3.23,4.2v6.47h-3.09v-6.07c0-1.5-.4-1.97-1.29-1.97-.78,0-1.25.36-1.93,1.01v7.03h-3.09v-10.42Z"/>
      <path class="cls-3" d="m1134.24,817.35h4.68c2.84,0,5.05.78,5.05,3.39,0,1.23-.69,2.53-1.8,2.95v.08c1.4.36,2.48,1.39,2.48,3.22,0,2.78-2.35,4.03-5.33,4.03h-5.07v-13.68Zm4.54,5.48c1.5,0,2.17-.63,2.17-1.63,0-1.05-.7-1.46-2.14-1.46h-1.47v3.09h1.45Zm.28,5.82c1.69,0,2.56-.6,2.56-1.84s-.86-1.69-2.56-1.69h-1.73v3.53h1.73Z"/>
      <path class="cls-3" d="m1146.69,820.62h2.52l.22,1.82h.08c.76-1.39,1.9-2.07,2.96-2.07.59,0,.94.08,1.24.21l-.51,2.66c-.37-.09-.68-.17-1.12-.17-.79,0-1.74.51-2.29,1.93v6.04h-3.09v-10.42Z"/>
      <path class="cls-3" d="m1154.23,825.83c0-3.38,2.41-5.46,4.91-5.46,2.97,0,4.44,2.16,4.44,5,0,.56-.07,1.11-.13,1.36h-6.23c.28,1.51,1.31,2.2,2.7,2.2.79,0,1.5-.24,2.25-.68l1.02,1.86c-1.07.74-2.46,1.17-3.7,1.17-2.97,0-5.27-2.01-5.27-5.46Zm6.71-1.14c0-1.15-.5-1.97-1.73-1.97-.98,0-1.82.65-2.03,1.97h3.76Z"/>
      <path class="cls-3" d="m1164.73,820.62h3.07l1,4.82c.18,1.03.3,2.04.47,3.1h.08c.18-1.05.37-2.1.62-3.1l1.14-4.82h2.68l1.17,4.82c.25,1.03.43,2.04.65,3.1h.08c.18-1.05.3-2.07.48-3.1l.99-4.82h2.85l-2.49,10.42h-3.62l-.96-4.16c-.19-.97-.37-1.92-.56-3.05h-.08c-.18,1.12-.33,2.09-.53,3.05l-.91,4.16h-3.53l-2.61-10.42Z"/>
      <path class="cls-3" d="m1181.11,825.83c0-3.38,2.41-5.46,4.91-5.46,2.97,0,4.44,2.16,4.44,5,0,.56-.07,1.11-.13,1.36h-6.23c.28,1.51,1.31,2.2,2.7,2.2.79,0,1.5-.24,2.25-.68l1.02,1.86c-1.07.74-2.46,1.17-3.7,1.17-2.97,0-5.27-2.01-5.27-5.46Zm6.71-1.14c0-1.15-.5-1.97-1.73-1.97-.98,0-1.82.65-2.03,1.97h3.76Z"/>
      <path class="cls-3" d="m1192.59,820.62h2.52l.22,1.82h.08c.76-1.39,1.9-2.07,2.96-2.07.59,0,.94.08,1.24.21l-.51,2.66c-.37-.09-.68-.17-1.12-.17-.79,0-1.74.51-2.29,1.93v6.04h-3.09v-10.42Z"/>
      <path class="cls-3" d="m1200.78,834.9l.55-2.35c.19.05.48.13.7.13,1.02,0,1.55-.56,1.82-1.37l.16-.54-4.02-10.15h3.1l1.49,4.48c.3.94.55,1.93.82,2.95h.08c.23-.99.46-1.97.72-2.95l1.26-4.48h2.96l-3.62,10.53c-.99,2.61-2.1,3.96-4.55,3.96-.65,0-1.06-.08-1.49-.21Z"/>
    </g>
    <g>
      <path class="cls-3" d="m1293.78,588.15h3.7l4.3,13.68h-3.27l-1.79-6.93c-.38-1.37-.75-2.99-1.11-4.41h-.08c-.33,1.44-.7,3.04-1.08,4.41l-1.8,6.93h-3.16l4.3-13.68Zm-1.46,8.02h6.58v2.4h-6.58v-2.4Z"/>
      <path class="cls-3" d="m1309.98,590.75h-3.77v-2.59h10.63v2.59h-3.77v11.09h-3.09v-11.09Z"/>
      <path class="cls-3" d="m1316.9,598.95c0-2.19,1.75-3.38,5.87-3.82-.06-.91-.52-1.51-1.65-1.51-.88,0-1.75.37-2.76.94l-1.1-2.03c1.32-.81,2.81-1.37,4.45-1.37,2.66,0,4.14,1.52,4.14,4.71v5.96h-2.52l-.22-1.07h-.08c-.88.77-1.86,1.32-3.03,1.32-1.9,0-3.1-1.39-3.1-3.14Zm5.87-.14v-1.82c-2.19.3-2.91.92-2.91,1.71,0,.67.46,1,1.2,1s1.17-.35,1.71-.89Z"/>
      <path class="cls-3" d="m1327.52,600.63l1.39-1.92c.94.71,1.82,1.09,2.69,1.09.92,0,1.32-.35,1.32-.9,0-.69-1.03-1-2.1-1.42-1.28-.49-2.76-1.34-2.76-3.06,0-1.94,1.58-3.26,3.98-3.26,1.6,0,2.78.64,3.67,1.32l-1.38,1.85c-.74-.54-1.47-.89-2.19-.89-.8,0-1.19.31-1.19.83,0,.67.98.92,2.05,1.31,1.32.49,2.81,1.23,2.81,3.13s-1.49,3.36-4.28,3.36c-1.37,0-2.94-.59-4-1.46Z"/>
      <path class="cls-3" d="m1337.74,598.05v-4.21h-1.42v-2.3l1.6-.12.36-2.77h2.55v2.77h2.5v2.42h-2.5v4.17c0,1.18.54,1.65,1.35,1.65.34,0,.72-.1.99-.2l.49,2.24c-.55.18-1.3.38-2.31.38-2.57,0-3.6-1.62-3.6-4.04Z"/>
      <path class="cls-3" d="m1344.39,596.63c0-3.38,2.41-5.46,4.91-5.46,2.97,0,4.44,2.16,4.44,5,0,.56-.07,1.11-.13,1.36h-6.23c.28,1.51,1.31,2.2,2.7,2.2.79,0,1.5-.24,2.25-.68l1.02,1.86c-1.07.74-2.46,1.17-3.7,1.17-2.97,0-5.27-2.01-5.27-5.46Zm6.71-1.14c0-1.15-.5-1.97-1.73-1.97-.97,0-1.82.65-2.03,1.97h3.76Z"/>
      <path class="cls-3" d="m1359.46,596.63c0-3.46,2.44-5.46,5.07-5.46s5.07,2,5.07,5.46-2.44,5.46-5.07,5.46-5.07-2-5.07-5.46Zm6.98,0c0-1.8-.63-2.97-1.91-2.97s-1.91,1.17-1.91,2.97.63,2.97,1.91,2.97,1.91-1.16,1.91-2.97Z"/>
      <path class="cls-3" d="m1370.77,591.54l1.56-.12h4.79v2.42h-6.35v-2.3Zm1.39-.66c0-2.2,1.02-4,3.83-4,.87,0,1.62.2,2.08.37l-.56,2.28c-.35-.14-.74-.22-1.08-.22-.75,0-1.19.41-1.19,1.49v11.05h-3.09v-10.96Z"/>
      <path class="cls-3" d="m1289.91,613.35h3.17l.95,6.39c.18,1.44.38,2.89.56,4.33h.08c.27-1.44.54-2.9.81-4.33l1.47-6.39h2.62l1.47,6.39c.27,1.39.55,2.87.82,4.33h.08c.18-1.46.37-2.92.55-4.33l.95-6.39h2.96l-2.43,13.68h-3.89l-1.34-6.21c-.22-1.06-.4-2.15-.55-3.18h-.08c-.17,1.02-.34,2.12-.56,3.18l-1.3,6.21h-3.82l-2.54-13.68Z"/>
      <path class="cls-3" d="m1307.45,621.83c0-3.46,2.44-5.46,5.07-5.46s5.07,2,5.07,5.46-2.44,5.46-5.07,5.46-5.07-2-5.07-5.46Zm6.99,0c0-1.8-.63-2.97-1.91-2.97s-1.91,1.17-1.91,2.97.63,2.97,1.91,2.97,1.91-1.16,1.91-2.97Z"/>
      <path class="cls-3" d="m1319.71,616.62h2.52l.22,1.82h.08c.76-1.39,1.9-2.07,2.96-2.07.59,0,.94.08,1.24.21l-.51,2.66c-.37-.09-.68-.17-1.12-.17-.79,0-1.74.51-2.29,1.93v6.04h-3.09v-10.42Z"/>
      <path class="cls-3" d="m1327.25,621.83c0-3.46,2.55-5.46,5.43-5.46,1.28,0,2.27.46,3.04,1.12l-1.46,1.98c-.5-.42-.92-.62-1.41-.62-1.48,0-2.44,1.17-2.44,2.97s.99,2.97,2.33,2.97c.68,0,1.34-.34,1.88-.77l1.21,2.02c-1.01.89-2.3,1.24-3.43,1.24-2.91,0-5.15-2-5.15-5.46Z"/>
      <path class="cls-3" d="m1336.47,621.83c0-3.38,2.41-5.46,4.91-5.46,2.97,0,4.44,2.16,4.44,5,0,.56-.07,1.11-.13,1.36h-6.23c.28,1.51,1.31,2.2,2.7,2.2.79,0,1.5-.24,2.25-.68l1.02,1.86c-1.07.74-2.46,1.17-3.7,1.17-2.97,0-5.27-2.01-5.27-5.46Zm6.71-1.14c0-1.15-.5-1.97-1.73-1.97-.98,0-1.82.65-2.03,1.97h3.76Z"/>
      <path class="cls-3" d="m1347.03,625.83l1.39-1.92c.94.71,1.81,1.09,2.69,1.09.92,0,1.32-.35,1.32-.9,0-.69-1.03-1-2.1-1.42-1.28-.49-2.76-1.34-2.76-3.06,0-1.94,1.58-3.26,3.98-3.26,1.6,0,2.79.64,3.67,1.32l-1.38,1.85c-.74-.54-1.47-.89-2.19-.89-.8,0-1.19.31-1.19.83,0,.67.98.92,2.05,1.31,1.32.49,2.81,1.23,2.81,3.13s-1.49,3.36-4.28,3.36c-1.37,0-2.94-.59-4-1.46Z"/>
      <path class="cls-3" d="m1357.25,623.25v-4.21h-1.42v-2.3l1.6-.12.36-2.77h2.55v2.77h2.5v2.42h-2.5v4.17c0,1.18.54,1.65,1.35,1.65.34,0,.72-.1.99-.2l.49,2.24c-.55.18-1.3.38-2.32.38-2.57,0-3.6-1.62-3.6-4.04Z"/>
      <path class="cls-3" d="m1363.9,621.83c0-3.38,2.41-5.46,4.91-5.46,2.97,0,4.44,2.16,4.44,5,0,.56-.07,1.11-.13,1.36h-6.23c.28,1.51,1.31,2.2,2.7,2.2.79,0,1.5-.24,2.25-.68l1.02,1.86c-1.07.74-2.46,1.17-3.7,1.17-2.97,0-5.27-2.01-5.27-5.46Zm6.71-1.14c0-1.15-.5-1.97-1.73-1.97-.98,0-1.82.65-2.03,1.97h3.76Z"/>
      <path class="cls-3" d="m1375.38,616.62h2.52l.22,1.82h.08c.76-1.39,1.9-2.07,2.96-2.07.6,0,.94.08,1.24.21l-.51,2.66c-.37-.09-.68-.17-1.12-.17-.79,0-1.74.51-2.29,1.93v6.04h-3.09v-10.42Z"/>
    </g>
    <g id="Family">
      <g id="Man">
        <rect class="cls-2" x="253.03" y="813.44" width="5.66" height="5.66" rx="2.83" ry="2.83" transform="translate(-502.25 420) rotate(-45)"/>
        <polygon class="cls-2" points="255.86 820.4 251.86 820.4 251.86 830.27 259.86 830.27 259.86 820.4 255.86 820.4"/>
        <rect class="cls-2" x="253.33" y="831.95" width="1.05" height="6.32"/>
        <rect class="cls-2" x="257.33" y="831.95" width="1.05" height="6.32"/>
      </g>
      <g id="Woman">
        <rect class="cls-2" x="281.03" y="813.44" width="5.66" height="5.66" rx="2.83" ry="2.83" transform="translate(-494.05 439.8) rotate(-45)"/>
        <polygon class="cls-2" points="281.86 820.4 279.86 830.27 287.86 830.27 285.86 820.4 281.86 820.4"/>
        <rect class="cls-2" x="281.33" y="831.95" width="1.05" height="6.32"/>
        <rect class="cls-2" x="285.33" y="831.95" width="1.05" height="6.32"/>
      </g>
      <g id="Boy">
        <path class="cls-2" d="m273.36,820.87h0c-.83.8-.83,2.1,0,2.9h0c.83.8,2.17.8,3,0h0c.83-.8.83-2.1,0-2.9h0c-.83-.8-2.17-.8-3,0Z"/>
        <polygon class="cls-2" points="274.86 825.32 271.86 825.32 271.86 832.47 277.86 832.47 277.86 825.32 274.86 825.32"/>
        <rect class="cls-2" x="272.96" y="833.69" width=".79" height="4.58"/>
        <rect class="cls-2" x="275.96" y="833.69" width=".79" height="4.58"/>
      </g>
      <g id="Girl">
        <path class="cls-2" d="m263.36,820.87h0c-.83.8-.83,2.1,0,2.9h0c.83.8,2.17.8,3,0h0c.83-.8.83-2.1,0-2.9h0c-.83-.8-2.17-.8-3,0Z"/>
        <polygon class="cls-2" points="263.36 825.32 261.86 832.47 267.86 832.47 266.36 825.32 263.36 825.32"/>
        <rect class="cls-2" x="262.96" y="833.69" width=".79" height="4.58"/>
        <rect class="cls-2" x="265.96" y="833.69" width=".79" height="4.58"/>
      </g>
    </g>
    <g id="Girl-2" data-name="Girl">
      <path class="cls-2" d="m63.05,686.88h0c-.82.8-.82,2.1,0,2.9h0c.82.8,2.17.8,3,0h0c.82-.8.82-2.1,0-2.9h0c-.82-.8-2.17-.8-3,0Z"/>
      <polygon class="cls-2" points="63.05 691.32 61.55 698.48 67.55 698.48 66.05 691.32 63.05 691.32"/>
      <rect class="cls-2" x="62.66" y="699.7" width=".79" height="4.58"/>
      <rect class="cls-2" x="65.66" y="699.7" width=".79" height="4.58"/>
    </g>
    <g id="Boy-2" data-name="Boy">
      <path class="cls-2" d="m63.05,652.88h0c-.83.8-.83,2.1,0,2.9h0c.83.8,2.17.8,3,0h0c.83-.8.83-2.1,0-2.9h0c-.83-.8-2.17-.8-3,0Z"/>
      <polygon class="cls-2" points="64.55 657.32 61.55 657.32 61.55 664.48 67.55 664.48 67.55 657.32 64.55 657.32"/>
      <rect class="cls-2" x="62.66" y="665.7" width=".79" height="4.58"/>
      <rect class="cls-2" x="65.66" y="665.7" width=".79" height="4.58"/>
    </g>
    <g id="Boy-3" data-name="Boy">
      <path class="cls-2" d="m829.68,968.74h0c-.83.8-.83,2.1,0,2.9h0c.83.8,2.17.8,3,0h0c.83-.8.83-2.1,0-2.9h0c-.83-.8-2.17-.8-3,0Z"/>
      <polygon class="cls-2" points="831.18 973.18 828.18 973.18 828.18 980.34 834.18 980.34 834.18 973.18 831.18 973.18"/>
      <rect class="cls-2" x="829.29" y="981.55" width=".79" height="4.58"/>
      <rect class="cls-2" x="832.29" y="981.55" width=".79" height="4.58"/>
    </g>
    <g id="Girl-3" data-name="Girl">
      <path class="cls-2" d="m869.68,917.73h0c-.82.8-.82,2.1,0,2.9h0c.82.8,2.17.8,3,0h0c.82-.8.82-2.1,0-2.9h0c-.82-.8-2.17-.8-3,0Z"/>
      <polygon class="cls-2" points="869.68 922.18 868.18 929.33 874.18 929.33 872.68 922.18 869.68 922.18"/>
      <rect class="cls-2" x="869.29" y="930.55" width=".79" height="4.58"/>
      <rect class="cls-2" x="872.29" y="930.55" width=".79" height="4.58"/>
    </g>
  </g>
</svg>