<?xml version="1.0" encoding="UTF-8"?>
<svg xmlns="http://www.w3.org/2000/svg">
  <defs>
    <style>
      .cls-1 {
        fill: #ff0;
      }

      .cls-1, .cls-2, .cls-3, .cls-4, .cls-5 {
        stroke-miterlimit: 10;
      }

      .cls-1, .cls-2, .cls-4, .cls-5 {
        stroke: #fff;
      }

      .cls-1, .cls-4, .cls-5 {
        stroke-width: 3px;
      }

      .cls-6, .cls-7, .cls-8 {
        stroke-width: 0px;
      }

      .cls-2 {
        fill: blue;
      }

      .cls-3 {
        fill: #9e005d;
        stroke: #000;
      }

      .cls-4 {
        fill: #f7931e;
      }

      .cls-7 {
        fill: #fff;
      }

      .cls-8 {
        fill: #092440;
      }

      .cls-5 {
        fill: gray;
      }
    </style>
  </defs>
  <g id="Building">
    <polyline class="cls-5" points="110.36 250.52 85.32 275.56 2.11 205.85 43.36 156.52 54.84 165.71 129.36 228.52 110.36 250.52"/>
    <path class="cls-2" d="m22.49,186.3h0c-1.7,1.71-1.7,4.47,0,6.17h0c1.7,1.7,4.46,1.7,6.17,0h0c1.67-1.68,1.71-4.39.07-6.1h0c-1.69-1.77-4.51-1.8-6.24-.07Z"/>
  </g>
  <g id="Store">
    <polygon class="cls-1" points="2.11 205.85 2.11 1.5 66.64 1.5 66.36 175.52 54.84 165.71 43.36 156.52 2.11 205.85"/>
  </g>
  <g id="Elevators_and_Stairs" data-name="Elevators and Stairs">
    <polygon class="cls-4" points="54.84 165.71 91.53 194.51 70.6 219.13 34.36 190.52 54.84 165.71"/>
    <polygon class="cls-4" points="90.36 196.52 105.36 208.52 129.36 228.52 110.36 250.52 70.6 219.13 90.36 196.52"/>
    <g id="Elevator">
      <rect class="cls-6" x="48.64" y="179.85" width="26" height="26" rx="4" ry="4"/>
      <polygon class="cls-7" points="56.64 186.85 60.63 186.85 58.64 182.85 56.64 186.85"/>
      <polygon class="cls-7" points="66.63 182.85 62.64 182.85 64.63 186.85 66.63 182.85"/>
      <rect class="cls-7" x="55.22" y="189.44" width="2.83" height="2.83" rx="1.41" ry="1.41" transform="translate(-118.37 95.95) rotate(-45)"/>
      <polyline class="cls-7" points="53.64 192.85 59.64 192.85 59.64 198.85 57.64 202.85 55.64 202.85 53.64 198.85 53.64 192.85"/>
      <rect class="cls-7" x="65.22" y="189.44" width="2.83" height="2.83" rx="1.41" ry="1.41" transform="translate(-115.44 103.02) rotate(-45)"/>
      <polyline class="cls-7" points="63.64 192.85 69.64 192.85 69.64 198.85 67.64 202.85 65.64 202.85 63.64 198.85 63.64 192.85"/>
    </g>
    <g id="Stairs">
      <rect class="cls-6" x="87.36" y="211.52" width="26" height="26" rx="4" ry="4"/>
      <polygon class="cls-7" points="91.36 217.52 95.36 217.52 95.36 221.52 99.36 221.52 99.36 225.52 103.36 225.52 103.36 229.52 107.36 229.52 107.36 233.52 91.36 233.52 91.36 217.52"/>
    </g>
  </g>
  <g id="Layer_9" data-name="Layer 9">
    <polygon id="Arrow" class="cls-3" points="2.11 275.96 13.4 287.24 36.49 264.15 45.36 273.02 45.15 243.52 15.3 243.67 24.85 253.22 2.11 275.96"/>
    <g>
      <path class="cls-3" d="m24.66,290.55c0-4.33,2.87-6.83,6.35-6.83,1.89,0,3.24.81,4.11,1.69l-1.55,1.89c-.65-.6-1.34-1.04-2.46-1.04-2.01,0-3.43,1.58-3.43,4.19s1.21,4.24,3.67,4.24c.52,0,1.06-.14,1.38-.39v-2.25h-2.16v-2.41h4.78v6.01c-.9.88-2.48,1.58-4.3,1.58-3.59,0-6.39-2.29-6.39-6.68Z"/>
      <path class="cls-3" d="m37.34,294.24c0-2.09,1.66-3.22,5.59-3.64-.06-.87-.49-1.43-1.57-1.43-.83,0-1.66.35-2.63.9l-1.04-1.93c1.26-.77,2.68-1.31,4.24-1.31,2.54,0,3.94,1.45,3.94,4.49v5.67h-2.4l-.21-1.02h-.07c-.84.73-1.77,1.26-2.89,1.26-1.81,0-2.96-1.32-2.96-2.99Zm5.59-.13v-1.73c-2.09.28-2.77.88-2.77,1.63,0,.64.44.95,1.14.95s1.11-.33,1.63-.85Z"/>
      <path class="cls-3" d="m48.37,293.39v-4.01h-1.36v-2.19l1.52-.11.34-2.64h2.43v2.64h2.38v2.31h-2.38v3.97c0,1.12.51,1.58,1.29,1.58.33,0,.68-.09.94-.19l.46,2.14c-.53.17-1.24.36-2.21.36-2.45,0-3.43-1.55-3.43-3.85Z"/>
      <path class="cls-3" d="m54.7,292.04c0-3.22,2.3-5.21,4.68-5.21,2.83,0,4.23,2.05,4.23,4.76,0,.53-.07,1.06-.12,1.3h-5.94c.26,1.44,1.25,2.1,2.57,2.1.75,0,1.43-.23,2.15-.65l.97,1.77c-1.02.7-2.34,1.12-3.52,1.12-2.83,0-5.02-1.91-5.02-5.2Zm6.4-1.09c0-1.09-.48-1.88-1.65-1.88-.93,0-1.73.62-1.93,1.88h3.58Z"/>
      <path class="cls-3" d="m69.88,283.96h3.69c3.98,0,6.55,1.98,6.55,6.46s-2.57,6.58-6.38,6.58h-3.85v-13.04Zm3.51,10.67c2.21,0,3.71-1.08,3.71-4.2s-1.49-4.09-3.71-4.09h-.56v8.29h.56Z"/>
    </g>
    <g>
      <path class="cls-8" d="m13,61.45h-3.59v-2.47h10.12v2.47h-3.59v10.57h-2.95v-10.57Z"/>
      <path class="cls-8" d="m19.23,67.05c0-3.22,2.3-5.21,4.68-5.21,2.83,0,4.23,2.05,4.23,4.76,0,.53-.07,1.06-.12,1.3h-5.94c.26,1.44,1.25,2.1,2.57,2.1.75,0,1.43-.23,2.15-.65l.97,1.77c-1.02.7-2.34,1.12-3.52,1.12-2.83,0-5.02-1.91-5.02-5.2Zm6.4-1.09c0-1.09-.48-1.88-1.65-1.88-.93,0-1.73.62-1.93,1.88h3.58Z"/>
      <path class="cls-8" d="m29.49,69.26c0-2.09,1.66-3.22,5.59-3.64-.06-.87-.49-1.43-1.57-1.43-.83,0-1.66.35-2.63.9l-1.04-1.93c1.26-.77,2.68-1.31,4.24-1.31,2.54,0,3.94,1.45,3.94,4.49v5.67h-2.4l-.21-1.02h-.07c-.84.73-1.77,1.26-2.89,1.26-1.81,0-2.96-1.32-2.96-2.99Zm5.59-.13v-1.73c-2.09.28-2.77.88-2.77,1.63,0,.64.44.95,1.14.95s1.11-.33,1.63-.85Z"/>
      <path class="cls-8" d="m40.49,62.09h2.4l.21,1.27h.07c.81-.82,1.7-1.51,3.01-1.51,1.4,0,2.24.6,2.74,1.67.87-.91,1.81-1.67,3.12-1.67,2.14,0,3.1,1.52,3.1,4v6.16h-2.94v-5.78c0-1.43-.39-1.88-1.23-1.88-.5,0-1.06.31-1.69.96v6.7h-2.94v-5.78c0-1.43-.39-1.88-1.23-1.88-.49,0-1.06.31-1.69.96v6.7h-2.94v-9.92Z"/>
      <path class="cls-8" d="m9.61,94.37l1.69-2.02c.93.81,2.13,1.36,3.2,1.36,1.23,0,1.83-.48,1.83-1.26,0-.82-.74-1.08-1.88-1.55l-1.69-.72c-1.35-.55-2.63-1.66-2.63-3.55,0-2.16,1.93-3.89,4.64-3.89,1.5,0,3.07.59,4.19,1.71l-1.49,1.86c-.86-.66-1.68-1.02-2.71-1.02s-1.66.42-1.66,1.17c0,.8.85,1.09,1.99,1.54l1.66.67c1.59.64,2.59,1.7,2.59,3.55,0,2.17-1.81,4.04-4.91,4.04-1.7,0-3.5-.64-4.83-1.88Z"/>
      <path class="cls-8" d="m21.16,92.4v-4.01h-1.36v-2.19l1.52-.11.34-2.64h2.43v2.64h2.38v2.31h-2.38v3.97c0,1.12.51,1.58,1.29,1.58.33,0,.68-.09.94-.19l.46,2.14c-.53.17-1.24.36-2.21.36-2.45,0-3.43-1.55-3.43-3.85Z"/>
      <path class="cls-8" d="m27.49,91.05c0-3.3,2.32-5.21,4.83-5.21s4.83,1.91,4.83,5.21-2.32,5.2-4.83,5.2-4.83-1.91-4.83-5.2Zm6.65,0c0-1.72-.6-2.83-1.82-2.83s-1.82,1.12-1.82,2.83.6,2.83,1.82,2.83,1.82-1.11,1.82-2.83Z"/>
      <path class="cls-8" d="m39.17,86.09h2.4l.21,1.73h.07c.72-1.33,1.81-1.97,2.82-1.97.57,0,.9.07,1.18.2l-.49,2.54c-.35-.09-.65-.16-1.07-.16-.75,0-1.66.48-2.19,1.84v5.75h-2.94v-9.92Z"/>
      <path class="cls-8" d="m46.35,91.05c0-3.22,2.3-5.21,4.68-5.21,2.83,0,4.23,2.05,4.23,4.76,0,.53-.07,1.06-.12,1.3h-5.94c.26,1.44,1.25,2.1,2.57,2.1.75,0,1.43-.23,2.15-.65l.97,1.77c-1.02.7-2.34,1.12-3.52,1.12-2.83,0-5.02-1.91-5.02-5.2Zm6.4-1.09c0-1.09-.48-1.88-1.65-1.88-.93,0-1.73.62-1.93,1.88h3.58Z"/>
    </g>
  </g>
</svg>